<svg id="Layer_1" enable-background="new 0 0 512 512" height="512" viewBox="0 0 512 512" width="512" xmlns="http://www.w3.org/2000/svg"><g><path d="m507.314 131.314c6.249-6.248 6.249-16.379 0-22.627l-104-104c-6.248-6.249-16.379-6.249-22.627 0l-144.687 144.686-128.686-128.686c-6.248-6.249-16.379-6.249-22.627 0l-64 64c-6.249 6.248-6.249 16.379 0 22.627l128.686 128.686-144.686 144.687c-6.249 6.248-6.249 16.379 0 22.627l104 104c6.247 6.248 16.379 6.249 22.627 0l144.686-144.687 99.307 99.307c5.273 5.273 7.386 8.112 12.483 9.502 96.871 26.419 89.228 24.564 92.209 24.564 10.548 0 18.209-10.046 15.437-20.21l-24-88c-.732-2.686-2.153-5.135-4.123-7.104-15.95-15.95-93.137-93.137-104.686-104.686zm-411.314-76.686 326.09 326.09c-17.484 9.531-31.842 23.889-41.373 41.373l-326.089-326.091zm136 306.745-12.686-12.686c-6.248-6.249-16.379-6.249-22.627 0-6.249 6.248-6.249 16.379 0 22.627l12.686 12.686-25.373 25.373-12.686-12.686c-6.248-6.249-16.379-6.249-22.627 0-6.249 6.248-6.249 16.379 0 22.627l12.686 12.686-41.373 41.373-81.372-81.373 133.372-133.373 81.373 81.373zm173.963 81.851c7.246-16.705 20.556-30.015 37.261-37.261l13.973 51.233zm-147.336-271.224 133.373-133.372 81.373 81.372-41.373 41.373-12.686-12.686c-6.248-6.249-16.379-6.249-22.627 0-6.249 6.248-6.249 16.379 0 22.627l12.686 12.686-25.373 25.373-12.686-12.686c-6.248-6.249-16.379-6.249-22.627 0-6.249 6.248-6.249 16.379 0 22.627l12.686 12.686-21.373 21.373z"/></g></svg>