<svg id="Layer_1" enable-background="new 0 0 512 512" height="512" viewBox="0 0 512 512" width="512" xmlns="http://www.w3.org/2000/svg"><g><path d="m496 272h-48v-24c0-80.438-49.728-149.47-120.051-177.999-1.065-38.778-32.918-70.001-71.949-70.001s-70.884 31.223-71.949 70.001c-70.323 28.529-120.051 97.561-120.051 177.999v24h-48c-8.836 0-16 7.164-16 16v104c0 38.791 27.756 71.211 64.448 78.47 3.171 23.417 23.28 41.53 47.552 41.53h288c24.271 0 44.38-18.113 47.552-41.53 36.692-7.259 64.448-39.679 64.448-78.47v-104c0-8.836-7.163-16-16-16zm-240-240c17.802 0 32.92 11.693 38.091 27.801-24.252-4.901-50.28-5.234-76.182 0 5.171-16.107 20.288-27.801 38.091-27.801zm-224 360v-88h32v133.258c-18.625-6.603-32-24.398-32-45.258zm384 72c0 8.822-7.178 16-16 16h-288c-8.822 0-16-7.178-16-16 0-11.374 0-207.933 0-216 0-88.224 71.776-160 160-160 88.225 0 160 71.776 160 160zm64-72c0 20.86-13.375 38.655-32 45.258v-133.258h32z"/><path d="m256 112c-74.991 0-136 61.009-136 136 0 8.836 7.164 16 16 16s16-7.164 16-16c0-57.346 46.654-104 104-104s104 46.654 104 104c0 8.836 7.163 16 16 16s16-7.164 16-16c0-74.991-61.01-136-136-136z"/><path d="m336 304h-160c-26.467 0-48 21.533-48 48v56c0 26.467 21.533 48 48 48h160c26.467 0 48-21.533 48-48v-56c0-26.467-21.533-48-48-48zm16 104c0 8.822-7.178 16-16 16h-160c-8.822 0-16-7.178-16-16v-56c0-8.822 7.178-16 16-16h160c8.822 0 16 7.178 16 16z"/></g></svg>