<svg id="Layer_1" enable-background="new 0 0 512 512" height="512" viewBox="0 0 512 512" width="512" xmlns="http://www.w3.org/2000/svg"><g><path d="m408 56h-304c-8.837 0-16 7.164-16 16v128c0 8.836 7.163 16 16 16h304c8.837 0 16-7.164 16-16v-128c0-8.836-7.163-16-16-16zm-16 128h-272v-96h272z"/><path d="m440 0h-368c-26.468 0-48 21.533-48 48v416c0 26.467 21.532 48 48 48h368c26.468 0 48-21.533 48-48v-416c0-26.467-21.532-48-48-48zm16 464c0 8.822-7.178 16-16 16h-368c-8.822 0-16-7.178-16-16v-416c0-8.822 7.178-16 16-16h368c8.822 0 16 7.178 16 16z"/><path d="m168 240h-64c-8.837 0-16 7.164-16 16v64c0 8.836 7.163 16 16 16h64c8.837 0 16-7.164 16-16v-64c0-8.836-7.163-16-16-16zm-16 64h-32v-32h32z"/><path d="m288 240h-64c-8.837 0-16 7.164-16 16v64c0 8.836 7.163 16 16 16h64c8.837 0 16-7.164 16-16v-64c0-8.836-7.163-16-16-16zm-16 64h-32v-32h32z"/><path d="m168 360h-64c-8.837 0-16 7.164-16 16v64c0 8.836 7.163 16 16 16h64c8.837 0 16-7.164 16-16v-64c0-8.836-7.163-16-16-16zm-16 64h-32v-32h32z"/><path d="m288 360h-64c-8.837 0-16 7.164-16 16v64c0 8.836 7.163 16 16 16h64c8.837 0 16-7.164 16-16v-64c0-8.836-7.163-16-16-16zm-16 64h-32v-32h32z"/><path d="m408 240h-64c-8.837 0-16 7.164-16 16v184c0 8.836 7.163 16 16 16h64c8.837 0 16-7.164 16-16v-184c0-8.836-7.163-16-16-16zm-16 184h-32v-152h32z"/></g></svg>