<svg id="Layer_1" enable-background="new 0 0 512.004 512.004" height="512" viewBox="0 0 512.004 512.004" width="512" xmlns="http://www.w3.org/2000/svg"><g><path d="m496.002 304h-16v-288c0-8.836-7.163-16-16-16h-416c-8.837 0-16 7.164-16 16v288h-16c-8.837 0-16 7.164-16 16v64c0 8.836 7.163 16 16 16h58.788l-26.173 91.604c-2.913 10.198 4.743 20.399 15.393 20.399 6.963 0 13.369-4.581 15.377-11.608l8.113-28.395h337.004l8.113 28.396c2.43 8.5 11.289 13.416 19.78 10.989 8.497-2.427 13.416-11.283 10.989-19.78l-26.172-91.605h58.788c8.837 0 16-7.164 16-16v-64c0-8.836-7.163-16-16-16zm-432-272h384v272h-32v-16c0-26.467-21.532-48-48-48h-48c-26.468 0-48 21.533-48 48v16h-208zm320 272h-80v-16c0-8.822 7.178-16 16-16h48c8.822 0 16 7.178 16 16zm31.36 136h-318.719l11.429-40h295.861zm64.64-72c-18.603 0 104.651 0-448 0v-32h448z"/><path d="m304.002 160c0-33.101-32.872-56.287-64-45.248v-42.752c0-8.836-7.163-16-16-16s-16 7.164-16 16v120c0 14.265 17.314 21.321 27.318 11.309 31.682 15.191 68.682-8.025 68.682-43.309zm-48-16c8.822 0 16 7.178 16 16s-7.178 16-16 16-16-7.178-16-16 7.178-16 16-16z"/><path d="m156.684 116.691c-31.682-15.191-68.682 8.025-68.682 43.309 0 35.292 37.011 58.495 68.682 43.309 10.003 10.011 27.318 2.956 27.318-11.309v-64c0-14.265-17.314-21.321-27.318-11.309zm-20.682 59.309c-8.822 0-16-7.178-16-16s7.178-16 16-16 16 7.178 16 16-7.178 16-16 16z"/><path d="m409.943 193.941c6.249-6.249 6.248-16.379 0-22.627s-16.379-6.248-22.627 0c-9.99 9.988-27.313 2.982-27.313-11.314 0-14.328 17.339-21.287 27.313-11.314 6.248 6.249 16.379 6.249 22.627 0s6.249-16.379 0-22.627c-29.96-29.961-81.94-8.958-81.94 33.941-.001 42.976 52.017 63.865 81.94 33.941z"/></g></svg>