<svg id="Layer_1" enable-background="new 0 0 512.167 512.167" height="512" viewBox="0 0 512.167 512.167" width="512" xmlns="http://www.w3.org/2000/svg"><g><path d="m512.038 104.081c0-6.294-3.68-11.881-9.206-14.473-1.698-.797-274.085-88.804-274.359-88.883-3.281-.951-6.849-.86-10.178.422-222.914 85.721-208.953 80.196-211.039 81.565-3.493 2.295-5.876 5.823-6.79 9.703-.749 3.162-.377 316.889-.352 317.158.434 4.714 3.063 9.194 7.044 11.808 2.65 1.778-13.388-3.688 275.955 89.923 1.866.608 4.017.902 6.218.723 3.483-.284-9.067 4.187 212.451-81.012 3.568-1.37 6.941-4.233 8.767-8.216 2.266-4.896 1.489 16.134 1.489-318.718zm-448.044-9.302 160.505-61.733 223.584 72.336-160.505 61.733zm240.044 100.291 176-67.692v277.715l-176 67.692zm-272 201.371v-278.367l176.295 57.037c2.374 12.387 17.49 17.229 26.649 8.622l37.056 11.989v135.317c-12.815 5.606-12.725 23.766 0 29.303v113.746z"/><path d="m392.158 365.661c-8.4-2.72-17.42 1.89-20.14 10.29-2.72 8.41 1.89 17.43 10.29 20.15 8.347 2.697 17.41-1.82 20.15-10.29 2.72-8.41-1.89-17.43-10.3-20.15z"/><path d="m337.758 348.061c-8.4-2.72-17.42 1.89-20.14 10.29-2.72 8.41 1.89 17.43 10.29 20.15 8.409 2.716 17.428-1.874 20.15-10.3 2.72-8.4-1.89-17.421-10.3-20.14z"/><path d="m446.568 383.26c-8.41-2.72-17.43 1.89-20.15 10.3-2.72 8.4 1.89 17.42 10.29 20.14 8.419 2.719 17.433-1.888 20.15-10.3 2.72-8.399-1.89-17.419-10.29-20.14z"/><circle cx="224.038" cy="276.081" r="16"/><circle cx="224.038" cy="224.081" r="16"/><circle cx="224.038" cy="120.081" r="16"/><circle cx="224.038" cy="68.081" r="16"/><path d="m114.298 353.151c-8.25 3.17-12.37 12.43-9.19 20.67 2.44 6.36 8.5 10.26 14.93 10.26 11.151 0 18.976-11.221 14.93-21.74-3.17-8.25-12.43-12.371-20.67-9.19z"/><path d="m62.298 373.151c-8.25 3.17-12.37 12.43-9.19 20.67 2.44 6.36 8.5 10.26 14.93 10.26 11.151 0 18.976-11.221 14.93-21.74-3.17-8.25-12.43-12.371-20.67-9.19z"/><path d="m166.298 333.151c-8.25 3.17-12.37 12.43-9.19 20.67 2.44 6.36 8.51 10.26 14.93 10.26 11.151 0 18.976-11.221 14.93-21.74-3.17-8.25-12.43-12.371-20.67-9.19z"/><path d="m239.728 324.951c-2.097-9.74-11.589-14.794-20.34-12.17-8.567 2.631-13.173 11.534-10.65 19.95 2.574 8.409 11.39 13.216 19.95 10.65 7.876-2.411 12.611-10.279 11.04-18.43z"/></g></svg>