<svg id="Layer_1" enable-background="new 0 0 512 512" height="512" viewBox="0 0 512 512" width="512" xmlns="http://www.w3.org/2000/svg"><g><path d="m496 104h-40v-32c0-8.836-7.163-16-16-16h-136c-19.102 0-36.263 8.422-48 21.736-11.737-13.314-28.899-21.736-48-21.736h-136c-8.836 0-16 7.164-16 16v32h-40c-8.836 0-16 7.164-16 16v320c0 8.836 7.164 16 16 16h480c8.837 0 16-7.164 16-16v-320c0-8.836-7.163-16-16-16zm-192-16h120v288h-120c-11.648 0-22.581 3.129-32 8.589v-264.589c0-17.645 14.355-32 32-32zm-216 0h120c17.645 0 32 14.355 32 32v264.589c-9.419-5.46-20.352-8.589-32-8.589h-120zm-56 48h24v256c0 8.836 7.164 16 16 16h136c11.818 0 22.153 6.445 27.695 16h-203.695zm448 288h-203.695c5.542-9.555 15.877-16 27.695-16h136c8.837 0 16-7.164 16-16v-256h24z"/><path d="m128 152h72c8.836 0 16-7.164 16-16s-7.164-16-16-16h-72c-8.836 0-16 7.164-16 16s7.164 16 16 16z"/><path d="m128 216h72c8.836 0 16-7.164 16-16s-7.164-16-16-16h-72c-8.836 0-16 7.164-16 16s7.164 16 16 16z"/><path d="m128 280h72c8.836 0 16-7.164 16-16s-7.164-16-16-16h-72c-8.836 0-16 7.164-16 16s7.164 16 16 16z"/><path d="m128 344h72c8.836 0 16-7.164 16-16s-7.164-16-16-16h-72c-8.836 0-16 7.164-16 16s7.164 16 16 16z"/><path d="m312 152h72c8.837 0 16-7.164 16-16s-7.163-16-16-16h-72c-8.837 0-16 7.164-16 16s7.163 16 16 16z"/><path d="m312 216h72c8.837 0 16-7.164 16-16s-7.163-16-16-16h-72c-8.837 0-16 7.164-16 16s7.163 16 16 16z"/><path d="m312 280h72c8.837 0 16-7.164 16-16s-7.163-16-16-16h-72c-8.837 0-16 7.164-16 16s7.163 16 16 16z"/><path d="m312 344h72c8.837 0 16-7.164 16-16s-7.163-16-16-16h-72c-8.837 0-16 7.164-16 16s7.163 16 16 16z"/></g></svg>