<svg id="Layer_1" enable-background="new 0 0 512 512" height="512" viewBox="0 0 512 512" width="512" xmlns="http://www.w3.org/2000/svg"><g><path d="m256 232c-26.467 0-48 21.533-48 48s21.533 48 48 48 48-21.533 48-48-21.533-48-48-48zm0 64c-8.822 0-16-7.178-16-16s7.178-16 16-16 16 7.178 16 16-7.178 16-16 16z"/><path d="m496 480h-8v-144h8c5.545 0 10.695-2.871 13.61-7.588 2.916-4.717 3.18-10.607.701-15.567l-64-128c-2.71-5.421-8.25-8.845-14.311-8.845h-110.155l-49.845-46.913v-33.087h64c8.836 0 16-7.164 16-16v-64c0-8.836-7.164-16-16-16h-80c-8.836 0-16 7.164-16 16v64 49.087l-49.845 46.913h-110.155c-6.061 0-11.601 3.424-14.311 8.845l-64 128c-2.479 4.959-2.215 10.85.701 15.567 2.915 4.717 8.065 7.588 13.61 7.588h8v144h-8c-8.836 0-16 7.164-16 16s7.164 16 16 16h480c8.836 0 16-7.164 16-16s-7.164-16-16-16zm-40 0h-80v-144h80zm-33.889-272 48 96h-94.111v-33.087l5.034 4.738c3.09 2.908 7.03 4.349 10.963 4.349 4.257 0 8.506-1.689 11.654-5.034 6.056-6.435 5.75-16.561-.686-22.617l-47.12-44.349zm-102.111-144h-48v-32h48zm-230.111 144h66.266l-47.12 44.349c-6.435 6.057-6.742 16.183-.686 22.617 6.057 6.436 16.183 6.741 22.617.686l5.034-4.738v33.086h-94.111zm-33.889 128h80v144h-80zm176 144v-64h48v64zm80 0v-80c0-8.836-7.164-16-16-16h-80c-8.836 0-16 7.164-16 16v80h-32v-239.204l88-82.823 88 82.823v239.204z"/><path d="m408 400h16c8.836 0 16-7.164 16-16s-7.164-16-16-16h-16c-8.836 0-16 7.164-16 16s7.164 16 16 16z"/><path d="m424 424h-16c-8.836 0-16 7.164-16 16s7.164 16 16 16h16c8.836 0 16-7.164 16-16s-7.164-16-16-16z"/><path d="m88 400h15c8.836 0 16-7.164 16-16s-7.164-16-16-16h-15c-8.836 0-16 7.164-16 16s7.164 16 16 16z"/><path d="m103 424h-15c-8.836 0-16 7.164-16 16s7.164 16 16 16h15c8.836 0 16-7.164 16-16s-7.164-16-16-16z"/></g></svg>