<svg id="Layer_1" enable-background="new 0 0 512 512" height="512" viewBox="0 0 512 512" width="512" xmlns="http://www.w3.org/2000/svg"><g><path d="m437.02 74.981c0-.001 0-.001 0 0-48.353-48.353-112.64-74.981-181.02-74.981s-132.667 26.628-181.02 74.981c-48.352 48.352-74.98 112.639-74.98 181.019s26.628 132.667 74.98 181.02 112.64 74.98 181.02 74.98 132.667-26.628 181.02-74.981c48.352-48.352 74.98-112.639 74.98-181.019s-26.628-132.667-74.98-181.019zm-22.627 22.627c28.69 28.691 47.954 63.292 57.795 99.92-15.225-13.552-31.259-24.165-46.874-30.774-43.166-18.26-77.497-15.666-107.785-13.376-28.22 2.133-49.874 3.76-72.689-12.341 44.576-30.46 95.499-51.673 148.698-61.849 7.235 5.636 14.206 11.771 20.855 18.42zm-161.454 382.251c-26.232-19.906-47.271-44.703-56.714-67.012-15.237-36.023-13.052-64.941-10.938-92.907 2.478-32.787 5.028-66.6-24.385-101.695 5.165-6.337 10.561-12.536 16.136-18.578l225.632 225.63c-42.765 37.1-96.35 55.284-149.731 54.562zm-218.835-193.983c15.45-38.454 37.579-64.949 58.246-69.504 8.475-1.87 16.943-.038 25.644 5.548-28.418 40.36-49.728 85.726-62.77 133.443-10.897-22.065-17.927-45.566-21.12-69.487zm51.357-100.754c-18.019 3.972-35.266 16.084-50.451 34.846 6.448-39.886 23.678-78.346 51.692-110.637l67.69 67.689c-5.861 6.315-11.528 12.799-16.975 19.417-20.427-13.934-39.025-14.165-51.956-11.315zm23.869-98.419c32.297-28.019 70.765-45.25 110.658-51.696-18.848 15.252-30.986 32.577-34.911 50.639-2.801 12.888-2.524 31.418 11.359 51.771-6.618 5.448-13.103 11.114-19.417 16.975zm107.018 5.738c4.484-20.635 31.05-42.865 69.544-58.334 23.915 3.193 47.412 10.223 69.472 21.118-47.72 13.041-93.09 34.353-133.446 62.77-5.568-8.67-7.406-17.107-5.57-25.554zm-137.163 301.095c10.18-53.198 31.39-104.115 61.853-148.696 16.101 22.814 14.474 44.467 12.34 72.688-2.289 30.289-4.884 64.618 13.378 107.788 6.611 15.619 17.219 31.65 30.766 46.869-36.626-9.841-71.225-29.105-99.915-57.794-6.649-6.648-12.785-13.619-18.422-20.855zm346.113 9.134-225.631-225.63c6.042-5.575 12.241-10.971 18.579-16.137 35.094 29.412 68.908 26.864 101.694 24.384 27.967-2.112 56.884-4.299 92.905 10.938 22.297 9.436 47.106 30.483 67.014 56.713.723 53.381-17.461 106.967-54.561 149.732z"/></g></svg>