<svg id="Layer_1" enable-background="new 0 0 512.021 512.021" height="512" viewBox="0 0 512.021 512.021" width="512" xmlns="http://www.w3.org/2000/svg"><g><path d="m486.836 2.913-480 336c-12.78 8.947-6.421 29.108 9.176 29.108h480c8.837 0 16-7.164 16-16v-336c0-12.912-14.576-20.527-25.176-13.108zm-6.824 333.108h-32v-8c0-8.836-7.163-16-16-16s-16 7.164-16 16v8h-32v-8c0-8.836-7.163-16-16-16s-16 7.164-16 16v8h-32v-8c0-8.836-7.163-16-16-16s-16 7.164-16 16v8h-32v-8c0-8.836-7.163-16-16-16s-16 7.164-16 16v8h-32v-8c0-8.836-7.163-16-16-16s-16 7.164-16 16v8h-93.242l413.242-289.27z"/><path d="m269.801 288.021h146.211c8.837 0 16-7.164 16-16v-102.348c0-12.87-14.533-20.557-25.176-13.108l-146.211 102.348c-12.78 8.947-6.421 29.108 9.176 29.108zm130.211-87.617v55.617h-79.453z"/><path d="m.012 16.021v128c0 26.468 21.533 48 48 48h32c26.467 0 48-21.532 48-48v-128c0-8.837-7.164-16-16-16h-96c-8.837 0-16 7.163-16 16zm80 144h-32c-8.822 0-16-7.178-16-16v-16h64v16c0 8.822-7.178 16-16 16zm16-128v64h-64v-64z"/><path d="m472.012 512.021h-392c-2.748 0-5.449-.708-7.844-2.055l-56-31.5c-5.005-2.815-8.117-8.096-8.156-13.837-.038-5.742 3.003-11.064 7.969-13.946l56-32.5c2.439-1.416 5.211-2.162 8.031-2.162h392c8.837 0 16 7.164 16 16v64c0 8.836-7.163 16-16 16zm-387.809-32h371.809v-32h-371.694l-28.057 16.283z"/></g></svg>