<svg id="Layer_1" enable-background="new 0 0 512 512" height="512" viewBox="0 0 512 512" width="512" xmlns="http://www.w3.org/2000/svg"><g><path d="m496 96c8.836 0 16-7.164 16-16v-64c0-8.836-7.164-16-16-16h-480c-8.836 0-16 7.164-16 16v64c0 8.836 7.164 16 16 16h8v288h-8c-8.836 0-16 7.164-16 16s7.164 16 16 16h224v54.131c-16.323 14.631-6.016 41.869 16 41.869 22.006 0 32.329-27.233 16-41.869v-54.131h224c8.836 0 16-7.164 16-16s-7.164-16-16-16h-8v-288zm-464-64h448v32c-21.615 0-424.91 0-448 0zm424 352h-400v-288h400z"/><path d="m112.495 218.11 45.219 19.595v52.581c0 18.281 11.482 34.728 32.33 46.311 59.833 33.241 164.241 10.349 164.241-46.311v-52.581l45.219-19.595c12.824-5.558 12.827-23.804 0-29.362l-137.143-59.428c-4.059-1.759-8.665-1.759-12.724 0l-137.143 59.428c-12.823 5.557-12.826 23.803.001 29.362zm209.791 72.176c0 12.115-25.823 29.714-66.286 29.714s-66.286-17.599-66.286-29.714v-38.714l59.924 25.967c4.057 1.758 8.665 1.759 12.724 0l59.924-25.967zm-66.286-128.848 96.902 41.991c-172.287 74.657-53.369 23.126-96.902 41.991-34.495-14.948-57.034-24.714-96.902-41.991z"/></g></svg>