<svg id="Layer_1" enable-background="new 0 0 512 512" height="512" viewBox="0 0 512 512" width="512" xmlns="http://www.w3.org/2000/svg"><g><path d="m465.401 408.688-145.401-174.481v-202.207c8.837 0 16-7.164 16-16s-7.163-16-16-16c-39.117 0-88.62 0-128 0-8.836 0-16 7.164-16 16s7.164 16 16 16v202.207c-223.449 268.14-106.355 127.626-145.401 174.481-33.801 40.563-5.291 103.312 48.389 103.312h322.024c53.616 0 82.217-62.719 48.389-103.312zm-245.11-158.445c2.396-2.875 3.708-6.5 3.708-10.243v-208h64v32h-8c-8.837 0-16 7.164-16 16s7.163 16 16 16h8v32h-8c-8.837 0-16 7.164-16 16s7.163 16 16 16h8v32h-8c-8.837 0-16 7.164-16 16s7.163 16 16 16h8v16c0 3.743 1.313 7.368 3.709 10.243l33.926 40.711c-21.772-3.04-48.702-1.343-77.573 15.154-14.48 8.274-39.402 15.165-78.901 5.492zm196.721 229.757h-322.024c-26.377 0-40.448-30.855-23.806-50.826l75.5-90.6c38.632 12.328 82.046 15.436 117.257-4.683 42.986-24.562 78.411-5.292 97.99.614l78.89 94.668c16.627 19.957 2.601 50.827-23.807 50.827z"/></g></svg>