<svg id="Layer_1" enable-background="new 0 0 512 512" height="512" viewBox="0 0 512 512" width="512" xmlns="http://www.w3.org/2000/svg"><g><path d="m390.372 334.392c83.716-83.715 87.377-217.076 10.913-305.07l2.009-2.009c6.249-6.248 6.249-16.379 0-22.627-6.248-6.248-16.379-6.249-22.627 0-13.497 13.497-28.142 28.142-41.748 41.748-65.93-54.496-164.039-50.915-225.726 10.765-.002.002-.005.004-.007.006-61.694 61.695-65.264 159.81-10.772 225.734-12.205 12.205-22.536 22.536-41.748 41.748-6.249 6.248-6.249 16.379 0 22.627 6.248 6.248 16.379 6.249 22.627 0l2.009-2.009c41.458 36.026 95.606 56.6 154.677 54.54v80.155h-72c-8.837 0-16 7.164-16 16s7.163 16 16 16h176c8.837 0 16-7.164 16-16s-7.163-16-16-16h-72v-83.552c44.609-7.996 85.672-29.335 118.393-62.056zm-62.226-254.558c2.945 2.944 5.335 15.399-6.693 41.461-10.736 23.262-28.713 48.402-50.024 71.526l-56.27-56.27c23.124-21.311 48.264-39.288 71.526-50.024 15.05-6.946 25.56-9.083 32.324-9.083 4.95 0 7.893 1.145 9.137 2.39zm-79.345 135.615c-23.124 21.311-48.264 39.288-71.526 50.024-26.061 12.029-38.517 9.639-41.461 6.694-2.945-2.944-5.335-15.399 6.693-41.461 10.736-23.262 28.713-48.402 50.024-71.526zm22.568 22.567 44.795 44.795c-40.152 31.693-94.179 37.512-139.429 17.458 33.687-12.087 68.39-37.883 94.634-62.253zm67.423 22.168-44.795-44.795c24.563-26.453 50.208-61.073 62.248-94.646 20.06 45.253 14.242 99.286-17.453 139.441zm-51.556-208.448c-33.6 12.049-68.189 37.682-94.644 62.247l-44.795-44.795c39.85-31.456 93.791-37.686 139.439-17.452zm-162.067 40.08 44.795 44.795c-24.563 26.453-50.208 61.073-62.248 94.646-20.061-45.253-14.242-99.286 17.453-139.441zm-17.169 230.791 17.042-17.042c65.767 54.363 163.882 51.078 225.733-10.771 61.693-61.691 65.265-159.808 10.772-225.733l17.041-17.042c63.03 74.286 61.376 187.525-10.842 259.745-72.202 72.201-185.435 73.895-259.746 10.843z"/></g></svg>