<svg id="Layer_1" enable-background="new 0 0 512 512" height="512" viewBox="0 0 512 512" width="512" xmlns="http://www.w3.org/2000/svg"><g><path d="m483.27 369.627c3.028-6.591 4.73-13.912 4.73-21.627v-268c0-26.467-21.533-48-48-48h-368c-26.467 0-48 21.533-48 48v268c0 7.715 1.702 15.037 4.73 21.627-16.585 4.88-28.73 20.23-28.73 38.373v20c0 28.673 23.327 52 52 52h408c28.673 0 52-23.327 52-52v-20c0-18.143-12.145-33.493-28.73-38.373zm-427.27-289.627c0-8.822 7.178-16 16-16h368c8.822 0 16 7.178 16 16v268c0 11.028-8.972 20-20 20h-116c-4.244 0-8.313 1.686-11.314 4.686l-11.313 11.314h-82.745l-11.313-11.314c-3.008-3.006-7.08-4.686-11.315-4.686h-116c-11.028 0-20-8.972-20-20zm424 348c0 11.028-8.972 20-20 20h-408c-11.028 0-20-8.972-20-20v-20c0-4.411 3.589-8 8-8h145.373l11.313 11.314c3.001 3 7.07 4.686 11.314 4.686h96c4.234 0 8.307-1.679 11.314-4.686l11.313-11.314h145.373c4.411 0 8 3.589 8 8z"/><path d="m88 352h336c8.836 0 16-7.164 16-16v-240c0-8.836-7.164-16-16-16h-336c-8.836 0-16 7.164-16 16v240c0 8.836 7.164 16 16 16zm16-240h304v208h-304z"/></g></svg>