<svg id="Layer_1" enable-background="new 0 0 512 512" height="512" viewBox="0 0 512 512" width="512" xmlns="http://www.w3.org/2000/svg"><g><path d="m464 240h-74.752c1.776-5.008 2.752-10.391 2.752-16v-176c0-26.467-21.532-48-48-48h-176c-26.467 0-48 21.533-48 48v176c0 5.609.976 10.992 2.752 16h-74.752c-26.467 0-48 21.533-48 48v176c0 26.467 21.533 48 48 48h176c12.284 0 23.501-4.644 32-12.261 8.499 7.617 19.715 12.261 32 12.261h176c26.468 0 48-21.533 48-48v-176c0-26.467-21.532-48-48-48zm-312-16v-176c0-8.822 7.178-16 16-16h176c8.822 0 16 7.178 16 16v176c0 8.822-7.178 16-16 16-16.11 0-154.474 0-176 0-8.822 0-16-7.178-16-16zm72 256h-176c-8.822 0-16-7.178-16-16v-176c0-8.822 7.178-16 16-16h176c8.822 0 16 7.178 16 16v176c0 8.822-7.178 16-16 16zm256-16c0 8.822-7.178 16-16 16h-176c-8.822 0-16-7.178-16-16v-176c0-8.822 7.178-16 16-16h176c8.822 0 16 7.178 16 16z"/><path d="m380 312h-32c-8.837 0-16 7.164-16 16s7.163 16 16 16h32c4.411 0 8 3.589 8 8s-3.589 8-8 8h-16c-8.837 0-16 7.164-16 16s7.163 16 16 16h16c4.411 0 8 3.589 8 8s-3.589 8-8 8h-32c-8.837 0-16 7.164-16 16s7.163 16 16 16h32c33.068 0 51.604-37.916 31.978-64 19.65-26.116 1.059-64-31.978-64z"/><path d="m180 356c0-24.262-19.738-44-44-44s-44 19.738-44 44c0 8.836 7.164 16 16 16s16-7.164 16-16c0-6.617 5.383-12 12-12s12 5.383 12 12c0 7.368-3.579 14.323-9.574 18.605l-39.726 28.375c-4.205 3.003-6.7 7.853-6.7 13.02v8c0 8.836 7.164 16 16 16h56c8.836 0 16-7.164 16-16s-7.164-16-16-16h-17.272l10.298-7.356c14.385-10.275 22.974-26.965 22.974-44.644z"/><path d="m248 104v80c0 8.836 7.164 16 16 16 8.837 0 16-7.164 16-16v-96c0-8.836-7.163-16-16-16h-16c-8.836 0-16 7.164-16 16s7.164 16 16 16z"/></g></svg>