<svg id="Layer_1" enable-background="new 0 0 512.16 512.16" height="512" viewBox="0 0 512.16 512.16" width="512" xmlns="http://www.w3.org/2000/svg"><g><path d="m332.357 256.529c77.282-65.801 124.231-136.59 123.722-240.607-.042-8.67-7.025-15.922-16.077-15.922-8.837.043-15.965 7.242-15.922 16.079.476 97.122-45.284 159.733-116.813 219.756-8.371-6.712-16.734-13.285-25.603-20.276 67.944-56.067 110.855-110.191 110.416-199.318-.044-8.81-7.198-15.921-15.998-15.921-8.889 0-16.045 7.231-16.002 16.079.041 8.273-.357 16.18-1.166 23.761h-205.663c-.805-7.583-1.211-15.485-1.17-23.763.044-8.836-7.084-16.035-15.921-16.079-9.058 0-16.036 7.257-16.079 15.921-.534 108.072 62.164 161.723 145.679 227.528 76.83 60.537 158.32 124.69 158.32 252.393 0 8.836 7.163 16 16 16s16-7.164 16-16c0-102.987-46.211-173.416-123.723-239.631zm20.256-184.369c-3.36 11.385-7.789 21.987-13.139 32h-166.834c-5.348-10.014-9.758-20.62-13.11-32zm-158.45 64h123.8c-17.029 20.915-38.262 39.764-61.887 58.993-23.72-19.297-44.929-38.145-61.913-58.993z"/><path d="m88.081 16.081c.044-8.838-7.102-16.079-16.002-16.079-8.799 0-15.954 7.111-15.998 15.921-.512 103.678 45.96 174.264 123.729 240.604-76.771 65.591-123.73 135.736-123.73 239.633 0 8.836 7.163 16 16 16s16-7.164 16-16c0-96.581 45.525-159.048 116.822-218.961 8.513 6.821 16.961 13.458 25.603 20.271-67.421 55.675-110.425 109.743-110.425 198.69 0 8.836 7.163 16 16 16s16-7.164 16-16c0-8.362.446-16.348 1.306-24h205.383c.858 7.655 1.312 15.636 1.312 24 0 8.836 7.163 16 16 16s16-7.164 16-16c-.001-229.009-305.237-230.478-304-480.079zm168.005 301.799c23.411 19.063 44.368 37.703 61.231 58.28h-122.478c16.917-20.649 37.915-39.281 61.247-58.28zm-96.225 122.28c3.422-11.389 7.907-21.99 13.308-32h165.835c5.405 10.015 9.88 20.619 13.299 32z"/></g></svg>