<?xml version="1.0" encoding="iso-8859-1"?>
<!-- Generator: Adobe Illustrator 19.0.0, SVG Export Plug-In . SVG Version: 6.00 Build 0)  -->
<svg version="1.1" id="Layer_1" xmlns="http://www.w3.org/2000/svg" xmlns:xlink="http://www.w3.org/1999/xlink" x="0px" y="0px"
	 viewBox="0 0 512.002 512.002" style="enable-background:new 0 0 512.002 512.002;" xml:space="preserve">
<g>
	<path style="fill:#123247;" d="M215.997,512.002c-2.048,0-4.096-0.784-5.656-2.344l-40-40c-1-1-1.712-2.232-2.072-3.592l-32-120
		c-0.736-2.76,0.056-5.704,2.072-7.72l40-40c3.128-3.128,8.184-3.128,11.312,0s3.128,8.184,0,11.312l-36.736,36.736l30.256,113.472
		l38.48,38.488c3.128,3.128,3.128,8.184,0,11.312C220.093,511.218,218.045,512.002,215.997,512.002z"/>
	<path style="fill:#123247;" d="M159.997,504.002c-2.048,0-4.096-0.784-5.656-2.344l-32-32c-1.096-1.096-1.848-2.488-2.168-4.008
		l-32-152c-0.664-3.136,0.616-6.368,3.24-8.2l80-56c3.632-2.536,8.608-1.648,11.144,1.968s1.656,8.6-1.968,11.144l-75.672,52.96
		l30.424,144.496l30.32,30.32c3.128,3.128,3.128,8.184,0,11.312C164.093,503.218,162.045,504.002,159.997,504.002z"/>
	<path style="fill:#123247;" d="M295.997,512.002c-2.048,0-4.096-0.784-5.656-2.344c-3.128-3.128-3.128-8.184,0-11.312
		l38.488-38.488l30.256-113.472l-36.744-36.736c-3.128-3.128-3.128-8.184,0-11.312c3.128-3.128,8.184-3.128,11.312,0l40,40
		c2.024,2.016,2.816,4.96,2.08,7.72l-32,120c-0.368,1.36-1.08,2.592-2.08,3.592l-40,40
		C300.093,511.218,298.045,512.002,295.997,512.002z"/>
	<path style="fill:#123247;" d="M351.997,504.002c-2.048,0-4.096-0.784-5.656-2.344c-3.128-3.128-3.128-8.184,0-11.312l30.32-30.32
		l30.424-144.496l-75.672-52.968c-3.616-2.536-4.496-7.52-1.968-11.144c2.536-3.616,7.52-4.504,11.144-1.968l80,56
		c2.632,1.832,3.904,5.072,3.24,8.2l-32,152c-0.32,1.52-1.072,2.912-2.168,4.008l-32,32
		C356.093,503.218,354.045,504.002,351.997,504.002z"/>
	<path style="fill:#123247;" d="M312.005,224.002c-2.256,0-4.496-0.952-6.08-2.8c-2.872-3.352-2.496-8.408,0.864-11.28l52.176-44.72
		L328.829,52.146l-38.488-38.488c-3.128-3.128-3.128-8.184,0-11.312c3.128-3.128,8.184-3.128,11.312,0l40,40
		c1,1,1.712,2.232,2.08,3.592l32,120c0.792,2.968-0.184,6.144-2.52,8.144l-56,48C315.701,223.37,313.845,224.002,312.005,224.002z"
		/>
	<path style="fill:#123247;" d="M336.005,264.002c-2.52,0-5-1.184-6.56-3.416c-2.528-3.616-1.648-8.6,1.968-11.144l75.672-52.968
		L376.661,51.978l-30.32-30.32c-3.128-3.128-3.128-8.184,0-11.312c3.128-3.128,8.184-3.128,11.312,0l32,32
		c1.104,1.096,1.848,2.488,2.168,4.008l32,152c0.664,3.136-0.608,6.368-3.24,8.2l-80,56
		C339.189,263.53,337.589,264.002,336.005,264.002z"/>
	<path style="fill:#123247;" d="M199.997,224.002c-1.84,0-3.696-0.632-5.2-1.92l-56-48c-2.336-2-3.32-5.168-2.52-8.144l32-120
		c0.36-1.36,1.08-2.592,2.072-3.592l40-40c3.128-3.128,8.184-3.128,11.312,0s3.128,8.184,0,11.312l-38.48,38.488l-30.16,113.056
		l52.176,44.72c3.352,2.872,3.744,7.928,0.864,11.28C204.493,223.05,202.245,224.002,199.997,224.002z"/>
	<path style="fill:#123247;" d="M175.989,264.002c-1.584,0-3.184-0.472-4.576-1.448l-80-56c-2.632-1.832-3.904-5.072-3.24-8.2
		l32-152c0.32-1.52,1.072-2.912,2.168-4.008l32-32c3.128-3.128,8.184-3.128,11.312,0c3.128,3.128,3.128,8.184,0,11.312l-30.32,30.32
		l-30.416,144.504l75.664,52.968c3.624,2.536,4.496,7.52,1.968,11.144C180.997,262.818,178.509,264.002,175.989,264.002z"/>
</g>
<path style="fill:#576D7E;" d="M296.389,201.874c4.792-7.472,7.608-16.344,7.608-25.872c0-26.504-21.496-48-48-48s-48,21.496-48,48
	c0,9.528,2.816,18.4,7.608,25.872c-28.264,14.64-47.608,44.096-47.608,78.128c0,48.608,39.392,88,88,88c48.6,0,88-39.4,88-88
	C343.997,245.97,324.653,216.514,296.389,201.874z"/>
<path style="fill:#35495C;" d="M305.061,206.938c9.432,14.016,14.936,30.896,14.936,49.064c0,48.6-39.4,88-88,88
	c-18.168,0-35.04-5.504-49.056-14.936c15.8,23.48,42.616,38.936,73.056,38.936c48.6,0,88-39.4,88-88
	C343.997,249.562,328.541,222.746,305.061,206.938z"/>
<g>
	<circle style="fill:#D6D9DB;" cx="239.997" cy="128.002" r="16"/>
	<circle style="fill:#D6D9DB;" cx="271.997" cy="128.002" r="16"/>
</g>
<g>
	<circle style="fill:#F15642;" cx="271.997" cy="128.002" r="8"/>
	<circle style="fill:#F15642;" cx="239.997" cy="128.002" r="8"/>
</g>
<g>
	<path style="fill:#FBAC43;" d="M263.997,192.41c-2.64-0.24-5.304-0.408-8-0.408s-5.36,0.168-8,0.408v175.184
		c2.64,0.24,5.304,0.408,8,0.408s5.36-0.168,8-0.408V192.41z"/>
	<circle style="fill:#FBAC43;" cx="255.997" cy="280.002" r="32"/>
</g>
<circle style="fill:#576D7E;" cx="255.997" cy="280.002" r="16"/>
<path style="fill:#35495C;" d="M255.997,192.002c14.536,0,28.224,3.584,40.304,9.832c2.496-3.888,4.528-8.12,5.832-12.672
	c-13.432-8.296-29.2-13.16-46.136-13.16s-32.704,4.864-46.128,13.16c1.296,4.552,3.328,8.784,5.824,12.672
	C227.773,195.586,241.461,192.002,255.997,192.002z"/>
<g>
</g>
<g>
</g>
<g>
</g>
<g>
</g>
<g>
</g>
<g>
</g>
<g>
</g>
<g>
</g>
<g>
</g>
<g>
</g>
<g>
</g>
<g>
</g>
<g>
</g>
<g>
</g>
<g>
</g>
</svg>
