<?xml version="1.0" encoding="iso-8859-1"?>
<!-- Generator: Adobe Illustrator 19.0.0, SVG Export Plug-In . SVG Version: 6.00 Build 0)  -->
<svg version="1.1" id="Layer_1" xmlns="http://www.w3.org/2000/svg" xmlns:xlink="http://www.w3.org/1999/xlink" x="0px" y="0px"
	 viewBox="0 0 512 512" style="enable-background:new 0 0 512 512;" xml:space="preserve">
<path style="fill:#6E421B;" d="M256,144c-8.832,0-16-7.168-16-16c0-44.112,35.888-80,80-80c8.832,0,16,7.168,16,16s-7.168,16-16,16
	c-26.472,0-48,21.528-48,48C272,136.832,264.832,144,256,144z"/>
<path style="fill:#E48225;" d="M304,112h-96c-24,0-40,48-40,48h176C344,160,328,112,304,112z"/>
<g>
	<path style="fill:#D57528;" d="M256,112v48h88c0,0-16-48-40-48H256z"/>
	<path style="fill:#D57528;" d="M376,128c-20.816,0-41.352,5.936-60,17.264c-37.296-22.656-82.704-22.656-120,0
		C177.352,133.936,156.816,128,136,128C61.008,128,0,203.36,0,296s61.008,168,136,168c20.816,0,41.352-5.936,60-17.264
		c37.296,22.656,82.704,22.656,120,0C334.648,458.064,355.184,464,376,464c74.992,0,136-75.36,136-168S450.992,128,376,128z"/>
</g>
<g>
	<path style="fill:#C66D24;" d="M121.6,439.472c-2.84,0.216-5.664,0.528-8.544,0.528c-26.896,0-51.92-9.824-73.056-26.528
		C64.704,444.608,99.064,464,137.056,464c9.408,0,18.592-1.184,27.48-3.456C149.08,456.616,134.664,449.28,121.6,439.472z"/>
	<path style="fill:#C66D24;" d="M449.056,154.528C473.112,184.84,488,226.296,488,272c0,76.176-41.288,140.576-97.656,161.088
		c-13.84,12.12-29.576,21.04-46.56,26.088C354.12,462.296,364.896,464,376,464c74.992,0,136-75.36,136-168
		C512,236.584,486.832,184.408,449.056,154.528z"/>
</g>
<path style="fill:#F79220;" d="M120,296c0-79,44.432-145.264,104-163.112c-10.28-3.072-20.96-4.888-32-4.888
	c-74.992,0-136,75.36-136,168s61.008,168,136,168c11.04,0,21.72-1.816,32-4.888C164.432,441.264,120,375,120,296z"/>
<path style="fill:#FBAC43;" d="M256,128c-74.992,0-136,75.36-136,168s61.008,168,136,168s136-75.36,136-168S330.992,128,256,128z"/>
<path style="fill:#F79220;" d="M312,128c-9.6,0-18.96,1.272-28,3.616c61.6,16,108,83.6,108,164.384s-46.4,148.392-108,164.384
	c9.04,2.352,18.4,3.616,28,3.616c74.992,0,136-75.36,136-168S386.992,128,312,128z"/>
<g>
	<path style="fill:#E48225;" d="M385.056,154.528C409.112,184.84,424,226.296,424,272c0,69.08-33.944,128.512-82.304,154.296
		c-16.496,16.584-36.168,28.496-57.728,34.096C293.016,462.752,302.392,464,312,464c74.992,0,136-75.36,136-168
		C448,236.584,422.832,184.408,385.056,154.528z"/>
	<path style="fill:#E48225;" d="M184.496,438.64C179.08,439.456,173.592,440,168,440c-26.896,0-51.92-9.824-73.056-26.528
		C119.648,444.608,154.008,464,192,464c11.04,0,21.72-1.816,32-4.888C209.832,454.856,196.552,447.888,184.496,438.64z"/>
</g>
<path style="fill:#F79D32;" d="M329.056,154.528C353.112,184.84,368,226.296,368,272c0,92.64-61.008,168-136,168
	c-26.896,0-51.92-9.824-73.056-26.528C183.648,444.608,218.008,464,256,464c74.992,0,136-75.36,136-168
	C392,236.584,366.832,184.408,329.056,154.528z"/>
<g>
	<polygon style="fill:#6E421B;" points="320,380.888 288,348.888 256,380.888 224,348.888 192,380.888 136,324.888 160,300.888 
		191.256,334.032 224,300.888 256,332.888 288,300.888 320,332.888 352,300.888 376,324.888 	"/>
	<polygon style="fill:#6E421B;" points="262.624,276.888 334.624,276.888 334.624,220.888 	"/>
	<polygon style="fill:#6E421B;" points="246.624,276.888 174.624,276.888 174.624,220.888 	"/>
</g>
<g>
	<polygon style="fill:#59340F;" points="246.624,276.888 174.624,220.888 174.624,236.888 	"/>
	<polygon style="fill:#59340F;" points="160,316.888 191.256,350.032 224,316.888 256,348.888 288,316.888 320,348.888 352,316.888 
		368,332.888 376,324.888 352,300.888 320,332.888 288,300.888 256,332.888 224,300.888 191.256,334.032 160,300.888 136,324.888 
		144,332.888 	"/>
</g>
<g>
</g>
<g>
</g>
<g>
</g>
<g>
</g>
<g>
</g>
<g>
</g>
<g>
</g>
<g>
</g>
<g>
</g>
<g>
</g>
<g>
</g>
<g>
</g>
<g>
</g>
<g>
</g>
<g>
</g>
</svg>
