<?xml version="1.0" encoding="iso-8859-1"?>
<!-- Generator: Adobe Illustrator 19.0.0, SVG Export Plug-In . SVG Version: 6.00 Build 0)  -->
<svg version="1.1" id="Layer_1" xmlns="http://www.w3.org/2000/svg" xmlns:xlink="http://www.w3.org/1999/xlink" x="0px" y="0px"
	 viewBox="0 0 511.996 511.996" style="enable-background:new 0 0 511.996 511.996;" xml:space="preserve">
<g>
	<path style="fill:#F7B84E;" d="M250.679,466.505c-1.168-1.576-3.008-2.512-4.96-2.512s-3.792,0.936-4.952,2.512
		c-2.656,3.608-25.904,25.344-25.904,45.487h61.711C276.566,491.848,253.319,470.121,250.679,466.505z"/>
	<path style="fill:#F7B84E;" d="M271.246,466.505c-1.16-1.576-3-2.512-4.96-2.512c-1.952,0-3.784,0.936-4.952,2.512
		c-2.648,3.608-25.904,25.344-25.904,45.487h61.711C297.15,491.848,273.886,470.121,271.246,466.505z"/>
</g>
<g>
	<path style="fill:#F79220;" d="M228.455,474.153c-0.776-1.352-2-2.16-3.304-2.16c-1.304,0-2.528,0.808-3.304,2.16
		c-1.768,3.096-17.272,20.584-17.272,37.839h41.143C245.719,494.736,230.215,477.241,228.455,474.153z"/>
	<path style="fill:#F79220;" d="M290.166,474.153c-0.776-1.352-2-2.16-3.312-2.16s-2.52,0.808-3.296,2.16
		c-1.776,3.096-17.272,20.584-17.272,37.839h41.143C307.43,494.736,291.926,477.241,290.166,474.153z"/>
</g>
<circle style="fill:#576D7E;" cx="255.999" cy="287.996" r="159.997"/>
<path style="fill:#35495C;" d="M334.31,148.542c25.824,28.424,41.687,66.031,41.687,107.454
	c0,88.367-71.631,159.997-159.997,159.997c-28.472,0-55.151-7.512-78.311-20.544c29.28,32.199,71.367,52.543,118.31,52.543
	c88.359,0,159.998-71.631,159.998-159.997C415.996,228.1,383.037,175.973,334.31,148.542z"/>
<path style="fill:#123247;" d="M408.004,511.992c-6.352,0-12.36-3.8-14.856-10.064l-27.984-69.935H146.832l-27.976,69.935
	c-3.288,8.216-12.6,12.2-20.8,8.92c-8.208-3.28-12.192-12.592-8.912-20.8l31.999-79.999c2.432-6.072,8.32-10.056,14.856-10.056
	h239.996c6.544,0,12.432,3.984,14.856,10.064l32,79.999c3.28,8.2-0.712,17.512-8.912,20.8
	C411.988,511.632,409.98,511.992,408.004,511.992z"/>
<g>
	<circle style="fill:#84BD5A;" cx="247.999" cy="127.998" r="47.999"/>
	<circle style="fill:#84BD5A;" cx="311.998" cy="143.998" r="32"/>
	<circle style="fill:#84BD5A;" cx="200" cy="143.998" r="32"/>
</g>
<path style="fill:#576D7E;" d="M383.997,159.997c0,8.808-7.192,16-16,16H144c-8.8,0-16-7.192-16-16v-16c0-8.8,7.2-16,16-16h223.996
	c8.808,0,16,7.2,16,16V159.997z"/>
<g>
	<rect x="184" y="127.998" style="fill:#748B9E;" width="24" height="47.999"/>
	<path style="fill:#748B9E;" d="M136.001,296.003c0,4.424,3.576,8,8,8c4.424,0,8-3.576,8-8c0-47.079,19.088-89.871,54.495-118.63
		c0.336-0.264,1.176-1.112,1.504-1.376h-24C152.72,207.229,136.001,250.012,136.001,296.003z"/>
</g>
<path style="fill:#35495C;" d="M367.997,127.998h-31.999v47.999h32.039c8.784-0.024,15.96-7.2,15.96-16v-16
	C383.997,135.198,376.805,127.998,367.997,127.998z"/>
<g>
	<path style="fill:#F15642;" d="M207.887,489.432c-0.784-0.896-2-1.44-3.312-1.44c-1.304,0-2.52,0.536-3.296,1.44
		c-1.776,2.064-17.28,11.056-17.28,22.56h41.143C225.151,500.488,209.647,491.496,207.887,489.432z"/>
	<path style="fill:#F15642;" d="M228.455,489.432c-0.776-0.904-2-1.44-3.304-1.44c-1.304,0-2.528,0.536-3.304,1.44
		c-1.768,2.064-17.272,11.056-17.272,22.56h41.143C245.719,500.488,230.215,491.496,228.455,489.432z"/>
</g>
<path style="fill:#F79220;" d="M259.311,474.153c-0.776-1.352-2-2.16-3.312-2.16c-1.304,0-2.528,0.808-3.304,2.16
	c-1.768,3.096-17.272,20.584-17.272,37.839h41.135C276.566,494.736,261.071,477.241,259.311,474.153z"/>
<g>
	<path style="fill:#F15642;" d="M249.023,489.432c-0.776-0.896-2-1.44-3.312-1.44c-1.304,0-2.528,0.536-3.304,1.44
		c-1.768,2.064-17.272,11.056-17.272,22.56h41.143C266.287,500.488,250.783,491.496,249.023,489.432z"/>
	<path style="fill:#F15642;" d="M269.591,489.432c-0.776-0.896-2-1.44-3.304-1.44s-2.528,0.536-3.304,1.44
		c-1.768,2.064-17.272,11.056-17.272,22.56h41.143C286.854,500.488,271.35,491.496,269.591,489.432z"/>
	<path style="fill:#F15642;" d="M290.166,489.432c-0.776-0.904-2-1.44-3.312-1.44s-2.52,0.536-3.296,1.44
		c-1.776,2.064-17.272,11.056-17.272,22.56h41.143C307.43,500.488,291.926,491.496,290.166,489.432z"/>
	<path style="fill:#F15642;" d="M310.742,489.432c-0.784-0.904-2.008-1.44-3.312-1.44c-1.296,0-2.52,0.536-3.296,1.44
		c-1.776,2.064-17.272,11.056-17.272,22.56h41.135C327.998,500.488,312.494,491.496,310.742,489.432z"/>
</g>
<g>
	<circle style="fill:#84BD5A;" cx="311.998" cy="63.999" r="24"/>
	<circle style="fill:#84BD5A;" cx="211.999" cy="51.999" r="20"/>
</g>
<path style="fill:#73AE44;" d="M221.503,34.495c1.544,2.848,2.496,6.048,2.496,9.504c0,11.048-8.952,20-20,20
	c-3.456,0-6.664-0.952-9.504-2.496c3.4,6.224,9.92,10.496,17.504,10.496c11.048,0,20-8.952,20-20
	C231.999,44.407,227.727,37.887,221.503,34.495z"/>
<circle style="fill:#84BD5A;" cx="255.999" cy="16" r="16"/>
<g>
	<path style="fill:#73AE44;" d="M263.607,2c1.232,2.272,2,4.832,2,7.6c0,8.832-7.16,16-16,16c-2.768,0-5.328-0.768-7.6-2
		c2.704,4.976,7.928,8.4,13.992,8.4c8.832,0,16-7.168,16-16C271.998,9.928,268.583,4.712,263.607,2z"/>
	<path style="fill:#73AE44;" d="M323.398,42.999c1.848,3.408,3,7.248,3,11.4c0,13.256-10.744,24-24,24c-4.152,0-7.992-1.152-11.4-3
		c4.072,7.472,11.888,12.6,21,12.6c13.256,0,24-10.744,24-24C335.997,54.887,330.87,47.071,323.398,42.999z"/>
</g>
<g>
</g>
<g>
</g>
<g>
</g>
<g>
</g>
<g>
</g>
<g>
</g>
<g>
</g>
<g>
</g>
<g>
</g>
<g>
</g>
<g>
</g>
<g>
</g>
<g>
</g>
<g>
</g>
<g>
</g>
</svg>
