<?xml version="1.0" encoding="iso-8859-1"?>
<!-- Generator: Adobe Illustrator 19.0.0, SVG Export Plug-In . SVG Version: 6.00 Build 0)  -->
<svg version="1.1" id="Layer_1" xmlns="http://www.w3.org/2000/svg" xmlns:xlink="http://www.w3.org/1999/xlink" x="0px" y="0px"
	 viewBox="0 0 512 512" style="enable-background:new 0 0 512 512;" xml:space="preserve">
<path style="fill:#35495C;" d="M328,512H120c-4.376,0-8.552-1.792-11.568-4.952c-3.024-3.16-4.616-7.424-4.416-11.792l21.72-296
	C125.72,140.712,167.968,96,224,96s98.28,44.712,98.28,104l21.704,295.256c0.2,4.368-1.392,8.632-4.416,11.792
	C336.552,510.208,332.376,512,328,512z"/>
<path style="fill:#123247;" d="M328,512c4.376,0,8.552-1.792,11.568-4.952c3.024-3.16,4.616-7.424,4.416-11.792L322.28,200
	c0-59.288-42.248-104-98.28-104v280c0,0,8,104,32,136H328z"/>
<path style="fill:#0A2A3D;" d="M224,376c0,0-8,104-32,136h32h32C232,480,224,376,224,376z"/>
<path style="fill:#E4513F;" d="M288,192c0-35.344-28.656-64-64-64s-64,28.656-64,64c0,26.928,16.656,49.936,40.208,59.376
	l-0.208-0.04C213.504,259,224,266.744,224,280c0-13.248,10.496-21,24-28.664l-0.208,0.04C271.344,241.936,288,218.928,288,192z"/>
<path style="fill:#123247;" d="M360,352c-5.04,0-9.784-2.376-12.8-6.4l-48-64c-5.304-7.072-3.872-17.104,3.192-22.4
	c7.104-5.296,17.112-3.864,22.4,3.2l35.2,46.928l35.2-46.928c5.304-7.048,15.312-8.496,22.4-3.2
	c7.072,5.304,8.496,15.336,3.192,22.4l-48,64C369.784,349.624,365.04,352,360,352z"/>
<path style="fill:#6E421B;" d="M408,512c-8.832,0-16-7.168-16-16V0c8,0,7.168,0,16,0s16,7.168,16,16v480
	C424,504.832,416.832,512,408,512z"/>
<path style="fill:#D6D9DB;" d="M88,72.064c0,0,112-15.968,192-15.968C340.8,56.096,392,80,392,80V0c0,0-64,0-120,8.28
	C175.736,22.504,88,72.064,88,72.064z"/>
<path style="fill:#E2E5E7;" d="M88,72.064c0,0,112-15.968,192-15.968C340.8,56.096,392,80,392,80V64c0,0-51.2-23.904-112-23.904
	C200,40.096,88,72.064,88,72.064z"/>
<path style="fill:#D3463C;" d="M224,144c32.624,0,59.504,24.44,63.448,56c0.328-2.624,0.552-5.288,0.552-8c0-35.344-28.656-64-64-64
	s-64,28.656-64,64c0,2.712,0.224,5.376,0.552,8C164.496,168.44,191.376,144,224,144z"/>
<path style="fill:#59340F;" d="M424,496V16c0-8.832-7.168-16-16-16v512C416.832,512,424,504.832,424,496z"/>
<g>
	<polygon style="fill:#FBAC43;" points="232,192 264,192 264,168 	"/>
	<polygon style="fill:#FBAC43;" points="216,192 184,192 184,168 	"/>
</g>
<path style="fill:#BC3E34;" d="M224,240c17.68,0,32-14.328,32-32h-64C192,225.672,206.32,240,224,240z"/>
<path style="fill:#FFFFFF;" d="M254.864,216c0.664-2.568,1.136-5.216,1.136-8h-64c0,2.784,0.472,5.432,1.136,8H254.864z"/>
<g>
	<polygon style="fill:#F79220;" points="232,192 264,168 264,176 	"/>
	<polygon style="fill:#F79220;" points="216,192 184,168 184,176 	"/>
</g>
<g>
	<circle style="fill:#D6D9DB;" cx="224" cy="304" r="8"/>
	<circle style="fill:#D6D9DB;" cx="224" cy="336" r="8"/>
	<circle style="fill:#D6D9DB;" cx="224" cy="368" r="8"/>
</g>
<path style="fill:#123247;" d="M179.992,376.672c4.144,2.528,5.256,7.672,2.496,11.488l-18,24.832
	c-1.736,2.392-4.584,3.688-7.504,3.688c-1.712,0-3.448-0.456-4.984-1.392L179.992,376.672z"/>
<path style="fill:#0A2A3D;" d="M268.008,376.672c-4.144,2.528-5.256,7.672-2.496,11.488l18,24.832
	c1.736,2.392,4.584,3.688,7.504,3.688c1.712,0,3.448-0.456,4.984-1.392L268.008,376.672z"/>
<g>
</g>
<g>
</g>
<g>
</g>
<g>
</g>
<g>
</g>
<g>
</g>
<g>
</g>
<g>
</g>
<g>
</g>
<g>
</g>
<g>
</g>
<g>
</g>
<g>
</g>
<g>
</g>
<g>
</g>
</svg>
