<?xml version="1.0" encoding="iso-8859-1"?>
<!-- Generator: Adobe Illustrator 19.0.0, SVG Export Plug-In . SVG Version: 6.00 Build 0)  -->
<svg version="1.1" id="Layer_1" xmlns="http://www.w3.org/2000/svg" xmlns:xlink="http://www.w3.org/1999/xlink" x="0px" y="0px"
	 viewBox="0 0 512 512" style="enable-background:new 0 0 512 512;" xml:space="preserve">
<path style="fill:#E4513F;" d="M0,204.376c0-38.72,112,23.232,112,51.624H18.664C18.664,243.048,0,217.28,0,204.376z"/>
<path style="fill:#D3463C;" d="M0,307.624c0,38.72,112-23.232,112-51.624H18.664C18.664,268.952,0,294.72,0,307.624z"/>
<path style="fill:#BC3E34;" d="M96,280.12c-4.672,4.232-10.112,8.488-16,12.552v-73.344c5.888,4.072,11.328,8.32,16,12.552V280.12z"
	/>
<path style="fill:#E4513F;" d="M512,204.376c0-38.72-112,23.232-112,51.624h93.336C493.336,243.048,512,217.28,512,204.376z"/>
<path style="fill:#D3463C;" d="M512,307.624c0,38.72-112-23.232-112-51.624h93.336C493.336,268.952,512,294.72,512,307.624z"/>
<path style="fill:#F15642;" d="M416,288c0,35.2-28.8,64-64,64H160c-35.2,0-64-28.8-64-64v-64c0-35.2,28.8-64,64-64h192
	c35.2,0,64,28.8,64,64V288z"/>
<path style="fill:#E4513F;" d="M398.936,180.704c0.656,3.672,1.064,7.44,1.064,11.296v72c0,35.2-28.8,48-56,48H152
	c-26.52,0-43.216-0.024-54.936-12.704C102.448,329.152,128.656,352,160,352h192c35.2,0,64-28.8,64-64v-64
	C416,207.32,409.488,192.128,398.936,180.704z"/>
<path style="fill:#F48473;" d="M224,184h-64c-22.056,0-40,17.944-40,40c0,4.424,3.576,8,8,8c4.424,0,8-3.576,8-8
	c0-13.232,10.768-24,24-24h64c4.424,0,8-3.576,8-8S228.424,184,224,184z"/>
<path style="fill:#BC3E34;" d="M416,280.12c4.672,4.232,10.112,8.488,16,12.552v-73.344c-5.888,4.072-11.328,8.32-16,12.552V280.12z
	"/>
<g>
	<path style="fill:#E2E5E7;" d="M345.36,192l-38.016,25.344c-4.456,2.968-4.456,10.344,0,13.312L345.36,256l-38.016,25.344
		c-4.456,2.968-4.456,10.344,0,13.312L345.36,320l-38.016,25.344C305.112,346.832,304,349.416,304,352h22.2l38.016-25.344
		c4.456-2.968,4.456-10.344,0-13.312L326.2,288l38.016-25.344c4.456-2.968,4.456-10.344,0-13.312L326.2,224l38.016-25.344
		c4.456-2.968,4.456-10.344,0-13.312L326.2,160H304c0,2.584,1.112,5.168,3.344,6.656L345.36,192z"/>
	<path style="fill:#E2E5E7;" d="M265.36,192l-38.016,25.344c-4.456,2.968-4.456,10.344,0,13.312L265.36,256l-38.016,25.344
		c-4.456,2.968-4.456,10.344,0,13.312L265.36,320l-38.016,25.344C225.112,346.832,224,349.416,224,352h22.2l38.016-25.344
		c4.456-2.968,4.456-10.344,0-13.312L246.2,288l38.016-25.344c4.456-2.968,4.456-10.344,0-13.312L246.2,224l38.016-25.344
		c4.456-2.968,4.456-10.344,0-13.312L246.2,160H224c0,2.584,1.112,5.168,3.336,6.656L265.36,192z"/>
</g>
<path style="fill:#D6D9DB;" d="M284.216,313.344L282.2,312h-28.848l12,8l-38.016,25.344C225.112,346.832,224,349.416,224,352h22.2
	l38.016-25.344C288.672,323.688,288.672,316.312,284.216,313.344z"/>
<path style="fill:#E2E5E7;" d="M204.216,313.344L166.2,288l38.016-25.344c4.456-2.968,4.456-10.344,0-13.312L166.2,224
	l38.016-25.344c4.456-2.968,4.456-10.344,0-13.312L166.2,160H160c-5.368,0-10.56,0.744-15.552,2c0.44,1.832,1.264,3.568,2.896,4.656
	L185.352,192l-38.016,25.344c-4.456,2.968-4.456,10.344,0,13.312L185.352,256l-38.016,25.344c-4.456,2.968-4.456,10.344,0,13.312
	L185.352,320l-38.016,25.344c-1.632,1.088-2.456,2.816-2.896,4.656c5,1.256,10.192,2,15.56,2h6.2l38.016-25.344
	C208.664,323.688,208.664,316.312,204.216,313.344z"/>
<path style="fill:#FFFFFF;" d="M185.352,192l-12,8h28.84l2.016-1.344c4.456-2.968,4.456-10.344,0-13.312L202.2,184h-28.84
	L185.352,192z"/>
<g>
	<path style="fill:#D6D9DB;" d="M204.216,313.344L202.2,312h-28.84l12,8l-38.016,25.344c-1.632,1.088-2.456,2.816-2.896,4.656
		c2.36,0.592,4.776,1.048,7.216,1.392c0.256,0.032,0.496,0.08,0.752,0.104c2.488,0.32,5.016,0.504,7.584,0.504h6.2l38.016-25.344
		C208.664,323.688,208.664,316.312,204.216,313.344z"/>
	<path style="fill:#D6D9DB;" d="M364.216,313.344L357.688,309c-6.952,2.032-14.368,3-21.688,3h-2.64l12,8l-38.016,25.344
		C305.112,346.832,304,349.416,304,352h22.2l38.016-25.344C368.672,323.688,368.672,316.312,364.216,313.344z"/>
</g>
<g>
</g>
<g>
</g>
<g>
</g>
<g>
</g>
<g>
</g>
<g>
</g>
<g>
</g>
<g>
</g>
<g>
</g>
<g>
</g>
<g>
</g>
<g>
</g>
<g>
</g>
<g>
</g>
<g>
</g>
</svg>
