<?xml version="1.0" encoding="iso-8859-1"?>
<!-- Generator: Adobe Illustrator 19.0.0, SVG Export Plug-In . SVG Version: 6.00 Build 0)  -->
<svg version="1.1" id="Layer_1" xmlns="http://www.w3.org/2000/svg" xmlns:xlink="http://www.w3.org/1999/xlink" x="0px" y="0px"
	 viewBox="0 0 512 512" style="enable-background:new 0 0 512 512;" xml:space="preserve">
<path style="fill:#F79220;" d="M458.768,449.92C473,484.064,457.2,512,423.672,512H88.336c-33.536,0-49.328-27.936-35.096-62.08
	L230.12,25.608c14.232-34.144,37.544-34.144,51.776,0L458.768,449.92z"/>
<path style="fill:#E48225;" d="M423.672,512c33.528,0,49.328-27.936,35.096-62.08L281.888,25.608C274.776,8.528,265.384,0,256,0v512
	H423.672z"/>
<path style="fill:#E2E5E7;" d="M230.112,25.608L174.096,160h163.816L281.888,25.608C267.656-8.528,244.344-8.528,230.112,25.608z"/>
<path style="fill:#D6D9DB;" d="M337.904,160L281.888,25.608C274.776,8.528,265.384,0,256,0v160H337.904z"/>
<path style="fill:#FEC461;" d="M458.768,449.92L417.944,352H94.056l-40.824,97.92C39,484.064,54.8,512,88.336,512h335.336
	C457.2,512,473,484.064,458.768,449.92z"/>
<path style="fill:#F7B84E;" d="M417.944,352H256v160h167.672c33.528,0,49.328-27.936,35.096-62.08L417.944,352z"/>
<g>
</g>
<g>
</g>
<g>
</g>
<g>
</g>
<g>
</g>
<g>
</g>
<g>
</g>
<g>
</g>
<g>
</g>
<g>
</g>
<g>
</g>
<g>
</g>
<g>
</g>
<g>
</g>
<g>
</g>
</svg>
