<?xml version="1.0" encoding="iso-8859-1"?>
<!-- Generator: Adobe Illustrator 19.0.0, SVG Export Plug-In . SVG Version: 6.00 Build 0)  -->
<svg version="1.1" id="Layer_1" xmlns="http://www.w3.org/2000/svg" xmlns:xlink="http://www.w3.org/1999/xlink" x="0px" y="0px"
	 viewBox="0 0 512 512" style="enable-background:new 0 0 512 512;" xml:space="preserve">
<g>
	<path style="fill:#576D7E;" d="M504.976,159.034c-4.536-4.536-10.56-7.032-16.976-7.032h-96c-2.824,0-5.488,0.576-8,1.48v-9.48
		c0-4.424-3.576-8-8-8s-8,3.576-8,8v32c0,0,0,0.008,0,0.016c-0.008,33.152-28.128,63.984-56,63.984v56c22.056,0,40,1.944,40,24
		c0,4.424,3.576,8,8,8s8-3.576,8-8c0-22.056,17.944-40,40-40c4.424,0,8-3.576,8-8c0-22.056,17.944-40,40-40c4.424,0,8-3.576,8-8
		c0-22.056,17.944-40,40-40c4.424,0,8-3.576,8-8C512,169.594,509.504,163.562,504.976,159.034z"/>
	<path style="fill:#576D7E;" d="M144,176.018c0-0.008,0-0.016,0-0.016v-32c0-4.424-3.584-8-8-8s-8,3.576-8,8v9.48
		c-2.512-0.904-5.176-1.48-8-1.48H24c-6.416,0-12.44,2.496-16.976,7.032C2.496,163.562,0,169.594,0,176.002c0,4.424,3.584,8,8,8
		c22.056,0,40,17.944,40,40c0,4.424,3.584,8,8,8c22.056,0,40,17.944,40,40c0,4.424,3.584,8,8,8c22.056,0,40,17.944,40,40
		c0,4.424,3.584,8,8,8s8-3.576,8-8c0-22.056,17.944-24,40-24v-56C172.128,240.002,144.008,209.17,144,176.018z"/>
	<path style="fill:#576D7E;" d="M314.784,128.498c-3.16-1.168-6.68-0.248-8.856,2.296l-18.448,21.52
		c-9.304-5.256-20.024-8.304-31.48-8.304s-22.176,3.048-31.48,8.312l-18.448-21.52c-2.184-2.544-5.72-3.472-8.848-2.296
		c-3.136,1.168-5.224,4.152-5.224,7.504v63.992l0,0v128l0,0c0,35.344,64,56,64,56s64-20.656,64-56l0,0v-128l0,0V136.01
		C320,132.658,317.912,129.674,314.784,128.498z"/>
</g>
<path style="fill:#516575;" d="M192.56,333.066c5.68,32.224,63.44,50.936,63.44,50.936s64-20.656,64-56v-128l0,0V136.01
	c0-3.352-2.088-6.336-5.216-7.504c-3.16-1.168-6.68-0.248-8.856,2.296l-18.448,21.52c-9.304-5.264-20.024-8.312-31.48-8.312v119.992
	C256,287.338,223.992,322.834,192.56,333.066z"/>
<path style="fill:#123247;" d="M232,256.002h48c8.8,0,16-7.2,16-16l0,0h-80l0,0C216,248.802,223.2,256.002,232,256.002z"/>
<g>
	<circle style="fill:#E2E5E7;" cx="228" cy="204.002" r="20"/>
	<circle style="fill:#E2E5E7;" cx="284" cy="204.002" r="20"/>
</g>
<g>
	<path style="fill:#D6D9DB;" d="M293.504,186.498c1.544,2.848,2.496,6.048,2.496,9.504c0,11.048-8.952,20-20,20
		c-3.456,0-6.656-0.952-9.504-2.496c3.392,6.224,9.912,10.496,17.504,10.496c11.048,0,20-8.952,20-20
		C304,196.41,299.728,189.89,293.504,186.498z"/>
	<path style="fill:#D6D9DB;" d="M237.504,186.498c1.536,2.848,2.496,6.048,2.496,9.504c0,11.048-8.952,20-20,20
		c-3.456,0-6.664-0.952-9.504-2.496c3.392,6.224,9.912,10.496,17.504,10.496c11.048,0,20-8.952,20-20
		C248,196.41,243.728,189.89,237.504,186.498z"/>
</g>
<g>
	<circle style="fill:#F15642;" cx="232" cy="208.002" r="8"/>
	<circle style="fill:#F15642;" cx="280" cy="208.002" r="8"/>
</g>
<g>
	<polygon style="fill:#FFFFFF;" points="240,264.002 232,240.002 248,240.002 	"/>
	<polygon style="fill:#FFFFFF;" points="272,264.002 264,240.002 280,240.002 	"/>
</g>
<g>
	<polygon style="fill:#E2E5E7;" points="277.328,248.002 280,240.002 264,240.002 266.672,248.002 	"/>
	<polygon style="fill:#E2E5E7;" points="245.336,248.002 248,240.002 232,240.002 234.664,248.002 	"/>
</g>
<g>
	<path style="fill:#35495C;" d="M408,168.002c0-5.456-0.544-10.776-1.36-16H392c-2.824,0-8,0-8,0v-8c0-4.424-3.576-8-8-8
		s-8,3.576-8,8v32c0,0,0,0.008,0,0.016c0,23.696-14.392,46.104-32.768,57c-2.168,1.28-4.384,2.424-6.64,3.368
		c-0.408,0.168-0.824,0.304-1.224,0.464c-2.432,0.936-4.88,1.736-7.368,2.248v31.504v25.528c5.92,0.216,11.344,0.8,16,2.112v-18.24
		c0-8.832,8.376-15.376,17.808-20.92l-0.304,0.088C385.92,241.61,408,207.482,408,168.002z"/>
	<path style="fill:#35495C;" d="M104,168.002c0-5.456,0.544-10.776,1.352-16H120c2.824,0,8,0,8,0v-8c0-4.424,3.584-8,8-8
		s8,3.576,8,8v32c0,0,0,0.008,0,0.016c0.008,23.696,14.4,46.104,32.776,57c2.168,1.28,4.376,2.424,6.64,3.368
		c0.408,0.168,0.824,0.304,1.224,0.464c2.424,0.936,4.88,1.736,7.368,2.248v31.504v25.528c-5.92,0.216-11.336,0.8-16,2.112v-18.24
		c0-8.832-8.376-15.376-17.808-20.92l0.312,0.088C126.08,241.61,104,207.482,104,168.002z"/>
</g>
<g>
</g>
<g>
</g>
<g>
</g>
<g>
</g>
<g>
</g>
<g>
</g>
<g>
</g>
<g>
</g>
<g>
</g>
<g>
</g>
<g>
</g>
<g>
</g>
<g>
</g>
<g>
</g>
<g>
</g>
</svg>
