<?xml version="1.0" encoding="iso-8859-1"?>
<!-- Generator: Adobe Illustrator 19.0.0, SVG Export Plug-In . SVG Version: 6.00 Build 0)  -->
<svg version="1.1" id="Layer_1" xmlns="http://www.w3.org/2000/svg" xmlns:xlink="http://www.w3.org/1999/xlink" x="0px" y="0px"
	 viewBox="0 0 512 512" style="enable-background:new 0 0 512 512;" xml:space="preserve">
<path style="fill:#E2E5E7;" d="M344,72c0,4.4-3.6,8-8,8H176c-4.4,0-8-3.6-8-8V32c0-4.4,3.6-8,8-8h160c4.4,0,8,3.6,8,8V72z"/>
<path style="fill:#D6D9DB;" d="M336,24h-80v56h80c4.4,0,8-3.6,8-8V32C344,27.608,340.4,24,336,24z"/>
<path style="fill:#CAD1D8;" d="M392,104c0,4.4-3.6,8-8,8H128c-4.4,0-8-3.6-8-8V80c0-4.4,3.6-8,8-8h256c4.4,0,8,3.6,8,8V104z"/>
<path style="fill:#BFC7CD;" d="M384,72H256v40h128c4.4,0,8-3.6,8-8V80C392,75.608,388.4,72,384,72z"/>
<rect x="32" y="152" style="fill:#E2E5E7;" width="448" height="304"/>
<rect x="256" y="152" style="fill:#D6D9DB;" width="224" height="304"/>
<rect x="104" y="392" style="fill:#EFF0F1;" width="48" height="16"/>
<path style="fill:#983027;" d="M360,456V289.6c0-22.88-18-41.6-40-41.6H192c-22,0-40,18.712-40,41.6V456"/>
<path style="fill:#84261D;" d="M320,256h-64v200h96V296C352,274,342,256,320,256z"/>
<path style="fill:#F7B84E;" d="M248,312c35.344,0,64,28.656,64,64c0,35.336-28.656,64-64,64"/>
<path style="fill:#F7954C;" d="M248,328c26.504,0,48,21.488,48,48s-21.496,48-48,48"/>
<path style="fill:#F37046;" d="M248,360c17.672,0,32,14.336,32,32s-14.328,32-32,32"/>
<path style="fill:#F7B84E;" d="M248,440c-26.496,0-48-21.496-48-48c0-26.512,21.504-48,48-48"/>
<path style="fill:#F7954C;" d="M248,424c-17.672,0-32-14.328-32-32s14.328-32,32-32"/>
<rect x="336" y="208" style="fill:#FFFFFF;" width="48" height="16"/>
<rect x="360" y="192" style="fill:#EFF0F1;" width="48" height="16"/>
<rect x="96" y="200" style="fill:#FFFFFF;" width="48" height="16"/>
<rect x="120" y="184" style="fill:#EFF0F1;" width="48" height="16"/>
<rect x="208" y="176" style="fill:#FFFFFF;" width="48" height="16"/>
<g>
	<rect x="232" y="192" style="fill:#EFF0F1;" width="48" height="16"/>
	<rect x="232" y="160" style="fill:#EFF0F1;" width="48" height="16"/>
	<rect x="64" y="320" style="fill:#EFF0F1;" width="48" height="16"/>
	<rect x="400" y="392" style="fill:#EFF0F1;" width="48" height="16"/>
</g>
<g>
	<rect x="368" y="376" style="fill:#FFFFFF;" width="48" height="16"/>
	<rect x="416" y="296" style="fill:#FFFFFF;" width="48" height="16"/>
</g>
<g>
	<rect x="32" y="152" style="fill:#CAD1D8;" width="32" height="304"/>
	<rect x="448" y="152" style="fill:#CAD1D8;" width="32" height="304"/>
	<rect x="64" y="152" style="fill:#CAD1D8;" width="384" height="16"/>
</g>
<g>
	<rect x="32" y="152" style="fill:#B8BFC5;" width="32" height="16"/>
	<rect x="448" y="152" style="fill:#B8BFC5;" width="32" height="16"/>
</g>
<g>
	<path style="fill:#B0B7BD;" d="M512,136c0,8.8-7.2,16-16,16H16c-8.8,0-16-7.2-16-16v-16c0-8.8,7.2-16,16-16h480c8.8,0,16,7.2,16,16
		V136z"/>
	<path style="fill:#B0B7BD;" d="M512,480c0,4.4-3.6,8-8,8H8c-4.4,0-8-3.6-8-8v-16c0-4.4,3.6-8,8-8h496c4.4,0,8,3.6,8,8V480z"/>
</g>
<g>
	<path style="fill:#A8AEB4;" d="M504,456H256v32h248c4.4,0,8-3.6,8-8v-16C512,459.6,508.4,456,504,456z"/>
	<path style="fill:#A8AEB4;" d="M496,104H256v48h240c8.8,0,16-7.2,16-16v-16C512,111.208,504.8,104,496,104z"/>
</g>
<path style="fill:#B0B7BD;" d="M384,456h-32V296c0-13.232-10.768-24-24-24H184c-13.232,0-24,10.768-24,24v160h-32V296
	c0-30.872,25.128-56,56-56h144c30.872,0,56,25.12,56,56V456z"/>
<g>
</g>
<g>
</g>
<g>
</g>
<g>
</g>
<g>
</g>
<g>
</g>
<g>
</g>
<g>
</g>
<g>
</g>
<g>
</g>
<g>
</g>
<g>
</g>
<g>
</g>
<g>
</g>
<g>
</g>
</svg>
