<?xml version="1.0" encoding="iso-8859-1"?>
<!-- Generator: Adobe Illustrator 19.0.0, SVG Export Plug-In . SVG Version: 6.00 Build 0)  -->
<svg version="1.1" id="Layer_1" xmlns="http://www.w3.org/2000/svg" xmlns:xlink="http://www.w3.org/1999/xlink" x="0px" y="0px"
	 viewBox="0 0 512 512" style="enable-background:new 0 0 512 512;" xml:space="preserve">
<path style="fill:#008DD0;" d="M256,512c-114.696,0-208-93.312-208-208S141.304,96,256,96s208,93.312,208,208S370.696,512,256,512z"
	/>
<path style="fill:#FCD063;" d="M256,400c-52.936,0-96-43.064-96-96s43.064-96,96-96s96,43.064,96,96S308.936,400,256,400z"/>
<path style="fill:#0076AF;" d="M379.352,136.648C404.872,171.184,420,213.856,420,260c0,114.688-93.304,208-208,208
	c-46.152,0-88.816-15.128-123.352-40.648C126.56,478.656,187.456,512,256,512c114.696,0,208-93.312,208-208
	C464,235.456,430.656,174.56,379.352,136.648z"/>
<path style="fill:#F7B84E;" d="M463.048,285.032c-0.328-3.592-0.736-7.168-1.248-10.712c-0.112-0.776-0.224-1.544-0.352-2.32
	h-41.824c-1.28,22.472-6.176,43.984-14.064,64h55.968c0.736-4.72,1.248-9.504,1.664-14.304c0.088-1.056,0.168-2.104,0.24-3.168
	c0.344-4.8,0.568-9.64,0.568-14.528c0-4.984-0.224-9.92-0.576-14.832C463.328,287.784,463.168,286.416,463.048,285.032z"/>
<path style="fill:#0081BE;" d="M256,95.984c28.336,0,55.36,5.72,80,16.016V88c0-8.832-7.168-16-16-16H192c-8.832,0-16,7.168-16,16
	v24C200.64,101.704,227.664,95.984,256,95.984z"/>
<path style="fill:#0076AF;" d="M320,72h-64v23.984c28.336,0,55.36,5.72,80,16.016V88C336,79.168,328.832,72,320,72z"/>
<g>
	<path style="fill:#576D7E;" d="M256,0c-26.464,0-48,21.528-48,48h16c0-17.672,14.328-32,32-32s32,14.328,32,32h16
		C304,21.528,282.464,0,256,0z"/>
	<rect x="288" y="48" style="fill:#576D7E;" width="16" height="24"/>
	<rect x="208" y="48" style="fill:#576D7E;" width="16" height="24"/>
</g>
<path style="fill:#FCD063;" d="M48,304c0,10.872,0.848,21.56,2.472,32h411.064c1.616-10.44,2.464-21.128,2.464-32
	s-0.848-21.56-2.472-32H50.472C48.848,282.44,48,293.128,48,304z"/>
<path style="fill:#92CDEB;" d="M96,312c-4.424,0-8-3.576-8-8c0-64.16,35.392-122.064,92.368-151.128
	c3.936-2.024,8.752-0.44,10.76,3.488c2.008,3.936,0.448,8.76-3.496,10.768C136.048,193.44,104,245.888,104,304
	C104,308.424,100.424,312,96,312z"/>
<path style="fill:#FFEEBD;" d="M91.072,272C89.104,282.424,88,293.112,88,304c0,4.424,3.576,8,8,8s8-3.576,8-8
	c0-10.904,1.136-21.624,3.304-32H91.072z"/>
<path style="fill:#F15642;" d="M293.08,360c-0.624,0-1.264-0.168-1.856-0.488L256,338.672l-35.216,20.84
	c-1.36,0.752-2.984,0.624-4.232-0.328c-1.208-0.928-1.824-2.512-1.56-4.088l6.72-41.12l-28.496-29.096
	c-1.088-1.112-1.48-2.784-1.008-4.296c0.464-1.512,1.712-2.64,3.216-2.856l39.384-6l17.616-37.4
	c0.656-1.424,2.048-2.328,3.568-2.328l0,0c1.512,0,2.904,0.904,3.576,2.336l17.632,37.4l39.376,6
	c1.504,0.216,2.76,1.344,3.216,2.856c0.472,1.512,0.072,3.184-1.016,4.296l-28.496,29.096l6.728,41.12
	c0.256,1.568-0.352,3.16-1.568,4.088C294.72,359.728,293.896,360,293.08,360z"/>
<g>
	<path style="fill:#D2473C;" d="M221.696,305.984l-27.232-27.808c-1.032,0.48-1.912,1.256-2.264,2.416
		c-0.472,1.512-0.08,3.184,1.008,4.296l27.376,27.952L221.696,305.984z"/>
	<path style="fill:#D2473C;" d="M295.448,351.184c-0.728,0.544-1.552,0.816-2.368,0.816c-0.624,0-1.264-0.168-1.856-0.488
		L256,330.672l-35.216,20.84c-1.36,0.752-2.984,0.624-4.232-0.328c-0.344-0.264-0.512-0.672-0.76-1.024l-0.808,4.936
		c-0.256,1.568,0.352,3.16,1.56,4.088c1.248,0.952,2.872,1.08,4.232,0.328l35.216-20.84l35.224,20.84
		c0.6,0.32,1.24,0.488,1.864,0.488c0.824,0,1.64-0.272,2.368-0.816c1.216-0.928,1.832-2.512,1.568-4.088l-0.808-4.936
		C295.968,350.512,295.792,350.92,295.448,351.184z"/>
	<path style="fill:#D2473C;" d="M317.52,278.176l-27.232,27.808l1.128,6.856l27.368-27.952c1.088-1.112,1.488-2.784,1.016-4.296
		C319.448,279.44,318.552,278.656,317.52,278.176z"/>
</g>
<g>
</g>
<g>
</g>
<g>
</g>
<g>
</g>
<g>
</g>
<g>
</g>
<g>
</g>
<g>
</g>
<g>
</g>
<g>
</g>
<g>
</g>
<g>
</g>
<g>
</g>
<g>
</g>
<g>
</g>
</svg>
