<?xml version="1.0" encoding="iso-8859-1"?>
<!-- Generator: Adobe Illustrator 19.0.0, SVG Export Plug-In . SVG Version: 6.00 Build 0)  -->
<svg version="1.1" id="Layer_1" xmlns="http://www.w3.org/2000/svg" xmlns:xlink="http://www.w3.org/1999/xlink" x="0px" y="0px"
	 viewBox="0 0 512 512" style="enable-background:new 0 0 512 512;" xml:space="preserve">
<path style="fill:#D3463C;" d="M384,446v26c0,22.08-17.92,40-40,40c-7.44,0-14.488-2.08-20.4-5.6L384,446z"/>
<path style="fill:#CAD1D8;" d="M384,360v86l-60.4,60.4c-2.88-1.68-5.52-3.76-7.92-6.08C308.488,493.04,304,483.04,304,472v-32
	L384,360z"/>
<polygon style="fill:#D3463C;" points="384,280 384,360 304,440 304,360 "/>
<polygon style="fill:#CAD1D8;" points="384,200 384,280 304,360 304,280 "/>
<path style="fill:#F15642;" d="M384,128v72l-80,80v-80l79.768-79.768C383.92,122.8,384,125.36,384,128z"/>
<path style="fill:#E2E5E7;" d="M304,200v-72c0-2.488-0.16-4.96-0.64-7.36l60.96-60.96c11.12,17.68,18.08,38.32,19.448,60.552
	L304,200z"/>
<g>
	<path style="fill:#F15642;" d="M364.32,59.68l-60.96,60.96c-3.128-20.56-19.44-36.872-40-40l60.968-60.96
		C340.4,29.928,354.08,43.608,364.32,59.68z"/>
	<path style="fill:#F15642;" d="M263.76,0.24L128,136v-8C128,57.288,185.28,0,256,0C258.64,0,261.2,0.08,263.76,0.24z"/>
</g>
<g>
	<path style="fill:#D3463C;" d="M212.336,51.664c-13.584,7.792-24.88,19.088-32.672,32.672L212.336,51.664z"/>
	<path style="fill:#D3463C;" d="M294.856,49.144l-31.504,31.504c20.568,3.128,36.88,19.44,40,40l31.504-31.504
		C326.296,71.784,312.216,57.704,294.856,49.144z"/>
</g>
<path style="fill:#CAD1D8;" d="M344,160v-32c0-13.968-3.344-27.136-9.144-38.856l-31.504,31.504C303.84,123.04,304,125.52,304,128
	v72L344,160z"/>
<polygon style="fill:#D3463C;" points="344,160 304,200 304,280 344,240 "/>
<polygon style="fill:#E2E5E7;" points="344,320 384,280 384,200 344,240 "/>
<polygon style="fill:#F15642;" points="344,400 384,360 384,280 344,320 "/>
<polygon style="fill:#E2E5E7;" points="344,486 384,446 384,360 344,400 "/>
<path style="fill:#F15642;" d="M344,512c22.08,0,40-17.92,40-40v-26l-40,40V512z"/>
<path style="fill:#D3463C;" d="M208,136v8c0,22.08-17.92,40-40,40c-2.488,0-4.872-0.232-7.28-0.72L208,136z"/>
<path style="fill:#E2E5E7;" d="M324.32,19.68l-60.968,60.96C260.96,80.16,258.48,80,256,80c-26.488,0-48,21.512-48,48v8
	l-47.28,47.28C142.072,179.928,128,163.608,128,144v-8L263.76,0.24C286,1.608,306.64,8.568,324.32,19.68z"/>
<path style="fill:#CAD1D8;" d="M208,136v-8c0-26.488,21.512-48,48-48c2.488,0,4.96,0.16,7.36,0.64l31.504-31.504
	C283.136,43.344,269.968,40,256,40c-15.904,0-30.792,4.28-43.664,11.664l-32.672,32.672C172.28,97.216,168,112.096,168,128v48
	L208,136z"/>
<path style="fill:#F15642;" d="M168,176l-7.28,7.28c2.4,0.488,4.792,0.72,7.28,0.72V176z"/>
<g>
</g>
<g>
</g>
<g>
</g>
<g>
</g>
<g>
</g>
<g>
</g>
<g>
</g>
<g>
</g>
<g>
</g>
<g>
</g>
<g>
</g>
<g>
</g>
<g>
</g>
<g>
</g>
<g>
</g>
</svg>
