<?xml version="1.0" encoding="iso-8859-1"?>
<!-- Generator: Adobe Illustrator 19.0.0, SVG Export Plug-In . SVG Version: 6.00 Build 0)  -->
<svg version="1.1" id="Layer_1" xmlns="http://www.w3.org/2000/svg" xmlns:xlink="http://www.w3.org/1999/xlink" x="0px" y="0px"
	 viewBox="0 0 512 512" style="enable-background:new 0 0 512 512;" xml:space="preserve">
<path style="fill:#A066AA;" d="M352,112H64c-8.8,0-16,7.2-16,16v304c0,44,36,80,80,80h160c44,0,80-36,80-80V128
	C368,119.208,360.808,112,352,112z"/>
<path style="fill:#925D9C;" d="M288,512c44,0,80-36,80-80V128c0-8.8-7.192-16-16-16H208v352H54.768c12.408,28.176,40.6,48,73.232,48
	h80H288z"/>
<g>
	<path style="fill:#E2E5E7;" d="M208,96c-8.832,0-16-7.168-16-16V16c0-8.832,7.168-16,16-16s16,7.168,16,16v64
		C224,88.84,216.832,96,208,96z"/>
	<path style="fill:#E2E5E7;" d="M288,96c-8.832,0-16-7.168-16-16V32c0-8.832,7.168-16,16-16s16,7.168,16,16v48
		C304,88.84,296.832,96,288,96z"/>
	<path style="fill:#E2E5E7;" d="M128,96c-8.832,0-16-7.168-16-16V32c0-8.832,7.168-16,16-16s16,7.168,16,16v48
		C144,88.84,136.832,96,128,96z"/>
</g>
<path style="fill:#925D9C;" d="M408,192h-40v48h40c4.416,0,8,3.592,8,8v112c0,4.408-3.584,8-8,8h-40v48h40c30.88,0,56-25.128,56-56
	V248C464,217.128,438.88,192,408,192z"/>
<path style="fill:#FFFFFF;" d="M288,288h-12.688l10.344-10.344c3.128-3.128,3.128-8.184,0-11.312c-3.128-3.12-8.184-3.12-11.312,0
	L252.688,288h-13.824c-0.768-2.952-1.936-5.712-3.456-8.264l26.088-26.072c3.128-3.128,3.128-8.184,0-11.312s-8.184-3.128-11.312,0
	l-26.136,26.12c-2.496-1.456-5.184-2.592-8.048-3.336V251.32l21.664-21.656c3.128-3.128,3.128-8.184,0-11.312s-8.184-3.128-11.312,0
	L216,228.688V216c0-4.424-3.584-8-8-8s-8,3.576-8,8v12.68l-10.336-10.336c-3.128-3.128-8.184-3.128-11.312,0s-3.128,8.184,0,11.312
	L200,251.312v13.824c-2.944,0.768-5.704,1.928-8.256,3.464l-26.248-26.248c-3.128-3.128-8.184-3.128-11.312,0s-3.128,8.184,0,11.312
	l26.296,26.296c-1.464,2.496-2.592,5.176-3.336,8.048H163.32l-21.656-21.656c-3.128-3.12-8.184-3.12-11.312,0
	c-3.128,3.128-3.128,8.184,0,11.312L140.688,288H128c-4.416,0-8,3.576-8,8c0,4.416,3.584,8,8,8h12.688l-10.344,10.344
	c-3.128,3.128-3.128,8.184,0,11.312c1.56,1.56,3.608,2.344,5.656,2.344s4.096-0.784,5.656-2.344L163.312,304h13.824
	c0.744,2.856,1.88,5.544,3.336,8.048l-26.296,26.296c-3.128,3.128-3.128,8.184,0,11.312c1.568,1.56,3.616,2.344,5.656,2.344
	s4.096-0.784,5.656-2.344l26.248-26.248c2.552,1.512,5.312,2.688,8.256,3.456v13.832l-21.656,21.656
	c-3.128,3.128-3.128,8.184,0,11.312c1.568,1.552,3.616,2.336,5.664,2.336s4.096-0.784,5.656-2.344L200,363.312V376
	c0,4.424,3.584,8,8,8s8-3.576,8-8v-12.696l10.344,10.352c1.56,1.56,3.608,2.344,5.656,2.344s4.096-0.784,5.656-2.344
	c3.128-3.128,3.128-8.184,0-11.312L216,340.68v-13.824c2.864-0.744,5.552-1.872,8.048-3.344l26.136,26.144
	c1.56,1.56,3.608,2.344,5.648,2.344c2.04,0,4.096-0.784,5.656-2.344c3.128-3.128,3.128-8.184,0-11.312L235.4,312.248
	c1.52-2.544,2.688-5.312,3.456-8.248h13.824l21.656,21.656c1.568,1.56,3.616,2.344,5.664,2.344s4.096-0.784,5.656-2.344
	c3.128-3.128,3.128-8.184,0-11.312L275.312,304H288c4.424,0,8-3.584,8-8C296,291.576,292.424,288,288,288z M192,296
	c0-8.832,7.176-16,16-16s16,7.168,16,16c0,8.824-7.176,16-16,16S192,304.824,192,296z"/>
<path style="fill:#E2E5E7;" d="M288,288h-12.688l10.344-10.344c3.128-3.128,3.128-8.184,0-11.312c-3.128-3.12-8.184-3.12-11.312,0
	L252.688,288h-13.824c-0.768-2.952-1.936-5.712-3.456-8.264l26.088-26.072c3.128-3.128,3.128-8.184,0-11.312s-8.184-3.128-11.312,0
	l-26.136,26.12c-2.496-1.456-5.184-2.592-8.048-3.336V251.32l21.664-21.656c3.128-3.128,3.128-8.184,0-11.312s-8.184-3.128-11.312,0
	L216,228.688V216c0-4.424-3.584-8-8-8v72c8.824,0,16,7.168,16,16c0,8.824-7.176,16-16,16v72c4.416,0,8-3.576,8-8v-12.696
	l10.344,10.352c1.56,1.56,3.608,2.344,5.656,2.344s4.096-0.784,5.656-2.344c3.128-3.128,3.128-8.184,0-11.312L216,340.68v-13.824
	c2.864-0.744,5.552-1.872,8.048-3.344l26.136,26.144c1.56,1.56,3.608,2.344,5.648,2.344c2.04,0,4.096-0.784,5.656-2.344
	c3.128-3.128,3.128-8.184,0-11.312L235.4,312.248c1.52-2.544,2.688-5.312,3.456-8.248h13.824l21.656,21.656
	c1.568,1.56,3.616,2.344,5.664,2.344s4.096-0.784,5.656-2.344c3.128-3.128,3.128-8.184,0-11.312L275.312,304H288
	c4.424,0,8-3.584,8-8C296,291.576,292.424,288,288,288z"/>
<g>
	<rect x="368" y="368" style="fill:#86558F;" width="16" height="48"/>
	<rect x="368" y="192" style="fill:#86558F;" width="16" height="48"/>
</g>
<g>
</g>
<g>
</g>
<g>
</g>
<g>
</g>
<g>
</g>
<g>
</g>
<g>
</g>
<g>
</g>
<g>
</g>
<g>
</g>
<g>
</g>
<g>
</g>
<g>
</g>
<g>
</g>
<g>
</g>
</svg>
