<?xml version="1.0" encoding="iso-8859-1"?>
<!-- Generator: Adobe Illustrator 19.0.0, SVG Export Plug-In . SVG Version: 6.00 Build 0)  -->
<svg version="1.1" id="Layer_1" xmlns="http://www.w3.org/2000/svg" xmlns:xlink="http://www.w3.org/1999/xlink" x="0px" y="0px"
	 viewBox="0 0 512 512" style="enable-background:new 0 0 512 512;" xml:space="preserve">
<path style="fill:#84BD5A;" d="M304,368c0-17.064,8.936-34.296,27.312-52.688c6.24-6.24,6.248-16.36,0.024-22.608l-63.792-64
	c-3-3-7.064-4.696-11.312-4.704c-0.008,0-0.016,0-0.024,0c-4.232,0-8.296,1.68-11.296,4.672l-64.208,64
	c-3.008,3-4.696,7.064-4.704,11.312s1.68,8.328,4.688,11.328C199.064,333.704,208,350.936,208,368s-8.936,34.296-27.312,52.688
	c-3.008,3-4.696,7.08-4.688,11.328s1.696,8.312,4.704,11.312l64.208,64c3,2.992,7.064,4.672,11.296,4.672c0.008,0,0.016,0,0.024,0
	c4.248-0.008,8.312-1.704,11.312-4.704l63.792-64c6.224-6.248,6.216-16.368-0.024-22.608C312.936,402.296,304,385.064,304,368z"/>
<g>
	<path style="fill:#73AE44;" d="M331.336,292.704l-63.792-64c-3-3-7.064-4.696-11.312-4.704c-0.008,0-0.016,0-0.024,0
		c-0.072,0-0.144,0.016-0.208,0.016v287.968c0.072,0,0.144,0.016,0.208,0.016c0.008,0,0.016,0,0.024,0
		c4.248-0.008,8.312-1.704,11.312-4.704l63.792-64c6.224-6.248,6.216-16.368-0.024-22.608C312.936,402.296,304,385.064,304,368
		s8.936-34.296,27.312-52.688C337.552,309.072,337.56,298.952,331.336,292.704z"/>
	<path style="fill:#73AE44;" d="M491.32,4.696C488.32,1.688,484.248,0,480,0h-96c-8.832,0-16,7.168-16,16
		c0,3.528,0.08,7.096,0.168,10.672c0.416,18.056,0.776,33.656-9.528,43.952C347,82.264,329.136,87.92,304.008,87.928
		c-4.248,0-8.32,1.696-11.32,4.696c-3.008,3.008-4.688,7.08-4.68,11.328l0.144,88.08c0.008,4.232,1.696,8.304,4.704,11.296
		c2.984,2.992,7.048,4.672,11.288,4.672c0.008,0,0.016,0,0.024,0H384c8.832-0.016,23.928-7.312,23.928-16.144
		c0-25.128,5.656-43,17.288-54.632s29.504-17.288,54.632-17.296c8.832,0,16.136-7.104,16.152-15.928V16.032
		C496.008,11.784,494.328,7.704,491.32,4.696z"/>
</g>
<path style="fill:#84BD5A;" d="M292.768,203.232L491.312,4.688c-3-3-7.064-4.688-11.312-4.688h-96c-8.832,0-16,7.168-16,16
	c0,3.528,0.08,7.096,0.168,10.672c0.416,18.056,0.776,33.656-9.528,43.952C347,82.264,329.136,87.92,304.008,87.928
	c-4.248,0-8.32,1.696-11.32,4.696c-3.008,3.008-4.688,7.08-4.68,11.328l0.144,88.08
	C288.152,196.224,289.816,200.248,292.768,203.232z"/>
<path style="fill:#73AE44;" d="M219.304,203.32c3.008-3,4.696-7.072,4.696-11.32V96c0-8.832-7.168-16-16-16
	c-3.528,0-7.096,0.08-10.672,0.168c-18.056,0.416-33.656,0.776-43.952-9.528C141.736,58.992,136.08,41.128,136.072,16
	c0-4.248-1.696-8.32-4.696-11.32c-3.008-3.008-7.08-4.688-11.328-4.68l-88.08,0.144c-4.232,0.008-8.304,1.688-11.296,4.696
	C17.68,7.84,16,11.904,16,16.144c0,0.008,0,0.016,0,0.024V96c0.016,8.832,7.312,23.928,16.144,23.928
	c25.128,0,43,5.656,54.632,17.288s17.288,29.504,17.296,54.632c0,8.832,7.104,16.136,15.928,16.152h87.968
	C212.216,208.008,216.296,206.328,219.304,203.32z"/>
<path style="fill:#84BD5A;" d="M20.768,4.768l198.544,198.544c3-3,4.688-7.064,4.688-11.312V96c0-8.832-7.168-16-16-16
	c-3.528,0-7.096,0.08-10.672,0.168c-18.056,0.416-33.656,0.776-43.952-9.528C141.736,58.992,136.08,41.128,136.072,16
	c0-4.248-1.696-8.32-4.696-11.32c-3.008-3.008-7.08-4.688-11.328-4.68l-88.08,0.144C27.776,0.152,23.752,1.816,20.768,4.768z"/>
<circle style="fill:#D3463C;" cx="200" cy="232" r="64"/>
<path style="fill:#E4513F;" d="M152,240c-4.424,0-8-3.576-8-8c0-30.872,25.128-56,56-56c4.424,0,8,3.576,8,8s-3.576,8-8,8
	c-22.056,0-40,17.944-40,40C160,236.424,156.424,240,152,240z"/>
<g>
	<path style="fill:#BC3E34;" d="M236.52,179.488C243.736,189.84,248,202.416,248,216c0,35.344-28.656,64-64,64
		c-13.584,0-26.16-4.264-36.52-11.488C159.048,285.12,178.24,296,200,296c35.344,0,64-28.656,64-64
		C264,210.232,253.12,191.048,236.52,179.488z"/>
	<path style="fill:#BC3E34;" d="M232,232c0,16.584,5.048,31.992,13.696,44.768C257.008,265.224,264,249.44,264,232
		s-6.992-33.224-18.304-44.768C237.048,200.008,232,215.416,232,232z"/>
	<path style="fill:#BC3E34;" d="M256,232c2.696,0,5.352-0.144,7.976-0.408C263.76,196.44,235.208,168,200,168
		c-7.528,0-14.728,1.368-21.44,3.76C187.368,206.368,218.656,232,256,232z"/>
</g>
<circle style="fill:#E4513F;" cx="312" cy="232" r="64"/>
<path style="fill:#DA4E3C;" d="M348.52,179.488C355.736,189.84,360,202.416,360,216c0,35.344-28.656,64-64,64
	c-13.584,0-26.16-4.264-36.52-11.488C271.048,285.12,290.24,296,312,296c35.344,0,64-28.656,64-64
	C376,210.232,365.12,191.048,348.52,179.488z"/>
<path style="fill:#D3463C;" d="M256,232c37.344,0,68.632-25.632,77.44-60.24c-6.712-2.392-13.912-3.76-21.44-3.76
	c-35.208,0-63.76,28.44-63.976,63.592C250.648,231.856,253.304,232,256,232z"/>
<circle style="fill:#F15642;" cx="256" cy="152" r="64"/>
<path style="fill:#E4513F;" d="M292.52,99.488C299.736,109.84,304,122.416,304,136c0,35.344-28.656,64-64,64
	c-13.584,0-26.16-4.264-36.52-11.488C215.048,205.12,234.24,216,256,216c35.344,0,64-28.656,64-64
	C320,130.232,309.12,111.048,292.52,99.488z"/>
<path style="fill:#F48473;" d="M208,160c-4.424,0-8-3.576-8-8c0-30.872,25.128-56,56-56c4.424,0,8,3.576,8,8s-3.576,8-8,8
	c-22.056,0-40,17.944-40,40C216,156.424,212.424,160,208,160z"/>
<path style="fill:#90C660;" d="M256,400c-2.048,0-4.096,0.784-5.656,2.344l-32,32c-3.128,3.128-3.128,8.184,0,11.312
	s8.184,3.128,11.312,0L256,419.312V400z"/>
<path style="fill:#84BD5A;" d="M256,400c2.048,0,4.096,0.784,5.656,2.344l32,32c3.128,3.128,3.128,8.184,0,11.312
	s-8.184,3.128-11.312,0L256,419.312V400z"/>
<path style="fill:#90C660;" d="M256,352c-2.048,0-4.096,0.784-5.656,2.344l-32,32c-3.128,3.128-3.128,8.184,0,11.312
	s8.184,3.128,11.312,0L256,371.312V352z"/>
<path style="fill:#84BD5A;" d="M256,352c2.048,0,4.096,0.784,5.656,2.344l32,32c3.128,3.128,3.128,8.184,0,11.312
	s-8.184,3.128-11.312,0L256,371.312V352z"/>
<path style="fill:#90C660;" d="M256,304c-2.048,0-4.096,0.784-5.656,2.344l-32,32c-3.128,3.128-3.128,8.184,0,11.312
	s8.184,3.128,11.312,0L256,323.312V304z"/>
<g>
	<path style="fill:#84BD5A;" d="M256,304c2.048,0,4.096,0.784,5.656,2.344l32,32c3.128,3.128,3.128,8.184,0,11.312
		s-8.184,3.128-11.312,0L256,323.312V304z"/>
	<path style="fill:#84BD5A;" d="M464,64h-32l-13.656,13.656C419.792,79.112,421.792,80,424,80h40c4.424,0,8-3.576,8-8
		S468.424,64,464,64z"/>
</g>
<path style="fill:#90C660;" d="M432,32v32l-13.656,13.656C416.888,76.208,416,74.208,416,72V32c0-4.424,3.576-8,8-8
	S432,27.576,432,32z"/>
<path style="fill:#84BD5A;" d="M428,100h-32l-13.656,13.656c1.448,1.456,3.448,2.344,5.656,2.344h40c4.424,0,8-3.576,8-8
	S432.424,100,428,100z"/>
<path style="fill:#90C660;" d="M396,68v32l-13.656,13.656C380.888,112.208,380,110.208,380,108V68c0-4.424,3.576-8,8-8
	S396,63.576,396,68z"/>
<path style="fill:#84BD5A;" d="M392,136h-32l-13.656,13.656c1.448,1.456,3.448,2.344,5.656,2.344h40c4.424,0,8-3.576,8-8
	S396.424,136,392,136z"/>
<g>
	<path style="fill:#90C660;" d="M360,104v32l-13.656,13.656C344.888,148.208,344,146.208,344,144v-40c0-4.424,3.576-8,8-8
		S360,99.576,360,104z"/>
	<path style="fill:#90C660;" d="M80,32v32l13.656,13.656C95.112,76.208,96,74.208,96,72V32c0-4.424-3.576-8-8-8S80,27.576,80,32z"/>
</g>
<path style="fill:#84BD5A;" d="M48,64h32l13.656,13.656C92.208,79.112,90.208,80,88,80H48c-4.424,0-8-3.576-8-8S43.576,64,48,64z"/>
<path style="fill:#90C660;" d="M116,68v32l13.656,13.656c1.456-1.448,2.344-3.448,2.344-5.656V68c0-4.424-3.576-8-8-8
	C119.576,60,116,63.576,116,68z"/>
<path style="fill:#84BD5A;" d="M84,100h32l13.656,13.656C128.208,115.112,126.208,116,124,116H84c-4.424,0-8-3.576-8-8
	S79.576,100,84,100z"/>
<path style="fill:#90C660;" d="M152,104v32l13.656,13.656c1.456-1.448,2.344-3.448,2.344-5.656v-40c0-4.424-3.576-8-8-8
	S152,99.576,152,104z"/>
<path style="fill:#84BD5A;" d="M120,136h32l13.656,13.656C164.208,151.112,162.208,152,160,152h-40c-4.424,0-8-3.576-8-8
	S115.576,136,120,136z"/>
<g>
</g>
<g>
</g>
<g>
</g>
<g>
</g>
<g>
</g>
<g>
</g>
<g>
</g>
<g>
</g>
<g>
</g>
<g>
</g>
<g>
</g>
<g>
</g>
<g>
</g>
<g>
</g>
<g>
</g>
</svg>
