<?xml version="1.0" encoding="iso-8859-1"?>
<!-- Generator: Adobe Illustrator 19.0.0, SVG Export Plug-In . SVG Version: 6.00 Build 0)  -->
<svg version="1.1" id="Layer_1" xmlns="http://www.w3.org/2000/svg" xmlns:xlink="http://www.w3.org/1999/xlink" x="0px" y="0px"
	 viewBox="0 0 512 512" style="enable-background:new 0 0 512 512;" xml:space="preserve">
<path style="fill:#FEC461;" d="M184,184v312c0,8.8,7.192,16,16,16h112c8.8,0,16-7.2,16-16V184H184z"/>
<path style="fill:#F7B84E;" d="M256,184v328h56c8.8,0,16-7.2,16-16V184H256z"/>
<rect x="248" y="104" style="fill:#B36345;" width="16" height="40"/>
<path style="fill:#F7B84E;" d="M248,0c30.92,0,56,25.08,56,56s-25.08,56-56,56V0z"/>
<path style="fill:#F7954C;" d="M248,16c22.088,0,40,17.904,40,40s-17.912,40-40,40V16z"/>
<path style="fill:#F37046;" d="M248,48c13.248,0,24,10.752,24,24s-10.752,24-24,24V48z"/>
<path style="fill:#F7B84E;" d="M248,112c-22.088,0-40-17.912-40-40c0-22.096,17.912-40,40-40V112z"/>
<path style="fill:#F7954C;" d="M248,96c-13.248,0-24-10.752-24-24c0-13.256,10.752-24,24-24V96z"/>
<polygon style="fill:#F15642;" points="256,440 184,464 184,496 256,472 "/>
<polygon style="fill:#D3463C;" points="328,416 256,440 256,472 328,448 "/>
<polygon style="fill:#F15642;" points="256,376 184,400 184,432 256,408 "/>
<polygon style="fill:#D3463C;" points="328,352 256,376 256,408 328,384 "/>
<polygon style="fill:#F15642;" points="256,312 184,336 184,368 256,344 "/>
<polygon style="fill:#D3463C;" points="328,288 256,312 256,344 328,320 "/>
<path style="fill:#D89C45;" d="M184,184v93.784c2.36,1.376,5.072,2.216,8,2.216c8.832,0,16-7.168,16-16v-40c0-8.832,7.168-16,16-16
	s16,7.168,16,16v64c0,8.832,7.168,16,16,16s16-7.168,16-16v-32c0-8.832,7.168-16,16-16s16,7.168,16,16s7.168,16,16,16
	c2.928,0,5.632-0.84,8-2.216V184H184z"/>
<path style="fill:#FCD063;" d="M320,128h-16h-32h-32h-32h-16c-8.832,0-16,7.168-16,16v104c0,8.832,7.168,16,16,16s16-7.168,16-16
	v-40c0-8.832,7.168-16,16-16s16,7.168,16,16v64c0,8.832,7.168,16,16,16s16-7.168,16-16v-32c0-8.832,7.168-16,16-16s16,7.168,16,16
	s7.168,16,16,16s16-7.168,16-16v-96C336,135.168,328.832,128,320,128z"/>
<path style="fill:#FFD773;" d="M240,128h-32h-16c-8.832,0-16,7.168-16,16v104c0,8.832,7.168,16,16,16s16-7.168,16-16v-40
	c0-8.832,7.168-16,16-16s16,7.168,16,16v64c0,8.832,7.168,16,16,16V128H240z"/>
<g>
</g>
<g>
</g>
<g>
</g>
<g>
</g>
<g>
</g>
<g>
</g>
<g>
</g>
<g>
</g>
<g>
</g>
<g>
</g>
<g>
</g>
<g>
</g>
<g>
</g>
<g>
</g>
<g>
</g>
</svg>
