<?xml version="1.0" encoding="iso-8859-1"?>
<!-- Generator: Adobe Illustrator 19.0.0, SVG Export Plug-In . SVG Version: 6.00 Build 0)  -->
<svg version="1.1" id="Layer_1" xmlns="http://www.w3.org/2000/svg" xmlns:xlink="http://www.w3.org/1999/xlink" x="0px" y="0px"
	 viewBox="0 0 512 512" style="enable-background:new 0 0 512 512;" xml:space="preserve">
<path style="fill:#FEC461;" d="M296.001,144c0-8.8-7.2-16-16-16h-112c-8.8,0-16,7.2-16,16v272h144V144z"/>
<path style="fill:#F7B84E;" d="M296.001,416V144c0-8.8-7.2-16-16-16h-56v288H296.001z"/>
<path style="fill:#D89C45;" d="M296.001,146.216c-2.368-1.376-5.072-2.216-8-2.216h-16h-32h-32h-32h-16c-2.928,0-5.64,0.84-8,2.216
	v131.56c2.36,1.376,5.072,2.216,8,2.216c8.832,0,16-7.168,16-16v-40c0-8.832,7.168-16,16-16s16,7.168,16,16v64
	c0,8.832,7.168,16,16,16s16-7.168,16-16v-32c0-8.832,7.168-16,16-16c8.84,0,16,7.168,16,16s7.168,16,16,16
	c2.928,0,5.632-0.84,8-2.216V146.216z"/>
<rect x="215.985" y="104" style="fill:#B36345;" width="16" height="40"/>
<path style="fill:#FCD063;" d="M288.001,128h-16h-32h-32h-32h-16c-8.832,0-16,7.168-16,16v104c0,8.832,7.168,16,16,16
	s16-7.168,16-16v-40c0-8.832,7.168-16,16-16s16,7.168,16,16v64c0,8.832,7.168,16,16,16s16-7.168,16-16v-32c0-8.832,7.168-16,16-16
	c8.84,0,16,7.168,16,16s7.168,16,16,16s16-7.168,16-16v-96C304.001,135.168,296.833,128,288.001,128z"/>
<path style="fill:#485B6A;" d="M352.001,512h-256c-6.056,0-11.6-3.424-14.312-8.84l-32-64c-2.48-4.96-2.216-10.848,0.704-15.56
	c2.912-4.728,8.056-7.6,13.6-7.6h320c5.544,0,10.696,2.872,13.608,7.592c2.912,4.712,3.176,10.6,0.704,15.56l-32,64
	C363.601,508.576,358.057,512,352.001,512z"/>
<path style="fill:#35495C;" d="M416.001,344c-26.472,0-48,21.528-48,48c0,8.752,2.392,16.928,6.496,24H223.993v80H78.105l3.576,7.16
	c2.712,5.416,8.256,8.84,14.312,8.84h128h16h112c6.056,0,11.6-3.424,14.312-8.84l32-64c0.368-0.736,0.544-1.512,0.8-2.28
	c5.264,1.976,10.944,3.12,16.896,3.12c26.472,0,48-21.528,48-48S442.473,344,416.001,344z M416.001,424c-17.648,0-32-14.36-32-32
	s14.352-32,32-32c17.64,0,32,14.36,32,32S433.641,424,416.001,424z"/>
<path style="fill:#F7B84E;" d="M215.993,0c30.928,0,56,25.08,56,56s-25.08,56-56,56V0z"/>
<path style="fill:#F7954C;" d="M215.993,16c22.088,0,40,17.904,40,40s-17.912,40-40,40V16z"/>
<path style="fill:#F37046;" d="M215.993,48c13.256,0,24,10.752,24,24s-10.744,24-24,24V48z"/>
<path style="fill:#F7B84E;" d="M215.993,112c-22.088,0-40-17.912-40-40c0-22.096,17.912-40,40-40V112z"/>
<path style="fill:#F7954C;" d="M215.993,96c-13.248,0-24-10.752-24-24c0-13.256,10.752-24,24-24V96z"/>
<path style="fill:#FFD773;" d="M207.993,128h-32h-16c-8.832,0-16,7.168-16,16v104c0,8.832,7.168,16,16,16s16-7.168,16-16v-40
	c0-8.832,7.168-16,16-16s16,7.168,16,16v64c0,8.832,7.168,16,16,16V128H207.993z"/>
<g>
</g>
<g>
</g>
<g>
</g>
<g>
</g>
<g>
</g>
<g>
</g>
<g>
</g>
<g>
</g>
<g>
</g>
<g>
</g>
<g>
</g>
<g>
</g>
<g>
</g>
<g>
</g>
<g>
</g>
</svg>
