<svg id="Layer_1" enable-background="new 0 0 512 512" height="512" viewBox="0 0 512 512" width="512" xmlns="http://www.w3.org/2000/svg"><g><path d="m464 0h-376c-30.878 0-56 25.122-56 56v400c0 30.878 25.122 56 56 56h376c8.836 0 16-7.164 16-16 0-14.529 0-204.281 0-480 0-8.836-7.164-16-16-16zm-16 400h-320v-368h320zm-384-344c0-13.233 10.767-24 24-24h8v368c-8.825 0-19.144-.733-32 5.375zm384 424h-360c-13.233 0-24-10.767-24-24 0-13.254 10.745-24 24-24h360z"/><path d="m314.94 271.179c8.382 2.797 17.444-1.735 20.238-10.119l4.353-13.06h40.936l4.353 13.06c2.794 8.384 11.855 12.914 20.238 10.119 8.383-2.794 12.914-11.855 10.119-20.238-7.191-21.573-18.9-56.7-29.47-88.411-8.212-24.638-43.2-24.653-51.417 0-3.641 10.922-5.934 17.803-29.47 88.411-2.793 8.382 1.737 17.444 10.12 20.238zm54.861-55.179h-19.602l9.801-29.403z"/><path d="m176 120h1.448c3.418 18.818 12.538 34.706 23.174 47.521-6.954 4.625-13.244 8.288-17.103 10.336-7.811 4.132-10.793 13.813-6.662 21.625 4.131 7.81 13.811 10.795 21.625 6.662 2.306-1.22 13.176-7.099 25.693-15.93 12.857 10.082 23.545 15.536 24.67 16.098 7.922 3.96 17.484.719 21.432-7.13 3.964-7.881.784-17.492-7.087-21.475-.178-.09-5.998-3.092-13.793-8.634 5.235-5.406 9.876-11.176 13.28-17.163 4.368-7.681 1.683-17.449-5.999-21.817-7.681-4.367-17.448-1.683-21.817 5.999-2.161 3.799-5.364 7.688-9.155 11.503-6.616-7.868-12.358-17.125-15.397-27.594h61.691c8.836 0 16-7.164 16-16s-7.164-16-16-16h-32v-8c0-8.836-7.164-16-16-16s-16 7.164-16 16v8h-32c-8.836 0-16 7.164-16 16s7.164 15.999 16 15.999z"/></g></svg>