<svg id="Layer_1" enable-background="new 0 0 512 512" height="512" viewBox="0 0 512 512" width="512" xmlns="http://www.w3.org/2000/svg"><g><path d="m448 0h-384c-8.837 0-16 7.164-16 16v480c0 8.836 7.163 16 16 16h384c8.837 0 16-7.164 16-16v-480c0-8.836-7.163-16-16-16zm-16 480h-352v-448h352z"/><path d="m122.94 191.179c8.385 2.798 17.444-1.737 20.238-10.119l4.353-13.06h40.937l4.353 13.06c2.794 8.384 11.854 12.914 20.238 10.119 8.383-2.794 12.914-11.855 10.119-20.238-39.948-119.847-25.933-77.799-29.471-88.414-8.216-24.632-43.193-24.652-51.417.003-3.221 9.662 9.067-27.203-29.47 88.411-2.794 8.383 1.738 17.444 10.12 20.238zm54.862-55.179h-19.603l9.801-29.405z"/><path d="m240 136h8v8c0 8.836 7.163 16 16 16s16-7.164 16-16v-8h7c8.837 0 16-7.164 16-16s-7.163-16-16-16h-7v-8c0-8.836-7.163-16-16-16s-16 7.164-16 16v8h-8c-8.837 0-16 7.164-16 16s7.163 16 16 16z"/><path d="m272 240c0 8.836 7.163 16 16 16h96c8.837 0 16-7.164 16-16s-7.163-16-16-16h-96c-8.837 0-16 7.164-16 16z"/><path d="m240 256c8.837 0 16-7.164 16-16s-7.163-16-16-16h-64c-8.837 0-16 7.164-16 16s7.163 16 16 16z"/><path d="m384 288h-24c-8.837 0-16 7.164-16 16s7.163 16 16 16h24c8.837 0 16-7.164 16-16s-7.163-16-16-16z"/><path d="m112 304c0 8.836 7.163 16 16 16h184c8.837 0 16-7.164 16-16s-7.163-16-16-16h-184c-8.837 0-16 7.164-16 16z"/><path d="m384 352h-168c-8.837 0-16 7.164-16 16s7.163 16 16 16h168c8.837 0 16-7.164 16-16s-7.163-16-16-16z"/><path d="m128 384h40c8.837 0 16-7.164 16-16s-7.163-16-16-16h-40c-8.837 0-16 7.164-16 16s7.163 16 16 16z"/><path d="m328 416h-72c-8.837 0-16 7.164-16 16s7.163 16 16 16h72c8.837 0 16-7.164 16-16s-7.163-16-16-16z"/><path d="m208 416h-80c-8.837 0-16 7.164-16 16s7.163 16 16 16h80c8.837 0 16-7.164 16-16s-7.163-16-16-16z"/></g></svg>