<svg id="Layer_1" enable-background="new 0 0 512 512" height="512" viewBox="0 0 512 512" width="512" xmlns="http://www.w3.org/2000/svg"><g><path d="m496 31.99h-480c-8.836 0-16 7.164-16 16v368c0 8.836 7.164 16 16 16h184v32c0 12.422 13.584 20.11 24.232 13.72l31.768-19.06 31.768 19.061c10.65 6.391 24.232-1.301 24.232-13.72v-32h184c8.836 0 16-7.164 16-16v-368c0-8.837-7.164-16.001-16-16.001zm-268.574 323.991c-24.577-25.075-6.961-67.99 28.574-67.99 35.544 0 53.148 42.918 28.571 67.993-15.711 16.035-41.444 16.022-57.145-.003zm28.574-99.991c-45.729 0-80.491 42.514-70.202 88h-51.823c-5.801-22.458-23.518-40.174-45.976-45.976v-132.048c22.458-5.801 40.174-23.518 45.976-45.976h244.049c5.801 22.458 23.518 40.174 45.976 45.976v132.049c-22.458 5.801-40.174 23.518-45.976 45.976h-51.823c10.293-45.497-24.481-88.001-70.201-88.001zm24 179.741c-16.165-9.699-18.148-11.741-24-11.741-2.849 0-5.698.76-8.232 2.28l-15.768 9.461v-39.812c15.199 5.354 32.499 5.461 48 0zm200-35.741h-168v-24h80c8.836 0 16-7.164 16-16 0-17.645 14.355-32 32-32 8.836 0 16-7.164 16-16v-160c0-8.836-7.164-16-16-16-17.645 0-32-14.355-32-32 0-8.836-7.164-16-16-16h-272c-8.836 0-16 7.164-16 16 0 17.645-14.355 32-32 32-8.836 0-16 7.164-16 16v160c0 8.836 7.164 16 16 16 17.645 0 32 14.355 32 32 0 8.836 7.164 16 16 16h80v24h-168v-336h448z"/><path d="m368 215.99v-56c0-8.836-7.164-16-16-16h-192c-8.836 0-16 7.164-16 16v56c0 8.836 7.164 16 16 16h192c8.836 0 16-7.163 16-16zm-32-16h-160v-24h160z"/></g></svg>