<svg id="Layer_1" enable-background="new 0 0 512 512" height="512" viewBox="0 0 512 512" width="512" xmlns="http://www.w3.org/2000/svg"><g><path d="m240 64c0-37.166-19.869-64-56-64-35.888 0-64 49.196-64 112v26.933c-56.67 36.485-120 81.366-120 149.067 0 83.81 50.051 128 120 128v40c0 24-8.5 24-16 24-1.356 0-5.485 0-7.731-5.421-1.781-4.301-1.53-10.689 3.045-15.265 6.249-6.248 6.249-16.379 0-22.627-6.248-6.249-16.379-6.249-22.627 0-26.951 26.948-11.09 75.313 27.313 75.313 28.524 0 48-17.633 48-56v-42.436c54.119-8.655 88-40.342 88-93.564 0-70.193-53.658-92.646-88-95.64v-67.908c47.424-30.253 88-56.593 88-92.452zm-88 48c0-49.627 20.719-80 32-80 5.936 0 24 0 24 32 0 15.531-26.097 34.863-56 54.399zm-56 176c0-14.585 10.174-22.687 24-27.577v123.577c-32.865 0-88-12.472-88-96 0-45.13 42.247-80.183 88-110.82v49.938c-55.22 13.362-63.717 57.134-50.893 84.997 5.932 12.89 24.409 12.564 30.096-.436 1.909-4.364 1.853-9.339-.181-13.646-1.54-3.26-3.022-7.148-3.022-10.033zm112 32c0 39.101-26.146 55.365-56 61.189v-124.655c17.587 2.129 56 12.602 56 63.466z"/><path d="m344 225v-141.028l104-30.588v85.369c-31.162-11.053-64 12.194-64 45.247 0 26.467 21.532 48 48 48s48-21.533 48-48c0-163.827.322-153.215-.65-156.515-2.497-8.562-11.541-13.293-19.864-10.835-145.089 42.685-136.868 40.085-139.055 41.253-3.593 1.937-6.385 5.189-7.686 9.269-1.115 3.524-.745-4.304-.745 111.58-31.162-11.052-64 12.195-64 45.248 0 26.467 21.532 48 48 48 27.248 0 48-22.685 48-47zm88-25c-8.822 0-16-7.178-16-16s7.178-16 16-16 16 7.178 16 16-7.178 16-16 16zm-136 40c-8.822 0-16-7.178-16-16s7.178-16 16-16 16 7.178 16 16-7.178 16-16 16z"/><path d="m496 304c-13.141 0-16.145-2.591-21.597-7.295-10.203-8.803-21.736-16.705-50.403-16.705-8.837 0-16 7.164-16 16v106.752c-5.008-1.776-10.391-2.752-16-2.752-26.468 0-48 21.533-48 48s21.532 48 48 48 48-21.533 48-48v-134.58c6.585 1.548 9.712 4.245 13.5 7.513 9.554 8.244 19.347 15.067 42.5 15.067 8.837 0 16-7.164 16-16s-7.163-16-16-16zm-104 160c-8.822 0-16-7.178-16-16s7.178-16 16-16 16 7.178 16 16-7.178 16-16 16z"/></g></svg>