<?xml version="1.0" encoding="UTF-8"?><svg version="1.1" id="Layer_1" xmlns="http://www.w3.org/2000/svg" xmlns:xlink="http://www.w3.org/1999/xlink" x="0px" y="0px" viewBox="0 0 1000 1000" style="enable-background:new 0 0 1000 1000;" xml:space="preserve" width="1000px" height="1000px">

<ellipse cx="497.4" cy="719.9" rx="133.9" ry="18.6" style="opacity:0.86;fill:#2D2C3A;enable-background:new    ;"/>
<path d="M628.7,411.1h-3.2c-1.8,0-3.4,0.8-4.5,2.2c-5,7.2-5.7,15.7-5.7,24.8s0.7,17.6,5.7,24.8c1,1.4,2.7,2.2,4.5,2.2
	h3.2c1.9,0,3.6-1.3,4.1-3.1c3-15.8,2.2-32.1,0-47.8C632.5,412.5,630.6,411.1,628.7,411.1z" style="fill:#8E9091;"/>
<path d="M628.7,411.1h-3.2c-1.8,0-3.4,0.8-4.5,2.2c-5,7.2-5.7,15.7-5.7,24.8s0.7,17.6,5.7,24.8c1,1.4,2.7,2.2,4.5,2.2
	h3.2c1.9,0,3.6-1.3,4.1-3.1c3-15.8,2.2-32.1,0-47.8C632.5,412.5,630.6,411.1,628.7,411.1z" style="opacity:0.91;fill:#95A0C6;enable-background:new    ;"/>
<g>
	<path d="M625.3,468.1c-2.6,0-5.2-1.3-6.8-3.4c-5.8-8.4-6.3-18.1-6.3-26.6c0-8.5,0.5-18.2,6.3-26.5
		c1.7-2.3,4.3-3.5,7-3.5l3.2,0c3.5,0,6.6,2.5,7.1,5.7c2.6,18.7,2.6,34.6,0,48.8c0,0.1,0,0.2-0.1,0.3c-0.9,3.1-3.7,5.3-7,5.3
		c0,0,0,0,0,0h-3.2C625.4,468.1,625.4,468.1,625.3,468.1z M625.4,414.1c-0.8,0-1.6,0.4-2,1c-4.3,6.1-5.2,13.6-5.2,23
		s0.9,16.9,5.2,23.1c0.4,0.6,1.2,0.9,2,0.9l3.3,0l0,0c0.5,0,1-0.3,1.2-0.8c2.5-13.5,2.5-28.7-0.1-46.7c-0.1-0.1-0.6-0.5-1.1-0.5
		L625.4,414.1C625.4,414.1,625.4,414.1,625.4,414.1z M632.8,462L632.8,462L632.8,462z" style="fill:#192244;"/>
</g>
<path d="M579.3,331.5c-3.4-11.3-3.8-21.8-4.2-28.8c-0.3-6-0.1-24-5.1-29.2c-4.4-4.6-8.5-7.8-28.5-10.8
	c-14.5-2.2-29.2-3.5-43.8-4c-14.7,0.4-29.3,1.7-43.8,4c-20,3-24,6.2-28.5,10.8c-5,5.1-4.8,23.1-5.1,29.2c-0.4,7-0.8,17.5-4.2,28.8
	c-1.6,5.3-3.6,10.4-6,15.3h175.3C582.9,341.9,580.9,336.8,579.3,331.5z" style="fill:#55C9FF;"/>
<g>
	<path d="M585.3,348.8H410c-0.7,0-1.3-0.4-1.7-0.9c-0.4-0.6-0.4-1.3-0.1-1.9c2.4-4.8,4.4-9.9,5.9-15
		c3.2-10.6,3.7-20.8,4.1-27.5l0-0.8c0-0.8,0.1-1.9,0.1-3c0.4-10.8,1.1-22.8,5.6-27.4c4.9-5.1,9.3-8.4,29.6-11.4
		c14.5-2.2,29.4-3.6,44.1-4c0,0,0.1,0,0.1,0c14.7,0.4,29.5,1.8,44.1,4c20.3,3,24.7,6.3,29.6,11.4c4.4,4.6,5.2,16.5,5.6,27.4
		c0,1.2,0.1,2.2,0.1,3.1l0,0.8c0.4,6.7,0.9,16.9,4.1,27.5c0,0,0,0,0,0c1.5,5.1,3.5,10.2,5.9,15c0.3,0.6,0.3,1.4-0.1,1.9
		C586.7,348.5,586,348.8,585.3,348.8z M413.2,344.8h169c-1.9-4.1-3.5-8.4-4.8-12.7l0,0c-3.3-11.1-3.9-21.6-4.2-28.5l0-0.8
		c0-0.8-0.1-1.9-0.1-3.1c-0.2-6.8-0.7-20.9-4.4-24.7c-3.7-3.8-6.9-7.2-27.3-10.2c-14.4-2.2-29-3.5-43.5-3.9
		c-14.5,0.4-29.2,1.7-43.5,3.9c-20.4,3-23.6,6.3-27.3,10.2c-3.7,3.9-4.2,18-4.4,24.7c0,1.2-0.1,2.3-0.1,3.1l0,0.8
		c-0.4,6.9-0.9,17.4-4.2,28.5C416.7,336.4,415.1,340.7,413.2,344.8z" style="fill:#26A7BC;"/>
</g>
<path d="M579.3,651.6c-3.4,11.3-3.8,21.8-4.2,28.8c-0.3,6-0.1,24-5.1,29.2c-4.4,4.6-8.5,7.8-28.5,10.8
	c-14.5,2.2-29.2,3.5-43.8,4c-14.7-0.4-29.3-1.7-43.8-4c-20-3-24-6.2-28.5-10.8c-5-5.1-4.8-23.1-5.1-29.2c-0.4-7-0.8-17.5-4.2-28.8
	c-1.6-5.3-3.6-10.4-6-15.3h175.3C582.9,641.2,580.9,646.4,579.3,651.6z" style="fill:#49C6F2;"/>
<path d="M410,636.3c2.3,4.7,4.2,9.5,5.8,14.5h163.8c1.5-5,3.5-9.8,5.8-14.5H410z" style="fill:#26A7BC;"/>
<g>
	<path d="M497.7,726.3C497.6,726.3,497.6,726.3,497.7,726.3c-14.8-0.4-29.6-1.8-44.1-4c-20.3-3-24.7-6.3-29.6-11.4
		c-4.4-4.6-5.2-16.6-5.6-27.4c0-1.2-0.1-2.2-0.1-3l0-0.8c-0.4-6.7-0.9-16.9-4.1-27.5c-1.5-5.1-3.5-10.2-5.9-15
		c-0.3-0.6-0.3-1.4,0.1-1.9c0.4-0.6,1-0.9,1.7-0.9h175.3c0.7,0,1.3,0.4,1.7,0.9c0.4,0.6,0.4,1.3,0.1,1.9c-2.4,4.8-4.4,9.9-5.9,15
		l0,0c-3.2,10.6-3.7,20.8-4.1,27.5l0,0.8c0,0.8-0.1,1.9-0.1,3.1c-0.4,10.8-1.1,22.8-5.6,27.4c-4.9,5.1-9.3,8.4-29.6,11.4
		C527.3,724.6,512.4,725.9,497.7,726.3C497.7,726.3,497.7,726.3,497.7,726.3z M413.2,638.3c1.9,4.1,3.5,8.4,4.8,12.7
		c3.3,11.1,3.9,21.6,4.2,28.5l0,0.8c0,0.8,0.1,1.9,0.1,3.1c0.2,6.8,0.7,20.9,4.4,24.7c3.7,3.8,6.9,7.2,27.3,10.2
		c14.4,2.2,29,3.5,43.5,3.9c14.5-0.4,29.2-1.7,43.5-3.9c20.4-3,23.6-6.3,27.3-10.2c3.7-3.9,4.2-18,4.4-24.7c0-1.2,0.1-2.3,0.1-3.1
		l0-0.8c0.4-6.9,0.9-17.4,4.2-28.5l0,0c1.3-4.3,2.9-8.6,4.8-12.7H413.2z M579.3,651.6L579.3,651.6L579.3,651.6z" style="fill:#26A7BC;"/>
</g>
<path d="M417.7,346.3h159.4c24.3,0,44,19.7,44,44v202c0,24.3-19.7,44-44,44H417.7c-24.3,0-44-19.7-44-44v-202
	C373.7,366,393.4,346.3,417.7,346.3z" style="fill:#404A6E;"/>
<path d="M577.1,618.3H417.7c-24.3,0-44-19.7-44-44v18c0,24.3,19.7,44,44,44h159.4c24.3,0,44-19.7,44-44v-18
	C621.1,598.6,601.4,618.3,577.1,618.3z" style="fill:#273052;"/>
<path d="M605.5,390.3v202c0,15.5-12.5,28-28,28H417.3c-15.5,0-28-12.5-28-28v-202c0-15.5,12.5-28,28-28h160.2
	C593,362.3,605.5,374.8,605.5,390.3z" style="fill:#404A6E;"/>
<g>
	<path d="M577.5,622.3H417.3c-16.5,0-30-13.5-30-30v-202c0-16.5,13.5-30,30-30h160.2c16.5,0,30,13.5,30,30v202
		C607.5,608.9,594.1,622.3,577.5,622.3z M417.3,364.3c-14.3,0-26,11.7-26,26v202c0,14.3,11.7,26,26,26h160.2c14.3,0,26-11.7,26-26
		v-202c0-14.3-11.7-26-26-26H417.3z" style="fill:#192244;"/>
</g>
<path d="M601.6,353c-7.4-4.4-15.9-6.7-24.5-6.7H417.7c-9.1,0-18,2.5-25.7,7.5c6,9.9,17.7,16.5,31.1,16.5H570
	C583.8,370.3,595.7,363.3,601.6,353z" style="opacity:0.91;fill:#6D7493;enable-background:new    ;"/>
<path d="M629.9,499.2c-0.2-1.8-1.7-3.1-3.4-3h-5.3v83.3h5.3c1.8,0.1,3.3-1.2,3.4-3C630.4,550.8,630.4,525,629.9,499.2z" style="opacity:0.91;fill:#6D7493;enable-background:new    ;"/>
<g>
	<path d="M626.7,582.6c-0.1,0-0.2,0-0.3,0h-5.3c-1.7,0-3-1.3-3-3v-83.3c0-1.7,1.3-3,3-3h5.3c3.4-0.1,6.2,2.4,6.5,5.7
		c0,0.1,0,0.1,0,0.2c0.4,25.7,0.4,51.7,0,77.4c0,0.1,0,0.1,0,0.2C632.6,580.1,629.9,582.6,626.7,582.6z M624.2,576.6h2.3
		c0.1,0,0.1,0,0.2,0c0.2,0,0.3-0.1,0.3-0.2c0.4-25.5,0.4-51.4,0-76.9c0-0.1-0.2-0.2-0.3-0.2c-0.1,0-0.1,0-0.2,0h-2.3V576.6z" style="fill:#192244;"/>
</g>
<g>
	<path d="M577.1,639.8H417.7c-26.2,0-47.5-21.3-47.5-47.5v-202c0-26.2,21.3-47.5,47.5-47.5h159.4
		c26.2,0,47.5,21.3,47.5,47.5v202C624.6,618.5,603.3,639.8,577.1,639.8z M417.7,349.8c-22.3,0-40.5,18.2-40.5,40.5v202
		c0,22.3,18.2,40.5,40.5,40.5h159.4c22.3,0,40.5-18.2,40.5-40.5v-202c0-22.3-18.2-40.5-40.5-40.5H417.7z" style="fill:#192244;"/>
</g>
<g>
	<path d="M434.4,440.1h-15.3c-3.3,0-6-2.7-6-6v-15.3c0-3.3,2.7-6,6-6h10.8c1.1,0,2,0.9,2,2s-0.9,2-2,2h-10.8
		c-1.1,0-2,0.9-2,2v15.3c0,1.1,0.9,2,2,2h15.3c1.1,0,2-0.9,2-2v-7.2c0-1.1,0.9-2,2-2s2,0.9,2,2v7.2
		C440.4,437.5,437.7,440.1,434.4,440.1z" style="fill:#F6537F;"/>
</g>
<g>
	<path d="M427.7,431.8c-0.7,0-1.3-0.3-1.8-0.7l-5.9-5.9c-1-1-1-2.6,0-3.5c1-1,2.6-1,3.5,0l3.9,3.9l9-11.2
		c0.9-1.1,2.4-1.2,3.5-0.4c1.1,0.9,1.2,2.4,0.4,3.5l-10.7,13.3c-0.4,0.6-1.1,0.9-1.8,0.9C427.8,431.8,427.7,431.8,427.7,431.8z" style="fill:#F6537F;"/>
</g>
<g>
	<rect x="413" y="457" width="65.6" height="2" style="fill:#F6537F;"/>
</g>
<path d="M442.7,465.5v33.9c0,1.3-0.1,2.6-0.2,3.9c-0.1,1.1-0.4,2.1-0.7,3.1c-0.6,1.4-1.3,2.7-2.3,3.8
	c-1,1.1-2.1,2.1-3.4,2.9c-1.3,0.8-2.8,1.5-4.3,1.9c-1.6,0.5-3.3,0.7-5,0.7c-5.2,0-9.5-2.4-12.8-7.2l8.3-8.5c0.1,1.3,0.6,2.5,1.4,3.5
	c0.7,0.8,1.7,1.3,2.7,1.3c2.4,0,3.6-1.9,3.6-5.6v-33.7H442.7z" style="fill:#2EC2F1;"/>
<path d="M462,481.1v18.7c0,4.1,2,6.1,6,6.1c4,0,6-2,6-6.1v-18.7h11.7v21c0,4.5-1.5,7.9-4.4,10.1s-7.4,3.4-13.2,3.4
	c-5.9,0-10.3-1.1-13.2-3.4c-3-2.2-4.4-5.6-4.4-10.1v-21H462z" style="fill:#2EC2F1;"/>
<path d="M514.1,489.7c-1.9-1.1-4.1-1.6-6.3-1.7c-0.9,0-1.8,0.2-2.6,0.6c-0.6,0.4-1,1-1,1.7c0,0.3,0,0.6,0.2,0.9
	c0.2,0.3,0.4,0.5,0.7,0.7c0.5,0.3,1.1,0.5,1.6,0.6c0.7,0.2,1.7,0.4,2.8,0.6c2.7,0.4,5.2,1.6,7.2,3.5c1.6,1.7,2.5,4,2.4,6.4
	c0,1.8-0.4,3.6-1.2,5.2c-0.8,1.5-1.9,2.9-3.2,3.9c-1.5,1.1-3.2,1.9-5,2.5c-2.1,0.6-4.2,0.9-6.4,0.9c-4.7-0.1-9.3-1.4-13.3-3.8
	l4.3-8.3c3.3,2.2,6.4,3.4,9.3,3.4c0.9,0,1.9-0.2,2.7-0.7c0.6-0.4,1-1.1,1-1.8c0-0.4,0-0.7-0.2-1.1c-0.1-0.3-0.4-0.6-0.7-0.8
	c-0.5-0.3-1-0.5-1.5-0.6c-0.7-0.2-1.5-0.4-2.6-0.6c-3.6-0.7-6.2-1.8-7.6-3.3c-1.5-1.6-2.3-3.8-2.2-6c0-1.7,0.3-3.4,1-5
	c0.7-1.5,1.7-2.8,3-3.8c1.4-1.1,3-1.9,4.7-2.4c2-0.6,4-0.9,6.1-0.8c3.7,0,7.3,0.7,10.7,2.1L514.1,489.7z" style="fill:#2EC2F1;"/>
<path d="M537.4,490.9v23.4h-11.7v-23.4h-3.9v-9.8h3.9v-10h11.7v10h6.7v9.8H537.4z" style="fill:#2EC2F1;"/>
<path d="M417.6,530.8h18.8c3.2,0,6.4,0.7,9.4,2c2.9,1.3,5.4,3.1,7.6,5.3c2.2,2.2,3.9,4.9,5.1,7.8
	c2.5,5.9,2.5,12.6,0,18.5c-1.2,2.9-2.9,5.5-5.1,7.8c-2.2,2.3-4.8,4.1-7.6,5.4c-3,1.3-6.2,2-9.4,2h-18.8V530.8z M430.3,568.8h2.9
	c2,0,4-0.3,5.9-1c1.6-0.6,3.1-1.6,4.4-2.8c1.2-1.2,2.1-2.7,2.7-4.3c0.6-1.8,1-3.6,0.9-5.5c0-1.9-0.3-3.7-1-5.4
	c-1.2-3.3-3.8-5.9-7.1-7.2c-1.9-0.7-3.8-1.1-5.8-1h-2.9V568.8z" style="fill:#FFFFFF;"/>
<path d="M464.5,562.7c0-2.4,0.5-4.7,1.5-6.9c1-2.1,2.4-4,4.1-5.6c1.9-1.6,4-2.9,6.3-3.7c2.6-0.9,5.3-1.4,8-1.4
	c2.7,0,5.4,0.4,7.9,1.3c2.3,0.8,4.5,2.1,6.3,3.7c1.8,1.6,3.2,3.5,4.2,5.6c1,2.3,1.5,4.7,1.5,7.2c0,2.5-0.5,5-1.5,7.2
	c-1,2.1-2.4,4.1-4.2,5.6c-1.9,1.6-4,2.9-6.4,3.7c-2.6,0.9-5.3,1.3-8.1,1.3c-2.7,0-5.4-0.4-7.9-1.3c-2.3-0.8-4.4-2.1-6.2-3.7
	c-1.8-1.6-3.2-3.6-4.1-5.7C465,567.7,464.5,565.2,464.5,562.7z M476.9,562.8c0,1.1,0.2,2.1,0.6,3.1c0.4,0.9,0.9,1.7,1.6,2.4
	c0.7,0.7,1.5,1.2,2.4,1.6c1.9,0.8,4,0.8,5.9,0c0.9-0.4,1.7-0.9,2.4-1.6c0.7-0.7,1.2-1.5,1.6-2.4c0.4-0.9,0.6-2,0.6-3
	c0-1-0.2-2-0.6-2.9c-0.4-0.9-0.9-1.7-1.6-2.4c-0.7-0.7-1.5-1.2-2.4-1.6c-1.9-0.8-4-0.8-5.9,0c-0.9,0.4-1.7,0.9-2.4,1.6
	c-0.7,0.7-1.2,1.5-1.6,2.4C477.1,560.8,476.9,561.8,476.9,562.8L476.9,562.8z" style="fill:#FFFFFF;"/>
<path d="M543.8,530.8v48.8h-12.7v-48.8H543.8z" style="fill:#FFFFFF;"/>
<path d="M564.5,556.1v23.4h-11.7v-23.4h-3.9v-9.8h3.9v-10h11.7v10h6.7v9.8H564.5z" style="fill:#FFFFFF;"/>
<path d="M573.4,573.3c0-4.2,3.4-7.6,7.6-7.5s7.6,3.4,7.5,7.6c0,1-0.2,2-0.6,2.9c-0.8,1.8-2.2,3.3-4,4
	c-1.9,0.8-4,0.8-5.9,0c-1.8-0.8-3.3-2.2-4-4C573.6,575.4,573.4,574.4,573.4,573.3z" style="fill:#FFFFFF;"/>
<path d="M546,385.7c0,3.5-1.3,5.5-3.6,5.5c-2,0-3.4-1.9-3.4-5.3c0-3.5,1.5-5.4,3.6-5.4
	C544.8,380.4,546,382.4,546,385.7z M540.4,385.9c0,2.7,0.8,4.2,2.1,4.2c1.4,0,2.1-1.7,2.1-4.3c0-2.6-0.7-4.2-2.1-4.2
	C541.3,381.5,540.4,383,540.4,385.9L540.4,385.9z" style="fill:#FFFFFF;"/>
<path d="M553.5,381.8h-4l-0.4,2.7c0.3,0,0.6-0.1,0.8-0.1c0.8,0,1.6,0.2,2.2,0.6c1,0.5,1.5,1.6,1.5,2.7
	c0,2-1.7,3.6-3.7,3.6c-0.1,0-0.1,0-0.2,0c-0.9,0-1.8-0.2-2.6-0.6l0.4-1.1c0.7,0.4,1.4,0.6,2.2,0.6c1.3,0.1,2.4-0.9,2.5-2.1
	c0,0,0-0.1,0-0.1c0-1.3-0.9-2.3-3-2.3c-0.5,0-1,0-1.4,0.1l0.7-5h5L553.5,381.8z" style="fill:#FFFFFF;"/>
<path d="M555.7,384.6c0-0.5,0.3-1,0.9-1c0.5,0,1,0.3,1,0.9c0,0.1,0,0.1,0,0.2c0,0.5-0.3,1-0.9,1c-0.5,0-1-0.3-1-0.9
	C555.7,384.7,555.7,384.6,555.7,384.6z M555.7,390.2c0-0.5,0.3-1,0.9-1c0.5,0,1,0.3,1,0.9c0,0.1,0,0.1,0,0.2c0,0.5-0.3,1-0.9,1
	c-0.5,0-1-0.3-1-0.9C555.7,390.3,555.7,390.3,555.7,390.2z" style="fill:#FFFFFF;"/>
<path d="M565.1,381.8h-4l-0.4,2.7c0.3,0,0.6-0.1,0.8-0.1c0.8,0,1.6,0.2,2.2,0.6c1,0.5,1.5,1.6,1.5,2.7
	c0,2-1.7,3.6-3.7,3.6c-0.1,0-0.1,0-0.2,0c-0.9,0-1.8-0.2-2.6-0.6l0.4-1.1c0.7,0.4,1.4,0.6,2.2,0.6c1.3,0.1,2.4-0.9,2.5-2.1
	c0,0,0-0.1,0-0.1c0-1.3-0.9-2.3-3-2.3c-0.5,0-1,0-1.4,0.1l0.7-5h5L565.1,381.8z" style="fill:#FFFFFF;"/>
<path d="M567.1,391v-0.9l1.1-1.1c2.7-2.5,3.9-3.9,3.9-5.4c0.1-1-0.6-1.9-1.7-2c-0.1,0-0.3,0-0.4,0
	c-0.8,0-1.6,0.3-2.2,0.9l-0.4-1c0.8-0.7,1.9-1.1,2.9-1.1c1.6-0.1,3,1,3.2,2.7c0,0.1,0,0.2,0,0.4c0,1.9-1.4,3.5-3.6,5.6l-0.8,0.8v0
	h4.7v1.2H567.1z" style="fill:#FFFFFF;"/>
<path d="M423.1,381.4h-3.3v-1.2h8v1.2h-3.3v9.6h-1.4L423.1,381.4z" style="fill:#FFFFFF;"/>
<path d="M434.8,387.1c0.2,2.1-1.4,3.9-3.4,4.1c-0.1,0-0.3,0-0.4,0c-2,0-3.7-1.6-3.7-3.6c0-0.1,0-0.2,0-0.3
	c-0.2-2.1,1.4-3.9,3.4-4.1c0.1,0,0.3,0,0.4,0c2,0,3.7,1.6,3.7,3.6C434.8,386.8,434.8,387,434.8,387.1z M428.6,387.2c0,1.7,1,3,2.4,3
	c1.3,0,2.4-1.3,2.4-3c0-1.3-0.7-3-2.3-3S428.6,385.7,428.6,387.2L428.6,387.2z" style="fill:#FFFFFF;"/>
<path d="M443.2,379.7v9.4c0,0.7,0,1.5,0.1,2H442l-0.1-1.3h0c-0.5,1-1.5,1.6-2.6,1.5c-1.9,0-3.3-1.6-3.3-3.9
	c0-2.6,1.6-4.2,3.5-4.2c0.9-0.1,1.8,0.4,2.3,1.2h0v-4.6L443.2,379.7z M441.8,386.4c0-0.2,0-0.4-0.1-0.6c-0.2-1-1.1-1.6-2-1.6
	c-1.5,0-2.3,1.3-2.3,3c0,1.6,0.8,2.9,2.3,2.9c1,0,1.9-0.7,2.1-1.7c0-0.2,0.1-0.4,0.1-0.6V386.4z" style="fill:#FFFFFF;"/>
<path d="M449.9,391l-0.1-1h0c-0.6,0.7-1.4,1.2-2.4,1.2c-1.2,0.1-2.3-0.8-2.4-2c0-0.1,0-0.1,0-0.2
	c0-1.9,1.7-2.9,4.7-2.9v-0.2c0.1-0.9-0.5-1.7-1.4-1.8c-0.1,0-0.2,0-0.4,0c-0.7,0-1.4,0.2-2,0.6l-0.3-0.9c0.8-0.5,1.6-0.7,2.5-0.7
	c2.4,0,2.9,1.6,2.9,3.2v2.9c0,0.6,0,1.2,0.1,1.9L449.9,391z M449.7,387.1c-1.5,0-3.3,0.2-3.3,1.7c-0.1,0.7,0.5,1.3,1.1,1.3
	c0.1,0,0.1,0,0.2,0c0.8,0,1.6-0.5,1.9-1.3c0.1-0.1,0.1-0.3,0.1-0.4L449.7,387.1z" style="fill:#FFFFFF;"/>
<path d="M453.7,383.3l1.7,4.6c0.2,0.5,0.4,1.1,0.5,1.6h0c0.1-0.5,0.3-1.1,0.5-1.6l1.5-4.5h1.5l-2.1,5.5
	c-1,2.7-1.7,4-2.7,4.9c-0.5,0.4-1.1,0.8-1.7,0.9l-0.4-1.2c0.5-0.1,0.9-0.4,1.2-0.7c0.5-0.4,0.9-1,1.2-1.6c0.1-0.1,0.1-0.2,0.1-0.3
	c0-0.1,0-0.3-0.1-0.4l-2.9-7.1H453.7z" style="fill:#FFFFFF;"/>
<g>
	<path d="M413.9,391.8c-0.3,0-0.5-0.1-0.7-0.3l-4.9-4.9c-0.4-0.4-0.4-1,0-1.4l4.9-4.9c0.4-0.4,1-0.4,1.4,0s0.4,1,0,1.4
		l-4.2,4.2l4.2,4.2c0.4,0.4,0.4,1,0,1.4C414.4,391.7,414.2,391.8,413.9,391.8z" style="fill:#F6537F;"/>
</g>
</svg>