<?xml version="1.0" encoding="UTF-8"?><svg version="1.1" id="Layer_1" xmlns="http://www.w3.org/2000/svg" xmlns:xlink="http://www.w3.org/1999/xlink" x="0px" y="0px" viewBox="0 0 1000 1000" enable-background="new 0 0 1000 1000" xml:space="preserve" width="1000px" height="1000px">
<g>
	<g id="Layer_1_1_">
		<g opacity="0.55">
			<path fill="#474747" d="M747.359,449.643H685.5c-1.657,0-3-1.343-3-3s1.343-3,3-3h58.862v-27.931c0-1.657,1.343-3,3-3
				s3,1.343,3,3v30.931c0,1.657-1.343,3-3,3C747.361,449.643,747.36,449.643,747.359,449.643z"/>
			<path fill="#474747" d="M809.222,449.643h-61.863c-1.657,0-3-1.343-3-3v-30.931c0-1.657,1.343-3,3-3s3,1.343,3,3v27.931h58.863
				c1.657,0,3,1.343,3,3S810.879,449.643,809.222,449.643z"/>
			<path fill="#474747" d="M778.29,480.574h-61.861c-1.657,0-3-1.343-3-3v-30.931c0-1.657,1.343-3,3-3h61.861c1.657,0,3,1.343,3,3
				v30.931C781.29,479.231,779.947,480.574,778.29,480.574z M719.429,474.574h55.861v-24.931h-55.861L719.429,474.574z"/>
			<path fill="#474747" d="M764.937,511.505h-17.578c-1.657,0-3-1.343-3-3l0,0v-30.931c0-1.657,1.343-3,3-3l0,0h61.863
				c1.657,0,3,1.343,3,3s-1.343,3-3,3h-58.863v24.931h14.578c1.657,0,3,1.343,3,3S766.594,511.505,764.937,511.505z"/>
			<path fill="#474747" d="M747.359,511.505H697.2c-1.657,0-3-1.343-3-3s1.343-3,3-3h47.162v-24.931H685.5c-1.657,0-3-1.343-3-3
				s1.343-3,3-3h61.862c1.657,0,3,1.343,3,3l0,0v30.931c0,1.657-1.343,3-3,3C747.361,511.505,747.36,511.505,747.359,511.505z"/>
			<path fill="#474747" d="M716.429,480.574H685.5c-1.657,0-3-1.343-3-3s1.343-3,3-3h27.932v-24.931H664.41c-1.657,0-3-1.343-3-3
				s1.343-3,3-3h52.019c1.657,0,3,1.343,3,3v30.931C719.429,479.231,718.086,480.574,716.429,480.574z"/>
			<path fill="#474747" d="M822.932,480.574H778.29c-1.657,0-3-1.343-3-3v-30.931c0-1.657,1.343-3,3-3h21.443c1.657,0,3,1.343,3,3
				s-1.343,3-3,3H781.29v24.931h41.642c1.657,0,3,1.343,3,3S824.589,480.574,822.932,480.574z"/>
		</g>
		<g opacity="0.55">
			<path fill="#333333" d="M680.146,347.347c-6.642,0.018-13.016-2.622-17.7-7.332l-53.556-53.556c-9.758-9.783-9.758-25.617,0-35.4
				l53.555-53.559c9.776-9.774,25.624-9.774,35.4,0l53.555,53.555c9.775,9.776,9.775,25.624,0,35.4l-53.555,53.556
				C693.162,344.722,686.789,347.364,680.146,347.347z M680.146,200.168c-3.989-0.012-7.817,1.572-10.63,4.4l-53.556,53.558
				c-5.862,5.875-5.862,15.387,0,21.262l53.555,53.555l0,0c5.87,5.871,15.387,5.872,21.258,0.003
				c0.001-0.001,0.002-0.002,0.003-0.003l53.556-53.555c5.87-5.872,5.87-15.39,0-21.262l-53.556-53.555
				C687.963,201.742,684.135,200.157,680.146,200.168L680.146,200.168z"/>
			<path fill="#333333" d="M680.146,217.965c-1.657,0-3-1.343-3-3v-9.733c0-1.657,1.343-3,3-3s3,1.343,3,3v9.733
				C683.146,216.622,681.803,217.965,680.146,217.965z"/>
			<path fill="#333333" d="M680.146,335.282c-1.657,0-3-1.343-3-3v-9.733c0-1.657,1.343-3,3-3s3,1.343,3,3v9.733
				C683.146,333.939,681.803,335.282,680.146,335.282z"/>
			<path fill="#333333" d="M743.671,271.757h-9.733c-1.657,0-3-1.343-3-3s1.343-3,3-3h9.733c1.657,0,3,1.343,3,3
				S745.328,271.757,743.671,271.757z"/>
			<path fill="#333333" d="M626.354,271.757h-9.732c-1.657,0-3-1.343-3-3s1.343-3,3-3h9.732c1.657,0,3,1.343,3,3
				S628.011,271.757,626.354,271.757z"/>
			<path fill="#333333" d="M680.146,272.757c-1.011,0.002-1.985-0.381-2.724-1.071l-15.609-14.52
				c-1.617-1.505-1.708-4.036-0.203-5.654s4.036-1.708,5.654-0.203l15.608,14.52c1.617,1.505,1.708,4.036,0.203,5.653
				C682.317,272.295,681.257,272.757,680.146,272.757z"/>
			<path fill="#333333" d="M680.145,273.046c-1.381-0.001-2.499-1.121-2.498-2.502c0-0.521,0.163-1.029,0.466-1.452l23.323-32.617
				c0.779-1.14,2.335-1.432,3.475-0.653s1.432,2.335,0.653,3.475c-0.02,0.029-0.041,0.058-0.062,0.087L682.18,272
				C681.71,272.657,680.952,273.046,680.145,273.046z"/>
			<circle fill="#333333" cx="681.36" cy="268.757" r="7.641"/>
		</g>
		<g opacity="0.55">
			<path fill="#333333" d="M342.059,370.679H239.968c-2.761,0-5-2.239-5-5v-101.6c0-2.761,2.239-5,5-5h102.091c2.761,0,5,2.239,5,5
				v101.6C347.059,368.44,344.82,370.679,342.059,370.679z M244.968,360.679h92.091v-91.6h-92.091L244.968,360.679z"/>
			<path fill="#333333" d="M438,296.945h-77.052c-2.761,0-5-2.239-5-5v-101.6c0-2.761,2.239-5,5-5H438c2.761,0,5,2.239,5,5v101.6
				C443,294.706,440.761,296.945,438,296.945z M365.948,286.945H433v-91.6h-67.052V286.945z"/>
			<path fill="#333333" d="M259.964,319.545c-1.105,0-2-0.896-2-2c0-0.53,0.211-1.039,0.586-1.414l27.35-27.35
				c0.781-0.781,2.047-0.781,2.828,0c0.781,0.781,0.781,2.047,0.001,2.828l-27.351,27.35
				C261.004,319.335,260.495,319.546,259.964,319.545z"/>
			<path fill="#333333" d="M284.56,316.879c-1.105,0-2-0.896-2-2c0-0.53,0.211-1.039,0.586-1.414l24.684-24.684
				c0.767-0.794,2.034-0.816,2.828-0.049s0.816,2.034,0.049,2.828c-0.016,0.017-0.032,0.033-0.049,0.049l-24.684,24.684
				C285.6,316.669,285.091,316.88,284.56,316.879z"/>
			<path fill="#333333" d="M265.385,336.054c-1.105,0-2-0.896-2-2c0-0.53,0.211-1.039,0.586-1.414l10.061-10.061
				c0.767-0.794,2.034-0.816,2.828-0.049s0.816,2.034,0.049,2.828c-0.016,0.017-0.032,0.033-0.049,0.049l-10.06,10.061
				C266.425,335.843,265.916,336.054,265.385,336.054z"/>
			<path fill="#333333" d="M383.8,239.679c-1.105,0-2-0.896-2-2c0-0.53,0.211-1.039,0.586-1.414L401.05,217.6
				c0.794-0.767,2.061-0.745,2.828,0.049c0.749,0.775,0.749,2.004,0,2.779l-18.667,18.667
				C384.836,239.469,384.329,239.679,383.8,239.679z"/>
			<path fill="#333333" d="M411.731,235.145c-1.105,0-2-0.896-2-2c0-0.53,0.211-1.039,0.586-1.414l7.2-7.2
				c0.767-0.794,2.034-0.816,2.828-0.049c0.794,0.767,0.816,2.034,0.049,2.828c-0.016,0.017-0.032,0.033-0.049,0.049l-7.2,7.2
				C412.77,234.935,412.262,235.146,411.731,235.145z"/>
			<path fill="#333333" d="M380.8,266.079c-1.105,0-2-0.896-2-2c0-0.53,0.211-1.039,0.586-1.414l22.934-22.934
				c0.781-0.781,2.047-0.781,2.828-0.001c0.781,0.781,0.781,2.047,0.001,2.829l-22.935,22.934
				C381.84,265.869,381.331,266.08,380.8,266.079z"/>
		</g>
		<path fill="#43293A" d="M777.667,755.884h-19.334c-2.761,0-5-2.239-5-5s2.239-5,5-5h19.334c2.761,0,5,2.239,5,5
			S780.428,755.884,777.667,755.884z"/>
		<path fill="#43293A" d="M799.5,755.884h-4.833c-2.761,0-5-2.239-5-5s2.239-5,5-5h4.833c2.761,0,5,2.239,5,5
			S802.261,755.884,799.5,755.884z"/>
		<path fill="#43293A" d="M740,755.884H241c-2.761,0-5-2.239-5-5s2.239-5,5-5h499c2.761,0,5,2.239,5,5S742.761,755.884,740,755.884z
			"/>
		<path fill="#43293A" d="M219,755.884h-23.511c-2.761,0-5-2.239-5-5s2.239-5,5-5H219c2.761,0,5,2.239,5,5
			S221.761,755.884,219,755.884z"/>
		<path fill="#FFE5CC" d="M379.174,385.209c-0.066-7.875,6.265-14.313,14.141-14.378c7.875-0.066,14.313,6.265,14.378,14.141
			c0.001,0.079,0.001,0.158,0,0.237H379.174z"/>
		<path fill="#43293A" d="M407.693,389.209h-28.519c-2.209,0-4-1.791-4-4c0.074-10.084,8.309-18.199,18.394-18.125
			c9.98,0.073,18.052,8.146,18.125,18.125C411.693,387.418,409.902,389.209,407.693,389.209L407.693,389.209z M383.986,381.209
			h18.895c-2.21-5.218-8.231-7.656-13.449-5.446C386.978,376.802,385.025,378.755,383.986,381.209z"/>
		<path fill="#FFE5CC" d="M592.307,385.209c-0.067-7.875,6.264-14.313,14.139-14.38c7.875-0.067,14.313,6.264,14.38,14.139
			c0.001,0.08,0.001,0.161,0,0.241H592.307z"/>
		<path fill="#43293A" d="M620.826,389.209h-28.519c-2.209,0-4-1.791-4-4c0.075-10.084,8.311-18.198,18.396-18.123
			c9.978,0.075,18.049,8.145,18.123,18.123C624.826,387.418,623.035,389.209,620.826,389.209z M597.118,381.209h18.9
			c-2.208-5.219-8.229-7.66-13.448-5.452C600.113,376.797,598.157,378.752,597.118,381.209z"/>
		<path fill="#AD5349" d="M612.368,397.469c-20.915,0-37.821-7.977-47.674-22.9l-6.42-8.569
			c-13.556-17.818-34.676-28.255-57.064-28.2h-2.42c-22.388-0.055-43.508,10.382-57.064,28.2l-6.42,8.567
			c-12.3,18.63-35.587,26.435-63.936,21.413l2.093-11.816c13.795,2.443,38.885,3.57,51.91-16.333l0.219-0.313l6.532-8.714
			c15.828-20.833,40.502-33.047,66.666-33h2.42c26.164-0.047,50.838,12.167,66.666,33l6.751,9.027
			c13.022,19.9,38.112,18.775,51.91,16.333l2.092,11.816C623.262,396.95,617.821,397.448,612.368,397.469z"/>
		<path fill="#43293A" d="M387.679,402.474c-5.761-0.022-11.51-0.548-17.179-1.574c-2.719-0.481-4.533-3.076-4.052-5.795
			c0-0.002,0.001-0.003,0.001-0.005l2.093-11.816c0.482-2.719,3.076-4.532,5.795-4.051c12.583,2.228,35.4,3.355,46.854-14.148
			c0.029-0.044,0.059-0.088,0.089-0.131l0.219-0.313c0.031-0.044,0.062-0.087,0.094-0.129l6.532-8.715
			c16.775-22.089,42.93-35.043,70.667-35h2.42c27.737-0.044,53.892,12.91,70.667,35l6.754,9.03c0.062,0.084,0.123,0.17,0.18,0.257
			c11.45,17.5,34.272,16.376,46.855,14.148c2.719-0.481,5.314,1.333,5.795,4.052c0,0,0,0,0,0l2.092,11.816
			c0.484,2.719-1.328,5.315-4.046,5.799c-0.002,0-0.004,0.001-0.006,0.001c-5.655,1.02-11.387,1.544-17.133,1.566
			c-22.67,0-41.046-8.885-51.763-25.021L554.273,369c-12.609-16.561-32.248-26.258-53.063-26.2h-2.42
			c-20.815-0.058-40.454,9.639-53.063,26.2l-6.333,8.45C428.567,393.752,410.217,402.473,387.679,402.474z M498.79,332.8h2.42
			c23.961-0.051,46.562,11.126,61.065,30.2l6.42,8.566c0.06,0.08,0.117,0.162,0.172,0.245c8.793,13.32,24.241,20.657,43.5,20.657
			c3.492-0.008,6.98-0.231,10.444-0.667l-0.348-1.964c-31.363,3.963-45.915-10.02-51.931-19.137l-6.66-8.9
			c-14.88-19.576-38.073-31.05-62.662-31h-2.42c-24.59-0.05-47.784,11.424-62.665,31l-6.613,8.835
			c-5.99,9.114-20.534,23.183-51.976,19.2l-0.348,1.963c24.016,2.979,43.507-4.177,53.945-19.99
			c0.055-0.083,0.112-0.165,0.172-0.245l6.42-8.566C452.228,343.924,474.829,332.747,498.79,332.8z"/>
		<path fill="#FF8345" d="M302,556.707h-18.9L261.667,697.7c0,0,15.125-7.082,20.166-7.082C298,690.618,302,697.7,302,697.7V556.707
			z"/>
		<path fill="#43293A" d="M301.983,702.915c-1.826,0.037-3.505-1.001-4.288-2.651c-0.519-0.629-4.29-4.646-15.862-4.646
			c-2.35,0-11.229,3.418-18.046,6.611c-2.501,1.171-5.477,0.094-6.649-2.407c-0.42-0.896-0.564-1.896-0.415-2.874l21.435-140.993
			c0.372-2.443,2.473-4.248,4.944-4.248H302c2.761,0,5,2.239,5,5V697.7c0.054,2.383-1.539,4.49-3.846,5.088
			C302.769,702.872,302.377,702.914,301.983,702.915z M287.4,561.707l-19.43,127.8c4.919-1.969,10.57-3.893,13.864-3.893
			c5.171-0.121,10.318,0.743,15.166,2.544V561.707H287.4z"/>
		<path fill="#43293A" d="M301.983,702.915c-1.826,0.037-3.505-1.001-4.288-2.651c-0.519-0.629-4.29-4.646-15.862-4.646
			c-2.35,0-11.229,3.418-18.046,6.611c-2.501,1.171-5.477,0.094-6.649-2.407c-0.42-0.896-0.564-1.896-0.415-2.874l21.435-140.993
			c0.372-2.443,2.473-4.248,4.944-4.248H302c2.761,0,5,2.239,5,5V697.7c0.054,2.383-1.539,4.49-3.846,5.088
			C302.769,702.872,302.377,702.914,301.983,702.915z M287.4,561.707l-19.43,127.8c4.919-1.969,10.57-3.893,13.864-3.893
			c5.171-0.121,10.318,0.743,15.166,2.544V561.707H287.4z"/>
		<path fill="#AD5349" d="M299.251,556.707H283.1L261.667,697.7c0,0,10.761-5.039,17.155-6.616L299.251,556.707z"/>
		<path fill="#43293A" d="M261.667,702.7c-2.761,0-5-2.238-5.001-4.999c0-0.252,0.019-0.504,0.057-0.753l21.435-140.993
			c0.372-2.443,2.473-4.248,4.944-4.248h16.149c2.761,0,5,2.239,5,5c0,0.252-0.019,0.503-0.057,0.752l-20.429,134.378
			c-0.305,1.998-1.783,3.616-3.746,4.1c-5.837,1.44-16.129,6.242-16.233,6.29C263.123,702.538,262.399,702.699,261.667,702.7z
			 M287.4,561.707l-19.434,127.825c2.076-0.833,4.3-1.673,6.392-2.352l19.076-125.473H287.4z"/>
		<path fill="#FF8345" d="M698,556.707h18.9L738.333,697.7c0,0-15.125-7.082-20.166-7.082C702,690.618,698,697.7,698,697.7V556.707z
			"/>
		<path fill="#43293A" d="M698.017,702.915c-0.394-0.001-0.786-0.043-1.171-0.127c-2.307-0.598-3.9-2.705-3.846-5.088V556.707
			c0-2.761,2.239-5,5-5h18.9c2.471,0,4.572,1.805,4.944,4.248l21.434,140.993c0.416,2.73-1.46,5.28-4.19,5.696
			c-0.977,0.149-1.977,0.005-2.873-0.415c-6.821-3.193-15.7-6.611-18.046-6.611c-11.572,0-15.344,4.017-15.862,4.646
			C701.523,701.915,699.844,702.953,698.017,702.915z M718.167,685.618c3.294,0,8.944,1.924,13.863,3.893L712.6,561.707H703v126.451
			C707.849,686.358,712.996,685.496,718.167,685.618z"/>
		<path fill="#43293A" d="M698.017,702.915c-0.394-0.001-0.786-0.043-1.171-0.127c-2.307-0.598-3.9-2.705-3.846-5.088V556.707
			c0-2.761,2.239-5,5-5h18.9c2.471,0,4.572,1.805,4.944,4.248l21.434,140.993c0.416,2.73-1.46,5.28-4.19,5.696
			c-0.977,0.149-1.977,0.005-2.873-0.415c-6.821-3.193-15.7-6.611-18.046-6.611c-11.572,0-15.344,4.017-15.862,4.646
			C701.523,701.915,699.844,702.953,698.017,702.915z M718.167,685.618c3.294,0,8.944,1.924,13.863,3.893L712.6,561.707H703v126.451
			C707.849,686.358,712.996,685.496,718.167,685.618z"/>
		<path fill="#AD5349" d="M700.749,556.707H716.9L738.333,697.7c0,0-10.761-5.039-17.155-6.616L700.749,556.707z"/>
		<path fill="#43293A" d="M738.332,702.7c-0.732,0-1.456-0.161-2.119-0.471c-0.1-0.048-10.395-4.85-16.232-6.29
			c-1.963-0.483-3.442-2.102-3.747-4.1l-20.428-134.38c-0.415-2.73,1.461-5.28,4.191-5.695c0.249-0.038,0.5-0.057,0.752-0.057H716.9
			c2.471,0,4.572,1.805,4.944,4.248l21.434,140.993c0.415,2.73-1.461,5.28-4.191,5.695c-0.249,0.038-0.501,0.057-0.753,0.057
			L738.332,702.7z M725.642,687.18c2.087,0.679,4.315,1.519,6.392,2.352L712.6,561.707h-6.036L725.642,687.18z"/>
		<path fill="#AD5349" d="M299.833,476.333h400l0,0v250c0,13.255-10.745,24-24,24h-352c-13.255,0-24-10.745-24-24V476.333
			L299.833,476.333z"/>
		<path opacity="0.48" fill="#AD5349" stroke="#AD5349" stroke-width="10" stroke-miterlimit="10" enable-background="new    " d="
			M428,628.352h144l0,0v40.682c0,8.837-7.163,16-16,16H444c-8.837,0-16-7.163-16-16V628.352L428,628.352z"/>
		<path fill="#FFFFFF" d="M511.93,678.705L511.93,678.705c-0.007,6.589-5.355,11.924-11.943,11.917
			c-6.578-0.007-11.909-5.338-11.917-11.917h-8.97c0,11.543,9.357,20.9,20.9,20.9c11.543,0,20.9-9.357,20.9-20.9H511.93z"/>
		<path fill="#43293A" d="M500,701.606c-12.641-0.014-22.886-10.259-22.9-22.9c0-1.105,0.895-2,2-2h8.971c1.105,0,2,0.895,2,2
			c0,5.484,4.446,9.93,9.93,9.93c5.484,0,9.93-4.446,9.93-9.93c0-1.105,0.895-2,2-2h8.969c1.105,0,2,0.895,2,2
			C522.886,691.347,512.641,701.592,500,701.606z M481.2,680.706c1.094,10.381,10.395,17.909,20.776,16.816
			c8.871-0.935,15.881-7.945,16.816-16.816h-5.01c-1.105,7.614-8.174,12.891-15.788,11.785c-6.104-0.886-10.899-5.681-11.785-11.785
			H481.2z"/>
		<path opacity="0.48" fill="#AD5349" enable-background="new    " d="M676,739H324c-13.255,0-24-10.745-24-24v11.836
			c0,13.255,10.745,24,24,24h352c13.255,0,24-10.745,24-24V715C700,728.255,689.255,739,676,739z"/>
		<path fill="#933B34" d="M700,589.921V480.833H300v109.088c5.532,2.62,11.363,4.553,17.364,5.756
			c52.127,10.48,109.137,15.362,179.415,15.362h6.442c70.275,0,127.285-4.881,179.414-15.362
			C688.636,594.474,694.468,592.541,700,589.921z"/>
		<path fill="#FF8345" d="M428,621.352h144l0,0v40.682c0,8.837-7.163,16-16,16H444c-8.837,0-16-7.163-16-16V621.352L428,621.352z"/>
		<path opacity="0.45" fill="#FF8345" enable-background="new    " d="M428,643.537c5.656,5.402,13.178,8.415,21,8.412h102
			c7.822,0.003,15.344-3.01,21-8.412v-18.185H428V643.537z"/>
		<path fill="#43293A" d="M451.667,668.534h-5c-0.828,0-1.5-0.672-1.5-1.5s0.672-1.5,1.5-1.5h5c0.828,0,1.5,0.672,1.5,1.5
			S452.495,668.534,451.667,668.534L451.667,668.534z M440.035,667.034c-0.365,0-0.718-0.133-0.992-0.375
			c-1.584-1.399-2.507-3.399-2.543-5.512c-0.012-0.828,0.649-1.51,1.478-1.522c0.828-0.012,1.51,0.649,1.522,1.477
			c0.022,1.268,0.577,2.468,1.528,3.307c0.621,0.548,0.681,1.496,0.133,2.117C440.876,666.849,440.466,667.034,440.035,667.034z
			 M438,655.627c-0.828,0-1.5-0.672-1.5-1.5v-5c0-0.828,0.672-1.5,1.5-1.5s1.5,0.672,1.5,1.5v5
			C439.5,654.955,438.828,655.627,438,655.627z M438,643.627c-0.828,0-1.5-0.672-1.5-1.5v-5c0-0.828,0.672-1.5,1.5-1.5
			s1.5,0.672,1.5,1.5v5C439.5,642.955,438.828,643.627,438,643.627z"/>
		<path fill="#43293A" d="M551.512,668.534h-5c-0.828,0-1.5-0.672-1.5-1.5s0.672-1.5,1.5-1.5h5c0.828,0,1.5,0.672,1.5,1.5
			S552.34,668.534,551.512,668.534z M539.512,668.534h-5c-0.828,0-1.5-0.672-1.5-1.5s0.672-1.5,1.5-1.5h5c0.828,0,1.5,0.672,1.5,1.5
			S540.34,668.534,539.512,668.534z M527.512,668.534h-5c-0.828,0-1.5-0.672-1.5-1.5s0.672-1.5,1.5-1.5h5c0.828,0,1.5,0.672,1.5,1.5
			S528.34,668.534,527.512,668.534z M515.512,668.534h-5c-0.828,0-1.5-0.672-1.5-1.5s0.672-1.5,1.5-1.5h5c0.828,0,1.5,0.672,1.5,1.5
			S516.34,668.534,515.512,668.534z M503.512,668.534h-5c-0.828,0-1.5-0.672-1.5-1.5s0.672-1.5,1.5-1.5l0,0h5
			c0.828,0,1.5,0.672,1.5,1.5S504.34,668.534,503.512,668.534z M491.512,668.534h-5c-0.828,0-1.5-0.672-1.5-1.5s0.672-1.5,1.5-1.5h5
			c0.828,0,1.5,0.672,1.5,1.5S492.34,668.534,491.512,668.534z M479.512,668.534h-5c-0.828,0-1.5-0.672-1.5-1.5s0.672-1.5,1.5-1.5
			l0,0h5c0.828,0,1.5,0.672,1.5,1.5S480.34,668.534,479.512,668.534z M467.512,668.534h-5c-0.828,0-1.5-0.672-1.5-1.5
			s0.672-1.5,1.5-1.5h5c0.828,0,1.5,0.672,1.5,1.5S468.34,668.534,467.512,668.534L467.512,668.534z M558.439,668.016
			c-0.828,0-1.5-0.671-1.5-1.5c0-0.592,0.348-1.129,0.889-1.37c1.158-0.517,2.046-1.497,2.447-2.7
			c0.261-0.786,1.11-1.213,1.896-0.952s1.213,1.11,0.952,1.896c-0.666,2.005-2.145,3.638-4.074,4.5
			c-0.193,0.084-0.401,0.127-0.611,0.126H558.439z M562,657.449c-0.828,0-1.5-0.672-1.5-1.5v-5c0-0.828,0.672-1.5,1.5-1.5
			s1.5,0.672,1.5,1.5v5C563.5,656.777,562.828,657.449,562,657.449z"/>
		<path fill="#43293A" d="M556,683.034H444c-11.592-0.013-20.987-9.408-21-21v-40.681c0-2.761,2.239-5,5-5h144c2.761,0,5,2.239,5,5
			v40.681C576.987,673.627,567.592,683.021,556,683.034z M433,626.353v35.681c0.007,6.072,4.928,10.993,11,11h112
			c6.072-0.007,10.993-4.928,11-11v-35.681H433z"/>
		<path fill="#EDAB7A" d="M424.5,592.955h151l0,0v24.495c0,13.531-10.969,24.5-24.5,24.5H449c-13.531,0-24.5-10.969-24.5-24.5
			V592.955L424.5,592.955z"/>
		<path opacity="0.84" fill="#EDAB7A" enable-background="new    " d="M424.5,609.037c22.59,1.345,46.542,2,72.279,2h6.442
			c25.737,0,49.689-0.657,72.279-2v-16.083h-151V609.037z"/>
		<path fill="#43293A" d="M551,646.949H449c-16.285-0.018-29.482-13.215-29.5-29.5v-24.5c0-2.761,2.239-5,5-5h151
			c2.761,0,5,2.239,5,5v24.5C580.482,633.734,567.285,646.931,551,646.949z M429.5,597.954v19.5
			c0.013,10.764,8.736,19.487,19.5,19.5h102c10.764-0.013,19.487-8.736,19.5-19.5v-19.5H429.5z"/>
		<path fill="#43293A" d="M550.415,632.314h-5c-0.828,0-1.5-0.672-1.5-1.5s0.672-1.5,1.5-1.5h5c0.828,0,1.5,0.672,1.5,1.5
			S551.243,632.314,550.415,632.314z M538.415,632.314h-5c-0.828,0-1.5-0.672-1.5-1.5s0.672-1.5,1.5-1.5h5
			c0.828,0,1.5,0.672,1.5,1.5S539.243,632.314,538.415,632.314z M526.415,632.314h-5c-0.828,0-1.5-0.672-1.5-1.5s0.672-1.5,1.5-1.5
			h5c0.828,0,1.5,0.672,1.5,1.5S527.243,632.314,526.415,632.314z M514.415,632.314h-5c-0.828,0-1.5-0.672-1.5-1.5
			s0.672-1.5,1.5-1.5h5c0.828,0,1.5,0.672,1.5,1.5S515.243,632.314,514.415,632.314z M502.415,632.314h-5
			c-0.828,0-1.5-0.672-1.5-1.5s0.672-1.5,1.5-1.5l0,0h5c0.828,0,1.5,0.672,1.5,1.5S503.243,632.314,502.415,632.314z
			 M490.415,632.314h-5c-0.828,0-1.5-0.672-1.5-1.5s0.672-1.5,1.5-1.5h5c0.828,0,1.5,0.672,1.5,1.5S491.243,632.314,490.415,632.314
			L490.415,632.314z M478.415,632.314h-5c-0.828,0-1.5-0.672-1.5-1.5s0.672-1.5,1.5-1.5h5c0.828,0,1.5,0.672,1.5,1.5
			S479.243,632.314,478.415,632.314z M466.415,632.314h-5c-0.828,0-1.5-0.672-1.5-1.5s0.672-1.5,1.5-1.5h5
			c0.828,0,1.5,0.672,1.5,1.5S467.243,632.314,466.415,632.314L466.415,632.314z M454.415,632.314h-5c-0.828,0-1.5-0.672-1.5-1.5
			s0.672-1.5,1.5-1.5h5c0.828,0,1.5,0.672,1.5,1.5S455.243,632.314,454.415,632.314z M557.206,630.924
			c-0.828,0.002-1.501-0.669-1.503-1.497c-0.001-0.581,0.334-1.11,0.859-1.359c1.354-0.641,2.586-1.512,3.642-2.574
			c0.574-0.597,1.524-0.615,2.121-0.041c0.597,0.575,0.615,1.524,0.041,2.121c-0.012,0.012-0.024,0.025-0.036,0.037
			c-1.3,1.307-2.816,2.379-4.481,3.168C557.648,630.875,557.429,630.924,557.206,630.924L557.206,630.924z M442.638,630.849
			c-0.228,0-0.453-0.052-0.658-0.153c-1.656-0.809-3.16-1.898-4.444-3.22c-0.584-0.587-0.582-1.537,0.005-2.121
			c0.587-0.584,1.537-0.582,2.121,0.005c0.008,0.008,0.016,0.016,0.024,0.024c1.045,1.074,2.267,1.959,3.614,2.616
			c0.745,0.363,1.053,1.261,0.69,2.006c-0.252,0.516-0.776,0.843-1.35,0.842L442.638,630.849z M564.849,622.119
			c-0.828,0-1.5-0.671-1.5-1.5c0-0.151,0.023-0.301,0.068-0.445c0.388-1.25,0.584-2.551,0.583-3.86v-0.628
			c0-0.828,0.672-1.5,1.5-1.5s1.5,0.672,1.5,1.5v0.628c0.002,1.61-0.24,3.212-0.718,4.75
			C566.086,621.691,565.506,622.118,564.849,622.119L564.849,622.119z M435.099,621.955c-0.663,0-1.248-0.436-1.437-1.072
			c-0.441-1.483-0.664-3.021-0.663-4.568v-5c0-0.828,0.672-1.5,1.5-1.5s1.5,0.672,1.5,1.5v5c-0.001,1.257,0.18,2.508,0.538,3.713
			c0.237,0.794-0.215,1.629-1.009,1.866c0,0,0,0-0.001,0c-0.139,0.041-0.282,0.062-0.427,0.061H435.099z M565.499,610.186
			c-0.828,0-1.5-0.672-1.5-1.5v-5c0-0.828,0.672-1.5,1.5-1.5s1.5,0.672,1.5,1.5v5C566.999,609.514,566.328,610.185,565.499,610.186
			L565.499,610.186z M434.499,605.814c-0.828,0-1.5-0.672-1.5-1.5v-5c0-0.828,0.672-1.5,1.5-1.5s1.5,0.672,1.5,1.5v5
			C435.999,605.142,435.328,605.813,434.499,605.814L434.499,605.814z M564.686,599h-5c-0.828,0-1.5-0.672-1.5-1.5
			s0.672-1.5,1.5-1.5h5c0.828,0,1.5,0.672,1.5,1.5S565.514,599,564.686,599z M552.686,599h-5c-0.828,0-1.5-0.672-1.5-1.5
			s0.672-1.5,1.5-1.5h5c0.828,0,1.5,0.672,1.5,1.5S553.514,599,552.686,599z M540.686,599h-5c-0.828,0-1.5-0.672-1.5-1.5
			s0.672-1.5,1.5-1.5h5c0.828,0,1.5,0.672,1.5,1.5S541.514,599,540.686,599z M528.686,599h-5c-0.828,0-1.5-0.672-1.5-1.5
			s0.672-1.5,1.5-1.5h5c0.828,0,1.5,0.672,1.5,1.5S529.514,599,528.686,599z M516.686,599h-5c-0.828,0-1.5-0.672-1.5-1.5
			s0.672-1.5,1.5-1.5l0,0h5c0.828,0,1.5,0.672,1.5,1.5S517.514,599,516.686,599z M504.686,599h-5c-0.828,0-1.5-0.672-1.5-1.5
			s0.672-1.5,1.5-1.5h5c0.828,0,1.5,0.672,1.5,1.5S505.514,599,504.686,599z M492.686,599h-5c-0.828,0-1.5-0.672-1.5-1.5
			s0.672-1.5,1.5-1.5h5c0.828,0,1.5,0.672,1.5,1.5S493.514,599,492.686,599z M480.686,599h-5c-0.828,0-1.5-0.672-1.5-1.5
			s0.672-1.5,1.5-1.5h5c0.828,0,1.5,0.672,1.5,1.5S481.514,599,480.686,599L480.686,599z M468.686,599h-5
			c-0.828,0-1.5-0.672-1.5-1.5s0.672-1.5,1.5-1.5h5c0.828,0,1.5,0.672,1.5,1.5S469.514,599,468.686,599z M456.686,599h-5
			c-0.828,0-1.5-0.672-1.5-1.5s0.672-1.5,1.5-1.5h5c0.828,0,1.5,0.672,1.5,1.5S457.514,599,456.686,599z M444.686,599h-5
			c-0.828,0-1.5-0.672-1.5-1.5s0.672-1.5,1.5-1.5h5c0.828,0,1.5,0.672,1.5,1.5S445.514,599,444.686,599z"/>
		<path fill="#43293A" d="M676,755.833H324c-16.009-0.018-28.982-12.991-29-29v-250c0-2.761,2.239-5,5-5h400c2.761,0,5,2.239,5,5
			v250C704.981,742.841,692.008,755.814,676,755.833z M305,481.833v245c0.012,10.489,8.511,18.988,19,19h352
			c10.489-0.012,18.988-8.511,19-19v-245H305z"/>
		<path fill="#43293A" d="M673.136,736.833h-7c-1.105,0-2-0.895-2-2s0.895-2,2-2h7c1.105,0,2,0.895,2,2
			S674.241,736.833,673.136,736.833z M657.136,736.833h-7c-1.105,0-2-0.895-2-2s0.895-2,2-2h7c1.105,0,2,0.895,2,2
			S658.241,736.833,657.136,736.833z M641.136,736.833h-7c-1.105,0-2-0.895-2-2s0.895-2,2-2h7c1.105,0,2,0.895,2,2
			S642.241,736.833,641.136,736.833z M625.136,736.833h-7c-1.105,0-2-0.895-2-2s0.895-2,2-2h7c1.105,0,2,0.895,2,2
			S626.241,736.833,625.136,736.833z M609.136,736.833h-7c-1.105,0-2-0.895-2-2s0.895-2,2-2h7c1.105,0,2,0.895,2,2
			S610.241,736.833,609.136,736.833z M593.136,736.833h-7c-1.105,0-2-0.895-2-2s0.895-2,2-2h7c1.105,0,2,0.895,2,2
			S594.241,736.833,593.136,736.833z M577.136,736.833h-7c-1.105,0-2-0.895-2-2s0.895-2,2-2h7c1.105,0,2,0.895,2,2
			S578.241,736.833,577.136,736.833z M561.136,736.833h-7c-1.105,0-2-0.895-2-2s0.895-2,2-2h7c1.105,0,2,0.895,2,2
			S562.241,736.833,561.136,736.833z M545.136,736.833h-7c-1.105,0-2-0.895-2-2s0.895-2,2-2h7c1.105,0,2,0.895,2,2
			S546.241,736.833,545.136,736.833z M529.136,736.833h-7c-1.105,0-2-0.895-2-2s0.895-2,2-2h7c1.105,0,2,0.895,2,2
			S530.241,736.833,529.136,736.833z M513.136,736.833h-7c-1.105,0-2-0.895-2-2s0.895-2,2-2h7c1.105,0,2,0.895,2,2
			S514.241,736.833,513.136,736.833z M497.136,736.833h-7c-1.105,0-2-0.895-2-2s0.895-2,2-2h7c1.105,0,2,0.895,2,2
			S498.241,736.833,497.136,736.833z M481.136,736.833h-7c-1.105,0-2-0.895-2-2s0.895-2,2-2h7c1.105,0,2,0.895,2,2
			S482.241,736.833,481.136,736.833z M465.136,736.833h-7c-1.105,0-2-0.895-2-2s0.895-2,2-2h7c1.105,0,2,0.895,2,2
			S466.241,736.833,465.136,736.833z M449.136,736.833h-7c-1.105,0-2-0.895-2-2s0.895-2,2-2h7c1.105,0,2,0.895,2,2
			S450.241,736.833,449.136,736.833z M433.136,736.833h-7c-1.105,0-2-0.895-2-2s0.895-2,2-2h7c1.105,0,2,0.895,2,2
			S434.241,736.833,433.136,736.833z M417.136,736.833h-7c-1.105,0-2-0.895-2-2s0.895-2,2-2h7c1.105,0,2,0.895,2,2
			S418.241,736.833,417.136,736.833z M401.136,736.833h-7c-1.105,0-2-0.895-2-2s0.895-2,2-2h7c1.105,0,2,0.895,2,2
			S402.241,736.833,401.136,736.833z M385.136,736.833h-7c-1.105,0-2-0.895-2-2s0.895-2,2-2h7c1.105,0,2,0.895,2,2
			S386.241,736.833,385.136,736.833z M369.136,736.833h-7c-1.105,0-2-0.895-2-2s0.895-2,2-2h7c1.105,0,2,0.895,2,2
			S370.241,736.833,369.136,736.833z M353.136,736.833h-7c-1.105,0-2-0.895-2-2s0.895-2,2-2h7c1.105,0,2,0.895,2,2
			S354.241,736.833,353.136,736.833z M337.136,736.833h-7c-1.105,0-2-0.895-2-2s0.895-2,2-2h7c1.105,0,2,0.895,2,2
			S338.241,736.833,337.136,736.833z M324.001,736.833c-2.963,0.001-5.774-1.314-7.671-3.59c-0.729-0.83-0.647-2.094,0.182-2.823
			c0.83-0.729,2.093-0.647,2.823,0.182c0.021,0.024,0.042,0.049,0.062,0.074c1.138,1.364,2.823,2.154,4.6,2.156c1.105,0,2,0.895,2,2
			s-0.895,2-2,2H324.001z M681.549,734.592c-1.105,0.001-2-0.894-2.001-1.999c0-0.544,0.221-1.064,0.612-1.441
			c1.18-1.126,1.845-2.688,1.84-4.319v-0.567c0-1.105,0.895-2,2-2s2,0.895,2,2v0.567c0.008,2.718-1.099,5.321-3.063,7.2
			C682.564,734.392,682.066,734.593,681.549,734.592L681.549,734.592z M316,725.4c-1.105,0-2-0.895-2-2v-7c0-1.105,0.895-2,2-2
			s2,0.895,2,2v7C318,724.505,317.105,725.4,316,725.4z M684,719.265c-1.105,0-2-0.895-2-2v-7c0-1.105,0.895-2,2-2s2,0.895,2,2v7
			C686.001,718.37,685.106,719.265,684,719.265C684.001,719.266,684,719.266,684,719.265L684,719.265z M316,709.4
			c-1.105,0-2-0.895-2-2v-7c0-1.105,0.895-2,2-2s2,0.895,2,2v7C318,708.505,317.105,709.4,316,709.4z M684,703.265
			c-1.105,0-2-0.895-2-2v-7c0-1.105,0.895-2,2-2s2,0.895,2,2v7C686.001,702.37,685.106,703.265,684,703.265
			C684.001,703.266,684,703.266,684,703.265L684,703.265z M316,693.4c-1.105,0-2-0.895-2-2v-7c0-1.105,0.895-2,2-2s2,0.895,2,2v7
			C318,692.505,317.105,693.4,316,693.4z M684,687.265c-1.105,0-2-0.895-2-2v-7c0-1.105,0.895-2,2-2s2,0.895,2,2v7
			C686.001,686.37,685.106,687.265,684,687.265C684.001,687.266,684,687.266,684,687.265L684,687.265z M316,677.4
			c-1.105,0-2-0.895-2-2v-7c0-1.105,0.895-2,2-2s2,0.895,2,2v7C318,676.505,317.105,677.4,316,677.4z M684,671.265
			c-1.105,0-2-0.895-2-2v-7c0-1.105,0.895-2,2-2s2,0.895,2,2v7C686.001,670.37,685.106,671.265,684,671.265
			C684.001,671.266,684,671.266,684,671.265L684,671.265z M316,661.4c-1.105,0-2-0.895-2-2v-7c0-1.105,0.895-2,2-2s2,0.895,2,2v7
			C318,660.505,317.105,661.4,316,661.4z M684,655.265c-1.105,0-2-0.895-2-2v-7c0-1.105,0.895-2,2-2s2,0.895,2,2v7
			C686.001,654.37,685.106,655.265,684,655.265C684.001,655.266,684,655.266,684,655.265L684,655.265z M316,645.4
			c-1.105,0-2-0.895-2-2v-7c0-1.105,0.895-2,2-2s2,0.895,2,2v7C318,644.505,317.105,645.4,316,645.4z M684,639.265
			c-1.105,0-2-0.895-2-2v-7c0-1.105,0.895-2,2-2s2,0.895,2,2v7C686.001,638.37,685.106,639.265,684,639.265
			C684.001,639.266,684,639.266,684,639.265L684,639.265z M316,629.4c-1.105,0-2-0.895-2-2v-7c0-1.105,0.895-2,2-2s2,0.895,2,2v7
			C318,628.505,317.105,629.4,316,629.4z M684,623.265c-1.105,0-2-0.895-2-2v-7c0-1.105,0.895-2,2-2s2,0.895,2,2v7
			C686.001,622.37,685.106,623.265,684,623.265C684.001,623.266,684,623.266,684,623.265L684,623.265z M316,613.4
			c-1.105,0-2-0.895-2-2v-7c0-1.105,0.895-2,2-2s2,0.895,2,2v7C318,612.505,317.105,613.4,316,613.4z M684,607.265
			c-1.105,0-2-0.895-2-2v-7c0-1.105,0.895-2,2-2s2,0.895,2,2v7C686.001,606.37,685.106,607.265,684,607.265
			C684.001,607.266,684,607.266,684,607.265L684,607.265z M316,597.4c-1.105,0-2-0.895-2-2v-7c0-1.105,0.895-2,2-2s2,0.895,2,2v7
			C318,596.505,317.105,597.4,316,597.4z M684,591.265c-1.105,0-2-0.895-2-2v-7c0-1.105,0.895-2,2-2s2,0.895,2,2v7
			C686.001,590.37,685.106,591.265,684,591.265C684.001,591.266,684,591.266,684,591.265L684,591.265z M316,581.4
			c-1.105,0-2-0.895-2-2v-7c0-1.105,0.895-2,2-2s2,0.895,2,2v7C318,580.505,317.105,581.4,316,581.4z M684,575.265
			c-1.105,0-2-0.895-2-2v-7c0-1.105,0.895-2,2-2s2,0.895,2,2v7C686.001,574.37,685.106,575.265,684,575.265
			C684.001,575.266,684,575.266,684,575.265L684,575.265z M316,565.4c-1.105,0-2-0.895-2-2v-7c0-1.105,0.895-2,2-2s2,0.895,2,2v7
			C318,564.505,317.105,565.4,316,565.4z M684,559.265c-1.105,0-2-0.895-2-2v-7c0-1.105,0.895-2,2-2s2,0.895,2,2v7
			C686.001,558.37,685.106,559.265,684,559.265C684.001,559.266,684,559.266,684,559.265L684,559.265z M316,549.4
			c-1.105,0-2-0.895-2-2v-7c0-1.105,0.895-2,2-2s2,0.895,2,2v7C318,548.505,317.105,549.4,316,549.4z M684,543.265
			c-1.105,0-2-0.895-2-2v-7c0-1.105,0.895-2,2-2s2,0.895,2,2v7C686.001,542.37,685.106,543.265,684,543.265
			C684.001,543.266,684,543.266,684,543.265L684,543.265z M316,533.4c-1.105,0-2-0.895-2-2v-7c0-1.105,0.895-2,2-2s2,0.895,2,2v7
			C318,532.505,317.105,533.4,316,533.4z M684,527.265c-1.105,0-2-0.895-2-2v-7c0-1.105,0.895-2,2-2s2,0.895,2,2v7
			C686.001,526.37,685.106,527.265,684,527.265C684.001,527.266,684,527.266,684,527.265L684,527.265z M316,517.4
			c-1.105,0-2-0.895-2-2v-7c0-1.105,0.895-2,2-2s2,0.895,2,2v7C318,516.505,317.105,517.4,316,517.4z M684,511.265
			c-1.105,0-2-0.895-2-2v-7c0-1.105,0.895-2,2-2s2,0.895,2,2v7C686.001,510.37,685.106,511.265,684,511.265
			C684.001,511.266,684,511.266,684,511.265L684,511.265z M316,501.4c-1.105,0-2-0.895-2-2v-6.568c0-1.105,0.895-2,2-2h0.432
			c1.105-0.001,2.001,0.894,2.001,1.999c0,0.452-0.152,0.89-0.433,1.244v5.325C318,500.505,317.105,501.4,316,501.4z M684,495.265
			c-0.451,0-0.889-0.152-1.242-0.433h-5.325c-1.105,0-2-0.895-2-2s0.895-2,2-2H684c1.105,0,2,0.895,2,2v0.433
			c0.001,1.105-0.894,2-1.999,2.001c0,0-0.001,0-0.001,0V495.265z M668.433,494.832h-7c-1.105,0-2-0.895-2-2s0.895-2,2-2h7
			c1.105,0,2,0.895,2,2S669.538,494.832,668.433,494.832z M652.433,494.832h-7c-1.105,0-2-0.895-2-2s0.895-2,2-2h7
			c1.105,0,2,0.895,2,2S653.538,494.832,652.433,494.832z M636.433,494.832h-7c-1.105,0-2-0.895-2-2s0.895-2,2-2h7
			c1.105,0,2,0.895,2,2S637.538,494.832,636.433,494.832z M620.433,494.832h-7c-1.105,0-2-0.895-2-2s0.895-2,2-2h7
			c1.105,0,2,0.895,2,2S621.538,494.832,620.433,494.832z M604.433,494.832h-7c-1.105,0-2-0.895-2-2s0.895-2,2-2h7
			c1.105,0,2,0.895,2,2S605.538,494.832,604.433,494.832z M588.433,494.832h-7c-1.105,0-2-0.895-2-2s0.895-2,2-2h7
			c1.105,0,2,0.895,2,2S589.538,494.832,588.433,494.832z M572.433,494.832h-7c-1.105,0-2-0.895-2-2s0.895-2,2-2h7
			c1.105,0,2,0.895,2,2S573.538,494.832,572.433,494.832z M556.433,494.832h-7c-1.105,0-2-0.895-2-2s0.895-2,2-2h7
			c1.105,0,2,0.895,2,2S557.538,494.832,556.433,494.832z M540.433,494.832h-7c-1.105,0-2-0.895-2-2s0.895-2,2-2h7
			c1.105,0,2,0.895,2,2S541.538,494.832,540.433,494.832z M524.433,494.832h-7c-1.105,0-2-0.895-2-2s0.895-2,2-2h7
			c1.105,0,2,0.895,2,2S525.538,494.832,524.433,494.832z M508.433,494.832h-7c-1.105,0-2-0.895-2-2s0.895-2,2-2h7
			c1.105,0,2,0.895,2,2S509.538,494.832,508.433,494.832z M492.433,494.832h-7c-1.105,0-2-0.895-2-2s0.895-2,2-2h7
			c1.105,0,2,0.895,2,2S493.538,494.832,492.433,494.832z M476.433,494.832h-7c-1.105,0-2-0.895-2-2s0.895-2,2-2h7
			c1.105,0,2,0.895,2,2S477.538,494.832,476.433,494.832z M460.433,494.832h-7c-1.105,0-2-0.895-2-2s0.895-2,2-2h7
			c1.105,0,2,0.895,2,2S461.538,494.832,460.433,494.832z M444.433,494.832h-7c-1.105,0-2-0.895-2-2s0.895-2,2-2h7
			c1.105,0,2,0.895,2,2S445.538,494.832,444.433,494.832z M428.433,494.832h-7c-1.105,0-2-0.895-2-2s0.895-2,2-2h7
			c1.105,0,2,0.895,2,2S429.538,494.832,428.433,494.832z M412.433,494.832h-7c-1.105,0-2-0.895-2-2s0.895-2,2-2h7
			c1.105,0,2,0.895,2,2S413.538,494.832,412.433,494.832z M396.433,494.832h-7c-1.105,0-2-0.895-2-2s0.895-2,2-2h7
			c1.105,0,2,0.895,2,2S397.538,494.832,396.433,494.832z M380.433,494.832h-7c-1.105,0-2-0.895-2-2s0.895-2,2-2h7
			c1.105,0,2,0.895,2,2S381.538,494.832,380.433,494.832z M364.433,494.832h-7c-1.105,0-2-0.895-2-2s0.895-2,2-2h7
			c1.105,0,2,0.895,2,2S365.538,494.832,364.433,494.832z M348.433,494.832h-7c-1.105,0-2-0.895-2-2s0.895-2,2-2h7
			c1.105,0,2,0.895,2,2S349.538,494.832,348.433,494.832z M332.433,494.832h-7c-1.105,0-2-0.895-2-2s0.895-2,2-2h7
			c1.105,0,2,0.895,2,2S333.538,494.832,332.433,494.832z"/>
		<path fill="#FF8345" d="M285.546,419.169l-13.51,98.514c-4.185,30.516,15.429,57.783,47.3,64.191
			C378.14,593.7,438.949,597.165,500,597.036c61.051,0.129,121.86-3.339,180.664-15.162c31.871-6.408,51.485-33.675,47.3-64.191
			l-13.51-98.514c-1.7-12.394-14.03-22.5-28.106-23.17c-124.376-5.936-248.32-5.936-372.7,0
			C299.576,396.671,287.246,406.775,285.546,419.169z"/>
		<path opacity="0.55" fill="#FF8345" enable-background="new    " d="M727.964,517.683l-13.51-98.514
			c-1.7-12.394-14.03-22.5-28.106-23.17c-124.376-5.936-248.32-5.936-372.7,0c-14.076,0.672-26.406,10.776-28.106,23.17
			l-13.51,98.514c-4.184,30.516,15.429,57.783,47.3,64.191C378.14,593.7,438.949,597.165,500,597.036
			c61.051,0.129,121.86-3.339,180.664-15.162C712.535,575.466,732.148,548.2,727.964,517.683z M680.623,582.161
			c-51.358,10.767-107.719,15.781-177.371,15.781h-6.5c-69.655,0-126.016-5.014-177.371-15.781
			c-27.091-5.679-44.142-29.652-40.545-57l13.637-103.721c1.112-8.453,10-15.728,19.808-16.217
			c62.353-3.1,125.511-4.676,187.719-4.676s125.365,1.573,187.719,4.676c9.81,0.489,18.7,7.764,19.809,16.218l13.64,103.716
			C724.765,552.509,707.714,576.482,680.623,582.161z"/>
		<path opacity="0.45" fill="#FF8345" enable-background="new    " d="M680.664,572.316C621.86,584.139,561.051,587.607,500,587.479
			c-61.051,0.128-121.86-3.34-180.664-15.163c-27.308-5.49-45.6-26.3-47.652-51.339c-2.39,29.165,16.933,54.72,47.652,60.9
			C378.14,593.7,438.949,597.165,500,597.036c61.051,0.129,121.86-3.339,180.664-15.162c30.719-6.177,50.042-31.732,47.652-60.9
			C726.265,546.017,707.972,566.826,680.664,572.316z"/>
		<path fill="#43293A" d="M503.207,602.039h-3.218c-71.365,0.143-129.108-4.7-181.639-15.26
			c-34.305-6.9-55.866-36.241-51.267-69.773l13.51-98.513l0,0c2.039-14.873,16.15-26.69,32.821-27.485
			c123.81-5.91,249.363-5.91,373.172,0c16.671,0.8,30.781,12.612,32.821,27.485L732.918,517c4.6,33.532-16.964,62.875-51.269,69.773
			C629.91,597.179,573.131,602.039,503.207,602.039z M499.989,592.039c70.723,0.111,127.83-4.638,179.69-15.064
			c28.966-5.824,47.189-30.473,43.331-58.61l-13.51-98.516c-1.374-10.013-11.648-18.3-23.392-18.856
			c-123.493-5.893-248.725-5.893-372.218,0c-11.744,0.561-22.018,8.843-23.391,18.856l-4.954-0.68l4.954,0.68l-13.51,98.513
			c-3.859,28.137,14.365,52.785,43.331,58.61c51.86,10.428,108.967,15.195,179.669,15.064V592.039z"/>
		<path fill="#43293A" d="M496.94,583.039h-0.161c-2.355,0-4.695-0.006-7.019-0.017c-1.105-0.003-1.998-0.9-1.995-2.005
			s0.9-1.998,2.005-1.995h0.009c2.318,0.011,4.651,0.016,7,0.017h0.161c1.105,0,2,0.895,2,2S498.045,583.039,496.94,583.039z
			 M505.951,583.039c-1.105,0-2-0.895-2-2s0.895-2,2-2c2.35-0.005,4.683-0.015,7-0.03h0.014c1.105-0.004,2.003,0.888,2.007,1.993
			c0.004,1.105-0.888,2.003-1.993,2.007c-2.325,0.015-4.665,0.025-7.02,0.03H505.951z M480.759,582.952h-0.023
			c-2.356-0.026-4.696-0.059-7.02-0.1c-1.105-0.018-1.985-0.929-1.966-2.034c0.018-1.105,0.929-1.985,2.033-1.966
			c2.318,0.039,4.651,0.073,7,0.1c1.105,0.006,1.995,0.906,1.989,2.011c-0.006,1.105-0.906,1.995-2.011,1.989H480.759z
			 M521.973,582.918c-1.105,0.007-2.006-0.882-2.013-1.987s0.882-2.006,1.987-2.013c2.348-0.031,4.681-0.069,7-0.112
			c1.105-0.021,2.017,0.857,2.039,1.961s-0.857,2.017-1.961,2.039c-2.325,0.044-4.665,0.081-7.02,0.112H521.973z M464.74,582.673
			h-0.048c-2.355-0.056-4.695-0.119-7.02-0.188c-1.105-0.033-1.973-0.955-1.94-2.06s0.955-1.973,2.06-1.94
			c2.316,0.067,4.649,0.129,7,0.188c1.105,0.013,1.989,0.919,1.977,2.023s-0.919,1.99-2.023,1.977H464.74z M537.991,582.606
			c-1.105,0.014-2.012-0.869-2.026-1.974s0.869-2.012,1.974-2.026c2.347-0.061,4.68-0.127,7-0.2
			c1.105-0.035,2.028,0.832,2.064,1.936c0.035,1.105-0.832,2.028-1.937,2.064c-2.324,0.075-4.663,0.142-7.017,0.2H537.991z
			 M448.728,582.184h-0.077c-2.354-0.089-4.693-0.185-7.017-0.286c-1.105-0.049-1.96-0.984-1.911-2.089s0.984-1.96,2.089-1.911
			c2.314,0.103,4.644,0.198,6.99,0.285c1.105,0.02,1.984,0.932,1.964,2.036s-0.932,1.984-2.036,1.964V582.184z M554.005,582.076
			c-1.105,0.022-2.017-0.856-2.039-1.961s0.856-2.017,1.961-2.039c2.344-0.093,4.673-0.193,6.987-0.3
			c1.097-0.037,2.024,0.805,2.092,1.9c0.052,1.102-0.798,2.038-1.9,2.092c-2.324,0.108-4.663,0.208-7.017,0.3
			c-0.031,0.006-0.058,0.006-0.084,0.006V582.076z M432.723,581.462h-0.108c-2.353-0.124-4.69-0.256-7.012-0.395
			c-1.103-0.066-1.943-1.014-1.876-2.116c0.066-1.103,1.014-1.943,2.116-1.877c2.312,0.139,4.64,0.27,6.983,0.394
			c1.105,0.028,1.978,0.945,1.95,2.05c-0.028,1.105-0.945,1.978-2.05,1.95L432.723,581.462z M570.007,581.314
			c-1.105,0.03-2.024-0.841-2.055-1.945s0.841-2.024,1.945-2.055c2.342-0.129,4.669-0.267,6.982-0.412
			c1.103-0.069,2.052,0.769,2.122,1.871c0.069,1.103-0.769,2.052-1.872,2.122c-2.322,0.145-4.659,0.283-7.011,0.414
			c-0.037,0.003-0.075,0.003-0.112,0.003V581.314z M416.732,580.487c-0.046,0-0.093,0-0.141,0c-2.35-0.163-4.683-0.334-7-0.512
			c-1.102-0.085-1.926-1.046-1.841-2.148s1.046-1.926,2.148-1.841c2.31,0.178,4.635,0.348,6.976,0.511
			c1.105,0.038,1.969,0.964,1.931,2.068c-0.038,1.105-0.964,1.969-2.068,1.932L416.732,580.487z M585.993,580.294
			c-1.105,0.039-2.032-0.824-2.071-1.929c-0.039-1.105,0.824-2.032,1.929-2.071c2.34-0.169,4.664-0.346,6.973-0.531
			c1.099-0.114,2.082,0.684,2.196,1.783c0.114,1.099-0.684,2.082-1.783,2.196c-0.031,0.003-0.062,0.006-0.092,0.007
			c-2.321,0.186-4.655,0.364-7,0.535c-0.054,0.006-0.103,0.008-0.152,0.008L585.993,580.294z M400.761,579.234
			c-0.059,0-0.118,0-0.177-0.007c-2.347-0.205-4.68-0.42-7-0.643c-1.1-0.106-1.905-1.083-1.799-2.183
			c0.106-1.1,1.083-1.905,2.183-1.799c2.307,0.222,4.628,0.435,6.963,0.64c1.1,0.099,1.912,1.07,1.813,2.171
			c-0.092,1.029-0.953,1.818-1.985,1.821H400.761z M601.961,578.991c-1.105,0-2-0.895-2-2c0-1.035,0.79-1.9,1.821-1.992
			c2.333-0.211,4.653-0.432,6.96-0.662c1.099-0.11,2.08,0.691,2.19,1.79s-0.691,2.08-1.79,2.19c-2.318,0.232-4.651,0.454-7,0.666
			c-0.059,0.003-0.121,0.006-0.18,0.006L601.961,578.991z M384.814,577.681c-0.072,0-0.144-0.004-0.216-0.012
			c-2.342-0.251-4.67-0.512-6.983-0.783c-1.097-0.128-1.883-1.121-1.755-2.219s1.121-1.883,2.219-1.755
			c2.301,0.267,4.616,0.526,6.947,0.779c1.099,0.116,1.895,1.1,1.78,2.198C386.698,576.909,385.839,577.682,384.814,577.681
			L384.814,577.681z M617.898,577.381c-1.105-0.006-1.995-0.906-1.99-2.01c0.005-1.013,0.766-1.861,1.773-1.977
			c2.329-0.26,4.643-0.527,6.944-0.8c1.095-0.146,2.101,0.623,2.247,1.718c0.146,1.095-0.623,2.101-1.718,2.247
			c-0.017,0.002-0.034,0.004-0.05,0.006c-2.312,0.279-4.639,0.548-6.981,0.808c-0.074,0.007-0.148,0.01-0.222,0.009L617.898,577.381
			z M368.905,575.8c-0.087,0-0.173-0.005-0.259-0.017c-2.333-0.302-4.655-0.613-6.966-0.934c-1.091-0.175-1.833-1.201-1.658-2.291
			c0.17-1.059,1.144-1.795,2.209-1.67c2.296,0.319,4.605,0.629,6.928,0.928c1.096,0.139,1.871,1.141,1.732,2.236
			C370.763,575.052,369.913,575.801,368.905,575.8L368.905,575.8z M633.805,575.445c-1.105-0.004-1.997-0.902-1.993-2.007
			c0.003-0.999,0.743-1.842,1.732-1.975c2.321-0.309,4.629-0.627,6.925-0.955c1.09-0.178,2.118,0.562,2.296,1.652
			s-0.562,2.118-1.652,2.296c-0.026,0.004-0.052,0.008-0.077,0.011c-2.308,0.33-4.629,0.65-6.964,0.961
			c-0.09,0.011-0.18,0.016-0.271,0.015L633.805,575.445z M353.044,573.57c-0.1,0-0.201-0.007-0.3-0.022
			c-2.327-0.355-4.641-0.72-6.943-1.094c-1.094-0.152-1.858-1.161-1.707-2.256c0.152-1.094,1.161-1.858,2.256-1.707
			c0.031,0.004,0.062,0.009,0.093,0.015c2.289,0.371,4.589,0.733,6.9,1.086c1.092,0.167,1.842,1.188,1.674,2.279
			C354.868,572.848,354.03,573.569,353.044,573.57L353.044,573.57z M649.663,573.154c-1.105-0.005-1.996-0.905-1.991-2.009
			c0.005-0.979,0.718-1.811,1.685-1.966c2.312-0.362,4.612-0.734,6.9-1.115c1.087-0.199,2.128,0.521,2.327,1.607
			s-0.521,2.128-1.607,2.327c-0.021,0.004-0.041,0.007-0.062,0.01c-2.301,0.384-4.614,0.758-6.94,1.121
			c-0.104,0.016-0.21,0.023-0.315,0.022L649.663,573.154z M337.232,570.97c-0.117,0-0.234-0.01-0.35-0.031
			c-2.318-0.41-4.624-0.83-6.918-1.261c-1.086-0.205-1.8-1.251-1.596-2.336c0.205-1.086,1.251-1.8,2.337-1.596
			c2.279,0.43,4.57,0.848,6.873,1.254c1.088,0.191,1.815,1.227,1.625,2.315C339.035,570.272,338.204,570.97,337.232,570.97
			L337.232,570.97z M665.457,570.488c-1.105-0.004-1.996-0.903-1.992-2.008c0.004-0.962,0.692-1.785,1.638-1.959
			c2.301-0.417,4.591-0.844,6.869-1.283c1.085-0.209,2.133,0.501,2.342,1.586s-0.501,2.133-1.586,2.342
			c-2.294,0.441-4.598,0.871-6.913,1.29C665.697,570.478,665.577,570.489,665.457,570.488L665.457,570.488z M321.494,567.977
			c-0.146,0-0.291-0.016-0.434-0.047c-2.372-0.523-4.705-1.207-6.983-2.048c-1.044-0.36-1.599-1.499-1.239-2.543
			s1.499-1.599,2.543-1.239c0.028,0.01,0.057,0.02,0.085,0.031c2.107,0.777,4.264,1.409,6.457,1.891
			c1.079,0.236,1.763,1.301,1.527,2.381C323.25,567.323,322.435,567.978,321.494,567.977L321.494,567.977z M681.157,567.319
			c-1.105,0-2-0.896-1.999-2.001c0-0.899,0.601-1.688,1.468-1.927c2.162-0.595,4.278-1.343,6.334-2.238
			c1.025-0.411,2.19,0.088,2.6,1.113c0.393,0.981-0.045,2.098-1,2.551c-2.23,0.972-4.527,1.783-6.872,2.429
			C681.515,567.294,681.336,567.319,681.157,567.319z M306.673,562.086c-0.369-0.001-0.731-0.105-1.045-0.3
			c-2.087-1.279-4.064-2.728-5.913-4.332c-0.828-0.732-0.906-1.995-0.174-2.823c0.723-0.818,1.969-0.905,2.799-0.195
			c1.683,1.459,3.482,2.778,5.381,3.942c0.939,0.582,1.228,1.815,0.646,2.754c-0.364,0.587-1.004,0.945-1.694,0.946V562.086z
			 M695.61,560.586c-1.105,0.001-2.001-0.893-2.002-1.998c-0.001-0.651,0.316-1.262,0.848-1.637c1.819-1.281,3.527-2.712,5.106-4.28
			c0.783-0.779,2.05-0.776,2.829,0.007c0.779,0.783,0.776,2.05-0.007,2.829c-1.739,1.726-3.62,3.303-5.623,4.714
			C696.424,560.459,696.022,560.586,695.61,560.586z M294.945,551.327c-0.64,0.001-1.242-0.305-1.619-0.823
			c-1.446-1.987-2.71-4.101-3.776-6.316c-0.434-1.016,0.039-2.191,1.055-2.625c0.951-0.406,2.055-0.02,2.545,0.891
			c0.961,1.999,2.101,3.907,3.406,5.7c0.65,0.893,0.453,2.144-0.44,2.794c-0.342,0.249-0.753,0.383-1.176,0.383L294.945,551.327z
			 M706.58,549.067c-1.105-0.001-1.999-0.898-1.998-2.002c0-0.374,0.106-0.741,0.305-1.059c1.175-1.879,2.177-3.86,2.994-5.92
			c0.407-1.027,1.57-1.529,2.597-1.122s1.529,1.57,1.122,2.597l0,0c-0.907,2.285-2.019,4.484-3.323,6.568
			C707.911,548.713,707.27,549.068,706.58,549.067L706.58,549.067z M288.421,536.822c-0.938-0.001-1.749-0.653-1.951-1.569
			c-0.526-2.394-0.845-4.829-0.956-7.278c-0.051-1.105,0.803-2.041,1.908-2.092c1.105-0.051,2.041,0.803,2.092,1.908
			c0.1,2.221,0.39,4.429,0.866,6.6c0.237,1.078-0.444,2.145-1.522,2.383C288.715,536.806,288.568,536.822,288.421,536.822z
			 M712.077,534.14c-0.1,0-0.201-0.008-0.3-0.023c-1.092-0.164-1.844-1.182-1.68-2.274c0.291-1.955,0.436-3.929,0.435-5.906
			c0-0.248-0.002-0.497-0.007-0.746c-0.021-1.104,0.858-2.016,1.962-2.037c0,0,0,0,0.001,0c1.096,0,1.996,0.867,2.037,1.963
			c0,0.275,0.007,0.547,0.007,0.82c0.001,2.176-0.159,4.348-0.48,6.5C713.905,533.415,713.066,534.139,712.077,534.14z
			 M288.021,520.9c-0.092,0-0.183-0.006-0.274-0.018c-1.094-0.15-1.859-1.159-1.709-2.253l0.952-6.945
			c0.15-1.094,1.159-1.86,2.253-1.71s1.86,1.159,1.71,2.253L290,519.17C289.865,520.16,289.02,520.899,288.021,520.9z
			 M711.607,518.2c-0.998-0.002-1.842-0.739-1.978-1.728l-0.952-6.945c-0.142-1.095,0.631-2.099,1.726-2.241
			c1.085-0.141,2.081,0.616,2.237,1.699l0.952,6.944c0.15,1.094-0.616,2.103-1.71,2.253c0,0,0,0,0,0
			c-0.091,0.01-0.183,0.014-0.275,0.012V518.2z M290.2,505.024c-0.092,0-0.183-0.006-0.274-0.018c-1.094-0.15-1.86-1.159-1.71-2.253
			l0,0l0.953-6.946c0.15-1.094,1.159-1.86,2.254-1.71s1.86,1.159,1.71,2.254l-0.953,6.945
			C292.043,504.285,291.199,505.023,290.2,505.024z M709.433,502.324c-0.999-0.001-1.843-0.739-1.979-1.728l-0.953-6.945
			c-0.15-1.094,0.616-2.103,1.71-2.253c1.094-0.15,2.103,0.616,2.253,1.71l0.953,6.944c0.151,1.094-0.615,2.103-1.709,2.254
			c0,0-0.001,0-0.001,0c-0.092,0.011-0.184,0.015-0.276,0.014L709.433,502.324z M292.375,489.15c-0.091,0-0.183-0.006-0.273-0.019
			c-1.094-0.15-1.86-1.159-1.71-2.253l0,0l0.952-6.944c0.15-1.094,1.159-1.86,2.253-1.71c1.094,0.15,1.86,1.159,1.71,2.253
			l-0.953,6.944C294.219,488.411,293.374,489.149,292.375,489.15z M707.253,486.45c-0.999-0.001-1.843-0.739-1.979-1.728
			l-0.952-6.946c-0.15-1.094,0.616-2.103,1.71-2.253c1.094-0.15,2.103,0.616,2.253,1.71l0.952,6.946
			c0.15,1.094-0.616,2.103-1.71,2.253c0,0,0,0,0,0c-0.091,0.011-0.182,0.015-0.274,0.014V486.45z M294.553,473.28
			c-0.092,0-0.183-0.006-0.274-0.019c-1.094-0.15-1.86-1.159-1.71-2.253c0,0,0-0.001,0-0.001l0.953-6.944
			c0.15-1.094,1.159-1.86,2.254-1.71s1.86,1.159,1.71,2.254l-0.953,6.944c-0.137,0.988-0.982,1.725-1.98,1.725L294.553,473.28z
			 M705.077,470.58c-0.998-0.002-1.843-0.74-1.978-1.729l-0.952-6.945c-0.126-1.097,0.662-2.089,1.76-2.214
			c1.063-0.122,2.034,0.615,2.202,1.671l0.953,6.945c0.15,1.094-0.616,2.103-1.71,2.253c0,0,0,0,0,0
			c-0.092,0.01-0.184,0.014-0.276,0.011L705.077,470.58z M296.729,457.4c-0.091,0-0.183-0.006-0.273-0.019
			c-1.094-0.15-1.86-1.159-1.71-2.253l0,0l0.952-6.945c0.15-1.094,1.159-1.86,2.253-1.71c1.094,0.15,1.86,1.159,1.71,2.253
			l-0.953,6.945C298.573,456.661,297.728,457.399,296.729,457.4z M702.899,454.7c-0.998-0.002-1.843-0.74-1.978-1.729l-0.952-6.945
			c-0.15-1.094,0.616-2.103,1.71-2.253c1.094-0.15,2.103,0.616,2.253,1.71l0.952,6.945c0.15,1.094-0.616,2.103-1.71,2.253
			c0,0,0,0,0,0C703.083,454.693,702.992,454.7,702.899,454.7L702.899,454.7z M298.906,441.527c-0.092,0-0.183-0.006-0.274-0.019
			c-1.094-0.15-1.86-1.159-1.71-2.253l0,0l0.953-6.945c0.15-1.094,1.159-1.86,2.254-1.71s1.86,1.159,1.71,2.254l-0.953,6.945
			C300.749,440.788,299.905,441.526,298.906,441.527z M700.723,438.827c-0.999-0.001-1.844-0.739-1.979-1.729l-0.953-6.945
			c-0.15-1.094,0.615-2.103,1.71-2.254c1.094-0.15,2.103,0.615,2.253,1.71l0.953,6.945c0.151,1.094-0.615,2.103-1.709,2.254
			c0,0-0.001,0-0.001,0c-0.091,0.011-0.182,0.017-0.274,0.016V438.827z M301.083,425.656c-0.092,0-0.183-0.006-0.274-0.019
			c-1.094-0.15-1.86-1.159-1.71-2.253l0,0l0.317-2.31c0.327-1.921,1.189-3.712,2.488-5.165c0.717-0.841,1.979-0.941,2.82-0.224
			c0.835,0.712,0.941,1.965,0.235,2.806c-0.803,0.879-1.349,1.96-1.58,3.128l-0.317,2.309c-0.137,0.988-0.981,1.724-1.979,1.725
			V425.656z M698.532,422.956c-0.947-0.001-1.763-0.666-1.956-1.593c-0.544-1.806-1.673-3.379-3.21-4.473
			c-0.873-0.677-1.031-1.934-0.354-2.806s1.934-1.031,2.806-0.354c0.005,0.004,0.011,0.009,0.016,0.013
			c2.296,1.658,3.943,4.064,4.657,6.805c0.225,1.081-0.469,2.141-1.55,2.366c0,0-0.001,0-0.001,0
			c-0.135,0.026-0.272,0.039-0.409,0.038V422.956z M310.985,414.529c-1.105,0.001-2.001-0.894-2.001-1.999
			c-0.001-0.903,0.604-1.695,1.475-1.931c1.261-0.344,2.555-0.549,3.86-0.612l3.528-0.167c1.105-0.051,2.042,0.802,2.093,1.907
			c0.051,1.105-0.802,2.042-1.907,2.093l-3.522,0.167c-1.014,0.048-2.02,0.208-3,0.476c-0.172,0.043-0.349,0.064-0.526,0.062
			V414.529z M686.335,414.038c-0.062,0-0.123,0-0.187-0.008c-0.218-0.021-0.438-0.036-0.66-0.047
			c-2.083-0.1-4.166-0.198-6.249-0.293c-1.105-0.051-1.959-0.987-1.908-2.092c0.051-1.105,0.987-1.959,2.092-1.908
			c2.087,0.097,4.173,0.195,6.258,0.294c0.281,0.014,0.559,0.034,0.837,0.059c1.1,0.099,1.912,1.07,1.813,2.171
			c-0.093,1.033-0.959,1.824-1.996,1.821V414.038z M326.941,413.4c-1.105,0.024-2.019-0.852-2.043-1.957
			c-0.024-1.105,0.852-2.019,1.956-2.043c2.333-0.103,4.667-0.203,7-0.3c1.105-0.047,2.038,0.81,2.086,1.914
			c0.047,1.105-0.81,2.038-1.915,2.086c-2.333,0.099-4.667,0.199-7,0.3C327,413.4,326.971,413.4,326.941,413.4z M670.327,413.28
			h-0.089c-2.333-0.102-4.667-0.202-7-0.3c-1.103-0.047-1.96-0.979-1.914-2.082c0.06-1.097,0.984-1.946,2.082-1.914
			c2.337,0.099,4.673,0.199,7.008,0.3c1.105,0.023,1.981,0.938,1.958,2.043c-0.023,1.105-0.938,1.981-2.043,1.957L670.327,413.28z
			 M342.947,412.722c-1.105,0.022-2.018-0.856-2.039-1.961c-0.022-1.105,0.856-2.018,1.96-2.039
			c2.333-0.094,4.669-0.186,7.008-0.276c1.105-0.042,2.034,0.819,2.077,1.923s-0.819,2.034-1.923,2.077
			c-2.333,0.09-4.667,0.182-7,0.276H342.947z M654.315,412.612h-0.08c-2.333-0.093-4.667-0.183-7-0.272
			c-1.105-0.042-1.966-0.971-1.924-2.076s0.971-1.966,2.076-1.924c2.338,0.089,4.675,0.18,7.01,0.272
			c1.105,0.022,1.982,0.935,1.961,2.039s-0.935,1.982-2.039,1.961H654.315z M358.957,412.112c-1.105,0.02-2.016-0.86-2.036-1.964
			c-0.02-1.105,0.86-2.016,1.965-2.036c2.333-0.084,4.67-0.167,7.009-0.248c1.105-0.038,2.031,0.827,2.068,1.932
			c0.038,1.105-0.827,2.031-1.931,2.068c-2.333,0.081-4.667,0.164-7,0.247L358.957,412.112z M638.302,412.012h-0.073
			c-2.333-0.083-4.667-0.163-7-0.242c-1.105-0.037-1.97-0.962-1.933-2.067c0.037-1.105,0.962-1.97,2.067-1.933
			c2.337,0.079,4.674,0.16,7.011,0.244c1.105,0.019,1.984,0.93,1.965,2.035c-0.019,1.105-0.93,1.984-2.035,1.965L638.302,412.012z
			 M374.97,411.562c-1.105,0.018-2.014-0.863-2.032-1.968c-0.018-1.105,0.863-2.014,1.968-2.032
			c2.337-0.075,4.674-0.148,7.011-0.218c1.105-0.033,2.027,0.835,2.06,1.94c0.033,1.105-0.835,2.027-1.939,2.06
			c-2.333,0.071-4.667,0.143-7,0.218H374.97z M622.286,411.475h-0.063c-2.333-0.073-4.667-0.144-7-0.214
			c-1.105-0.033-1.973-0.955-1.94-2.06s0.955-1.973,2.06-1.94c2.337,0.067,4.673,0.138,7.01,0.214
			c1.105,0.017,1.986,0.926,1.969,2.031s-0.926,1.986-2.031,1.969H622.286z M390.986,411.081c-1.105,0.015-2.012-0.868-2.027-1.973
			s0.868-2.012,1.973-2.027c2.338-0.067,4.675-0.13,7.012-0.19c1.105-0.028,2.022,0.845,2.05,1.95
			c0.028,1.105-0.845,2.022-1.95,2.05c-2.333,0.061-4.667,0.124-7,0.189L390.986,411.081z M606.271,411.005h-0.056
			c-2.333-0.067-4.667-0.128-7-0.185c-1.104-0.028-1.976-0.946-1.948-2.05c0.014-1.091,0.91-1.964,2.001-1.95
			c0.016,0,0.032,0.001,0.049,0.001c2.333,0.06,4.67,0.122,7.011,0.186c1.105,0.015,1.988,0.922,1.974,2.026
			s-0.922,1.988-2.026,1.974L606.271,411.005z M407,410.667c-1.105,0.013-2.01-0.872-2.023-1.977
			c-0.013-1.105,0.872-2.01,1.977-2.023c2.337-0.056,4.674-0.11,7.012-0.162c1.105-0.025,2.02,0.851,2.044,1.956
			s-0.851,2.02-1.956,2.044c-2.333,0.052-4.669,0.106-7.006,0.162H407z M590.249,410.602H590.2c-2.333-0.054-4.667-0.106-7-0.157
			c-1.105-0.024-1.981-0.938-1.957-2.043c0.024-1.105,0.938-1.981,2.043-1.957c2.337,0.051,4.674,0.103,7.012,0.157
			c1.105,0.012,1.99,0.918,1.977,2.022c-0.012,1.105-0.918,1.99-2.022,1.978H590.249z M423.02,410.315
			c-1.105,0.01-2.009-0.876-2.019-1.981c-0.01-1.105,0.876-2.008,1.981-2.019c2.338-0.046,4.676-0.09,7.013-0.133h0.037
			c1.105-0.01,2.008,0.878,2.017,1.983c0.01,1.105-0.878,2.008-1.982,2.017c-2.333,0.042-4.669,0.086-7.006,0.133H423.02z
			 M574.228,410.262h-0.04c-2.333-0.046-4.667-0.089-7-0.129c-1.105-0.009-1.992-0.912-1.983-2.017
			c0.009-1.105,0.912-1.992,2.017-1.983h0.036c2.337,0.041,4.674,0.084,7.012,0.129c1.105,0.011,1.991,0.915,1.981,2.02
			c-0.011,1.105-0.915,1.991-2.02,1.98H574.228z M439.043,410.03c-1.105,0.009-2.007-0.88-2.016-1.984s0.88-2.007,1.984-2.016
			c2.339-0.037,4.678-0.07,7.015-0.1c1.105-0.015,2.012,0.868,2.027,1.973s-0.868,2.012-1.973,2.027
			c-2.333,0.033-4.669,0.067-7.006,0.1H439.043z M558.211,409.987h-0.031c-2.333-0.035-4.667-0.069-7-0.1
			c-1.105-0.007-1.994-0.908-1.987-2.013s0.908-1.994,2.013-1.987h0.027c2.338,0.031,4.676,0.064,7.013,0.1
			c1.105,0.008,1.994,0.91,1.985,2.014c-0.008,1.105-0.91,1.993-2.014,1.986H558.211z M455.067,409.809
			c-1.105,0.006-2.005-0.884-2.012-1.988s0.884-2.005,1.988-2.012c2.34-0.027,4.678-0.053,7.015-0.076h0.021
			c1.105-0.005,2.004,0.886,2.009,1.991c0.005,1.105-0.886,2.004-1.99,2.009l0,0c-2.333,0.023-4.669,0.048-7.008,0.076H455.067z
			 M542.19,409.778h-0.021c-2.337-0.025-4.672-0.049-7.006-0.07c-1.105-0.005-1.996-0.905-1.991-2.009
			c0.005-1.105,0.905-1.996,2.01-1.991h0.018c2.333,0.021,4.671,0.044,7.012,0.07c1.105,0.006,1.995,0.906,1.989,2.011
			S543.295,409.784,542.19,409.778L542.19,409.778z M471.09,409.656c-1.105,0.004-2.003-0.888-2.007-1.993
			c-0.004-1.105,0.888-2.003,1.993-2.007c2.339-0.018,4.678-0.034,7.016-0.047h0.011c1.105-0.003,2.002,0.89,2.005,1.995
			s-0.89,2.002-1.995,2.005c-2.333,0.014-4.669,0.03-7.008,0.047H471.09z M526.168,409.636h-0.014c-2.333-0.016-4.667-0.03-7-0.041
			c-1.105-0.003-1.998-0.9-1.995-2.005s0.9-1.998,2.005-1.995h0.01c2.337,0.011,4.674,0.024,7.012,0.041
			c1.105,0.004,1.997,0.902,1.993,2.007c-0.004,1.105-0.902,1.997-2.007,1.993H526.168z M487.118,409.568
			c-1.105,0.002-2.002-0.892-2.004-1.996c-0.002-1.105,0.892-2.002,1.997-2.004c2.341-0.008,4.68-0.014,7.017-0.017l0,0
			c1.105,0,2,0.895,2,2s-0.895,2-2,2c-2.333,0-4.67,0.006-7.009,0.017H487.118z M510.149,409.56h-0.006
			c-2.333-0.006-4.667-0.01-7-0.012c-1.105,0-2-0.895-2-2s0.895-2,2-2l0,0c2.333,0,4.671,0.004,7.012,0.012
			c1.105,0.002,1.999,0.898,1.997,2.003C512.15,408.668,511.254,409.562,510.149,409.56L510.149,409.56z"/>
		<path fill="#EDAB7A" d="M367.547,494.293h36l0,0V747.2c0,9.941-8.059,18-18,18l0,0c-9.941,0-18-8.059-18-18V494.293
			L367.547,494.293z"/>
		<rect x="367.547" y="494.293" fill="#43293A" width="36" height="12.97"/>
		<rect x="367.547" y="564.203" opacity="0.78" fill="#EDAB7A" enable-background="new    " width="36" height="18"/>
		<path fill="#43293A" d="M385.547,770.2c-12.697-0.014-22.986-10.303-23-23V494.293c0-2.761,2.239-5,5-5h36c2.761,0,5,2.239,5,5
			V747.2C408.533,759.897,398.244,770.186,385.547,770.2z M372.547,499.29V747.2c0,7.18,5.82,13,13,13c7.18,0,13-5.82,13-13V499.293
			L372.547,499.29z"/>
		<polygon fill="#FFFFFF" points="355.548,552.203 355.548,607.203 367.547,607.203 367.547,595.203 367.547,590.294 
			367.547,564.203 403.547,564.203 403.547,590.294 403.547,595.203 403.547,607.203 415.548,607.203 415.548,552.203 		"/>
		<path fill="#43293A" d="M405.762,611.2h-2.215c-2.209,0-4-1.791-4-4v-39h-28v39c0,2.209-1.791,4-4,4h-2.214
			c-7.61-0.008-13.778-6.175-13.786-13.785v-35.426c0.006-7.612,6.174-13.781,13.786-13.789h40.429
			c7.61,0.008,13.777,6.176,13.785,13.786v35.429C419.539,605.025,413.372,611.192,405.762,611.2z M367.547,560.2h36
			c2.209,0,4,1.791,4,4v38.718c2.381-0.777,3.994-2.995,4-5.5v-35.429c-0.003-3.194-2.591-5.782-5.785-5.786h-40.429
			c-3.194,0.004-5.782,2.592-5.786,5.786v35.429c0.006,2.505,1.619,4.723,4,5.5V564.2C363.547,561.991,365.338,560.2,367.547,560.2z
			"/>
		<circle fill="#FFFFFF" cx="385.547" cy="532.703" r="5.5"/>
		<path fill="#43293A" d="M385.547,540.2c-4.142,0-7.5-3.358-7.5-7.5s3.358-7.5,7.5-7.5s7.5,3.358,7.5,7.5l0,0
			C393.042,536.84,389.687,540.195,385.547,540.2z M385.547,529.2c-1.933,0-3.5,1.567-3.5,3.5s1.567,3.5,3.5,3.5s3.5-1.567,3.5-3.5
			S387.48,529.2,385.547,529.2z"/>
		<circle fill="#FFFFFF" cx="385.547" cy="586.549" r="5.5"/>
		<path fill="#43293A" d="M385.547,595.51c-4.142,0-7.5-3.358-7.5-7.5s3.358-7.5,7.5-7.5s7.5,3.358,7.5,7.5l0,0
			C393.042,592.15,389.687,595.505,385.547,595.51z M385.547,584.51c-1.933,0-3.5,1.567-3.5,3.5s1.567,3.5,3.5,3.5
			s3.5-1.567,3.5-3.5S387.48,584.51,385.547,584.51z"/>
		<circle fill="#AD5349" cx="385.547" cy="659.203" r="5.5"/>
		<path fill="#43293A" d="M385.547,666.7c-4.142,0-7.5-3.358-7.5-7.5s3.358-7.5,7.5-7.5s7.5,3.358,7.5,7.5l0,0
			C393.042,663.34,389.687,666.695,385.547,666.7z M385.547,655.7c-1.933,0-3.5,1.567-3.5,3.5s1.567,3.5,3.5,3.5s3.5-1.567,3.5-3.5
			S387.48,655.7,385.547,655.7z"/>
		<circle fill="#AD5349" cx="385.547" cy="694.783" r="5.5"/>
		<path fill="#43293A" d="M385.547,702.283c-4.142,0-7.5-3.358-7.5-7.5s3.358-7.5,7.5-7.5s7.5,3.358,7.5,7.5l0,0
			C393.042,698.923,389.687,702.278,385.547,702.283z M385.547,691.283c-1.933,0-3.5,1.567-3.5,3.5s1.567,3.5,3.5,3.5
			s3.5-1.567,3.5-3.5C389.044,692.851,387.479,691.286,385.547,691.283z"/>
		<path fill="#FFFFFF" d="M385.547,552.203L385.547,552.203c2.203,0,3.988,1.785,3.988,3.988v31.869
			c0,2.203-1.785,3.988-3.988,3.988l0,0c-2.203,0-3.988-1.785-3.988-3.988v-31.869C381.559,553.988,383.344,552.203,385.547,552.203
			z"/>
		<path fill="#43293A" d="M385.547,594.049c-3.304-0.007-5.98-2.684-5.987-5.988v-31.87c0-3.307,2.681-5.988,5.988-5.988
			s5.988,2.681,5.988,5.988v31.87C391.529,591.366,388.852,594.043,385.547,594.049z M385.547,554.203
			c-1.097,0.002-1.986,0.891-1.987,1.988v31.87c0,1.098,0.89,1.988,1.988,1.988s1.988-0.89,1.988-1.988v-31.87
			c0-1.099-0.89-1.99-1.989-1.991V554.203z"/>
		<path fill="#EDAB7A" d="M596.452,494.293h36l0,0V747.2c0,9.941-8.059,18-18,18l0,0c-9.941,0-18-8.059-18-18V494.293
			L596.452,494.293z"/>
		<rect x="595.297" y="564.51" opacity="0.78" fill="#EDAB7A" enable-background="new    " width="36" height="18"/>
		<path fill="#43293A" d="M614.452,770.2c-12.697-0.014-22.986-10.303-23-23V494.293c0-2.761,2.239-5,5-5h36c2.761,0,5,2.239,5,5
			V747.2C637.438,759.897,627.149,770.186,614.452,770.2z M601.452,499.29V747.2c0,7.18,5.82,13,13,13s13-5.82,13-13V499.293
			L601.452,499.29z"/>
		<polygon fill="#FFFFFF" points="584.452,552.203 584.452,607.203 596.452,607.203 596.452,595.203 596.452,590.294 
			596.452,564.203 632.452,564.203 632.452,590.294 632.452,595.203 632.452,607.203 644.452,607.203 644.452,552.203 		"/>
		<path fill="#43293A" d="M634.667,611.2h-2.215c-2.209,0-4-1.791-4-4v-39h-28v39c0,2.209-1.791,4-4,4h-2.214
			c-7.61-0.008-13.778-6.175-13.786-13.785v-35.426c0.006-7.612,6.174-13.781,13.786-13.789h40.429
			c7.61,0.008,13.777,6.176,13.785,13.786v35.429C648.444,605.025,642.277,611.192,634.667,611.2z M596.452,560.2h36
			c2.209,0,4,1.791,4,4v38.718c2.381-0.777,3.994-2.995,4-5.5v-35.429c-0.004-3.194-2.591-5.782-5.785-5.786h-40.429
			c-3.194,0.004-5.782,2.592-5.786,5.786v35.429c0.006,2.505,1.619,4.723,4,5.5V564.2C592.452,561.991,594.243,560.2,596.452,560.2
			L596.452,560.2L596.452,560.2z"/>
		<circle fill="#FFFFFF" cx="614.452" cy="532.703" r="5.5"/>
		<path fill="#43293A" d="M614.452,540.2c-4.142,0-7.5-3.358-7.5-7.5s3.358-7.5,7.5-7.5s7.5,3.358,7.5,7.5l0,0
			C621.948,536.84,618.592,540.196,614.452,540.2z M614.452,529.2c-1.933,0-3.5,1.567-3.5,3.5s1.567,3.5,3.5,3.5s3.5-1.567,3.5-3.5
			S616.385,529.2,614.452,529.2z"/>
		<circle fill="#FFFFFF" cx="614.452" cy="586.549" r="5.5"/>
		<path fill="#43293A" d="M614.452,595.51c-4.142,0-7.5-3.358-7.5-7.5s3.358-7.5,7.5-7.5s7.5,3.358,7.5,7.5l0,0
			C621.948,592.15,618.592,595.506,614.452,595.51z M614.452,584.51c-1.933,0-3.5,1.567-3.5,3.5s1.567,3.5,3.5,3.5
			s3.5-1.567,3.5-3.5S616.385,584.51,614.452,584.51z"/>
		<circle fill="#AD5349" cx="614.452" cy="659.203" r="5.5"/>
		<path fill="#43293A" d="M614.452,666.7c-4.142,0-7.5-3.358-7.5-7.5s3.358-7.5,7.5-7.5s7.5,3.358,7.5,7.5l0,0
			C621.948,663.34,618.592,666.696,614.452,666.7z M614.452,655.7c-1.933,0-3.5,1.567-3.5,3.5s1.567,3.5,3.5,3.5s3.5-1.567,3.5-3.5
			S616.385,655.7,614.452,655.7z"/>
		<circle fill="#AD5349" cx="614.452" cy="694.783" r="5.5"/>
		<path fill="#43293A" d="M614.452,702.283c-4.142,0-7.5-3.358-7.5-7.5s3.358-7.5,7.5-7.5s7.5,3.358,7.5,7.5l0,0
			C621.948,698.923,618.592,702.279,614.452,702.283z M614.452,691.283c-1.933,0-3.5,1.567-3.5,3.5s1.567,3.5,3.5,3.5
			s3.5-1.567,3.5-3.5S616.385,691.283,614.452,691.283z"/>
		<path fill="#FFFFFF" d="M614.452,552.203L614.452,552.203c2.203,0,3.988,1.785,3.988,3.988v31.869
			c0,2.203-1.785,3.988-3.988,3.988h0c-2.203,0-3.988-1.785-3.988-3.988v-31.869C610.464,553.988,612.249,552.203,614.452,552.203z"/>
		<path fill="#43293A" d="M614.452,594.049c-3.304-0.007-5.981-2.684-5.988-5.988v-31.87c0-3.307,2.681-5.988,5.988-5.988
			c3.307,0,5.988,2.681,5.988,5.988v31.87C620.433,591.365,617.756,594.042,614.452,594.049z M614.452,554.203
			c-1.097,0.001-1.987,0.891-1.988,1.988v31.87c0,1.098,0.89,1.988,1.988,1.988c1.098,0,1.988-0.89,1.988-1.988v-31.87
			c0.001-1.099-0.889-1.99-1.988-1.991V554.203z"/>
		<rect x="596.452" y="494.293" fill="#43293A" width="36" height="12.97"/>
		<circle opacity="0.84" fill="#EDAB7A" enable-background="new    " cx="502.5" cy="616.757" r="5.728"/>
		<path fill="#43293A" d="M502.5,624.484c-4.268-0.001-7.728-3.461-7.727-7.729s3.461-7.728,7.729-7.727
			c4.268,0.001,7.728,3.461,7.727,7.729l0,0C510.224,621.023,506.766,624.48,502.5,624.484z M502.5,613.028
			c-2.059,0.001-3.728,1.67-3.727,3.729s1.67,3.728,3.729,3.727c2.058-0.001,3.726-1.669,3.727-3.727
			C506.227,614.698,504.559,613.03,502.5,613.028z"/>
		<path fill="#F7CFB5" d="M526.982,511.216c0.19-2.621-1.271-5.084-3.662-6.175c-13.222-6.05-28.422-6.048-41.641,0.007
			c-2.391,1.091-3.851,3.554-3.661,6.175c1.131,14.755,8.757,28.246,20.816,36.824c2.193,1.564,5.138,1.564,7.331,0
			C518.226,539.468,525.853,525.974,526.982,511.216z"/>
		<path opacity="0.75" fill="#F7CFB5" enable-background="new    " d="M506.165,537.03c-2.193,1.565-5.138,1.565-7.331,0
			c-10.026-7.147-17.059-17.746-19.748-29.761c-0.792,1.16-1.169,2.553-1.068,3.954c1.131,14.755,8.757,28.246,20.816,36.824
			c2.193,1.564,5.138,1.564,7.331,0c12.061-8.579,19.688-22.073,20.817-36.831c0.101-1.4-0.276-2.794-1.068-3.953
			C523.226,519.281,516.193,529.882,506.165,537.03z"/>
		<path fill="#43293A" d="M502.5,551.72c-1.835,0.001-3.624-0.572-5.117-1.638c-12.673-8.999-20.684-23.171-21.858-38.67
			c-0.259-3.661,1.776-7.101,5.11-8.636c13.882-6.359,29.844-6.362,43.728-0.006c3.335,1.534,5.371,4.973,5.113,8.634l0,0
			c-1.173,15.501-9.184,29.676-21.859,38.677C506.124,551.147,504.335,551.72,502.5,551.72z M502.507,503.005
			c-6.829-0.016-13.58,1.456-19.783,4.314c-1.439,0.657-2.32,2.136-2.213,3.714c1.063,14.02,8.311,26.839,19.775,34.979
			c1.325,0.943,3.102,0.943,4.427,0c11.467-8.141,18.715-20.963,19.776-34.986l0,0c0.107-1.578-0.774-3.057-2.213-3.714
			C516.077,504.458,509.331,502.988,502.507,503.005L502.507,503.005z M526.982,511.216L526.982,511.216z"/>
		<path fill="#43293A" d="M513.357,530.132c-0.828,0-1.5-0.672-1.499-1.501c0-0.267,0.072-0.53,0.207-0.76
			c1.964-3.333,3.435-6.933,4.368-10.688c0.625-2.534-0.88-5.104-3.395-5.8c-6.906-1.838-14.172-1.838-21.078,0
			c-0.801,0.216-1.625-0.258-1.841-1.059s0.258-1.625,1.059-1.841l0,0c7.418-1.973,15.223-1.973,22.641,0
			c4.085,1.129,6.532,5.3,5.526,9.417c-1.003,4.035-2.584,7.904-4.694,11.486C514.383,529.847,513.89,530.131,513.357,530.132z"/>
	</g>
</g>
</svg>