<?xml version="1.0" encoding="UTF-8"?><svg version="1.1" id="Layer_1" xmlns="http://www.w3.org/2000/svg" xmlns:xlink="http://www.w3.org/1999/xlink" x="0px" y="0px" viewBox="0 0 1000 1000" enable-background="new 0 0 1000 1000" xml:space="preserve" width="1000px" height="1000px">
<g>
	<g id="Layer_1_1_">
		<g opacity="0.17">
			<polyline fill="none" stroke="#1B3242" stroke-width="8" stroke-linecap="round" stroke-linejoin="round" points="
				275.509,386.297 275.509,427.216 193.672,427.216 			"/>
			<polyline fill="none" stroke="#1B3242" stroke-width="8" stroke-linecap="round" stroke-linejoin="round" points="
				357.347,427.216 275.509,427.216 275.509,386.297 			"/>
			
				<rect x="234.591" y="427.216" fill="none" stroke="#1B3242" stroke-width="8" stroke-linecap="round" stroke-linejoin="round" width="81.838" height="40.919"/>
			<polyline fill="none" stroke="#1B3242" stroke-width="8" stroke-linecap="round" stroke-linejoin="round" points="
				298.762,509.054 275.509,509.054 275.509,468.135 357.347,468.135 			"/>
			<polyline fill="none" stroke="#1B3242" stroke-width="8" stroke-linecap="round" stroke-linejoin="round" points="
				193.672,468.135 275.509,468.135 275.509,509.054 209.149,509.054 			"/>
			<polyline fill="none" stroke="#1B3242" stroke-width="8" stroke-linecap="round" stroke-linejoin="round" points="
				165.775,427.216 234.591,427.216 234.591,468.135 193.672,468.135 			"/>
			<polyline fill="none" stroke="#1B3242" stroke-width="8" stroke-linecap="round" stroke-linejoin="round" points="
				375.485,468.135 316.428,468.135 316.428,427.216 344.796,427.216 			"/>
		</g>
		<g opacity="0.17">
			
				<rect x="650.084" y="725" fill="none" stroke="#1B3242" stroke-width="10" stroke-linecap="round" stroke-linejoin="round" width="30" height="23"/>
			
				<rect x="763.417" y="725" fill="none" stroke="#1B3242" stroke-width="10" stroke-linecap="round" stroke-linejoin="round" width="30" height="23"/>
			
				<rect x="624.75" y="204" fill="none" stroke="#1B3242" stroke-width="10" stroke-linecap="round" stroke-linejoin="round" width="194" height="521"/>
			
				<rect x="642.75" y="222" fill="none" stroke="#1B3242" stroke-width="10" stroke-linecap="round" stroke-linejoin="round" width="158" height="474"/>
			
				<rect x="772.75" y="263.347" fill="none" stroke="#1B3242" stroke-width="10" stroke-linecap="round" stroke-linejoin="round" width="28" height="111.5"/>
			
				<rect x="660.562" y="510.458" fill="none" stroke="#1B3242" stroke-width="10" stroke-linecap="round" stroke-linejoin="round" width="111.5" height="26.542"/>
			
				<rect x="675.251" y="483.917" fill="none" stroke="#1B3242" stroke-width="10" stroke-linecap="round" stroke-linejoin="round" width="111.5" height="26.542"/>
			
				<rect x="661.25" y="462" fill="none" stroke="#1B3242" stroke-width="10" stroke-linecap="round" stroke-linejoin="round" width="111.5" height="22.125"/>
			
				<line fill="none" stroke="#1B3242" stroke-width="10" stroke-linecap="round" stroke-linejoin="round" x1="772.75" y1="291" x2="800.75" y2="291"/>
			
				<rect x="748.95" y="271.5" fill="none" stroke="#1B3242" stroke-width="10" stroke-linecap="round" stroke-linejoin="round" width="23.8" height="103.347"/>
			
				<line fill="none" stroke="#1B3242" stroke-width="10" stroke-linecap="round" stroke-linejoin="round" x1="748.95" y1="297.131" x2="772.75" y2="297.131"/>
			
				<rect x="665.123" y="314.611" transform="matrix(0.5 -0.866 0.866 0.5 74.7325 781.0567)" fill="none" stroke="#1B3242" stroke-width="10" stroke-linecap="round" stroke-linejoin="round" width="97.262" height="22.399"/>
			
				<line fill="none" stroke="#1B3242" stroke-width="10" stroke-linecap="round" stroke-linejoin="round" x1="716.312" y1="298.983" x2="735.71" y2="310.182"/>
			
				<line fill="none" stroke="#1B3242" stroke-width="10" stroke-linecap="round" stroke-linejoin="round" x1="704.7" y1="484.125" x2="704.7" y2="510.458"/>
			
				<line fill="none" stroke="#1B3242" stroke-width="10" stroke-linecap="round" stroke-linejoin="round" x1="686.284" y1="462" x2="686.284" y2="483.917"/>
			
				<line fill="none" stroke="#1B3242" stroke-width="10" stroke-linecap="round" stroke-linejoin="round" x1="689.2" y1="510.458" x2="689.2" y2="537"/>
			
				<rect x="642.75" y="379.667" fill="none" stroke="#1B3242" stroke-width="10" stroke-linecap="round" stroke-linejoin="round" width="158" height="14.833"/>
			
				<rect x="642.75" y="537" fill="none" stroke="#1B3242" stroke-width="10" stroke-linecap="round" stroke-linejoin="round" width="158" height="15"/>
			
				<rect x="642.75" y="544.5" fill="none" stroke="#1B3242" stroke-width="10" stroke-linecap="round" stroke-linejoin="round" width="158" height="151.5"/>
			
				<line fill="none" stroke="#1B3242" stroke-width="11" stroke-linecap="round" stroke-linejoin="round" x1="765.132" y1="587.23" x2="765.132" y2="653.27"/>
		</g>
		
			<line fill="none" stroke="#013711" stroke-width="10" stroke-linecap="round" stroke-linejoin="round" x1="822.417" y1="748" x2="829.75" y2="748"/>
		
			<line fill="none" stroke="#013711" stroke-width="10" stroke-linecap="round" stroke-linejoin="round" x1="741.75" y1="748" x2="786.75" y2="748"/>
		
			<line fill="none" stroke="#013711" stroke-width="10" stroke-linecap="round" stroke-linejoin="round" x1="298.547" y1="748" x2="722" y2="748"/>
		
			<line fill="none" stroke="#013711" stroke-width="10" stroke-linecap="round" stroke-linejoin="round" x1="218.572" y1="748" x2="275.509" y2="748"/>
		<path fill="#0B7C3E" d="M551,261h-91.487c-24.301,0-44,19.699-44,44v37.918h26V305c0-9.941,8.059-18,18-18H551
			c9.941,0,18,8.059,18,18v37.918h26V305C595,280.699,575.301,261,551,261z"/>
		<rect x="415.667" y="308.667" opacity="0.5" fill="#049448" enable-background="new    " width="26.667" height="13"/>
		<rect x="568.333" y="308.667" opacity="0.5" fill="#049448" enable-background="new    " width="26.667" height="13"/>
		<path opacity="0.46" fill="#70BF43" enable-background="new    " d="M551,261h-91.487c-24.301,0-44,19.699-44,44v9.333
			c0-24.301,19.699-44,44-44H551c24.301,0,44,19.699,44,44V305C595,280.699,575.301,261,551,261z"/>
		<path fill="#013711" d="M595,347.918h-26c-2.761,0-5-2.239-5-5V305c-0.008-7.176-5.824-12.992-13-13h-91.487
			c-7.176,0.008-12.992,5.824-13,13v37.918c0,2.761-2.239,5-5,5h-26c-2.761,0-5-2.239-5-5V305c0.03-27.049,21.951-48.97,49-49H551
			c27.049,0.03,48.97,21.951,49,49v37.918C600,345.679,597.761,347.918,595,347.918z M574,337.918h16V305
			c-0.024-21.529-17.471-38.976-39-39h-91.487c-21.529,0.024-38.976,17.471-39,39v32.918h16V305c0.014-12.697,10.303-22.986,23-23
			H551c12.697,0.014,22.986,10.303,23,23V337.918z"/>
		<path fill="#0B7C3E" d="M369.747,700.937h-25.425c-20.006,0.032-36.611-15.453-37.973-35.413
			c-3.579-54.82,2.172-97.605,14.162-130.744c6.485-17.925,32.014-17.925,38.5,0C373.468,574.742,378.855,628.731,369.747,700.937z"/>
		<path opacity="0.2" fill="#0B7C3E" enable-background="new    " d="M361.01,534.78c-5.141-14.21-22.242-17.143-32.344-8.823
			l2.859,115.977c0.391,15.377-6.379,30.064-18.325,39.755c6.78,11.903,19.427,19.252,33.126,19.248h25.425
			C380.855,628.731,375.468,574.742,361.01,534.78z"/>
		<path fill="#013711" d="M369.747,705.937h-25.425c-22.627-0.003-41.394-17.514-42.963-40.087
			c-3.407-52.182,1.455-96.852,14.45-132.771c4.835-13.227,19.478-20.03,32.705-15.195c7.056,2.579,12.616,8.139,15.195,15.195
			c15.866,43.855,19.565,100.541,11,168.483C374.394,704.062,372.267,705.938,369.747,705.937z M339.76,526.337
			c-6.53-0.112-12.395,3.979-14.547,10.145C312.689,571.1,308.021,614.4,311.338,665.2c1.214,17.32,15.622,30.747,32.984,30.74h21
			c7.673-64.411,3.97-118.037-11.015-159.456c-2.151-6.168-8.016-10.259-14.547-10.148V526.337z"/>
		<path fill="#0B7C3E" d="M640.766,693.989h25.425c20.006,0.032,36.611-15.453,37.973-35.413c3.579-54.82-2.172-97.6-14.162-130.743
			c-6.485-17.926-32.014-17.926-38.5,0C637.045,567.795,631.658,621.784,640.766,693.989z"/>
		<path opacity="0.2" fill="#0B7C3E" enable-background="new    " d="M678.987,633.912l2.833-114.925
			c-10.105-8.293-27.181-5.352-32.317,8.846c-14.458,39.962-19.845,93.951-10.737,166.156h25.425
			c14.001,0.006,26.878-7.665,33.54-19.979C685.533,664.329,678.592,649.48,678.987,633.912z"/>
		<path fill="#013711" d="M666.19,698.989h-25.424c-2.52,0-4.646-1.874-4.961-4.374c-8.57-67.942-4.87-124.629,11-168.483
			c4.835-13.227,19.478-20.03,32.705-15.195c7.056,2.579,12.616,8.139,15.195,15.195c12.994,35.919,17.857,80.589,14.449,132.77
			C707.586,681.475,688.818,698.987,666.19,698.989z M645.19,688.989h21c17.362,0.008,31.77-13.419,32.985-30.739
			c3.316-50.8-1.352-94.1-13.875-128.716c-2.955-8.034-11.863-12.152-19.897-9.198c-4.266,1.569-7.629,4.931-9.198,9.198
			C641.22,570.953,637.517,624.579,645.19,688.989L645.19,688.989z"/>
		<path fill="#049448" d="M614.454,748H396.059c-23.993-0.022-44.02-18.316-46.209-42.209c-7.447-79.937-7.447-160.393,0-240.33
			c2.189-23.893,22.216-42.187,46.209-42.209h218.395c23.993,0.022,44.02,18.316,46.209,42.209c7.446,79.937,7.446,160.393,0,240.33
			C658.474,729.684,638.447,747.978,614.454,748z"/>
		<path opacity="0.29" fill="#0B7C3E" enable-background="new    " d="M660.663,691.873c-2.189,23.893-22.216,42.187-46.209,42.209
			H396.059c-23.993-0.022-44.02-18.316-46.209-42.209c-3.508-37.656-5.356-75.391-5.545-113.206
			c-0.227,42.418,1.621,84.793,5.545,127.124c2.189,23.893,22.216,42.187,46.209,42.209h218.395
			c23.993-0.022,44.02-18.316,46.209-42.209c3.939-42.28,5.787-84.655,5.544-127.124
			C666.002,616.445,664.154,654.18,660.663,691.873z"/>
		<g opacity="0.5">
			<path fill="#049448" d="M505.257,675.333c-20.605,0-36.744-10.595-36.744-24.12s16.139-24.12,36.744-24.12
				c20.605,0,36.743,10.595,36.743,24.12S525.86,675.333,505.257,675.333z M505.257,635.093c-17.195,0-28.744,8.335-28.744,16.12
				s11.549,16.12,28.744,16.12S534,659,534,651.213S522.45,635.093,505.257,635.093z"/>
		</g>
		<path opacity="0.5" fill="#049448" enable-background="new    " d="M378.7,589.564c41.95,2.165,84.531,3.263,126.559,3.263
			s84.609-1.1,126.559-3.263c12.622-0.7,24.677-5.472,34.359-13.6c-0.35-35.877-2.187-71.71-5.511-107.5
			c-2.189-23.893-22.216-42.187-46.209-42.209H396.059c-23.993,0.022-44.02,18.316-46.209,42.209
			c-3.333,35.762-5.17,71.597-5.511,107.505C354.022,584.096,366.078,588.866,378.7,589.564z"/>
		<path fill="#013711" d="M612.463,736.082h-4.006c-1.105,0-2-0.895-2-2s0.895-2,2-2h4.006c1.105,0,2,0.895,2,2
			S613.568,736.082,612.463,736.082z M600.446,736.082h-4c-1.105,0-2-0.895-2-2s0.895-2,2-2h4c1.105,0,2,0.895,2,2
			S601.551,736.082,600.446,736.082z M588.431,736.082h-4c-1.105,0-2-0.895-2-2s0.895-2,2-2h4c1.105,0,2,0.895,2,2
			S589.536,736.082,588.431,736.082z M576.415,736.082h-4c-1.105,0-2-0.895-2-2s0.895-2,2-2h4c1.105,0,2,0.895,2,2
			S577.52,736.082,576.415,736.082z M564.399,736.082h-4c-1.105,0-2-0.895-2-2s0.895-2,2-2h4c1.105,0,2,0.895,2,2
			S565.504,736.082,564.399,736.082z M552.384,736.082h-4.006c-1.105,0-2-0.895-2-2s0.895-2,2-2h4.006c1.105,0,2,0.895,2,2
			S553.489,736.082,552.384,736.082z M540.368,736.082h-4.006c-1.105,0-2-0.895-2-2s0.895-2,2-2h4.006c1.105,0,2,0.895,2,2
			S541.473,736.082,540.368,736.082z M528.352,736.082h-4c-1.105,0-2-0.895-2-2s0.895-2,2-2h4c1.105,0,2,0.895,2,2
			S529.457,736.082,528.352,736.082z M516.336,736.082h-4c-1.105,0-2-0.895-2-2s0.895-2,2-2h4c1.105,0,2,0.895,2,2
			S517.441,736.082,516.336,736.082z M504.32,736.082h-4c-1.105,0-2-0.895-2-2s0.895-2,2-2h4c1.105,0,2,0.895,2,2
			S505.425,736.082,504.32,736.082z M492.305,736.082h-4c-1.105,0-2-0.895-2-2s0.895-2,2-2h4c1.105,0,2,0.895,2,2
			S493.41,736.082,492.305,736.082z M480.289,736.082h-4.006c-1.105,0-2-0.895-2-2s0.895-2,2-2h4.006c1.105,0,2,0.895,2,2
			S481.394,736.082,480.289,736.082z M468.273,736.082h-4.005c-1.105,0-2-0.895-2-2s0.895-2,2-2h4.005c1.105,0,2,0.895,2,2
			S469.378,736.082,468.273,736.082z M456.258,736.082h-4.006c-1.105,0-2-0.895-2-2s0.895-2,2-2h4.006c1.105,0,2,0.895,2,2
			S457.363,736.082,456.258,736.082z M444.241,736.082h-4c-1.105,0-2-0.895-2-2s0.895-2,2-2h4c1.105,0,2,0.895,2,2
			S445.346,736.082,444.241,736.082z M432.226,736.082h-4c-1.105,0-2-0.895-2-2s0.895-2,2-2h4c1.105,0,2,0.895,2,2
			S433.331,736.082,432.226,736.082z M420.21,736.082h-4c-1.105,0-2-0.895-2-2s0.895-2,2-2h4c1.105,0,2,0.895,2,2
			S421.315,736.082,420.21,736.082z M408.194,736.082h-4c-1.105,0-2-0.895-2-2s0.895-2,2-2h4c1.105,0,2,0.895,2,2
			S409.299,736.082,408.194,736.082z M396.179,736.082h-0.12c-1.416,0-2.83-0.086-4.236-0.255c-1.097-0.133-1.878-1.129-1.745-2.226
			c0.133-1.097,1.129-1.878,2.226-1.745c1.246,0.15,2.5,0.226,3.755,0.226h0.12c1.105,0,2,0.895,2,2
			S397.284,736.082,396.179,736.082z M620.437,735.537c-1.105,0-2-0.896-1.999-2.001c0-0.965,0.689-1.792,1.638-1.966
			c1.232-0.227,2.448-0.53,3.642-0.908c1.053-0.333,2.178,0.251,2.511,1.304s-0.251,2.178-1.304,2.511
			c-1.353,0.424-2.73,0.766-4.125,1.023C620.68,735.523,620.559,735.535,620.437,735.537z M384.31,733.912
			c-0.246,0-0.49-0.046-0.719-0.135c-1.324-0.511-2.615-1.105-3.865-1.777c-0.979-0.511-1.359-1.719-0.848-2.698
			c0.511-0.979,1.719-1.359,2.698-0.848c0.013,0.007,0.027,0.014,0.04,0.021c1.104,0.592,2.243,1.115,3.412,1.566
			c1.031,0.396,1.546,1.553,1.15,2.584c-0.297,0.773-1.04,1.283-1.868,1.283L384.31,733.912z M631.58,731.24
			c-1.105,0.002-2.002-0.892-2.003-1.997c-0.001-0.694,0.357-1.338,0.946-1.703c1.065-0.66,2.088-1.386,3.063-2.172
			c0.86-0.694,2.119-0.559,2.812,0.3s0.559,2.119-0.3,2.812c-1.103,0.89-2.261,1.71-3.465,2.457
			C632.317,731.135,631.952,731.24,631.58,731.24z M374.151,727.622c-0.499,0-0.979-0.186-1.347-0.523
			c-1.046-0.957-2.032-1.977-2.953-3.055c-0.718-0.84-0.619-2.103,0.221-2.82c0.84-0.718,2.103-0.619,2.82,0.221
			c0.813,0.953,1.685,1.854,2.609,2.7c0.815,0.745,0.872,2.01,0.126,2.826c-0.379,0.414-0.915,0.651-1.476,0.65V727.622z
			 M640.394,723.184c-1.105,0-2-0.895-2-2c0-0.433,0.14-0.854,0.4-1.2c0.753-1.003,1.443-2.05,2.068-3.137
			c0.55-0.958,1.773-1.289,2.731-0.739c0.958,0.55,1.289,1.773,0.738,2.731c-0.704,1.228-1.483,2.413-2.331,3.546
			C641.621,722.89,641.025,723.186,640.394,723.184L640.394,723.184z M366.977,718.084c-0.761,0.001-1.457-0.431-1.795-1.113
			c-0.628-1.27-1.177-2.578-1.646-3.915c-0.365-1.043,0.184-2.184,1.227-2.549s2.184,0.184,2.549,1.227
			c0.414,1.183,0.9,2.34,1.456,3.464c0.49,0.99,0.084,2.19-0.906,2.68C367.587,718.013,367.284,718.084,366.977,718.084
			L366.977,718.084z M645.697,712.478c-1.107-0.003-2.003-0.903-2-2.01c0-0.181,0.025-0.361,0.074-0.535
			c0.341-1.207,0.608-2.434,0.8-3.674c0.17-1.092,1.193-1.838,2.285-1.668c1.092,0.17,1.838,1.193,1.668,2.285l0,0
			c-0.217,1.398-0.517,2.783-0.9,4.145c-0.245,0.86-1.03,1.453-1.924,1.453L645.697,712.478z M363.697,706.548
			c-1.014,0.015-1.872-0.749-1.974-1.758c0-0.02-0.012-0.128-0.013-0.148c-0.117-1.254-0.237-2.557-0.355-3.86
			c-0.099-1.1,0.713-2.073,1.813-2.172s2.073,0.713,2.172,1.813l0,0c0.117,1.299,0.235,2.597,0.356,3.895
			c0.107,1.108-0.694,2.096-1.8,2.22c-0.065,0.005-0.131,0.007-0.196,0.006L363.697,706.548z M647.344,700.6
			c-0.059,0-0.119,0-0.179-0.008c-1.1-0.098-1.913-1.069-1.815-2.169c0.118-1.328,0.233-2.656,0.345-3.983
			c0.094-1.101,1.062-1.918,2.163-1.824c1.101,0.094,1.918,1.062,1.824,2.163c-0.115,1.333-0.231,2.667-0.348,4
			C649.241,699.809,648.378,700.599,647.344,700.6z M362.655,694.623c-1.039-0.001-1.904-0.798-1.991-1.833
			c-0.111-1.333-0.22-2.667-0.328-4c-0.064-1.103,0.778-2.049,1.881-2.113c1.068-0.062,1.995,0.727,2.105,1.791
			c0.108,1.329,0.217,2.657,0.328,3.985c0.092,1.101-0.725,2.068-1.826,2.16c-0.056,0.003-0.113,0.005-0.169,0.005V694.623z
			 M648.347,688.623c-0.053,0-0.107,0-0.16-0.006c-1.101-0.087-1.923-1.05-1.836-2.151c0,0,0,0,0,0
			c0.105-1.328,0.208-2.656,0.308-3.985c0.061-1.103,1.005-1.947,2.108-1.886c1.103,0.061,1.947,1.005,1.886,2.108
			c-0.001,0.026-0.003,0.052-0.006,0.078c-0.1,1.333-0.203,2.667-0.308,4c-0.083,1.039-0.95,1.839-1.992,1.84V688.623z
			 M361.71,682.64c-1.047-0.001-1.915-0.809-1.992-1.853c-0.1-1.333-0.197-2.667-0.291-4c-0.078-1.102,0.752-2.058,1.853-2.136
			c1.102-0.078,2.058,0.752,2.137,1.853l0,0c0.095,1.333,0.192,2.663,0.289,3.989c0.081,1.102-0.745,2.061-1.847,2.142
			C361.81,682.638,361.76,682.64,361.71,682.64z M649.235,676.64c-0.046,0-0.092,0-0.139,0c-1.102-0.076-1.934-1.031-1.858-2.133
			c0,0,0,0,0,0c0.092-1.333,0.182-2.663,0.27-3.99c0.073-1.102,1.025-1.937,2.128-1.865s1.937,1.025,1.865,2.128
			c-0.089,1.333-0.18,2.667-0.271,4c-0.075,1.046-0.945,1.858-1.994,1.858V676.64z M360.877,670.656
			c-1.054-0.001-1.926-0.819-1.994-1.871l-0.253-4c-0.055-1.103,0.795-2.042,1.898-2.097c1.084-0.054,2.013,0.767,2.094,1.849
			l0.253,3.992c0.071,1.102-0.764,2.054-1.867,2.125c0,0,0,0,0,0c-0.044-0.001-0.088,0-0.131,0L360.877,670.656z M650.012,664.648
			c-0.04,0-0.08,0-0.12,0c-1.103-0.065-1.943-1.012-1.878-2.115l0,0l0.232-3.994c0.063-1.103,1.009-1.946,2.112-1.883
			s1.946,1.009,1.883,2.112l-0.234,4c-0.064,1.054-0.938,1.877-1.994,1.878L650.012,664.648z M360.157,658.66
			c-1.063,0.002-1.941-0.828-2-1.889c-0.074-1.333-0.146-2.667-0.216-4c-0.075-1.102,0.758-2.056,1.86-2.131
			c1.102-0.075,2.056,0.758,2.131,1.86c0.001,0.02,0.002,0.04,0.003,0.059c0.071,1.333,0.143,2.665,0.216,3.994
			c0.061,1.103-0.782,2.046-1.885,2.108L360.157,658.66z M650.675,652.649c-0.034,0-0.069,0-0.1,0
			c-1.103-0.054-1.954-0.992-1.9-2.095c0-0.002,0-0.003,0-0.005c0.067-1.333,0.132-2.667,0.195-4c0.066-1.097,0.995-1.94,2.093-1.9
			c1.102,0.054,1.953,0.991,1.9,2.093c-0.063,1.333-0.129,2.669-0.2,4.007C652.61,651.81,651.737,652.644,650.675,652.649
			L650.675,652.649z M359.549,646.659c-1.07,0.001-1.951-0.84-2-1.908c-0.062-1.333-0.121-2.669-0.178-4.008
			c-0.047-1.105,0.81-2.038,1.915-2.085c1.105-0.047,2.038,0.81,2.085,1.915c0.057,1.333,0.117,2.665,0.178,3.994
			c0.051,1.103-0.802,2.039-1.906,2.09c0,0,0,0,0,0L359.549,646.659z M651.226,640.646h-0.083c-1.104-0.045-1.961-0.977-1.916-2.081
			c0,0,0,0,0,0c0.054-1.333,0.106-2.667,0.157-4c0.042-1.105,0.972-1.966,2.076-1.923c1.105,0.042,1.966,0.972,1.924,2.076
			c-0.052,1.333-0.105,2.67-0.159,4.009C653.182,639.799,652.299,640.646,651.226,640.646L651.226,640.646z M359.055,634.654
			c-1.076,0.001-1.96-0.85-2-1.926c-0.049-1.333-0.096-2.669-0.141-4.008c-0.037-1.105,0.828-2.03,1.932-2.068
			s2.03,0.828,2.068,1.932c0.045,1.333,0.092,2.667,0.141,4c0.04,1.104-0.821,2.031-1.925,2.072c0,0,0,0-0.001,0L359.055,634.654z
			 M651.664,628.638H651.6c-1.104-0.035-1.97-0.959-1.935-2.063c0,0,0-0.001,0-0.001c0.043-1.333,0.083-2.667,0.121-4
			c0.031-1.105,0.952-1.975,2.056-1.943c1.105,0.031,1.975,0.952,1.944,2.056c-0.038,1.338-0.078,2.675-0.121,4.012
			C653.632,627.78,652.746,628.639,651.664,628.638L651.664,628.638z M358.672,622.645c-1.084,0-1.971-0.863-2-1.947l-0.1-4.008
			c-0.027-1.104,0.846-2.021,1.95-2.048c1.091-0.039,2.008,0.813,2.047,1.905c0.001,0.015,0.001,0.03,0.001,0.044l0.1,4
			c0.03,1.104-0.841,2.023-1.945,2.053L358.672,622.645z M651.991,616.627h-0.045c-1.104-0.024-1.98-0.939-1.956-2.043
			c0,0,0-0.001,0-0.001l0.084-4c0.021-1.089,0.91-1.961,2-1.961h0.04c1.104,0.021,1.982,0.934,1.961,2.038c0,0,0,0,0,0.001
			l-0.084,4.01C653.967,615.758,653.079,616.627,651.991,616.627L651.991,616.627z M358.401,610.627c-1.091,0-1.981-0.874-2-1.965
			l-0.065-4.01c-0.017-1.104,0.865-2.013,1.97-2.03c0,0,0,0,0,0h0.031c1.093,0,1.984,0.877,2,1.97l0.065,4
			c0.02,1.104-0.86,2.015-1.964,2.035L358.401,610.627z M652.206,604.608h-0.025c-1.104-0.013-1.989-0.919-1.976-2.024c0,0,0,0,0,0
			l0.046-4c0.011-1.097,0.903-1.98,2-1.98h0.02c1.104,0.011,1.991,0.915,1.98,2.02c0,0,0,0.001,0,0.001l-0.046,4.009
			c-0.012,1.096-0.903,1.978-1.999,1.979L652.206,604.608z M358.244,598.608c-1.098,0-1.99-0.884-2-1.982
			c-0.012-1.338-0.021-2.676-0.028-4.013c-0.006-1.105,0.885-2.004,1.99-2.01c0,0,0,0,0,0h0.01c1.101,0,1.995,0.89,2,1.991
			c0.007,1.333,0.016,2.667,0.028,4c0.009,1.104-0.878,2.007-1.982,2.017L358.244,598.608z M652.308,592.588H652.3
			c-1.105-0.004-1.997-0.902-1.993-2.007l0,0c0.004-1.333,0.007-2.667,0.008-4c0-1.105,0.895-2,2-2l0,0c1.105,0,2,0.895,2,2
			c0,1.337-0.003,2.674-0.008,4.011c0.004,1.105-0.887,2.004-1.992,2.008c-0.002,0-0.005,0-0.007,0L652.308,592.588z
			 M358.197,586.588L358.197,586.588c-1.105,0-2-0.895-2-2c0-1.337,0.003-2.673,0.009-4.01c0.004-1.102,0.898-1.993,2-1.993h0.007
			c1.105,0.004,1.997,0.902,1.993,2.007v0c-0.005,1.333-0.008,2.667-0.009,4c0.004,1.105-0.887,2.004-1.992,2.008
			c-0.002,0-0.003,0-0.005,0L358.197,586.588z M652.297,580.567c-1.101,0-1.995-0.889-2-1.99c-0.007-1.333-0.017-2.667-0.028-4
			c-0.01-1.105,0.877-2.008,1.982-2.018c0,0,0,0,0,0h0.018c1.098,0,1.991,0.885,2,1.983c0.011,1.337,0.02,2.674,0.028,4.012
			c0.006,1.105-0.885,2.004-1.99,2.01h0L652.297,580.567z M358.264,574.567h-0.021c-1.105-0.012-1.991-0.916-1.979-2.021
			c0,0,0,0,0,0c0.013-1.333,0.028-2.67,0.047-4.01c0.014-1.094,0.906-1.974,2-1.974h0.027c1.104,0.014,1.988,0.921,1.974,2.026
			c0,0,0,0,0,0c-0.018,1.333-0.034,2.667-0.047,4c-0.001,1.104-0.897,1.999-2.001,1.998L358.264,574.567z M652.174,568.547
			c-1.093,0-1.983-0.877-2-1.969l-0.066-4c-0.02-1.105,0.86-2.016,1.964-2.036c1.105-0.02,2.016,0.86,2.036,1.965l0.066,4.01
			c0.017,1.104-0.865,2.013-1.97,2.03c0,0,0,0,0,0L652.174,568.547z M358.442,562.553h-0.04c-1.104-0.021-1.982-0.934-1.961-2.038
			c0,0,0,0,0-0.001l0.084-4.01c0.024-1.105,0.939-1.98,2.044-1.956s1.98,0.939,1.956,2.044l-0.084,4
			c-0.011,1.096-0.903,1.98-1.999,1.98L358.442,562.553z M651.942,556.534c-1.085,0-1.973-0.865-2-1.95l-0.1-4
			c-0.03-1.105,0.841-2.024,1.946-2.054c1.105-0.03,2.024,0.841,2.054,1.946l0.1,4.008c0.027,1.104-0.845,2.021-1.949,2.049
			L651.942,556.534z M358.732,550.54h-0.057c-1.104-0.031-1.974-0.951-1.943-2.055c0,0,0,0,0-0.001
			c0.039-1.338,0.079-2.675,0.122-4.012c0.024-1.093,0.929-1.959,2.022-1.935c0.014,0,0.028,0.001,0.041,0.001
			c1.104,0.035,1.97,0.959,1.935,2.063c0,0,0,0,0,0c-0.043,1.333-0.084,2.667-0.122,4c-0.023,1.088-0.911,1.958-1.999,1.958
			L358.732,550.54z M651.6,544.541c-1.079,0.001-1.964-0.855-2-1.933c-0.045-1.333-0.092-2.667-0.141-4
			c-0.041-1.104,0.821-2.031,1.925-2.072c0,0,0,0,0.001,0c1.088-0.055,2.015,0.783,2.07,1.871c0.001,0.018,0.002,0.037,0.002,0.055
			c0.049,1.333,0.096,2.669,0.141,4.008c0.037,1.104-0.828,2.029-1.932,2.066c0,0,0,0,0,0L651.6,544.541z M359.139,538.551h-0.077
			c-1.104-0.042-1.965-0.97-1.923-2.074c0,0,0-0.001,0-0.001c0.052-1.333,0.105-2.67,0.159-4.009
			c0.045-1.105,0.977-1.963,2.082-1.918c1.105,0.045,1.963,0.977,1.918,2.082c-0.055,1.333-0.107,2.667-0.157,4
			c-0.043,1.076-0.93,1.925-2.007,1.92H359.139z M651.139,532.534c-1.072,0.001-1.954-0.844-2-1.915
			c-0.057-1.333-0.117-2.665-0.178-3.994c-0.051-1.105,0.803-2.041,1.908-2.092c1.105-0.051,2.041,0.803,2.092,1.908
			c0.062,1.333,0.121,2.669,0.178,4.008c0.047,1.103-0.81,2.036-1.913,2.083L651.139,532.534z M359.652,526.545h-0.1
			c-1.102-0.054-1.953-0.991-1.9-2.093c0.067-1.333,0.133-2.669,0.2-4.007c0.08-1.102,1.038-1.93,2.14-1.85
			c1.067,0.077,1.884,0.981,1.854,2.05c-0.067,1.333-0.132,2.667-0.195,4c-0.053,1.066-0.935,1.902-2.002,1.9H359.652z
			 M650.568,520.534c-1.064,0.002-1.944-0.831-2-1.894c-0.07-1.333-0.142-2.665-0.216-3.994c-0.062-1.105,0.784-2.05,1.888-2.112
			s2.05,0.784,2.112,1.888c0.074,1.333,0.146,2.669,0.215,4.006c0.057,1.102-0.789,2.041-1.891,2.1
			c-0.039,0.004-0.076,0.005-0.111,0.005H650.568z M360.279,514.546c-0.039,0-0.077,0-0.116,0c-1.103-0.063-1.946-1.008-1.883-2.11
			c0,0,0,0,0-0.001l0.235-4c0.04-1.104,0.968-1.966,2.071-1.926c1.104,0.04,1.966,0.968,1.926,2.071
			c-0.001,0.03-0.003,0.06-0.005,0.09l-0.233,3.994c-0.063,1.057-0.939,1.882-1.998,1.881H360.279z M649.885,508.537
			c-1.056-0.001-1.929-0.822-1.994-1.876l-0.253-3.992c-0.071-1.102,0.765-2.054,1.867-2.125s2.054,0.765,2.125,1.867l0.253,4
			c0.068,1.102-0.77,2.051-1.872,2.12c-0.045,0.005-0.087,0.006-0.129,0.006L649.885,508.537z M361.019,502.553
			c-0.045,0-0.09,0-0.135,0c-1.102-0.074-1.936-1.027-1.862-2.129l0.271-4c0.094-1.101,1.063-1.916,2.163-1.822
			c1.075,0.092,1.883,1.02,1.827,2.097l-0.271,3.993c-0.073,1.048-0.945,1.861-1.996,1.861H361.019z M649.089,496.553
			c-1.048-0.001-1.918-0.811-1.993-1.856l-0.29-3.99c-0.104-1.1,0.703-2.076,1.802-2.18c1.1-0.104,2.076,0.703,2.18,1.802
			c0.002,0.026,0.004,0.052,0.006,0.078l0.292,4c0.079,1.102-0.75,2.059-1.852,2.138c0,0,0,0,0,0
			c-0.051,0.002-0.1,0.003-0.148,0.003L649.089,496.553z M361.87,490.571c-0.051,0-0.1,0-0.152,0
			c-1.101-0.083-1.927-1.043-1.844-2.145c0,0,0,0,0,0c0.101-1.333,0.204-2.667,0.309-4c0.086-1.101,1.049-1.924,2.151-1.838
			c1.101,0.086,1.924,1.049,1.837,2.151c-0.105,1.329-0.208,2.658-0.309,3.987c-0.083,1.04-0.952,1.841-1.995,1.84L361.87,490.571z
			 M648.181,484.571c-1.041-0.001-1.907-0.801-1.991-1.839c-0.108-1.329-0.218-2.657-0.329-3.986
			c-0.092-1.101,0.726-2.068,1.826-2.16c1.101-0.092,2.068,0.725,2.161,1.826c0.111,1.333,0.221,2.667,0.328,4
			c0.089,1.101-0.731,2.066-1.832,2.155c0,0,0,0,0,0c-0.058-0.002-0.113,0-0.166,0L648.181,484.571z M362.835,478.593
			c-0.057,0-0.114,0-0.172-0.007c-1.1-0.094-1.916-1.062-1.823-2.162c0.114-1.333,0.23-2.667,0.348-4
			c0.084-1.101,1.046-1.926,2.147-1.841c1.101,0.084,1.926,1.046,1.841,2.147c-0.001,0.016-0.003,0.032-0.004,0.048
			c-0.118,1.328-0.233,2.656-0.346,3.983c-0.089,1.035-0.956,1.829-1.994,1.828L362.835,478.593z M647.155,472.6
			c-1.034-0.001-1.897-0.791-1.99-1.821c-0.115-1.279-0.232-2.557-0.351-3.836l-0.012-0.13c-0.11-1.099,0.691-2.08,1.79-2.19
			c1.099-0.11,2.08,0.691,2.19,1.79l0.017,0.187c0.117,1.257,0.235,2.54,0.35,3.823c0.099,1.1-0.713,2.072-1.813,2.171c0,0,0,0,0,0
			C647.275,472.593,647.215,472.6,647.155,472.6z M363.976,466.636c-1.105,0.001-2.001-0.894-2.001-1.999
			c0-0.107,0.008-0.213,0.025-0.318c0.22-1.399,0.525-2.783,0.913-4.145c0.304-1.062,1.411-1.677,2.473-1.373
			c1.062,0.304,1.677,1.411,1.373,2.473l0,0c-0.343,1.206-0.613,2.432-0.808,3.67c-0.154,0.971-0.991,1.687-1.975,1.687
			L363.976,466.636z M645.076,460.811c-0.849,0-1.605-0.536-1.886-1.337c-0.416-1.181-0.905-2.336-1.462-3.458
			c-0.514-0.978-0.138-2.187,0.839-2.701c0.978-0.514,2.187-0.138,2.701,0.839c0.014,0.026,0.027,0.053,0.04,0.08
			c0.632,1.269,1.185,2.576,1.655,3.913c0.366,1.042-0.181,2.183-1.223,2.55c-0.215,0.075-0.441,0.111-0.669,0.109L645.076,460.811z
			 M367.946,455.367c-1.105-0.001-1.999-0.897-1.998-2.002c0-0.35,0.093-0.695,0.268-0.998c0.709-1.228,1.492-2.412,2.346-3.544
			c0.666-0.882,1.92-1.057,2.802-0.391s1.057,1.92,0.391,2.802c-0.755,1-1.447,2.046-2.074,3.131c-0.359,0.62-1.023,1-1.74,0.997
			L367.946,455.367z M639.109,450.467c-0.585,0.001-1.141-0.255-1.52-0.7c-0.815-0.951-1.688-1.851-2.614-2.694
			c-0.817-0.744-0.876-2.009-0.133-2.826s2.009-0.876,2.826-0.133l0,0c1.048,0.955,2.036,1.973,2.958,3.05
			c0.718,0.839,0.62,2.102-0.22,2.82c-0.362,0.309-0.821,0.479-1.297,0.48L639.109,450.467z M375.716,446.29
			c-1.105,0.001-2.001-0.894-2.001-1.999c0-0.607,0.275-1.182,0.748-1.561c1.105-0.887,2.264-1.706,3.47-2.45
			c0.914-0.621,2.158-0.383,2.778,0.531c0.621,0.914,0.383,2.158-0.531,2.778c-0.048,0.032-0.097,0.063-0.147,0.091
			c-1.066,0.658-2.09,1.381-3.067,2.165C376.613,446.132,376.171,446.289,375.716,446.29z M629.787,442.984
			c-0.328,0-0.65-0.081-0.939-0.236c-1.105-0.59-2.246-1.111-3.416-1.56c-1.041-0.37-1.584-1.514-1.214-2.555
			c0.37-1.041,1.514-1.584,2.555-1.214c0.03,0.011,0.06,0.022,0.09,0.035c1.324,0.508,2.616,1.097,3.867,1.765
			c0.975,0.519,1.344,1.731,0.824,2.706C631.207,442.577,630.527,442.985,629.787,442.984L629.787,442.984z M386.25,440.665
			c-1.105,0.002-2.002-0.892-2.004-1.996c-0.002-0.876,0.567-1.651,1.404-1.913c1.352-0.424,2.73-0.765,4.124-1.019
			c1.082-0.221,2.139,0.477,2.36,1.56c0.221,1.082-0.477,2.139-1.56,2.36c-0.027,0.005-0.054,0.01-0.081,0.015
			c-1.232,0.226-2.449,0.526-3.645,0.9C386.655,440.632,386.453,440.664,386.25,440.665z M618.393,439.4
			c-0.081,0-0.161-0.005-0.241-0.014c-1.228-0.147-2.463-0.22-3.7-0.22c-1.11,0.002-2.015-0.89-2.029-2
			c-0.013-1.091,0.861-1.987,1.952-2c0.006,0,0.013,0,0.019,0h0.058c1.395,0,2.788,0.083,4.173,0.248
			c1.097,0.13,1.88,1.125,1.75,2.222c-0.12,1.005-0.971,1.763-1.984,1.764L618.393,439.4z M606.385,439.166h-4c-1.105,0-2-0.895-2-2
			s0.895-2,2-2h4c1.105,0,2,0.895,2,2S607.49,439.166,606.385,439.166z M594.369,439.166h-4c-1.105,0-2-0.895-2-2s0.895-2,2-2h4
			c1.105,0,2,0.895,2,2S595.474,439.166,594.369,439.166z M582.354,439.166h-4c-1.105,0-2-0.895-2-2s0.895-2,2-2h4
			c1.105,0,2,0.895,2,2S583.459,439.166,582.354,439.166z M570.338,439.166h-4c-1.105,0-2-0.895-2-2s0.895-2,2-2h4
			c1.105,0,2,0.895,2,2S571.443,439.166,570.338,439.166z M558.322,439.166h-4.006c-1.105,0-2-0.895-2-2s0.895-2,2-2h4.006
			c1.105,0,2,0.895,2,2S559.427,439.166,558.322,439.166z M546.307,439.166H542.3c-1.105,0-2-0.895-2-2s0.895-2,2-2h4.006
			c1.105,0,2,0.895,2,2s-0.895,2-2,2H546.307z M534.291,439.166h-4.006c-1.105,0-2-0.895-2-2s0.895-2,2-2h4.006c1.105,0,2,0.895,2,2
			S535.396,439.166,534.291,439.166z M522.274,439.166h-4c-1.105,0-2-0.895-2-2s0.895-2,2-2h4c1.105,0,2,0.895,2,2
			S523.379,439.166,522.274,439.166z M510.259,439.166h-4c-1.105,0-2-0.895-2-2s0.895-2,2-2h4c1.105,0,2,0.895,2,2
			S511.364,439.166,510.259,439.166z M498.243,439.166h-4c-1.105,0-2-0.895-2-2s0.895-2,2-2h4c1.105,0,2,0.895,2,2
			S499.348,439.166,498.243,439.166z M486.228,439.166h-4c-1.105,0-2-0.895-2-2s0.895-2,2-2h4c1.105,0,2,0.895,2,2
			S487.333,439.166,486.228,439.166z M474.212,439.166h-4.006c-1.105,0-2-0.895-2-2s0.895-2,2-2h4.006c1.105,0,2,0.895,2,2
			S475.317,439.166,474.212,439.166z M462.196,439.166h-4.006c-1.105,0-2-0.895-2-2s0.895-2,2-2h4.01c1.105,0,2,0.895,2,2
			s-0.895,2-2,2H462.196z M450.18,439.166h-4c-1.105,0-2-0.895-2-2s0.895-2,2-2h4c1.105,0,2,0.895,2,2
			S451.285,439.166,450.18,439.166z M438.164,439.166h-4c-1.105,0-2-0.895-2-2s0.895-2,2-2h4c1.105,0,2,0.895,2,2
			S439.269,439.166,438.164,439.166z M426.148,439.166h-4c-1.105,0-2-0.895-2-2s0.895-2,2-2h4c1.105,0,2,0.895,2,2
			S427.253,439.166,426.148,439.166z M414.133,439.166h-4c-1.105,0-2-0.895-2-2s0.895-2,2-2h4c1.105,0,2,0.895,2,2
			S415.238,439.166,414.133,439.166z M402.117,439.166h-4.006c-1.105,0-2-0.895-2-2s0.895-2,2-2h4.006c1.105,0,2,0.895,2,2
			S403.222,439.166,402.117,439.166z"/>
		<path fill="#013711" d="M614.454,748.5H396.059c-24.287,0.069-44.582-18.469-46.707-42.663c-7.431-79.968-7.431-160.454,0-240.422
			c2.125-24.194,22.42-42.732,46.707-42.663h218.395c24.287-0.068,44.582,18.47,46.707,42.663c7.431,79.968,7.431,160.454,0,240.422
			C659.036,730.03,638.741,748.568,614.454,748.5z M396.059,423.752c-23.77-0.067-43.632,18.077-45.711,41.756
			c-7.425,79.907-7.425,160.33,0,240.237c2.079,23.678,21.942,41.822,45.711,41.755h218.395
			c23.769,0.066,43.631-18.077,45.711-41.755c7.425-79.907,7.425-160.33,0-240.237c-2.079-23.678-21.942-41.822-45.711-41.756
			L396.059,423.752z"/>
		<path fill="#013711" d="M614.454,753H396.059c-26.614,0.078-48.856-20.234-51.188-46.745c-7.456-80.246-7.456-161.011,0-241.257
			c2.332-26.512,24.574-46.823,51.188-46.746h218.395c26.614-0.077,48.856,20.236,51.188,46.748
			c7.456,80.246,7.456,161.011,0,241.257C663.308,732.767,641.067,753.077,614.454,753z M396.059,428.252
			c-21.442-0.057-39.357,16.313-41.231,37.673c-7.399,79.629-7.399,159.772,0,239.4c1.873,21.361,19.788,37.731,41.231,37.675
			h218.395c21.442,0.057,39.357-16.313,41.231-37.673c7.398-79.629,7.398-159.771,0-239.4c-1.874-21.36-19.789-37.73-41.231-37.673
			L396.059,428.252z"/>
		<path fill="#70BF43" d="M631.3,576.578c-83.973,4.332-168.114,4.332-252.087,0c-29.032-1.5-51.109-28.851-50.832-62.313
			c0.379-45.95,2.088-90.892,5.1-135.086c2.119-31.124,24.927-55.931,52.493-57.274c79.521-3.873,159.046-3.873,238.575,0
			c27.566,1.343,50.374,26.15,52.492,57.274c3.008,44.194,4.717,89.136,5.1,135.086C682.409,547.727,660.332,575.08,631.3,576.578z"/>
		<path opacity="0.41" fill="#013711" enable-background="new    " d="M631.3,567.578c-83.973,4.332-168.114,4.332-252.087,0
			c-27.935-1.441-49.419-26.823-50.758-58.548c-0.023,2.08-0.057,4.151-0.075,6.235c-0.276,33.462,21.8,60.815,50.833,62.313
			c83.973,4.332,168.114,4.332,252.087,0c29.032-1.5,51.109-28.851,50.832-62.313c-0.017-2.084-0.051-4.156-0.074-6.236
			C680.719,540.755,659.234,566.137,631.3,567.578z"/>
		<path opacity="0.65" fill="#70BF43" enable-background="new    " d="M335.015,522.562c0.366-45.495,2.01-89.992,4.905-133.747
			c2.039-30.815,23.992-55.377,50.523-56.707c76.494-3.834,153.132-3.834,229.626,0c26.532,1.33,48.485,25.892,50.524,56.707
			c2.9,43.755,4.539,88.253,4.905,133.747c0.157,11.088-2.294,22.057-7.154,32.024c8.724-11.125,13.923-25.99,13.788-42.321
			c-0.379-45.95-2.088-90.892-5.1-135.086c-2.118-31.124-24.926-55.931-52.492-57.274c-79.521-3.873-159.046-3.873-238.575,0
			c-27.566,1.343-50.374,26.15-52.492,57.274c-3.008,44.194-4.717,89.136-5.1,135.086c-0.134,16.331,5.065,31.2,13.789,42.322
			C337.304,544.619,334.856,533.65,335.015,522.562z"/>
		<g opacity="0.41">
			<path fill="#013711" d="M505.252,460.674c-11.046,0-22.092-0.063-33.062-0.191c-29.479-0.478-53.444-23.055-53.444-50.329
				v-19.275c0-10.33,8.659-18.625,19.715-18.885c44.322-1.041,89.268-1.041,133.591,0c11.055,0.26,19.715,8.555,19.715,18.885V409.8
				c0,27.474-24.142,50.214-53.815,50.692h-0.023C527.087,460.612,516.17,460.674,505.252,460.674z M537.871,455.488
				L537.871,455.488z M505.257,381.212c-22.239,0-44.478,0.26-66.562,0.779c-5.486,0.129-9.949,4.116-9.949,8.888v19.275
				c0,21.848,19.552,39.94,43.584,40.33c21.708,0.252,43.744,0.254,65.474,0c23.832-0.391,43.963-19.023,43.963-40.693v-18.912
				c0-4.772-4.463-8.759-9.95-8.888C549.733,381.472,527.5,381.212,505.257,381.212L505.257,381.212z"/>
		</g>
		<path fill="#013711" d="M505.257,584.815c-42.2,0-84.4-1.082-126.3-3.244c-31.462-1.623-55.872-31.206-55.574-67.347
			c0.376-45.564,2.094-91.114,5.107-135.385c2.3-33.827,26.909-60.451,57.238-61.928c79.314-3.864,159.747-3.864,239.061,0
			c30.328,1.477,54.936,28.1,57.237,61.928c3.014,44.271,4.732,89.821,5.108,135.385c0.3,36.141-24.112,65.724-55.574,67.347
			l-0.258-4.993l0.258,4.993C589.654,583.733,547.455,584.815,505.257,584.815z M505.257,324.015
			c-39.775,0-79.549,0.962-119.045,2.886c-12.017,0.585-23.5,6.216-32.348,15.855c-9.14,10.163-14.568,23.121-15.4,36.764
			c-3,44.074-4.71,89.423-5.084,134.788c-0.254,30.772,19.991,55.932,46.09,57.279c83.802,4.307,167.769,4.307,251.571,0
			c26.1-1.347,46.344-26.507,46.09-57.279c-0.374-45.365-2.085-90.714-5.084-134.788c-0.832-13.643-6.26-26.601-15.4-36.764
			c-8.842-9.639-20.331-15.27-32.347-15.855c-39.5-1.926-79.269-2.888-119.043-2.888V324.015z"/>
		<path fill="#013711" d="M505.412,567.909h-4.161c-1.105-0.002-1.999-0.898-1.997-2.003c0.002-1.105,0.898-1.999,2.003-1.997h4.155
			c1.105,0,2,0.895,2,2S506.517,567.909,505.412,567.909z M513.419,567.896c-1.105,0.002-2.002-0.891-2.004-1.996
			c-0.002-1.105,0.891-2.002,1.996-2.004l4-0.017h0.011c1.105-0.003,2.002,0.89,2.005,1.995s-0.89,2.002-1.995,2.005l-4.007,0.017
			H513.419z M493.247,567.879h-0.01l-4-0.023c-1.105-0.003-1.997-0.901-1.994-2.006c0.003-1.105,0.901-1.997,2.006-1.994h0.012
			l4,0.023c1.105,0.003,1.998,0.9,1.995,2.005s-0.9,1.998-2.005,1.995H493.247z M525.431,567.824
			c-1.105,0.004-2.004-0.887-2.008-1.992s0.887-2.004,1.992-2.008l4-0.037h0.021c1.105-0.006,2.004,0.885,2.01,1.99
			s-0.885,2.004-1.99,2.01l-4.009,0.037H525.431z M481.238,567.789h-0.02l-4-0.043c-1.105-0.006-1.995-0.906-1.99-2.01
			s0.906-1.995,2.01-1.99h0.022l4,0.043c1.105,0.006,1.995,0.906,1.99,2.01s-0.906,1.995-2.01,1.99H481.238z M537.496,567.689
			c-1.099,0.003-1.999-0.873-2.027-1.971c-0.028-1.092,0.835-2,1.927-2.028c0.006,0,0.012,0,0.018,0l4-0.056
			c1.099-0.003,1.999,0.872,2.029,1.97c0.017,1.104-0.865,2.013-1.97,2.03c0,0,0,0,0,0l-3.951,0.055L537.496,567.689z
			 M469.231,567.638h-0.03l-4.007-0.063c-1.105-0.009-1.993-0.912-1.984-2.016c0.009-1.105,0.912-1.993,2.017-1.984h0.034l4,0.063
			c1.105,0.008,1.993,0.91,1.986,2.014c-0.008,1.105-0.91,1.994-2.014,1.986H469.231z M549.448,567.502
			c-1.105,0.01-2.008-0.878-2.018-1.982c-0.01-1.105,0.878-2.008,1.983-2.018l4-0.076h0.04c1.105-0.01,2.008,0.876,2.019,1.981
			c0.011,1.105-0.876,2.008-1.981,2.019l-4.007,0.076H549.448z M457.224,567.429h-0.04l-4.005-0.082
			c-1.105-0.011-1.991-0.916-1.979-2.021c0.011-1.105,0.916-1.991,2.02-1.979h0.043l4,0.082c1.105,0.01,1.991,0.914,1.981,2.019
			C459.233,566.553,458.33,567.44,457.224,567.429L457.224,567.429z M561.458,567.254c-1.105,0.013-2.01-0.872-2.023-1.977
			s0.872-2.01,1.977-2.023l4-0.1h0.051c1.105-0.014,2.011,0.871,2.025,1.975c0.013,1.105-0.871,2.011-1.976,2.025l-4,0.1H561.458z
			 M445.217,567.161h-0.051l-4-0.1c-1.105-0.014-1.989-0.92-1.975-2.025c0.014-1.105,0.92-1.989,2.025-1.975h0.052l4,0.1
			c1.105,0.014,1.989,0.92,1.975,2.025c-0.014,1.105-0.92,1.989-2.025,1.975H445.217z M573.517,566.945
			c-1.087,0.003-1.982-0.854-2.026-1.941c-0.045-1.09,0.803-2.011,1.893-2.055c0.007,0,0.014-0.001,0.021-0.001l4-0.116h0.061
			c1.105-0.016,2.013,0.866,2.029,1.971s-0.866,2.013-1.971,2.029l-3.947,0.115L573.517,566.945z M433.208,566.836h-0.06l-4-0.121
			c-1.104-0.034-1.971-0.957-1.937-2.061c0.016-1.087,0.91-1.955,1.997-1.939c0.021,0,0.043,0.001,0.064,0.002l4,0.121
			c1.105,0.016,1.987,0.924,1.971,2.029c-0.016,1.105-0.924,1.987-2.029,1.971L433.208,566.836z M585.465,566.581
			c-1.105,0.018-2.015-0.862-2.034-1.966s0.862-2.015,1.966-2.034l4-0.136c1.105-0.038,2.031,0.827,2.068,1.932
			c0.038,1.105-0.827,2.031-1.931,2.068l-4,0.136H585.465z M421.203,566.451h-0.069l-4-0.141c-1.105-0.039-1.968-0.966-1.929-2.071
			c0.039-1.105,0.966-1.968,2.071-1.929l4,0.141c1.105,0.018,1.985,0.929,1.966,2.034c-0.018,1.105-0.929,1.985-2.033,1.966H421.203
			z M597.466,566.156c-1.105,0.021-2.017-0.858-2.038-1.962c-0.021-1.105,0.858-2.017,1.963-2.038l4-0.155
			c1.105-0.044,2.035,0.816,2.079,1.921c0.044,1.105-0.816,2.035-1.921,2.079l-4,0.156L597.466,566.156z M409.2,566.01h-0.08
			l-4-0.161c-1.103-0.045-1.961-0.977-1.916-2.08c0.033-1.092,0.944-1.951,2.036-1.918c0.015,0,0.029,0.001,0.044,0.002l4,0.161
			c1.105,0.022,1.983,0.934,1.961,2.039s-0.934,1.983-2.039,1.961L409.2,566.01z M609.467,565.675
			c-1.105,0.023-2.019-0.853-2.042-1.958s0.853-2.019,1.958-2.042l3.993-0.175c1.105-0.049,2.04,0.806,2.09,1.91
			c0.049,1.105-0.806,2.04-1.911,2.09l-4,0.175H609.467z M397.2,565.507h-0.091l-4-0.181c-1.105-0.05-1.959-0.986-1.909-2.091
			s0.986-1.959,2.091-1.909l4,0.181c1.105,0.024,1.981,0.939,1.956,2.044c-0.024,1.105-0.939,1.981-2.043,1.956H397.2z
			 M621.462,565.131c-1.105,0.028-2.022-0.845-2.05-1.95s0.845-2.022,1.95-2.05l4-0.2c1.099-0.039,2.029,0.803,2.1,1.9
			c0.057,1.103-0.792,2.043-1.895,2.1c-0.002,0-0.003,0-0.005,0l-4,0.194L621.462,565.131z M385.201,564.943h-0.1l-4-0.2
			c-1.104-0.031-1.974-0.951-1.943-2.055c0.031-1.104,0.951-1.974,2.055-1.943c0.029,0.001,0.059,0.002,0.088,0.004l4,0.2
			c1.105,0.028,1.978,0.945,1.95,2.05c-0.028,1.105-0.945,1.978-2.05,1.95V564.943z M633.441,564.406
			c-1.105-0.002-1.998-0.899-1.996-2.004c0.002-0.997,0.738-1.84,1.725-1.977c1.242-0.173,2.472-0.419,3.685-0.737
			c1.062-0.305,2.17,0.308,2.475,1.37c0.305,1.062-0.308,2.17-1.37,2.475c-0.029,0.008-0.057,0.016-0.086,0.023
			c-1.367,0.359-2.754,0.637-4.154,0.833c-0.091,0.012-0.183,0.018-0.275,0.018L633.441,564.406z M373.287,563.66
			c-0.169,0-0.337-0.022-0.5-0.064c-1.367-0.355-2.712-0.789-4.028-1.3c-1.03-0.4-1.54-1.559-1.14-2.589
			c0.4-1.03,1.559-1.54,2.589-1.14c1.17,0.455,2.366,0.841,3.581,1.157c1.07,0.275,1.714,1.365,1.439,2.435
			c-0.227,0.885-1.026,1.503-1.939,1.502L373.287,563.66z M644.8,560.7c-1.105,0-2-0.895-2-2c0-0.738,0.406-1.417,1.057-1.764
			c1.113-0.595,2.193-1.249,3.236-1.96c0.938-0.583,2.171-0.296,2.755,0.642c0.548,0.882,0.331,2.036-0.501,2.658
			c-1.163,0.793-2.367,1.522-3.609,2.185C645.45,560.617,645.128,560.699,644.8,560.7z M362.415,558.714
			c-0.398,0-0.787-0.119-1.117-0.343c-1.163-0.786-2.284-1.632-3.359-2.534c-0.853-0.701-0.976-1.962-0.275-2.815
			c0.701-0.853,1.962-0.976,2.815-0.275c0.01,0.009,0.021,0.017,0.031,0.026c0.969,0.812,1.979,1.575,3.026,2.284
			c0.915,0.619,1.156,1.862,0.537,2.777C363.701,558.385,363.08,558.714,362.415,558.714L362.415,558.714z M654.328,553.475
			c-1.105,0-2-0.896-2-2c0-0.521,0.203-1.021,0.567-1.395c0.876-0.9,1.729-1.862,2.532-2.856c0.677-0.873,1.933-1.032,2.806-0.355
			s1.032,1.933,0.355,2.806c-0.016,0.021-0.033,0.042-0.05,0.062c-0.88,1.09-1.814,2.144-2.776,3.132
			c-0.376,0.387-0.893,0.605-1.433,0.604L654.328,553.475z M353.628,550.599c-0.603,0-1.173-0.271-1.553-0.739
			c-0.866-1.064-1.7-2.192-2.49-3.352c-0.62-0.915-0.38-2.159,0.534-2.779s2.159-0.38,2.779,0.534c0.72,1.064,1.488,2.1,2.281,3.073
			c0.697,0.857,0.567,2.117-0.29,2.814C354.533,550.44,354.088,550.599,353.628,550.599z M661.45,543.849
			c-0.34,0-0.675-0.087-0.972-0.254c-0.965-0.538-1.31-1.756-0.772-2.721c0.616-1.1,1.2-2.257,1.736-3.428
			c0.474-0.998,1.667-1.423,2.664-0.949c0.978,0.464,1.409,1.622,0.973,2.613c-0.58,1.269-1.213,2.518-1.881,3.713
			c-0.354,0.634-1.024,1.026-1.75,1.024L661.45,543.849z M347.319,540.418c-0.781,0-1.49-0.454-1.817-1.163
			c-0.572-1.241-1.108-2.531-1.594-3.835c-0.387-1.035,0.139-2.187,1.174-2.574c1.035-0.387,2.187,0.139,2.574,1.174
			c0.451,1.21,0.949,2.407,1.479,3.556c0.463,1.003,0.026,2.191-0.977,2.654c-0.263,0.122-0.55,0.185-0.839,0.185V540.418z
			 M666.027,532.773c-1.105,0-2-0.895-2-2c0-0.186,0.026-0.371,0.077-0.55c0.351-1.229,0.663-2.49,0.926-3.745
			c0.202-1.086,1.246-1.803,2.332-1.601c1.086,0.202,1.802,1.246,1.601,2.332c-0.005,0.03-0.012,0.059-0.019,0.089
			c-0.282,1.35-0.617,2.7-1,4.024c-0.245,0.857-1.028,1.447-1.919,1.449L666.027,532.773z M343.558,529.037
			c-0.944-0.001-1.758-0.662-1.954-1.585c-0.285-1.336-0.526-2.708-0.718-4.079c-0.15-1.094,0.616-2.103,1.711-2.253
			c1.088-0.149,2.093,0.608,2.25,1.695c0.179,1.28,0.4,2.56,0.669,3.806c0.229,1.081-0.461,2.142-1.542,2.371
			C343.838,529.022,343.698,529.037,343.558,529.037z M668.082,520.963c-0.046,0-0.092,0-0.138,0
			c-1.102-0.075-1.934-1.029-1.859-2.131c0.087-1.278,0.132-2.579,0.134-3.866c0-1.105,0.895-2,2-2l0,0c1.105,0,2,0.895,2,2
			c0,1.376-0.05,2.765-0.144,4.132c-0.072,1.049-0.944,1.863-1.995,1.863L668.082,520.963z M342.3,517.114c-1.105,0-2-0.895-2-2
			v-0.209l0.032-3.813c0.01-1.097,0.903-1.981,2-1.981h0.02c1.105,0.011,1.991,0.915,1.98,2.02c0,0,0,0,0,0l-0.032,3.749v0.234
			C344.3,516.219,343.405,517.114,342.3,517.114z M668.146,508.956c-1.096,0-1.988-0.882-2-1.978l-0.049-4
			c-0.014-1.104,0.869-2.011,1.973-2.026h0.028c1.094,0,1.986,0.88,2,1.974l0.049,4.008c0.012,1.105-0.874,2.009-1.979,2.021
			c0,0,0,0,0,0L668.146,508.956z M342.423,505.105h-0.027c-1.104-0.014-1.988-0.921-1.974-2.026c0,0,0,0,0,0l0.057-4.008
			c0.017-1.092,0.907-1.969,2-1.969h0.031c1.104,0.016,1.986,0.925,1.97,2.03c0,0,0,0.001,0,0.001l-0.057,4
			c-0.015,1.095-0.909,1.974-2.004,1.972H342.423z M667.974,496.947c-1.092,0-1.983-0.876-2-1.968l-0.07-4
			c-0.02-1.104,0.859-2.016,1.963-2.036c0,0,0,0,0.001,0h0.037c1.09,0,1.98,0.873,2,1.963l0.07,4.007
			c0.018,1.104-0.862,2.015-1.967,2.033c-0.003,0-0.006,0-0.008,0L667.974,496.947z M342.609,493.1h-0.037
			c-1.104-0.02-1.984-0.931-1.964-2.035c0,0,0,0,0-0.001l0.078-4.008c0.023-1.105,0.936-1.982,2.041-1.959
			c1.105,0.023,1.982,0.936,1.959,2.041l-0.078,4C344.587,492.227,343.699,493.1,342.609,493.1z M667.739,484.943
			c-1.088,0-1.976-0.869-2-1.956l-0.091-4c-0.026-1.105,0.848-2.021,1.953-2.047s2.021,0.848,2.047,1.953l0.091,4
			c0.024,1.104-0.851,2.018-1.955,2.043L667.739,484.943z M342.86,481.087h-0.048c-1.104-0.026-1.978-0.942-1.952-2.046
			c0.032-1.337,0.065-2.674,0.1-4.009c0.029-1.105,0.948-1.977,2.052-1.947c1.105,0.029,1.977,0.948,1.948,2.052l0,0
			c-0.035,1.333-0.068,2.667-0.1,4C344.833,480.222,343.945,481.087,342.86,481.087z M667.444,472.933c-1.084,0-1.971-0.863-2-1.946
			l-0.111-4c-0.031-1.104,0.838-2.024,1.942-2.056h0.058c1.082,0,1.969,0.86,2,1.942l0.111,4c0.03,1.104-0.841,2.023-1.945,2.053
			L667.444,472.933z M343.175,469.08h-0.058c-1.104-0.032-1.973-0.952-1.942-2.056l0.119-4.007c0.033-1.081,0.919-1.939,2-1.939
			h0.062c1.104,0.034,1.972,0.956,1.938,2.06c0,0,0,0.001,0,0.001l-0.119,4C345.143,468.22,344.257,469.08,343.175,469.08z
			 M667.088,460.931c-1.08,0.001-1.965-0.857-2-1.936l-0.133-4c-0.038-1.104,0.826-2.03,1.93-2.068c0,0,0.001,0,0.001,0h0.069
			c1.078-0.001,1.963,0.853,2,1.931l0.133,4c0.036,1.104-0.83,2.028-1.934,2.064c0,0-0.001,0-0.001,0L667.088,460.931z
			 M343.552,457.074h-0.07c-1.104-0.038-1.968-0.964-1.93-2.068c0,0,0,0,0,0l0.14-4c0.039-1.105,0.967-1.968,2.072-1.928
			s1.968,0.967,1.928,2.072l-0.14,4C345.512,456.224,344.628,457.075,343.552,457.074z M666.667,448.929
			c-1.077,0.001-1.961-0.851-2-1.927c-0.049-1.333-0.099-2.664-0.152-3.993c-0.044-1.105,0.816-2.035,1.921-2.079
			c1.105-0.044,2.035,0.816,2.079,1.921c0.052,1.333,0.103,2.667,0.154,4c0.04,1.104-0.822,2.031-1.925,2.072c0,0,0,0-0.001,0
			L666.667,448.929z M343.993,445.07h-0.08c-1.103-0.044-1.962-0.974-1.919-2.077l0.161-4c0.062-1.096,0.983-1.945,2.08-1.917
			c1.104,0.045,1.961,0.977,1.916,2.081c0,0,0,0,0,0l-0.161,4C345.943,444.226,345.063,445.069,343.993,445.07z M666.185,436.931
			c-1.072,0.001-1.954-0.844-2-1.915l-0.175-3.993c-0.049-1.105,0.806-2.04,1.911-2.09c1.105-0.049,2.04,0.806,2.089,1.911l0.175,4
			c0.047,1.103-0.81,2.036-1.913,2.083C666.241,436.931,666.213,436.931,666.185,436.931z M344.5,433.068h-0.091
			c-1.103-0.049-1.958-0.984-1.909-2.087l0.183-4.007c0.052-1.105,0.989-1.958,2.094-1.906s1.958,0.989,1.906,2.094l-0.183,4
			C346.45,432.23,345.569,433.069,344.5,433.068z M665.637,424.936c-1.067,0.001-1.947-0.835-2-1.9l-0.2-3.993
			c-0.08-1.102,0.749-2.059,1.851-2.139c1.102-0.08,2.059,0.749,2.139,1.851c0.002,0.029,0.004,0.059,0.004,0.088l0.2,4
			c0.057,1.103-0.792,2.043-1.895,2.1c-0.002,0-0.003,0-0.005,0L665.637,424.936z M345.068,421.068c-0.034,0-0.067,0-0.1,0
			c-1.103-0.054-1.954-0.992-1.9-2.095c0-0.002,0-0.003,0-0.005l0.2-4c0.057-1.105,0.999-1.953,2.104-1.896s1.953,0.999,1.896,2.104
			l0,0l-0.2,4C347.01,420.239,346.131,421.07,345.068,421.068L345.068,421.068z M665.025,412.944c-1.064,0.001-1.944-0.831-2-1.894
			c-0.07-1.333-0.142-2.663-0.217-3.989c-0.062-1.103,0.783-2.047,1.885-2.109c1.103-0.062,2.047,0.783,2.109,1.886
			c0.074,1.333,0.146,2.667,0.217,4c0.057,1.102-0.789,2.041-1.891,2.1C665.1,412.943,665.061,412.944,665.025,412.944
			L665.025,412.944z M345.7,409.071h-0.113c-1.103-0.061-1.947-1.005-1.886-2.108c0,0,0,0,0,0l0.227-4
			c0.064-1.103,1.01-1.945,2.112-1.882s1.945,1.01,1.882,2.112l0,0l-0.227,4C347.63,408.248,346.756,409.07,345.7,409.071z
			 M664.347,400.956c-1.058-0.001-1.932-0.826-1.994-1.882l-0.241-3.99c-0.086-1.101,0.736-2.064,1.838-2.15
			c1.101-0.086,2.064,0.736,2.15,1.838c0.002,0.023,0.003,0.046,0.004,0.069l0.241,4c0.065,1.103-0.775,2.05-1.878,2.115l0,0
			C664.427,400.955,664.387,400.956,664.347,400.956L664.347,400.956z M346.4,397.079c-0.041,0-0.082,0-0.123,0
			c-1.102-0.067-1.942-1.015-1.875-2.117l0.248-4c0.07-1.103,1.02-1.94,2.123-1.871c1.103,0.07,1.94,1.02,1.87,2.123l0,0
			l-0.248,3.994C348.327,396.26,347.454,397.079,346.4,397.079z M663.6,388.973c-1.057,0.002-1.933-0.818-2-1.873
			c-0.085-1.329-0.171-2.658-0.26-3.986c-0.1-1.1,0.711-2.073,1.811-2.173c1.1-0.1,2.073,0.711,2.173,1.811
			c0.003,0.032,0.005,0.064,0.006,0.096c0.09,1.333,0.178,2.667,0.263,4c0.071,1.102-0.766,2.053-1.868,2.124
			c-0.001,0-0.001,0-0.002,0C663.688,388.971,663.646,388.973,663.6,388.973L663.6,388.973z M347.161,385.088
			c-0.045,0-0.091,0-0.136,0c-1.102-0.074-1.935-1.027-1.861-2.129l0.2-2.967c0.025-0.357,0.052-0.714,0.083-1.069
			c0.097-1.1,1.069-1.913,2.169-1.816c1.1,0.098,1.913,1.069,1.816,2.169l0,0c-0.03,0.329-0.055,0.658-0.078,0.988l-0.2,2.962
			c-0.072,1.047-0.941,1.859-1.99,1.862H347.161z M662.553,377.021c-0.979-0.001-1.813-0.709-1.972-1.675
			c-0.208-1.261-0.467-2.531-0.77-3.774c-0.261-1.073,0.397-2.155,1.471-2.417c1.073-0.261,2.155,0.397,2.417,1.471
			c0.326,1.34,0.606,2.709,0.83,4.069c0.18,1.09-0.557,2.119-1.647,2.3c0,0-0.001,0-0.001,0c-0.107,0.017-0.215,0.026-0.324,0.026
			L662.553,377.021z M348.731,373.2c-0.158,0-0.316-0.019-0.469-0.057c-1.074-0.258-1.735-1.338-1.477-2.412
			c0.322-1.341,0.7-2.687,1.125-4c0.339-1.051,1.467-1.628,2.518-1.289s1.628,1.467,1.289,2.518
			c-0.393,1.216-0.743,2.463-1.043,3.706C350.459,372.565,349.655,373.199,348.731,373.2z M659.287,365.489
			c-0.811,0-1.542-0.49-1.85-1.24c-0.488-1.184-1.026-2.361-1.6-3.5c-0.467-1.001-0.034-2.191,0.968-2.658
			c0.958-0.447,2.098-0.071,2.602,0.858c0.621,1.229,1.2,2.5,1.729,3.781c0.42,1.021-0.067,2.19-1.089,2.611
			c-0.241,0.099-0.5,0.15-0.76,0.15L659.287,365.489z M352.841,361.944c-1.105-0.001-2-0.896-1.999-2.001
			c0-0.312,0.073-0.62,0.214-0.899c0.621-1.235,1.3-2.46,2.012-3.64c0.565-0.949,1.793-1.26,2.742-0.695
			c0.949,0.565,1.26,1.793,0.695,2.742c-0.005,0.008-0.01,0.017-0.015,0.025c-0.66,1.091-1.286,2.224-1.86,3.366
			c-0.339,0.678-1.031,1.106-1.789,1.106L352.841,361.944z M653.463,355.018c-0.641,0.001-1.244-0.306-1.621-0.825
			c-0.754-1.04-1.555-2.052-2.378-3.008c-0.74-0.82-0.674-2.085,0.146-2.825c0.82-0.74,2.085-0.674,2.825,0.146
			c0.02,0.022,0.039,0.045,0.058,0.067c0.9,1.04,1.767,2.14,2.587,3.269c0.649,0.894,0.45,2.145-0.443,2.793
			C654.295,354.884,653.885,355.018,653.463,355.018z M359.463,351.959c-1.105-0.002-1.999-0.898-1.997-2.003
			c0.001-0.476,0.171-0.936,0.48-1.297c0.911-1.061,1.871-2.087,2.853-3.048c0.789-0.773,2.056-0.76,2.829,0.029
			c0.773,0.789,0.76,2.056-0.029,2.829c-0.9,0.881-1.781,1.822-2.617,2.8c-0.381,0.442-0.936,0.695-1.52,0.693L359.463,351.959z
			 M645.25,346.304c-0.458,0-0.902-0.157-1.258-0.446c-1-0.806-2.028-1.565-3.071-2.256c-0.931-0.594-1.204-1.831-0.61-2.762
			c0.594-0.931,1.831-1.204,2.762-0.61c0.019,0.012,0.038,0.025,0.057,0.038c1.148,0.761,2.286,1.6,3.38,2.481
			c0.859,0.695,0.992,1.954,0.297,2.813C646.427,346.032,645.855,346.305,645.25,346.304L645.25,346.304z M368.4,344
			c-1.105,0.002-2.001-0.892-2.003-1.997c-0.001-0.67,0.334-1.297,0.892-1.668c1.167-0.777,2.373-1.496,3.612-2.152
			c0.969-0.531,2.184-0.175,2.715,0.793c0.531,0.969,0.175,2.184-0.793,2.715c-0.017,0.009-0.035,0.019-0.052,0.028
			c-1.12,0.593-2.209,1.242-3.263,1.945C369.179,343.883,368.794,344,368.4,344z M634.944,340.233c-0.252,0-0.501-0.048-0.735-0.142
			c-1.171-0.464-2.367-0.862-3.582-1.192c-1.066-0.29-1.696-1.389-1.406-2.455c0.29-1.066,1.389-1.696,2.455-1.406
			c1.359,0.37,2.697,0.816,4.006,1.335c1.027,0.406,1.531,1.568,1.125,2.595C636.505,339.732,635.766,340.234,634.944,340.233
			L634.944,340.233z M379.256,338.996c-1.105,0.002-2.002-0.891-2.004-1.996c-0.002-0.904,0.603-1.697,1.475-1.934
			c1.361-0.374,2.742-0.668,4.137-0.883c1.092-0.167,2.113,0.582,2.28,1.674s-0.582,2.113-1.674,2.28
			c-1.242,0.191-2.472,0.454-3.684,0.787c-0.172,0.046-0.35,0.069-0.528,0.068L379.256,338.996z M623.256,337.78h-0.1l-4-0.191
			c-1.105-0.052-1.958-0.989-1.906-2.094s0.989-1.958,2.094-1.906l4,0.191c1.105,0.028,1.978,0.945,1.95,2.05
			s-0.945,1.978-2.05,1.95H623.256z M391.143,337.595c-1.105,0.025-2.021-0.849-2.046-1.954c-0.025-1.105,0.849-2.021,1.954-2.046
			l4-0.184c1.105-0.049,2.04,0.807,2.089,1.911s-0.807,2.04-1.911,2.089l-3.993,0.183c-0.026-0.004-0.057-0.003-0.089-0.003
			L391.143,337.595z M611.258,337.23h-0.09l-4-0.171c-1.105-0.023-1.982-0.936-1.959-2.041c0.023-1.105,0.936-1.982,2.041-1.959
			c0.027,0,0.055,0,0.084,0l4.006,0.171c1.105,0.024,1.981,0.938,1.957,2.043c-0.024,1.105-0.938,1.981-2.043,1.957H611.258z
			 M403.141,337.063c-1.105,0.023-2.018-0.854-2.041-1.959c-0.023-1.105,0.854-2.018,1.959-2.041l4-0.165
			c1.105-0.044,2.036,0.815,2.081,1.919s-0.815,2.036-1.919,2.081l-4,0.163c-0.02-0.002-0.049-0.002-0.076-0.002L403.141,337.063z
			 M599.256,336.737h-0.078l-4-0.151c-1.105-0.041-1.967-0.969-1.926-2.074c0.041-1.105,0.969-1.967,2.074-1.926l4,0.151
			c1.105,0.021,1.983,0.933,1.962,2.038c-0.021,1.105-0.933,1.983-2.038,1.962H599.256z M415.141,336.591
			c-1.105,0.02-2.017-0.858-2.037-1.963c-0.02-1.105,0.858-2.017,1.963-2.037l4-0.144c1.105-0.038,2.031,0.826,2.07,1.93
			c0.038,1.105-0.826,2.031-1.931,2.07l-4,0.144H415.141z M587.252,336.305h-0.068l-4-0.132c-1.105-0.035-1.972-0.959-1.937-2.064
			c0.035-1.105,0.959-1.972,2.064-1.936l4,0.132c1.105,0.018,1.985,0.928,1.967,2.033c-0.018,1.105-0.928,1.985-2.033,1.967H587.252
			z M427.143,336.177c-1.105,0.017-2.014-0.864-2.031-1.969s0.864-2.014,1.969-2.031l4-0.125c1.105-0.033,2.027,0.835,2.06,1.94
			c0.033,1.105-0.835,2.027-1.939,2.06l-4,0.125H427.143z M575.243,335.931h-0.059l-4-0.112c-1.105-0.03-1.976-0.949-1.946-2.054
			c0.03-1.105,0.949-1.976,2.054-1.946l4.006,0.112c1.105,0.016,1.987,0.924,1.971,2.029s-0.924,1.987-2.029,1.971H575.243z
			 M439.143,335.822c-1.105,0.014-2.012-0.869-2.026-1.974s0.869-2.012,1.974-2.026l4-0.105c1.105-0.028,2.022,0.845,2.05,1.95
			c0.028,1.105-0.845,2.022-1.95,2.05l-4,0.1L439.143,335.822z M563.237,335.616h-0.049l-4-0.092
			c-1.105-0.025-1.98-0.94-1.955-2.045c0.025-1.105,0.94-1.98,2.045-1.955l4,0.092c1.105,0.013,1.99,0.919,1.977,2.023
			s-0.919,1.989-2.023,1.977H563.237z M451.151,335.526c-1.105,0.012-2.01-0.873-2.022-1.978s0.873-2.01,1.978-2.022l4.008-0.085
			c1.092-0.034,2.005,0.823,2.039,1.915c0,0.015,0.001,0.029,0.001,0.044c0.022,1.104-0.855,2.018-1.959,2.04c0,0-0.001,0-0.001,0
			l-4,0.085L451.151,335.526z M551.232,335.359h-0.04l-4-0.073c-1.105-0.019-1.985-0.93-1.966-2.034s0.93-1.985,2.034-1.966l0,0
			l4.007,0.073c1.105,0.01,1.992,0.914,1.981,2.019c-0.01,1.105-0.914,1.991-2.019,1.981H551.232z M463.159,335.289
			c-1.105,0.009-2.007-0.879-2.016-1.984c-0.009-1.105,0.879-2.007,1.983-2.016l4.006-0.066c1.098,0.001,1.996,0.872,2.031,1.969
			c0.017,1.104-0.864,2.014-1.969,2.031c0,0,0,0,0,0l-4,0.065L463.159,335.289z M539.223,335.161H539.2l-4-0.053
			c-1.105-0.007-1.995-0.907-1.988-2.012c0.007-1.105,0.907-1.995,2.012-1.988h0.025l4.006,0.053
			c1.105,0.008,1.994,0.909,1.986,2.014c-0.008,1.105-0.909,1.994-2.014,1.986H539.223z M475.169,335.109
			c-1.105,0.007-2.005-0.883-2.012-1.988s0.883-2.005,1.988-2.012l4.007-0.046h0.022c1.105-0.006,2.005,0.885,2.01,1.99
			s-0.885,2.005-1.99,2.01l-4,0.046H475.169z M527.213,335.023H527.2l-4-0.034c-1.105-0.004-1.997-0.903-1.992-2.008
			s0.903-1.997,2.008-1.992h0.014l4.006,0.034c1.105,0.005,1.996,0.904,1.991,2.009c-0.005,1.105-0.904,1.996-2.009,1.991H527.213z
			 M487.181,334.99c-1.105,0.004-2.004-0.887-2.008-1.992s0.887-2.004,1.992-2.008l4.009-0.027h0.011
			c1.105-0.003,2.003,0.889,2.006,1.994c0.003,1.105-0.889,2.003-1.994,2.006l-4,0.027H487.181z M515.205,334.942H515.2l-4-0.013
			c-1.105,0-2-0.895-2-2s0.895-2,2-2l0,0l4.005,0.013c1.105,0.002,1.998,0.899,1.996,2.004c-0.002,1.105-0.899,1.998-2.004,1.996
			H515.205z M499.192,334.93c-1.105,0-2-0.895-2-2s0.895-2,2-2l4.008-0.007l0,0c1.105,0,2,0.895,2,2s-0.895,2-2,2l-4,0.007H499.192z
			"/>
		<path fill="#0BB68F" d="M537.871,447.488c-21.873,0.251-43.747,0.251-65.622,0c-26.79-0.434-48.5-21.013-48.5-45.329V382.88
			c0-7.543,6.585-13.694,14.832-13.888c44.445-1.044,88.898-1.044,133.357,0c8.247,0.194,14.832,6.345,14.832,13.888v18.92
			C586.767,426.2,564.767,447.054,537.871,447.488z"/>
		<path opacity="0.43" fill="#0BB68F" enable-background="new    " d="M537.871,430.425c-21.873,0.252-43.747,0.252-65.622,0
			c-26.79-0.435-48.5-21.014-48.5-45.329v17.062c0,24.316,21.713,44.895,48.5,45.329c21.873,0.255,43.747,0.255,65.622,0
			c26.9-0.434,48.9-21.284,48.9-45.693v-17.061C586.767,409.141,564.767,429.992,537.871,430.425z"/>
		<path opacity="0.7" fill="#0BB68F" enable-background="new    " d="M571.935,368.992c-44.445-1.044-88.897-1.044-133.357,0
			c-8.247,0.194-14.832,6.345-14.832,13.888v8c0-7.543,6.585-13.693,14.832-13.887c44.445-1.044,88.898-1.044,133.357,0
			c8.247,0.194,14.832,6.345,14.832,13.888v-8C586.767,375.337,580.182,369.186,571.935,368.992z"/>
		<path fill="#013711" d="M505.252,452.674c-11.046,0-22.092-0.063-33.062-0.191c-29.479-0.478-53.444-23.055-53.444-50.329v-19.275
			c0-10.33,8.659-18.625,19.715-18.885c44.322-1.041,89.268-1.041,133.591,0c11.055,0.26,19.715,8.555,19.715,18.885V401.8
			c0,27.474-24.142,50.214-53.815,50.692h-0.023C527.087,452.612,516.17,452.674,505.252,452.674z M537.871,447.488L537.871,447.488
			z M505.257,373.212c-22.239,0-44.478,0.26-66.562,0.779c-5.486,0.129-9.949,4.116-9.949,8.888v19.275
			c0,21.848,19.552,39.94,43.584,40.33c21.708,0.252,43.744,0.254,65.474,0c23.832-0.391,43.963-19.023,43.963-40.693v-18.912
			c0-4.772-4.463-8.759-9.95-8.888C549.733,373.472,527.5,373.212,505.257,373.212L505.257,373.212z"/>
		<path fill="#013711" d="M505.252,452.674c-11.046,0-22.092-0.063-33.062-0.191c-29.479-0.478-53.444-23.055-53.444-50.329v-19.275
			c0-10.33,8.659-18.625,19.715-18.885c44.322-1.041,89.268-1.041,133.591,0c11.055,0.26,19.715,8.555,19.715,18.885V401.8
			c0,27.474-24.142,50.214-53.815,50.692h-0.023C527.087,452.612,516.17,452.674,505.252,452.674z M537.871,447.488L537.871,447.488
			z M505.257,373.212c-22.239,0-44.478,0.26-66.562,0.779c-5.486,0.129-9.949,4.116-9.949,8.888v19.275
			c0,21.848,19.552,39.94,43.584,40.33c21.708,0.252,43.744,0.254,65.474,0c23.832-0.391,43.963-19.023,43.963-40.693v-18.912
			c0-4.772-4.463-8.759-9.95-8.888C549.733,373.472,527.5,373.212,505.257,373.212L505.257,373.212z"/>
		<g opacity="0.41">
			<path fill="#013711" d="M442.2,568.607h-47.059c-1.842,0-3.535-1.012-4.406-2.635l-14.575-27.158
				c-9.809-18.063-5.989-39.265,9.745-53.992L406.9,465.2c6.725-5.963,16.849-5.944,23.552,0.043l20.993,19.731
				c15.7,14.689,19.516,35.831,9.728,53.854l-14.563,27.145C445.738,567.597,444.043,568.609,442.2,568.607z M398.133,558.607
				h41.076l13.16-24.531c7.56-13.92,4.506-30.322-7.768-41.81l-20.994-19.731c-2.872-2.341-6.991-2.356-9.879-0.034l-20.99,19.624
				c-12.3,11.517-15.358,27.979-7.778,41.939L398.133,558.607z"/>
		</g>
		<g opacity="0.41">
			<path fill="#013711" d="M418.218,693.7c-10.443-0.011-18.906-8.473-18.918-18.916V513.57c0-2.761,2.239-5,5-5h27.835
				c2.761,0,5,2.239,5,5v161.214C437.122,685.226,428.66,693.688,418.218,693.7z M409.3,518.57v156.214
				c-0.052,4.925,3.898,8.96,8.823,9.012c4.925,0.052,8.96-3.898,9.012-8.823c0.001-0.063,0.001-0.127,0-0.19V518.57H409.3z"/>
		</g>
		<path fill="#049448" d="M397.257,556.608h42.825l13.264-25.908c7.873-15.194,4.756-33.131-7.969-45.613l-19.1-18.813
			c-4.288-3.975-10.909-3.992-15.217-0.039l-19.1,18.715c-12.725,12.482-15.843,30.566-7.97,45.76L397.257,556.608z"/>
		<path fill="#013711" d="M442.2,561.607h-47.059c-1.842,0-3.535-1.012-4.406-2.635l-14.575-27.158
			c-9.81-18.063-5.989-39.265,9.745-53.992L406.9,458.2c6.725-5.962,16.849-5.944,23.552,0.043l20.993,19.731
			c15.7,14.689,19.517,35.831,9.728,53.854l-14.563,27.145C445.738,560.597,444.043,561.609,442.2,561.607z M398.133,551.607h41.076
			l13.16-24.531c7.56-13.92,4.506-30.323-7.768-41.81l-20.994-19.731c-2.872-2.341-6.991-2.356-9.879-0.034l-20.99,19.624
			c-12.305,11.517-15.359,27.979-7.778,41.939L398.133,551.607z"/>
		<path fill="#013711" d="M402.623,548.107h-1.5c-0.552,0-1.06-0.304-1.321-0.791L399.093,546c-0.368-0.742-0.066-1.642,0.676-2.011
			c0.709-0.352,1.569-0.093,1.966,0.593l0.286,0.53h0.6c0.828,0,1.5,0.672,1.5,1.5s-0.672,1.5-1.5,1.5L402.623,548.107z"/>
		<path fill="#013711" d="M397.117,540.641c-0.553,0-1.061-0.304-1.322-0.791l-1.414-2.634c-0.392-0.73-0.117-1.639,0.613-2.031
			c0.73-0.392,1.639-0.117,2.031,0.613l1.413,2.634c0.392,0.73,0.117,1.639-0.613,2.031
			C397.607,540.58,397.364,540.641,397.117,540.641L397.117,540.641z M440.237,540.609c-0.828-0.001-1.499-0.673-1.498-1.502
			c0-0.247,0.061-0.49,0.178-0.707l1.413-2.633c0.392-0.73,1.301-1.005,2.031-0.613c0.73,0.392,1.005,1.301,0.613,2.031
			l-1.414,2.633C441.299,540.305,440.79,540.609,440.237,540.609z M392.405,531.861c-0.553,0-1.061-0.304-1.322-0.791l-1.413-2.632
			c-0.415-0.717-0.17-1.635,0.548-2.049c0.717-0.415,1.635-0.169,2.049,0.548c0.016,0.027,0.031,0.055,0.045,0.084l1.414,2.632
			c0.392,0.73,0.117,1.639-0.613,2.031C392.895,531.8,392.652,531.861,392.405,531.861L392.405,531.861z M444.947,531.829
			c-0.828-0.001-1.499-0.673-1.498-1.502c0-0.247,0.061-0.49,0.178-0.707l1.413-2.634c0.406-0.722,1.321-0.978,2.043-0.571
			c0.701,0.395,0.966,1.273,0.6,1.989l-1.413,2.634C446.009,531.525,445.5,531.829,444.947,531.829L444.947,531.829z M387.866,523
			c-0.615,0-1.167-0.375-1.394-0.947c-0.387-0.974-0.722-1.968-1.006-2.977c-0.204-0.803,0.282-1.619,1.085-1.823
			c0.774-0.196,1.566,0.248,1.802,1.011c0.256,0.909,0.559,1.805,0.908,2.683c0.305,0.77-0.071,1.642-0.841,1.947
			c-0.178,0.07-0.367,0.106-0.559,0.106L387.866,523z M449.495,522.972c-0.191,0-0.38-0.036-0.557-0.108
			c-0.769-0.308-1.143-1.181-0.835-1.95c0.352-0.878,0.658-1.772,0.919-2.681c0.228-0.797,1.059-1.257,1.856-1.029
			s1.257,1.059,1.029,1.856l0,0c-0.289,1.006-0.629,1.997-1.019,2.969c-0.228,0.567-0.777,0.939-1.388,0.941L449.495,522.972z
			 M385.881,513.29c-0.815,0-1.481-0.65-1.5-1.465c0-0.218-0.007-0.435-0.007-0.654c0-0.825,0.036-1.665,0.107-2.494
			c0.075-0.825,0.805-1.433,1.63-1.358c0.819,0.075,1.425,0.794,1.359,1.614c-0.064,0.745-0.1,1.5-0.1,2.238
			c0,0.195,0,0.39,0.007,0.584c0.02,0.828-0.636,1.515-1.464,1.535c0,0-0.001,0-0.001,0L385.881,513.29z M451.524,513.273h-0.034
			c-0.828-0.018-1.485-0.704-1.467-1.532c0-0.001,0-0.001,0-0.002c0-0.209,0.008-0.417,0.008-0.626c0-0.724-0.031-1.463-0.094-2.2
			c-0.09-0.824,0.505-1.564,1.329-1.654c0.824-0.09,1.564,0.505,1.654,1.329c0.002,0.022,0.004,0.043,0.006,0.065
			c0.071,0.821,0.107,1.648,0.106,2.458c0,0.229,0,0.46-0.008,0.691c-0.017,0.816-0.683,1.469-1.499,1.469V513.273z M387.418,503.5
			c-0.165,0-0.33-0.027-0.486-0.081c-0.784-0.268-1.201-1.121-0.933-1.905c0.336-0.982,0.728-1.962,1.163-2.912
			c0.345-0.753,1.235-1.084,1.988-0.74s1.084,1.235,0.74,1.988l0,0c-0.395,0.86-0.746,1.74-1.053,2.635
			C388.629,503.092,388.059,503.5,387.418,503.5z M449.955,503.488c-0.636,0-1.203-0.4-1.415-1
			c-0.315-0.892-0.675-1.767-1.078-2.622c-0.353-0.75-0.032-1.644,0.718-1.997c0.75-0.353,1.644-0.032,1.997,0.718
			c0.447,0.952,0.849,1.929,1.193,2.9c0.276,0.781-0.133,1.638-0.914,1.914c-0.161,0.057-0.33,0.086-0.501,0.086L449.955,503.488z
			 M445.177,494.796c-0.466,0.001-0.906-0.215-1.19-0.584c-0.571-0.742-1.191-1.479-1.841-2.19
			c-0.586-0.585-0.587-1.535-0.001-2.121c0.585-0.586,1.535-0.587,2.121-0.001c0.032,0.032,0.063,0.066,0.092,0.1
			c0.708,0.773,1.382,1.575,2.006,2.383c0.506,0.656,0.384,1.598-0.272,2.104c-0.262,0.202-0.584,0.312-0.915,0.312V494.796z
			 M392.106,494.758c-0.828-0.001-1.499-0.673-1.499-1.501c0-0.326,0.107-0.644,0.304-0.904c0.623-0.823,1.292-1.631,1.988-2.4
			c0.551-0.619,1.499-0.673,2.118-0.122c0.619,0.551,0.673,1.499,0.122,2.118c-0.004,0.005-0.009,0.01-0.013,0.014
			c-0.639,0.707-1.252,1.448-1.822,2.2c-0.284,0.375-0.728,0.595-1.198,0.594L392.106,494.758z M438.245,487.658
			c-0.382,0.001-0.749-0.145-1.027-0.407l-2.178-2.051c-0.613-0.557-0.659-1.505-0.102-2.119c0.557-0.613,1.505-0.659,2.119-0.102
			c0.013,0.012,0.026,0.024,0.038,0.036l2.177,2.047c0.604,0.567,0.633,1.517,0.066,2.12c-0.283,0.302-0.679,0.473-1.093,0.473
			L438.245,487.658z M399.016,487.602c-0.828,0.003-1.502-0.666-1.505-1.495c-0.001-0.419,0.173-0.82,0.48-1.105l2.184-2.041
			c0.611-0.559,1.56-0.517,2.119,0.094c0.551,0.602,0.52,1.534-0.07,2.097l-2.184,2.048c-0.278,0.258-0.644,0.401-1.024,0.4
			L399.016,487.602z M430.985,480.834c-0.382,0-0.749-0.146-1.027-0.407l-2.179-2.047c-0.604-0.567-0.633-1.517-0.065-2.12
			c0.567-0.604,1.517-0.633,2.12-0.066l2.179,2.047c0.604,0.567,0.633,1.517,0.066,2.12
			C431.795,480.663,431.399,480.834,430.985,480.834L430.985,480.834z M406.293,480.797c-0.828,0.002-1.502-0.667-1.504-1.496
			c-0.001-0.419,0.173-0.819,0.48-1.104l2.183-2.042c0.605-0.566,1.555-0.534,2.121,0.071c0.566,0.605,0.534,1.555-0.072,2.121
			l-2.184,2.041c-0.276,0.263-0.643,0.411-1.024,0.412L406.293,480.797z M423.725,474.011c-0.382,0-0.75-0.145-1.028-0.407
			l-2.177-2.047c-0.613-0.557-0.659-1.506-0.102-2.119s1.506-0.659,2.119-0.102c0.012,0.011,0.025,0.023,0.037,0.034l2.178,2.047
			c0.604,0.567,0.633,1.517,0.066,2.12C424.534,473.84,424.139,474.011,423.725,474.011L423.725,474.011z M413.571,473.993
			c-0.828,0.002-1.502-0.667-1.504-1.496c-0.001-0.419,0.173-0.819,0.48-1.104l2.183-2.041c0.599-0.572,1.548-0.551,2.121,0.048
			c0.572,0.599,0.551,1.548-0.048,2.121c-0.008,0.007-0.016,0.015-0.023,0.022l-2.183,2.041c-0.278,0.261-0.644,0.406-1.025,0.407
			L413.571,473.993z"/>
		<path fill="#013711" d="M436.215,548.107h-1.5c-0.828,0-1.5-0.672-1.5-1.5s0.672-1.5,1.5-1.5h0.6l0.287-0.532
			c0.378-0.737,1.282-1.029,2.019-0.651c0.737,0.378,1.029,1.282,0.651,2.019c-0.009,0.018-0.018,0.035-0.028,0.052l-0.71,1.322
			C437.273,547.803,436.766,548.106,436.215,548.107z"/>
		<path fill="#013711" d="M428.644,548.107h-2.6c-0.828,0-1.5-0.672-1.5-1.5s0.672-1.5,1.5-1.5h2.6c0.828,0,1.5,0.672,1.5,1.5
			S429.472,548.107,428.644,548.107z M419.97,548.107h-2.6c-0.828,0-1.5-0.672-1.5-1.5s0.672-1.5,1.5-1.5h2.6
			c0.828,0,1.5,0.672,1.5,1.5S420.798,548.107,419.97,548.107z M411.297,548.107h-2.6c-0.828,0-1.5-0.672-1.5-1.5s0.672-1.5,1.5-1.5
			h2.6c0.828,0,1.5,0.672,1.5,1.5S412.125,548.107,411.297,548.107z"/>
		<path fill="#F9941C" d="M404.416,507.351h27.836l0,0v161.214c0,7.687-6.231,13.918-13.918,13.918h0l0,0
			c-7.687,0-13.918-6.231-13.918-13.918l0,0V507.351L404.416,507.351z"/>
		<path opacity="0.37" fill="#F9941C" enable-background="new    " d="M418.334,673.192c-7.686,0-13.917-6.231-13.917-13.917
			c0,0,0-0.001,0-0.001v9.291c0.065,7.686,6.35,13.864,14.036,13.799c7.594-0.065,13.734-6.205,13.799-13.799v-9.291
			C432.252,666.961,426.021,673.192,418.334,673.192L418.334,673.192z"/>
		<rect x="404.416" y="590.471" opacity="0.37" fill="#F9941C" enable-background="new    " width="27.836" height="22.533"/>
		<path fill="#013711" d="M418.334,686.482c-9.891-0.011-17.907-8.027-17.918-17.918V507.351c0-2.209,1.791-4,4-4h27.836
			c2.209,0,4,1.791,4,4v161.213C436.241,678.455,428.225,686.471,418.334,686.482z M408.416,511.351v157.213
			c0.002,5.478,4.445,9.916,9.923,9.914c5.474-0.003,9.911-4.439,9.913-9.914V511.351H408.416z"/>
		<path fill="#FFFFFF" d="M404.416,610.961v-20.49h27.836v20.49h11.6v-26.474c0-3.101-2.513-5.614-5.614-5.614h0h-39.8
			c-3.101-0.001-5.614,2.513-5.615,5.613c0,0,0,0.001,0,0.001v26.474H404.416z"/>
		<path fill="#013711" d="M443.85,614.961h-11.6c-2.209,0-4-1.791-4-4v-16.49h-19.834v16.49c0,2.209-1.791,4-4,4h-11.6
			c-2.209,0-4-1.791-4-4v-22.84c0.009-7.313,5.935-13.239,13.248-13.248H434.6c7.313,0.009,13.239,5.935,13.248,13.248v22.84
			C447.848,613.169,446.058,614.96,443.85,614.961z M436.25,606.961h3.6v-18.84c-0.004-2.897-2.351-5.244-5.248-5.248h-32.536
			c-2.897,0.004-5.244,2.351-5.248,5.248v18.84h3.6v-16.49c0-2.209,1.791-4,4-4h27.836c2.209,0,4,1.791,4,4L436.25,606.961z"/>
		<path fill="#013711" d="M413.738,529.6c-1.105,0-2-0.896-2-2c0-0.53,0.211-1.039,0.586-1.414l9.193-9.193
			c0.767-0.794,2.034-0.816,2.828-0.049c0.794,0.767,0.816,2.034,0.049,2.828c-0.016,0.017-0.032,0.033-0.049,0.049l-9.193,9.193
			C414.777,529.389,414.268,529.6,413.738,529.6z"/>
		<path fill="#013711" d="M422.931,529.6c-0.53,0-1.039-0.211-1.414-0.586l-9.193-9.193c-0.767-0.794-0.745-2.061,0.049-2.828
			c0.775-0.749,2.004-0.749,2.779,0l9.193,9.193c0.781,0.781,0.781,2.047,0,2.828C423.97,529.389,423.461,529.6,422.931,529.6z"/>
		<circle fill="#FFFFFF" cx="418.218" cy="610.379" r="4.625"/>
		<path fill="#013711" d="M418.218,615c-3.659,0-6.625-2.966-6.625-6.625s2.966-6.625,6.625-6.625s6.625,2.966,6.625,6.625l0,0
			C424.839,612.032,421.875,614.996,418.218,615z M418.218,605.75c-1.45,0-2.625,1.175-2.625,2.625s1.175,2.625,2.625,2.625
			s2.625-1.175,2.625-2.625c-0.004-1.447-1.178-2.619-2.625-2.621V605.75z"/>
		<circle fill="#FFFFFF" cx="418.218" cy="626.376" r="4.625"/>
		<path fill="#013711" d="M418.218,633c-3.659,0-6.625-2.966-6.625-6.625s2.966-6.625,6.625-6.625s6.625,2.966,6.625,6.625
			C424.839,630.032,421.875,632.996,418.218,633z M418.218,623.75c-1.45,0-2.625,1.175-2.625,2.625s1.175,2.625,2.625,2.625
			s2.625-1.175,2.625-2.625C420.84,624.927,419.666,623.753,418.218,623.75L418.218,623.75z"/>
		<circle fill="#FFFFFF" cx="418.218" cy="646.713" r="4.625"/>
		<path fill="#013711" d="M418.218,653.338c-3.659,0-6.625-2.966-6.625-6.625s2.966-6.625,6.625-6.625s6.625,2.966,6.625,6.625
			C424.839,650.37,421.875,653.334,418.218,653.338z M418.218,644.088c-1.45,0-2.625,1.175-2.625,2.625s1.175,2.625,2.625,2.625
			s2.625-1.175,2.625-2.625l0,0C420.841,645.264,419.667,644.09,418.218,644.088z"/>
		<path fill="#FFFFFF" d="M418.218,574.873L418.218,574.873c1.864,0,3.375,1.511,3.375,3.375v29.381
			c0,1.864-1.511,3.375-3.375,3.375l0,0c-1.864,0-3.375-1.511-3.375-3.375v-29.381C414.843,576.384,416.354,574.873,418.218,574.873
			z"/>
		<path fill="#013711" d="M418.218,613c-2.967-0.003-5.372-2.408-5.375-5.375v-29.378c0-2.969,2.406-5.375,5.375-5.375
			s5.375,2.406,5.375,5.375v29.382C423.587,610.595,421.184,612.997,418.218,613z M418.218,576.869
			c-0.759,0.001-1.374,0.615-1.375,1.374v29.382c0,0.759,0.616,1.375,1.375,1.375s1.375-0.616,1.375-1.375v-29.378
			c-0.001-0.759-0.616-1.373-1.375-1.374V576.869z"/>
		<g opacity="0.41">
			<path fill="#013711" d="M615.372,569.607h-47.058c-1.84-0.002-3.53-1.014-4.4-2.635l-14.576-27.158
				c-9.81-18.064-5.988-39.266,9.746-53.992l20.983-19.622c6.726-5.962,16.85-5.944,23.554,0.043l20.993,19.731
				c15.695,14.689,19.516,35.831,9.727,53.854l-14.563,27.145C618.906,568.595,617.214,569.607,615.372,569.607z M571.306,559.607
				h41.075l13.16-24.531c7.561-13.92,4.507-30.322-7.768-41.81l-20.993-19.731c-2.873-2.341-6.992-2.355-9.881-0.034l-20.988,19.624
				c-12.306,11.516-15.359,27.979-7.779,41.939L571.306,559.607z"/>
		</g>
		<path fill="#049448" d="M570.431,556.608h42.824L626.52,530.7c7.873-15.194,4.755-33.131-7.97-45.613l-19.1-18.813
			c-4.288-3.975-10.909-3.992-15.217-0.039l-19.1,18.715c-12.725,12.482-15.842,30.566-7.969,45.76L570.431,556.608z"/>
		<path fill="#013711" d="M615.372,561.607h-47.058c-1.84-0.002-3.53-1.014-4.4-2.635l-14.576-27.158
			c-9.81-18.064-5.988-39.266,9.746-53.992l20.983-19.622c6.726-5.962,16.85-5.944,23.554,0.043l20.993,19.731
			c15.695,14.688,19.516,35.83,9.727,53.854l-14.563,27.145C618.906,560.595,617.214,561.607,615.372,561.607z M571.306,551.607
			h41.075l13.16-24.531c7.561-13.921,4.507-30.323-7.768-41.81l-20.993-19.731c-2.873-2.341-6.992-2.355-9.881-0.034l-20.988,19.624
			c-12.306,11.516-15.359,27.979-7.779,41.939L571.306,551.607z"/>
		<path fill="#013711" d="M575.8,548.107h-1.5c-0.552,0-1.06-0.304-1.321-0.791L572.267,546c-0.369-0.742-0.066-1.642,0.676-2.011
			c0.709-0.352,1.57-0.093,1.966,0.593l0.285,0.53h0.6c0.828,0,1.5,0.672,1.5,1.5s-0.672,1.5-1.5,1.5L575.8,548.107z"/>
		<path fill="#013711" d="M570.29,540.641c-0.553,0-1.062-0.304-1.323-0.791l-1.412-2.634c-0.391-0.73-0.116-1.639,0.615-2.031
			s1.639-0.116,2.031,0.615l1.413,2.634c0.392,0.73,0.117,1.639-0.613,2.031c-0.217,0.117-0.46,0.178-0.707,0.178L570.29,540.641z
			 M613.409,540.61c-0.828-0.001-1.499-0.673-1.498-1.502c0-0.247,0.061-0.49,0.178-0.707l1.412-2.633
			c0.392-0.73,1.301-1.005,2.031-0.613s1.005,1.301,0.613,2.031l0,0l-1.414,2.633C614.47,540.306,613.962,540.61,613.409,540.61z
			 M565.578,531.861c-0.553,0-1.061-0.304-1.322-0.791l-1.413-2.632c-0.414-0.717-0.169-1.635,0.548-2.049s1.635-0.169,2.049,0.548
			c0.016,0.027,0.031,0.055,0.045,0.083l1.413,2.632c0.392,0.73,0.117,1.639-0.613,2.031
			C566.068,531.799,565.825,531.861,565.578,531.861L565.578,531.861z M618.12,531.831c-0.828,0-1.5-0.672-1.499-1.501
			c0-0.247,0.061-0.49,0.178-0.708l1.413-2.635c0.392-0.73,1.301-1.005,2.031-0.613s1.005,1.301,0.613,2.031l0,0l-1.413,2.635
			C619.182,531.527,618.673,531.831,618.12,531.831L618.12,531.831z M561.04,523c-0.615,0-1.167-0.375-1.394-0.947
			c-0.386-0.974-0.722-1.968-1.006-2.977c-0.253-0.789,0.181-1.633,0.97-1.886c0.789-0.253,1.633,0.181,1.886,0.97
			c0.011,0.034,0.021,0.069,0.029,0.104c0.257,0.909,0.561,1.805,0.909,2.683c0.305,0.77-0.071,1.642-0.841,1.947
			C561.417,522.964,561.23,523,561.04,523z M622.667,522.973c-0.191,0-0.381-0.036-0.558-0.108c-0.769-0.308-1.143-1.181-0.835-1.95
			c0.352-0.877,0.659-1.772,0.92-2.681c0.228-0.797,1.059-1.257,1.856-1.029s1.257,1.059,1.029,1.856l0,0
			c-0.289,1.006-0.629,1.997-1.019,2.969c-0.228,0.569-0.78,0.941-1.393,0.941V522.973z M559.055,513.289
			c-0.815,0-1.481-0.65-1.5-1.465c0-0.218-0.007-0.435-0.007-0.653c0-0.825,0.036-1.665,0.107-2.494
			c0.075-0.825,0.805-1.433,1.63-1.358c0.819,0.075,1.425,0.794,1.359,1.614c-0.064,0.745-0.1,1.5-0.1,2.238
			c0,0.194,0,0.389,0.007,0.583c0.02,0.828-0.636,1.515-1.464,1.535c0,0-0.001,0-0.001,0H559.055z M624.697,513.273h-0.034
			c-0.828-0.018-1.485-0.704-1.467-1.532c0,0,0,0,0-0.001c0-0.21,0.008-0.418,0.008-0.627c0-0.734-0.032-1.472-0.095-2.2
			c-0.072-0.825,0.539-1.553,1.365-1.625s1.553,0.539,1.625,1.365l0,0c0.07,0.809,0.106,1.636,0.106,2.456
			c0,0.231-0.003,0.462-0.008,0.694c-0.017,0.814-0.682,1.466-1.496,1.468L624.697,513.273z M560.592,503.5
			c-0.828,0-1.5-0.672-1.5-1.5c0-0.165,0.027-0.329,0.081-0.486c0.339-0.989,0.727-1.961,1.163-2.912
			c0.33-0.76,1.213-1.108,1.973-0.778s1.108,1.213,0.778,1.973c-0.008,0.018-0.016,0.036-0.025,0.054
			c-0.394,0.86-0.746,1.74-1.052,2.635C561.803,503.093,561.233,503.5,560.592,503.5z M623.129,503.49c-0.636,0-1.203-0.4-1.415-1
			c-0.315-0.892-0.675-1.767-1.078-2.622c-0.353-0.75-0.032-1.644,0.718-1.997s1.644-0.032,1.997,0.718
			c0.447,0.952,0.849,1.929,1.193,2.9c0.276,0.781-0.133,1.638-0.914,1.914c-0.161,0.057-0.33,0.086-0.501,0.086L623.129,503.49z
			 M618.351,494.797c-0.466,0-0.906-0.216-1.19-0.585c-0.569-0.739-1.188-1.476-1.841-2.189c-0.539-0.63-0.465-1.576,0.165-2.115
			c0.6-0.514,1.496-0.473,2.048,0.092c0.71,0.776,1.385,1.578,2,2.384c0.505,0.656,0.383,1.598-0.274,2.104
			c-0.262,0.202-0.583,0.311-0.913,0.311L618.351,494.797z M565.279,494.758c-0.828,0-1.5-0.672-1.5-1.5c0-0.325,0.105-0.64,0.3-0.9
			c0.623-0.823,1.292-1.631,1.988-2.4c0.559-0.611,1.508-0.654,2.119-0.095c0.606,0.554,0.654,1.492,0.108,2.105
			c-0.639,0.708-1.252,1.448-1.822,2.2c-0.284,0.371-0.725,0.589-1.193,0.588L565.279,494.758z M611.42,487.658
			c-0.382,0.001-0.749-0.145-1.027-0.407l-2.178-2.047c-0.604-0.567-0.633-1.517-0.065-2.12c0.567-0.604,1.517-0.633,2.12-0.066l0,0
			l2.177,2.047c0.604,0.567,0.633,1.517,0.066,2.12C612.229,487.487,611.834,487.658,611.42,487.658L611.42,487.658z
			 M572.189,487.601c-0.828,0.002-1.502-0.667-1.504-1.496c-0.001-0.419,0.173-0.819,0.48-1.104l2.184-2.041
			c0.591-0.58,1.541-0.571,2.121,0.02c0.58,0.591,0.571,1.541-0.02,2.121c-0.017,0.017-0.035,0.034-0.053,0.05l-2.183,2.042
			C572.936,487.454,572.57,487.599,572.189,487.601L572.189,487.601z M604.159,480.835c-0.382,0-0.749-0.146-1.027-0.408
			l-2.178-2.047c-0.613-0.557-0.659-1.505-0.102-2.119c0.557-0.613,1.505-0.659,2.119-0.102c0.013,0.012,0.026,0.024,0.038,0.036
			l2.178,2.047c0.604,0.567,0.633,1.517,0.066,2.12C604.969,480.664,604.573,480.835,604.159,480.835z M579.468,480.796
			c-0.828,0-1.5-0.672-1.5-1.5c0-0.415,0.172-0.811,0.475-1.095l2.183-2.042c0.605-0.566,1.555-0.534,2.12,0.071
			c0.566,0.605,0.534,1.555-0.071,2.121l-2.183,2.041c-0.278,0.26-0.644,0.403-1.024,0.402L579.468,480.796z M596.899,474.011
			c-0.382,0.001-0.749-0.145-1.027-0.407l-2.178-2.047c-0.613-0.557-0.659-1.505-0.102-2.119c0.557-0.613,1.505-0.659,2.119-0.102
			c0.013,0.012,0.026,0.024,0.038,0.036l2.178,2.047c0.603,0.568,0.632,1.517,0.064,2.12
			C597.707,473.84,597.312,474.011,596.899,474.011z M586.745,473.992c-0.828,0.002-1.502-0.667-1.504-1.496
			c-0.001-0.419,0.173-0.819,0.48-1.104l2.183-2.041c0.599-0.572,1.548-0.551,2.121,0.048c0.572,0.599,0.551,1.548-0.048,2.121
			c-0.008,0.007-0.016,0.015-0.023,0.022l-2.183,2.041c-0.278,0.261-0.644,0.406-1.025,0.407L586.745,473.992z"/>
		<path fill="#013711" d="M609.389,548.107h-1.5c-0.828,0-1.5-0.672-1.5-1.5s0.672-1.5,1.5-1.5h0.6l0.284-0.531
			c0.392-0.73,1.301-1.005,2.031-0.613c0.73,0.392,1.005,1.301,0.614,2.031l-0.709,1.322
			C610.448,547.802,609.941,548.106,609.389,548.107z"/>
		<path fill="#013711" d="M601.817,548.107h-2.6c-0.828,0-1.5-0.672-1.5-1.5s0.672-1.5,1.5-1.5h2.6c0.828,0,1.5,0.672,1.5,1.5
			S602.645,548.107,601.817,548.107z M593.144,548.107h-2.6c-0.828,0-1.5-0.672-1.5-1.5s0.672-1.5,1.5-1.5h2.6
			c0.828,0,1.5,0.672,1.5,1.5S593.972,548.107,593.144,548.107z M584.471,548.107h-2.6c-0.828,0-1.5-0.672-1.5-1.5
			s0.672-1.5,1.5-1.5h2.6c0.828,0,1.5,0.672,1.5,1.5S585.299,548.107,584.471,548.107z"/>
		<g opacity="0.41">
			<path fill="#013711" d="M591.508,693.482c-10.443-0.012-18.906-8.475-18.918-18.918V513.351c0-2.761,2.239-5,5-5h27.836
				c2.761,0,5,2.239,5,5v161.213C610.414,685.007,601.951,693.47,591.508,693.482z M582.59,518.351v156.213
				c0.003,4.925,3.997,8.916,8.922,8.914c4.922-0.003,8.911-3.992,8.914-8.914V518.351H582.59z"/>
		</g>
		<path fill="#F9941C" d="M577.59,507.351h27.836l0,0v161.214c0,7.687-6.231,13.918-13.918,13.918h0l0,0
			c-7.687,0-13.918-6.231-13.918-13.918v0L577.59,507.351L577.59,507.351L577.59,507.351z"/>
		<path opacity="0.37" fill="#F9941C" enable-background="new    " d="M591.508,672.878c-7.686,0.001-13.917-6.23-13.918-13.916
			c0,0,0-0.001,0-0.001v10.6c0.064,7.686,6.348,13.865,14.034,13.801c7.595-0.064,13.737-6.205,13.801-13.801v-10.6
			C605.425,666.647,599.194,672.878,591.508,672.878z"/>
		<rect x="577.474" y="590.471" opacity="0.37" fill="#F9941C" enable-background="new    " width="27.836" height="22.533"/>
		<path fill="#013711" d="M591.508,686.482c-9.891-0.011-17.907-8.027-17.918-17.918V507.351c0-2.209,1.791-4,4-4h27.836
			c2.209,0,4,1.791,4,4v161.213C609.415,678.455,601.399,686.471,591.508,686.482z M581.59,511.351v157.213
			c0.003,5.478,4.445,9.916,9.922,9.914c5.474-0.003,9.911-4.439,9.914-9.914V511.351H581.59z"/>
		<path fill="#FFFFFF" d="M577.59,610.961v-20.49h27.835v20.49h11.6v-26.474c0-3.101-2.513-5.614-5.614-5.614c0,0-0.001,0-0.001,0
			h-39.8c-3.1-0.001-5.613,2.512-5.614,5.612c0,0.001,0,0.001,0,0.002v26.474H577.59z"/>
		<path fill="#013711" d="M617.023,614.961h-11.6c-2.209,0-4-1.791-4-4v-16.49H581.59v16.49c0,2.209-1.791,4-4,4h-11.6
			c-2.209,0-4-1.791-4-4v-22.84c0.009-7.313,5.935-13.239,13.248-13.248h32.535c7.313,0.008,13.24,5.935,13.248,13.248v22.84
			C621.021,613.169,619.231,614.96,617.023,614.961z M609.423,606.961h3.6v-18.84c-0.003-2.897-2.351-5.245-5.248-5.248H575.24
			c-2.897,0.004-5.244,2.351-5.248,5.248v18.84h3.6v-16.49c0-2.209,1.791-4,4-4h27.836c2.209,0,4,1.791,4,4L609.423,606.961z"/>
		<path fill="#013711" d="M586.911,529.6c-1.105,0-2-0.896-2-2c0-0.53,0.211-1.039,0.586-1.414l9.192-9.193
			c0.781-0.781,2.047-0.781,2.828,0s0.781,2.047,0,2.828l-9.193,9.193C587.95,529.389,587.441,529.6,586.911,529.6z"/>
		<path fill="#013711" d="M596.1,529.6c-0.531,0-1.04-0.211-1.415-0.586l-9.192-9.193c-0.767-0.794-0.745-2.061,0.049-2.828
			c0.775-0.749,2.004-0.749,2.779,0l9.193,9.193c0.781,0.781,0.781,2.047,0,2.828C597.139,529.389,596.63,529.6,596.1,529.6z"/>
		<circle fill="#FFFFFF" cx="591.392" cy="610.379" r="4.625"/>
		<path fill="#013711" d="M591.392,615c-3.659,0-6.625-2.966-6.625-6.625s2.966-6.625,6.625-6.625s6.625,2.966,6.625,6.625l0,0
			C598.013,612.032,595.049,614.996,591.392,615z M591.392,605.75c-1.45,0-2.625,1.175-2.625,2.625s1.175,2.625,2.625,2.625
			s2.625-1.175,2.625-2.625c-0.004-1.448-1.177-2.619-2.625-2.621V605.75z"/>
		<circle fill="#FFFFFF" cx="591.392" cy="626.376" r="4.625"/>
		<path fill="#013711" d="M591.392,633c-3.659,0-6.625-2.966-6.625-6.625s2.966-6.625,6.625-6.625s6.625,2.966,6.625,6.625
			C598.013,630.032,595.049,632.996,591.392,633z M591.392,623.75c-1.45,0-2.625,1.175-2.625,2.625s1.175,2.625,2.625,2.625
			s2.625-1.175,2.625-2.625C594.015,624.926,592.841,623.753,591.392,623.75L591.392,623.75z"/>
		<circle fill="#FFFFFF" cx="591.392" cy="646.713" r="4.625"/>
		<path fill="#013711" d="M591.392,653.338c-3.659,0-6.625-2.966-6.625-6.625s2.966-6.625,6.625-6.625s6.625,2.966,6.625,6.625
			C598.013,650.37,595.049,653.334,591.392,653.338z M591.392,644.088c-1.45,0-2.625,1.175-2.625,2.625s1.175,2.625,2.625,2.625
			s2.625-1.175,2.625-2.625l0,0C594.015,645.264,592.841,644.09,591.392,644.088z"/>
		<path fill="#FFFFFF" d="M591.392,574.873L591.392,574.873c1.864,0,3.375,1.511,3.375,3.375v29.381
			c0,1.864-1.511,3.375-3.375,3.375l0,0c-1.864,0-3.375-1.511-3.375-3.375v-29.381C588.017,576.384,589.528,574.873,591.392,574.873
			z"/>
		<path fill="#013711" d="M591.392,613c-2.967-0.003-5.372-2.408-5.375-5.375v-29.378c0-2.969,2.406-5.375,5.375-5.375
			s5.375,2.406,5.375,5.375v29.382C596.761,610.595,594.358,612.997,591.392,613z M591.392,576.869
			c-0.759,0.001-1.374,0.615-1.375,1.374v29.382c0,0.759,0.616,1.375,1.375,1.375s1.375-0.616,1.375-1.375v-29.378
			c-0.002-0.759-0.616-1.373-1.375-1.374V576.869z"/>
		<path fill="#FFFFFF" d="M579.844,417.155L579.844,417.155c3.049,3.823,8.62,4.451,12.443,1.402
			c0.518-0.413,0.989-0.884,1.402-1.402l0,0c2.093-2.625,2.521-6.208,1.106-9.253l-8.028-17.263l-8.028,17.261
			C577.322,410.945,577.75,414.529,579.844,417.155z"/>
		<path fill="#013711" d="M586.767,423.489L586.767,423.489c-6.546-0.001-11.852-5.308-11.852-11.854
			c0-1.727,0.378-3.432,1.106-4.998l8.026-17.263c0.699-1.502,2.483-2.153,3.986-1.454c0.641,0.298,1.156,0.813,1.454,1.454
			l8.029,17.263c2.76,5.936,0.186,12.987-5.751,15.747c-1.565,0.728-3.271,1.105-4.997,1.105H586.767z M586.767,397.754
			l-5.307,11.413c-0.945,2.011-0.661,4.385,0.73,6.117l0,0c1.109,1.395,2.795,2.205,4.577,2.2l0,0c3.233,0,5.854-2.621,5.854-5.854
			c0-0.852-0.186-1.695-0.546-2.468L586.767,397.754z"/>
		<path fill="#013711" d="M581.746,400.5h-5v-9h5V400.5z M572.746,400.5h-5v-9h5V400.5z M563.746,400.5h-5v-9h5V400.5z
			 M554.746,400.5h-5v-9h5V400.5z M545.746,400.5h-5v-9h5V400.5z M536.746,400.5h-5v-9h5V400.5z M527.746,400.5h-5v-9h5V400.5z
			 M518.746,400.5h-5v-9h5V400.5z M509.746,400.5h-5v-9h5V400.5z M500.746,400.5h-5v-9h5V400.5z M491.746,400.5h-5v-9h5V400.5z
			 M482.746,400.5h-5v-9h5V400.5z M473.746,400.5h-5v-9h5V400.5z M464.746,400.5h-5v-9h5V400.5z M455.746,400.5h-5v-9h5V400.5z
			 M446.746,400.5h-5v-9h5V400.5z M437.746,400.5h-5v-9h5V400.5z M428.746,400.5h-5v-9h5V400.5z"/>
		<ellipse fill="#FCCA86" cx="505.256" cy="646.213" rx="32.744" ry="20.121"/>
		<path opacity="0.6" fill="#FCCA86" enable-background="new    " d="M505.256,631.759c16.518,0,30.173,7.517,32.414,17.287
			c0.217-0.929,0.328-1.879,0.33-2.833c0-11.112-14.66-20.121-32.744-20.121s-32.743,9.009-32.743,20.121
			c0.003,0.954,0.113,1.904,0.33,2.833C475.084,639.276,488.739,631.759,505.256,631.759z"/>
		<path opacity="0.77" fill="#FCCA86" enable-background="new    " d="M505.256,657.333c-14.495,0-26.986-4.77-32.721-11.647
			c-0.008,0.176-0.022,0.35-0.022,0.527c0,11.112,14.66,20.12,32.743,20.12c18.083,0,32.744-9.008,32.744-20.12
			c0-0.177-0.014-0.351-0.022-0.527C532.243,652.563,519.752,657.333,505.256,657.333z"/>
		<path fill="#013711" d="M505.257,669.333c-20.043,0-35.744-10.155-35.744-23.12s15.7-23.12,35.744-23.12S541,633.248,541,646.213
			S525.3,669.333,505.257,669.333z M505.257,629.093c-16.123,0-29.744,7.84-29.744,17.12s13.621,17.12,29.744,17.12
			c16.123,0,29.743-7.84,29.743-17.12S521.379,629.093,505.257,629.093z"/>
		<path fill="#013711" d="M505.257,669.333c-20.043,0-35.744-10.155-35.744-23.12s15.7-23.12,35.744-23.12S541,633.248,541,646.213
			S525.3,669.333,505.257,669.333z M505.257,629.093c-16.123,0-29.744,7.84-29.744,17.12s13.621,17.12,29.744,17.12
			c16.123,0,29.743-7.84,29.743-17.12S521.379,629.093,505.257,629.093z"/>
		<path fill="#013711" d="M519.042,656.481c-0.828-0.006-1.495-0.683-1.489-1.511c0.005-0.617,0.386-1.167,0.962-1.389
			c5.836-2.191,8.985-5.43,8.985-7.364c-0.158-1.076-0.685-2.064-1.492-2.793c-0.573-0.599-0.552-1.548,0.047-2.121
			s1.548-0.552,2.121,0.047c0.008,0.008,0.016,0.016,0.023,0.025c1.349,1.267,2.17,2.996,2.3,4.842
			c0,3.686-4.291,7.68-10.931,10.173C519.4,656.452,519.221,656.482,519.042,656.481z"/>
		<path fill="#013711" d="M522.479,640.493c-0.247,0-0.491-0.061-0.708-0.179c-5.126-2.55-10.79-3.826-16.514-3.721
			c-0.828,0-1.5-0.672-1.5-1.5s0.672-1.5,1.5-1.5l0,0c6.219-0.104,12.37,1.295,17.932,4.079c0.73,0.392,1.003,1.302,0.61,2.032
			C523.538,640.19,523.031,640.493,522.479,640.493L522.479,640.493z"/>
		<g opacity="0.17">
			
				<circle fill="none" stroke="#1B3242" stroke-width="10" stroke-linecap="round" stroke-linejoin="round" cx="303.695" cy="244.922" r="63.745"/>
			
				<line fill="none" stroke="#1B3242" stroke-width="6" stroke-linecap="round" stroke-linejoin="round" x1="303.695" y1="187.684" x2="303.695" y2="193.91"/>
			
				<line fill="none" stroke="#1B3242" stroke-width="6" stroke-linecap="round" stroke-linejoin="round" x1="303.695" y1="295.934" x2="303.695" y2="302.16"/>
			
				<line fill="none" stroke="#1B3242" stroke-width="6" stroke-linecap="round" stroke-linejoin="round" x1="360.933" y1="244.922" x2="354.707" y2="244.922"/>
			
				<line fill="none" stroke="#1B3242" stroke-width="6" stroke-linecap="round" stroke-linejoin="round" x1="252.683" y1="244.922" x2="246.457" y2="244.922"/>
			<circle fill="#1B3242" cx="303.695" cy="244.922" r="5.148"/>
			
				<line fill="none" stroke="#1B3242" stroke-width="4" stroke-linecap="round" stroke-linejoin="round" x1="303.695" y1="244.922" x2="331.184" y2="210.903"/>
			
				<line fill="none" stroke="#1B3242" stroke-width="6" stroke-linecap="round" stroke-linejoin="round" x1="286.351" y1="227.912" x2="303.695" y2="244.922"/>
		</g>
	</g>
</g>
</svg>