<?xml version="1.0" encoding="iso-8859-1"?>
<!-- Generator: Adobe Illustrator 19.0.0, SVG Export Plug-In . SVG Version: 6.00 Build 0)  -->
<svg version="1.1" id="Layer_1" xmlns="http://www.w3.org/2000/svg" xmlns:xlink="http://www.w3.org/1999/xlink" x="0px" y="0px"
	 viewBox="0 0 512 512" style="enable-background:new 0 0 512 512;" xml:space="preserve">
<path style="fill:#E2E5E7;" d="M256,0C141.312,0,48,93.312,48,208c0,52.496,26.152,106.832,72,150.088V464c0,26.472,21.528,48,48,48
	h176c26.472,0,48-21.528,48-48V359.024c45.84-43.272,72-97.952,72-151.024C464,93.312,370.688,0,256,0z"/>
<path style="fill:#D6D9DB;" d="M344,512c26.472,0,48-21.528,48-48V359.024c45.84-43.272,72-97.952,72-151.024
	c0-61.744-27.072-117.256-69.936-155.392C413.056,83.984,424,136.736,424,176c0,53.072-34.16,116.728-80,160v80V512z"/>
<g>
	<circle style="fill:#35495C;" cx="184" cy="208" r="40"/>
	<circle style="fill:#35495C;" cx="328" cy="208" r="40"/>
</g>
<g>
	<path style="fill:#123247;" d="M184,184c19.336,0,35.488,13.752,39.192,32c0.528-2.584,0.808-5.256,0.808-8c0-22.08-17.92-40-40-40
		s-40,17.92-40,40c0,2.744,0.28,5.416,0.808,8C148.512,197.752,164.664,184,184,184z"/>
	<path style="fill:#123247;" d="M328,184c19.352,0,35.488,13.744,39.192,32c0.528-2.584,0.808-5.256,0.808-8
		c0-22.096-17.904-40-40-40c-22.104,0-40,17.904-40,40c0,2.744,0.28,5.416,0.808,8C292.512,197.744,308.64,184,328,184z"/>
</g>
<path style="fill:#35495C;" d="M272.16,312c-0.048,0-0.104,0-0.16,0h-32c-5.544,0-10.696-2.872-13.608-7.592
	c-2.92-4.712-3.176-10.6-0.704-15.56l16-32C244.4,251.424,249.944,248,256,248s11.6,3.424,14.312,8.84l15.072,30.144
	c1.76,2.568,2.776,5.672,2.776,9.016C288.16,304.832,281,312,272.16,312z"/>
<path style="fill:#123247;" d="M241.688,272.84C244.4,267.424,249.944,264,256,264s11.6,3.424,14.312,8.84l15.072,30.144
	c0.224,0.328,0.32,0.736,0.52,1.08c1.4-2.376,2.248-5.112,2.248-8.064c0-3.344-1.016-6.448-2.776-9.016l-15.072-30.144
	C267.6,251.424,262.056,248,256,248s-11.6,3.424-14.312,8.84l-16,32c-2.392,4.792-2.168,10.432,0.472,15.056L241.688,272.84z"/>
<g>
	<rect x="120" y="400" style="fill:#35495C;" width="272" height="16"/>
	<path style="fill:#35495C;" d="M216,432c-4.416,0-8-3.576-8-8v-32c0-4.424,3.584-8,8-8s8,3.576,8,8v32
		C224,428.424,220.416,432,216,432z"/>
	<path style="fill:#35495C;" d="M336,432c-4.424,0-8-3.576-8-8v-32c0-4.424,3.576-8,8-8s8,3.576,8,8v32
		C344,428.424,340.424,432,336,432z"/>
	<path style="fill:#35495C;" d="M256,432c-4.416,0-8-3.576-8-8v-32c0-4.424,3.584-8,8-8c4.416,0,8,3.576,8,8v32
		C264,428.424,260.416,432,256,432z"/>
	<path style="fill:#35495C;" d="M296,432c-4.424,0-8-3.576-8-8v-32c0-4.424,3.576-8,8-8s8,3.576,8,8v32
		C304,428.424,300.424,432,296,432z"/>
	<path style="fill:#35495C;" d="M176,432c-4.416,0-8-3.576-8-8v-32c0-4.424,3.584-8,8-8s8,3.576,8,8v32
		C184,428.424,180.416,432,176,432z"/>
</g>
<path style="fill:#FFFFFF;" d="M96,216c-4.424,0-8-3.576-8-8c0-64.16,35.392-122.064,92.368-151.128
	c3.936-2.024,8.752-0.44,10.76,3.488c2.008,3.936,0.448,8.76-3.496,10.768C136.048,97.44,104,149.888,104,208
	C104,212.424,100.424,216,96,216z"/>
<g>
</g>
<g>
</g>
<g>
</g>
<g>
</g>
<g>
</g>
<g>
</g>
<g>
</g>
<g>
</g>
<g>
</g>
<g>
</g>
<g>
</g>
<g>
</g>
<g>
</g>
<g>
</g>
<g>
</g>
</svg>
