<?xml version="1.0" encoding="iso-8859-1"?>
<!-- Generator: Adobe Illustrator 19.0.0, SVG Export Plug-In . SVG Version: 6.00 Build 0)  -->
<svg version="1.1" id="Layer_1" xmlns="http://www.w3.org/2000/svg" xmlns:xlink="http://www.w3.org/1999/xlink" x="0px" y="0px"
	 viewBox="0 0 512 512" style="enable-background:new 0 0 512 512;" xml:space="preserve">
<path style="fill:#7C4B22;" d="M256,296c-8.832,0-16-7.168-16-16V16c0-8.832,7.168-16,16-16s16,7.168,16,16v264
	C272,288.832,264.832,296,256,296z"/>
<path style="fill:#673D17;" d="M256.008,0v296c8.824,0,15.992-7.168,15.992-16V16C272,7.168,264.832,0,256.008,0z"/>
<path style="fill:#FEC461;" d="M357.568,487.512l-71.992-152.248l17.6-34.2c1.624-4.88,0.816-10.248-2.192-14.424
	S293.152,280,288,280h-64c-5.144,0-9.976,2.472-12.984,6.64c-3.008,4.168-3.816,9.536-2.192,14.424l17.536,34L153.408,489.44
	c-2.224,4.952-1.792,10.688,1.152,15.248c2.952,4.56,8,7.312,13.432,7.312h175.856c0.056,0,0.104,0,0.16,0
	c8.832,0,15.992-7.168,15.992-16C360,492.88,359.112,489.968,357.568,487.512z"/>
<path style="fill:#F7B84E;" d="M344.008,512c8.832,0,15.992-7.168,15.992-16c0-3.12-0.888-6.032-2.432-8.488l-71.992-152.248
	l17.6-34.2c1.624-4.88,0.816-10.248-2.192-14.424S293.152,280,288,280h-32v48l32,184h55.848C343.904,512,343.952,512,344.008,512z"
	/>
<polygon style="fill:#F15642;" points="289.504,344 288,328 224,328 222.336,344 "/>
<polygon style="fill:#E9AE4A;" points="248,432 240,512 256,512 "/>
<polygon style="fill:#D89C45;" points="288,400 328,512 312,512 "/>
<polygon style="fill:#E9AE4A;" points="216,456 192,512 208,512 "/>
<g>
</g>
<g>
</g>
<g>
</g>
<g>
</g>
<g>
</g>
<g>
</g>
<g>
</g>
<g>
</g>
<g>
</g>
<g>
</g>
<g>
</g>
<g>
</g>
<g>
</g>
<g>
</g>
<g>
</g>
</svg>
