<?xml version="1.0" encoding="iso-8859-1"?>
<!-- Generator: Adobe Illustrator 19.0.0, SVG Export Plug-In . SVG Version: 6.00 Build 0)  -->
<svg version="1.1" id="Layer_1" xmlns="http://www.w3.org/2000/svg" xmlns:xlink="http://www.w3.org/1999/xlink" x="0px" y="0px"
	 viewBox="0 0 512 512" style="enable-background:new 0 0 512 512;" xml:space="preserve">
<path style="fill:#C56C4D;" d="M264,408.784h-32c-8.8,0-16,7.192-16,16V496c0,8.8,7.2,16,16,16h32V408.784z"/>
<path style="fill:#B36345;" d="M280,408.784h-24V512h24c8.8,0,16-7.2,16-16v-71.216C296,415.976,288.8,408.784,280,408.784z"/>
<path style="fill:#84BD5A;" d="M437.376,400L376,296h8c0.056,0.008,0.12,0,0.16,0c8.84,0,16-7.168,16-16
	c0-4.032-1.488-7.704-3.936-10.512L320,160h16c0.056,0,0.12,0,0.16,0c8.84,0,16-7.168,16-16c0-3.856-1.368-7.408-3.648-10.168
	L269.568,7.512C266.64,2.84,261.512,0,256,0s-10.64,2.84-13.568,7.512l-80,128c-3.08,4.936-3.24,11.16-0.424,16.24
	S170.176,160,176,160h16l-77.312,111.128c-3.272,4.904-3.576,11.216-0.8,16.424c2.792,5.2,8.216,8.448,14.112,8.448h8L74.624,400
	c-3.224,4.912-3.504,11.2-0.704,16.376C76.712,421.544,82.12,424,88,424h336c5.88,0,11.288-2.456,14.08-7.624
	C440.872,411.2,440.6,404.912,437.376,400z"/>
<path style="fill:#73AE44;" d="M256,0c5.512,0,10.64,2.84,13.568,7.512l80,128c3.08,4.936,3.24,11.16,0.424,16.24
	S341.824,160,336,160h-16l77.312,111.128c3.272,4.904,3.576,11.216,0.8,16.424C395.32,292.752,389.896,296,384,296h-8l61.376,104
	c3.224,4.912,3.504,11.2,0.704,16.376c-2.792,5.168-8.2,7.624-14.08,7.624h-88l-24-112v-16l-32-120v-16L256,0z"/>
<path style="fill:#90C660;" d="M256,0c-5.512,0-10.64,2.84-13.568,7.512l-80,128c-3.08,4.936-3.24,11.16-0.424,16.24
	S170.176,160,176,160h16l-77.312,111.128c-3.272,4.904-3.576,11.216-0.8,16.424c2.792,5.2,8.216,8.448,14.112,8.448h8L74.624,400
	c-3.224,4.912-3.504,11.2-0.704,16.376C76.712,421.544,82.12,424,88,424h88l24-112v-16l32-120v-16L256,0z"/>
<g>
	<polygon style="fill:#6FA14E;" points="280,176 331.136,176 320,160 280,160 	"/>
	<polygon style="fill:#6FA14E;" points="312,312 386.312,312 376,296 312,296 	"/>
</g>
<g>
	<polygon style="fill:#73AE44;" points="280,176 180.864,176 192,160 280,160 	"/>
	<polygon style="fill:#73AE44;" points="312,312 125.688,312 136,296 312,296 	"/>
</g>
<rect x="216" y="424" style="fill:#B86548;" width="40" height="16"/>
<rect x="256" y="424" style="fill:#A2593E;" width="40" height="16"/>
<g>
	<polygon style="fill:#84BD5A;" points="232,176 180.864,176 192,160 232,160 	"/>
	<polygon style="fill:#84BD5A;" points="200,312 125.688,312 136,296 200,296 	"/>
</g>
<g>
</g>
<g>
</g>
<g>
</g>
<g>
</g>
<g>
</g>
<g>
</g>
<g>
</g>
<g>
</g>
<g>
</g>
<g>
</g>
<g>
</g>
<g>
</g>
<g>
</g>
<g>
</g>
<g>
</g>
</svg>
