<?xml version="1.0" encoding="iso-8859-1"?>
<!-- Generator: Adobe Illustrator 19.0.0, SVG Export Plug-In . SVG Version: 6.00 Build 0)  -->
<svg version="1.1" id="Layer_1" xmlns="http://www.w3.org/2000/svg" xmlns:xlink="http://www.w3.org/1999/xlink" x="0px" y="0px"
	 viewBox="0 0 512 512" style="enable-background:new 0 0 512 512;" xml:space="preserve">
<path style="fill:#673D17;" d="M495.996,16c0-8.832-7.168-16-16-16c-8.832,0-16,7.168-16,16v111.832c0,0.056-0.016,0.104-0.016,0.16
	c0,8.824-7.176,16-16,16c-0.024,0-0.056,0.008-0.08,0.008h-15.904V16c0-8.832-7.168-16-16-16c-8.832,0-16,7.168-16,16v128h-32V16
	c0-8.832-7.168-16-16-16c-8.832,0-16,7.168-16,16v128c-35.288,0-64,28.712-64,64c0,8.832,7.168,16,16,16c8.832,0,16-7.168,16-16
	c0-17.64,14.352-32,32-32h112c0.064,0,0.112-0.016,0.168-0.016c26.272-0.104,47.616-21.408,47.8-47.664
	c0-0.112,0.032-0.208,0.032-0.32L495.996,16L495.996,16z"/>
<path style="fill:#C38449;" d="M438.204,301.592l-74.912-79.608c-1.304-1.288-5.16,1.824-6.96,2.072
	c-1.784,0.256-3.376,1.336-4.304,2.936c-13.784,24.24-9.48,55.312,10.496,75.568C373.604,313.8,388.572,320,404.62,320
	c0.008,0,0.008,0,0.008,0c11.264,0,22.488-3.08,32.424-8.888c1.584-0.944,2.68-2.592,2.896-4.456
	C440.188,304.784,439.54,302.904,438.204,301.592z"/>
<path style="fill:#B06437;" d="M404.628,320c9.16,0,18.24-2.136,26.672-6.016L359.996,264c-1.064,17.608-10.568,25.28,2.52,38.56
	C373.604,313.8,388.572,320,404.628,320L404.628,320z"/>
<path style="fill:#CE8B4E;" d="M73.788,301.592l74.912-79.608c1.304-1.288,5.16,1.824,6.96,2.072
	c1.784,0.256,3.376,1.336,4.304,2.936c13.784,24.24,9.48,55.312-10.496,75.568C138.388,313.8,123.42,320,107.372,320
	c-0.008,0-0.008,0-0.008,0c-11.264,0-22.488-3.08-32.424-8.888c-1.584-0.944-2.68-2.592-2.896-4.456
	C71.804,304.784,72.452,302.904,73.788,301.592z"/>
<path style="fill:#B06437;" d="M107.364,320c-9.16,0-18.24-2.136-26.672-6.016L152.004,264c1.064,17.608,10.568,25.28-2.52,38.56
	C138.388,313.8,123.42,320,107.364,320L107.364,320z"/>
<path style="fill:#673D17;" d="M176.004,144V16c0-8.832-7.168-16-16-16s-16,7.168-16,16v128h-32V16c0-8.832-7.168-16-16-16
	s-16,7.168-16,16v128H64.092c-0.024,0-0.056-0.008-0.08-0.008c-8.824,0-16-7.176-16-16c0-0.056-0.016-0.104-0.016-0.16V16
	c0-8.832-7.168-16-16-16S16.004,7.168,16.004,16v112c0,0.112,0.032,0.208,0.032,0.32c0.176,26.256,21.52,47.56,47.8,47.664
	c0.056,0,0.104,0.016,0.168,0.016h112c17.648,0,32,14.36,32,32c0,8.832,7.168,16,16,16s16-7.168,16-16
	C240.004,172.712,211.292,144,176.004,144z"/>
<g>
	<path style="fill:#7C4B22;" d="M351.996,0c-8.832,0-16,7.168-16,16v128h16V0z"/>
	<path style="fill:#7C4B22;" d="M160.004,0c-8.832,0-16,7.168-16,16v128h16V0z"/>
	<path style="fill:#7C4B22;" d="M96.004,0c-8.84,0-16,7.168-16,16v128h16V0z"/>
	<path style="fill:#7C4B22;" d="M415.996,0c-8.832,0-16,7.168-16,16v128h16V0z"/>
	<path style="fill:#7C4B22;" d="M463.996,16v68.44V112v16c0,7.736-5.488,14.184-12.776,15.672
		c16.136-1.64,28.776-15.112,28.776-31.672V0C471.164,0,463.996,7.168,463.996,16z"/>
	<path style="fill:#7C4B22;" d="M32.004,128V0c-8.84,0-16,7.168-16,16v112c0,26.504,21.496,48,48,48c2.736,0,5.392-0.28,8-0.72
		C49.316,171.472,32.004,151.784,32.004,128z"/>
</g>
<path style="fill:#CE8B4E;" d="M136.324,258.176l24.68,206.728C164.092,490.872,189.012,512,216.572,512h78.864
	c27.552,0,52.472-21.128,55.56-47.088l24.68-206.736c1.616-13.496-2.904-26.68-12.384-36.192C354.3,212.96,341.86,208,328.276,208
	h-144.56c-13.584,0-26.024,4.96-35.016,13.984C139.228,231.504,134.7,244.688,136.324,258.176z"/>
<path style="fill:#C38449;" d="M328.276,208h-72.272v304h39.432c27.552,0,52.472-21.128,55.56-47.088l24.68-206.736
	c1.616-13.496-2.904-26.68-12.384-36.192C354.3,212.96,341.86,208,328.276,208z"/>
<g>
	<circle style="fill:#123247;" cx="224.004" cy="288" r="16"/>
	<circle style="fill:#123247;" cx="287.996" cy="288" r="16"/>
</g>
<g>
	<circle style="fill:#E2E5E7;" cx="220.004" cy="284" r="4"/>
	<circle style="fill:#E2E5E7;" cx="283.996" cy="284" r="4"/>
</g>
<rect x="248.004" y="456" style="fill:#B06437;" width="16" height="56"/>
<path style="fill:#EF4130;" d="M310.332,416.896c-2.696-5.44-8.248-8.896-14.336-8.896h-79.992c-6.088,0-11.64,3.456-14.336,8.896
	c-2.704,5.448-2.08,11.96,1.608,16.8c8.768,11.52,31.472,38.304,52.728,38.304c21.248,0,43.952-26.784,52.72-38.304
	C312.412,428.856,313.036,422.344,310.332,416.896z"/>
<path style="fill:#D93B2B;" d="M310.332,416.896c-1.664-3.368-4.488-5.832-7.776-7.328c2.344,5.312,1.704,11.48-1.832,16.128
	c-8.776,11.52-31.48,38.304-52.72,38.304c-11.688,0-23.816-8.112-33.824-17.328C225.228,458.592,240.964,472,256.004,472
	c21.248,0,43.952-26.784,52.72-38.304C312.412,428.856,313.036,422.344,310.332,416.896z"/>
<g>
</g>
<g>
</g>
<g>
</g>
<g>
</g>
<g>
</g>
<g>
</g>
<g>
</g>
<g>
</g>
<g>
</g>
<g>
</g>
<g>
</g>
<g>
</g>
<g>
</g>
<g>
</g>
<g>
</g>
</svg>
