<?xml version="1.0" encoding="iso-8859-1"?>
<!-- Generator: Adobe Illustrator 19.0.0, SVG Export Plug-In . SVG Version: 6.00 Build 0)  -->
<svg version="1.1" id="Layer_1" xmlns="http://www.w3.org/2000/svg" xmlns:xlink="http://www.w3.org/1999/xlink" x="0px" y="0px"
	 viewBox="0 0 512 512" style="enable-background:new 0 0 512 512;" xml:space="preserve">
<path style="fill:#FCD063;" d="M496,471.999c0,8.8-7.2,16-16,16H32c-8.8,0-16-7.2-16-16v-264c0-8.8,7.2-16,16-16h448
	c8.8,0,16,7.2,16,16V471.999z"/>
<g>
	<circle style="fill:#FFE3A6;" cx="128" cy="415.999" r="16"/>
	<circle style="fill:#FFE3A6;" cx="192" cy="415.999" r="16"/>
	<circle style="fill:#FFE3A6;" cx="256" cy="415.999" r="16"/>
	<circle style="fill:#FFE3A6;" cx="320" cy="415.999" r="16"/>
	<circle style="fill:#FFE3A6;" cx="384" cy="415.999" r="16"/>
	<circle style="fill:#FFE3A6;" cx="128" cy="287.999" r="16"/>
	<circle style="fill:#FFE3A6;" cx="192" cy="287.999" r="16"/>
	<circle style="fill:#FFE3A6;" cx="256" cy="287.999" r="16"/>
	<circle style="fill:#FFE3A6;" cx="320" cy="287.999" r="16"/>
	<circle style="fill:#FFE3A6;" cx="384" cy="287.999" r="16"/>
	<circle style="fill:#FFE3A6;" cx="448" cy="415.999" r="16"/>
	<circle style="fill:#FFE3A6;" cx="448" cy="287.999" r="16"/>
	<circle style="fill:#FFE3A6;" cx="64" cy="415.999" r="16"/>
	<circle style="fill:#FFE3A6;" cx="64" cy="287.999" r="16"/>
	<circle style="fill:#FFE3A6;" cx="96" cy="351.999" r="16"/>
	<circle style="fill:#FFE3A6;" cx="160" cy="351.999" r="16"/>
	<circle style="fill:#FFE3A6;" cx="224" cy="351.999" r="16"/>
	<circle style="fill:#FFE3A6;" cx="288" cy="351.999" r="16"/>
	<circle style="fill:#FFE3A6;" cx="352" cy="351.999" r="16"/>
	<circle style="fill:#FFE3A6;" cx="416" cy="351.999" r="16"/>
</g>
<path style="fill:#FCD063;" d="M512,191.999c0,8.8-7.2,16-16,16H16c-8.8,0-16-7.2-16-16v-72c0-8.8,7.2-16,16-16h480
	c8.8,0,16,7.2,16,16V191.999z"/>
<path style="fill:#F15642;" d="M125.76,26.127l100.784,53.872c15.304,6.112,27.84,5.36,29.456,16
	c-1.608,10.64-14.152,9.888-29.456,16L125.76,165.871C109.384,172.407,96,163.359,96,145.759v-49.76v-49.76
	C96,28.639,109.384,19.591,125.76,26.127z"/>
<path style="fill:#E4513F;" d="M125.76,26.127l100.784,53.872c15.304,6.112,27.84,5.36,29.456,16H96v-49.76
	C96,28.639,109.384,19.591,125.76,26.127z"/>
<path style="fill:#F15642;" d="M386.232,26.127L285.456,79.999c-15.304,6.112-27.848,5.36-29.456,16
	c1.608,10.64,14.152,9.888,29.456,16l100.784,53.872c16.368,6.536,29.76-2.512,29.76-20.112v-49.76v-49.76
	C416,28.639,402.608,19.591,386.232,26.127z"/>
<path style="fill:#E4513F;" d="M386.232,26.127L285.456,79.999c-15.304,6.112-27.848,5.36-29.456,16h160v-49.76
	C416,28.639,402.608,19.591,386.232,26.127z"/>
<rect x="16" y="207.999" style="fill:#F7B84E;" width="480" height="24"/>
<g>
	<path style="fill:#E4513F;" d="M344,271.999c-8.832,0-16,7.168-16,16c0,8.824-7.168,16-16,16s-16-7.176-16-16v-160
		c0-8.832-7.168-16-16-16s-16,7.168-16,16v160c0,26.472,21.536,48,48,48s48-21.528,48-48C360,279.167,352.832,271.999,344,271.999z"
		/>
	<path style="fill:#E4513F;" d="M232,111.999c-8.832,0-16,7.168-16,16v192c0,8.824-7.168,16-16,16s-16-7.176-16-16
		c0-8.832-7.168-16-16-16s-16,7.168-16,16c0,26.472,21.528,48,48,48s48-21.528,48-48v-192C248,119.167,240.832,111.999,232,111.999z
		"/>
</g>
<g>
	<path style="fill:#D3463C;" d="M296,135.159v-7.16c0-8.832-7.168-16-16-16s-16,7.168-16,16v23.368
		C276.464,149.575,287.6,143.735,296,135.159z"/>
	<path style="fill:#D3463C;" d="M232,111.999c-8.832,0-16,7.168-16,16v7.16c8.4,8.576,19.536,14.424,32,16.208v-23.368
		C248,119.167,240.832,111.999,232,111.999z"/>
	<path style="fill:#D3463C;" d="M226.544,79.999l-19.832-10.6c-4.28,7.912-6.712,16.976-6.712,26.6s2.44,18.688,6.72,26.6
		l19.824-10.6c15.304-6.112,27.84-5.36,29.456-16C254.384,85.359,241.848,86.111,226.544,79.999z"/>
	<path style="fill:#D3463C;" d="M256,95.999c1.608,10.64,14.152,9.888,29.456,16l19.832,10.6c4.272-7.912,6.712-16.976,6.712-26.6
		s-2.44-18.688-6.72-26.6l-19.824,10.6C270.152,86.111,257.608,85.359,256,95.999z"/>
</g>
<circle style="fill:#F15642;" cx="256" cy="95.999" r="48"/>
<path style="fill:#E4513F;" d="M280.952,55.047c4.44,7.28,7.048,15.8,7.048,24.952c0,26.512-21.496,48-48,48
	c-9.16,0-17.672-2.608-24.952-7.048c8.432,13.808,23.592,23.048,40.952,23.048c26.512,0,48-21.488,48-48
	C304,78.639,294.752,63.479,280.952,55.047z"/>
<g>
</g>
<g>
</g>
<g>
</g>
<g>
</g>
<g>
</g>
<g>
</g>
<g>
</g>
<g>
</g>
<g>
</g>
<g>
</g>
<g>
</g>
<g>
</g>
<g>
</g>
<g>
</g>
<g>
</g>
</svg>
