<?xml version="1.0" encoding="iso-8859-1"?>
<!-- Generator: Adobe Illustrator 19.0.0, SVG Export Plug-In . SVG Version: 6.00 Build 0)  -->
<svg version="1.1" id="Layer_1" xmlns="http://www.w3.org/2000/svg" xmlns:xlink="http://www.w3.org/1999/xlink" x="0px" y="0px"
	 viewBox="0 0 512 512" style="enable-background:new 0 0 512 512;" xml:space="preserve">
<circle style="fill:#E2E5E7;" cx="256" cy="232" r="232"/>
<path style="fill:#D1D9E1;" d="M394.28,45.72C423,84.336,440,132.176,440,184c0,128.128-103.872,232-232,232
	c-51.824,0-99.664-17-138.28-45.72C112,427.152,179.696,464,256,464c128.128,0,232-103.872,232-232
	C488,155.696,451.152,88,394.28,45.72z"/>
<polygon style="fill:#F7B84E;" points="320,416 192,416 192,328 256,287.904 320,328 "/>
<polygon style="fill:#D89C45;" points="192,328 192,339.92 256,298.984 320,339.92 320,328 256,287.904 "/>
<path style="fill:#EFF0F1;" d="M384,384c-3.192,0-6.232,0.656-9.032,1.792C369.16,379.776,361.032,376,352,376
	s-17.16,3.776-22.968,9.792c-2.8-1.136-5.84-1.792-9.032-1.792c-13.256,0-24,10.752-24,24c0,2.824,0.576,5.488,1.472,8h99.768
	c3.656-2.816,7.208-5.736,10.688-8.752C407.512,394.352,397,384,384,384z"/>
<g>
	<path style="fill:#FFFFFF;" d="M324.704,384.488c-1.528-0.32-3.096-0.488-4.704-0.488c-9.56,0-17.752,5.632-21.608,13.728
		C307.488,393.872,316.24,389.416,324.704,384.488z"/>
	<path style="fill:#FFFFFF;" d="M188,400c-5.128,0-9.76,1.984-13.296,5.16c-4.072-3.184-9.136-5.16-14.704-5.16
		c-3.96,0-7.648,1.056-10.944,2.752C144.016,391.712,132.936,384,120,384c-10.888,0-20.472,5.456-26.248,13.76
		c6.632,6.496,13.648,12.576,21.016,18.24H207.6C205.744,406.872,197.68,400,188,400z"/>
</g>
<path style="fill:#EFF0F1;" d="M88,232c-4.424,0-8-3.576-8-8c0-64.16,35.392-122.064,92.368-151.128
	c3.936-2.024,8.752-0.44,10.76,3.488c2.008,3.936,0.448,8.76-3.496,10.768C128.048,113.44,96,165.888,96,224
	C96,228.424,92.424,232,88,232z"/>
<g>
	<circle style="fill:#FFFFFF;" cx="256" cy="184" r="16"/>
	<circle style="fill:#FFFFFF;" cx="224" cy="112" r="16"/>
</g>
<circle style="fill:#D1D9E1;" cx="212" cy="212" r="4"/>
<g>
	<circle style="fill:#FFFFFF;" cx="392" cy="160" r="16"/>
	<circle style="fill:#FFFFFF;" cx="392" cy="280" r="8"/>
	<circle style="fill:#FFFFFF;" cx="320" cy="264" r="16"/>
	<circle style="fill:#FFFFFF;" cx="312" cy="160" r="8"/>
	<circle style="fill:#FFFFFF;" cx="312" cy="104" r="8"/>
	<circle style="fill:#FFFFFF;" cx="160" cy="160" r="8"/>
	<circle style="fill:#FFFFFF;" cx="160" cy="240" r="16"/>
	<circle style="fill:#FFFFFF;" cx="120" cy="304" r="8"/>
</g>
<path style="fill:#EFF0F1;" d="M207.592,416c0-0.008,0-0.016-0.008-0.016c-38.296-0.072-74.4-9.448-106.208-25.952
	c-2.944,2.128-5.52,4.72-7.6,7.704c0.184,0.184,0.376,0.376,0.568,0.56c2.736,2.664,5.544,5.232,8.408,7.752
	c0.52,0.472,1.032,0.952,1.568,1.416c3.288,2.848,6.656,5.6,10.104,8.256c0.12,0.096,0.232,0.184,0.352,0.28L207.592,416
	L207.592,416z"/>
<path style="fill:#F15642;" d="M256,408c0,4.4-3.6,8-8,8h-24c-4.4,0-8-3.6-8-8v-56c0-4.4,3.6-8,8-8h24c4.4,0,8,3.6,8,8V408z"/>
<path style="fill:#FFEEBD;" d="M304,368c0,4.4-3.6,8-8,8h-16c-4.4,0-8-3.6-8-8v-16c0-4.4,3.6-8,8-8h16c4.4,0,8,3.6,8,8V368z"/>
<path style="fill:#A066AA;" d="M446.856,493.184l-32-76.56C412.424,411.416,406.536,408,400,408H112
	c-6.536,0-12.424,3.416-14.856,8.624l-32,76.56c-1.968,4.232-1.368,9.016,1.608,12.784C69.728,509.744,74.688,512,80,512h352
	c5.312,0,10.272-2.256,13.248-6.032C448.224,502.2,448.832,497.424,446.856,493.184z"/>
<path style="fill:#925D9C;" d="M414.856,416.624C412.424,411.416,406.536,408,400,408H256v88H64.28
	c-0.68,3.448,0.136,7.016,2.472,9.968C69.728,509.744,74.688,512,80,512h352c5.312,0,10.272-2.256,13.248-6.032
	c2.976-3.768,3.576-8.544,1.608-12.784L414.856,416.624z"/>
<path style="fill:#F7B84E;" d="M312,464c0,4.4-3.6,8-8,8h-96c-4.4,0-8-3.6-8-8v-24c0-4.4,3.6-8,8-8h96c4.4,0,8,3.6,8,8V464z"/>
<polygon style="fill:#BC3E34;" points="200,264 224,264 224,304 200,320 "/>
<path style="fill:#F15642;" d="M184,336c-2.048,0-4.096-0.784-5.656-2.344c-3.128-3.128-3.128-8.184,0-11.312
	c0,0,55.264-34.36,72-48.096c3.28-2.688,8.032-2.688,11.312,0c16.736,13.736,72,48.096,72,48.096c3.128,3.128,3.128,8.184,0,11.312
	s-8.184,3.128-11.312,0L256,291.216l-66.344,42.44C188.096,335.216,186.048,336,184,336z"/>
<path style="fill:#D1D9E1;" d="M212,256c-2.208,0-4-1.792-4-4v-24c0-2.208,1.792-4,4-4s4,1.792,4,4v24
	C216,254.208,214.208,256,212,256z"/>
<g>
</g>
<g>
</g>
<g>
</g>
<g>
</g>
<g>
</g>
<g>
</g>
<g>
</g>
<g>
</g>
<g>
</g>
<g>
</g>
<g>
</g>
<g>
</g>
<g>
</g>
<g>
</g>
<g>
</g>
</svg>
