<?xml version="1.0" encoding="iso-8859-1"?>
<!-- Generator: Adobe Illustrator 19.0.0, SVG Export Plug-In . SVG Version: 6.00 Build 0)  -->
<svg version="1.1" id="Layer_1" xmlns="http://www.w3.org/2000/svg" xmlns:xlink="http://www.w3.org/1999/xlink" x="0px" y="0px"
	 viewBox="0 0 512 512" style="enable-background:new 0 0 512 512;" xml:space="preserve">
<polygon style="fill:#D89C45;" points="0,160 256,0 512,160 320,320 192,320 "/>
<path style="fill:#E2E5E7;" d="M440,320V64c0-17.6-14.4-32-32-32H104c-17.6,0-32,14.4-32,32l0.008,256H440z"/>
<path style="fill:#D1D9E1;" d="M312,296c-27.088,7.096-84.912,7.096-112,0c-35.512-9.304-128-72-128-72l0.008,96H440v-96
	C440,224,347.512,286.696,312,296z"/>
<path style="fill:#50BEE8;" d="M336,168h-12.688l10.344-10.344c3.128-3.128,3.128-8.184,0-11.312s-8.184-3.128-11.312,0L300.688,168
	h-13.832c-0.768-2.952-1.928-5.712-3.456-8.264l26.088-26.08c3.128-3.128,3.128-8.184,0-11.312s-8.184-3.128-11.312,0
	l-26.136,26.128c-2.496-1.456-5.184-2.592-8.048-3.336v-13.824l21.656-21.656c3.128-3.128,3.128-8.184,0-11.312
	s-8.184-3.128-11.312,0L264,108.688V96c0-4.424-3.584-8-8-8c-4.424,0-8,3.576-8,8v12.68l-10.344-10.336
	c-3.128-3.128-8.184-3.128-11.312,0s-3.128,8.184,0,11.312L248,131.304v13.832c-2.944,0.768-5.704,1.928-8.256,3.464l-26.248-26.248
	c-3.128-3.128-8.184-3.128-11.312,0s-3.128,8.184,0,11.312l26.296,26.296c-1.464,2.496-2.592,5.176-3.336,8.048h-13.832
	l-21.656-21.656c-3.128-3.128-8.184-3.128-11.312,0s-3.128,8.184,0,11.312L188.688,168H176c-4.424,0-8,3.576-8,8
	c0,4.416,3.576,8,8,8h12.688l-10.344,10.344c-3.128,3.128-3.128,8.184,0,11.312c1.56,1.56,3.608,2.344,5.656,2.344
	s4.096-0.784,5.656-2.344L211.312,184h13.832c0.744,2.856,1.872,5.544,3.336,8.048l-26.296,26.296
	c-3.128,3.128-3.128,8.184,0,11.312c1.56,1.56,3.608,2.344,5.648,2.344s4.096-0.784,5.656-2.344l26.248-26.248
	c2.552,1.512,5.312,2.688,8.256,3.456v13.832l-21.656,21.656c-3.128,3.128-3.128,8.184,0,11.312
	c1.568,1.552,3.616,2.336,5.664,2.336s4.096-0.784,5.656-2.344L248,243.312V256c0,4.424,3.576,8,8,8c4.416,0,8-3.576,8-8v-12.696
	l10.344,10.352c1.56,1.56,3.608,2.344,5.656,2.344s4.096-0.784,5.656-2.344c3.128-3.128,3.128-8.184,0-11.312L264,220.68v-13.824
	c2.856-0.744,5.544-1.872,8.048-3.344l26.136,26.144c1.56,1.56,3.608,2.344,5.648,2.344s4.096-0.784,5.656-2.344
	c3.128-3.128,3.128-8.184,0-11.312L283.4,192.248c1.52-2.544,2.688-5.312,3.456-8.248h13.832l21.656,21.656
	c1.56,1.56,3.608,2.344,5.656,2.344s4.096-0.784,5.656-2.344c3.128-3.128,3.128-8.184,0-11.312L323.312,184H336c4.424,0,8-3.584,8-8
	C344,171.576,340.424,168,336,168z M240,176c0-8.832,7.168-16,16-16s16,7.168,16,16c0,8.824-7.168,16-16,16S240,184.824,240,176z"/>
<path style="fill:#F7B84E;" d="M192,320L9.44,502.552C3.6,496.808,0,488.808,0,480V160L192,320z"/>
<path style="fill:#FCD063;" d="M502.56,502.552C496.8,508.4,488.8,512,480,512H32c-8.8,0-16.8-3.6-22.56-9.448L192,320h128
	L502.56,502.552z"/>
<path style="fill:#F7B84E;" d="M512,480c0,8.808-3.6,16.808-9.44,22.552L320,320l192-160V480z"/>
<g>
</g>
<g>
</g>
<g>
</g>
<g>
</g>
<g>
</g>
<g>
</g>
<g>
</g>
<g>
</g>
<g>
</g>
<g>
</g>
<g>
</g>
<g>
</g>
<g>
</g>
<g>
</g>
<g>
</g>
</svg>
