<?xml version="1.0" encoding="iso-8859-1"?>
<!-- Generator: Adobe Illustrator 19.0.0, SVG Export Plug-In . SVG Version: 6.00 Build 0)  -->
<svg version="1.1" id="Layer_1" xmlns="http://www.w3.org/2000/svg" xmlns:xlink="http://www.w3.org/1999/xlink" x="0px" y="0px"
	 viewBox="0 0 511.997 511.997" style="enable-background:new 0 0 511.997 511.997;" xml:space="preserve">
<path style="fill:#485B6A;" d="M511.635,117.63c-1.312-4.208-5.768-6.6-10.016-5.264c-135.438,42.167-355.802,42.167-491.24,0
	c-4.184-1.32-8.696,1.048-10.016,5.264c-1.312,4.216,1.048,8.704,5.264,10.016c28.912,9,61.639,16.088,96.55,21.312l-15.368,45.543
	c-1.416,4.184,0.832,8.728,5.024,10.144c0.84,0.28,1.712,0.424,2.552,0.424c3.336,0,6.456-2.112,7.576-5.448l16.328-48.399
	c41.415,5.424,85.479,8.288,129.71,8.6v48.183c0,4.416,3.576,8,8,8c4.424,0,8-3.584,8-8v-48.183
	c45.143-0.312,90.079-3.288,132.23-8.928l16.44,48.735c1.128,3.336,4.232,5.448,7.576,5.448c0.84,0,1.704-0.144,2.544-0.424
	c4.184-1.416,6.44-5.952,5.032-10.144l-15.504-45.919c33.967-5.2,65.839-12.16,94.047-20.936
	C510.587,126.334,512.947,121.846,511.635,117.63z"/>
<path style="fill:#FCD063;" d="M295.998,256.004h-79.999c-11.152,9.92-16,24.12-16,39.903c0,38.167,21.232,80.759,42.063,99.318
	c2.808,2.496,10.384,4.776,13.936,4.776c3.544,0,11.152-2.28,13.952-4.776c20.832-18.552,42.047-61.143,42.047-99.318
	C311.998,280.124,307.142,265.924,295.998,256.004z"/>
<path style="fill:#F7B84E;" d="M295.998,256.004h-4.608c3.104,7.216,4.608,15.312,4.608,23.904
	c0,38.167-21.216,80.767-42.047,99.318c-2.8,2.496-10.4,4.776-13.944,4.776c-2.496,0-6.944-1.16-10.368-2.688
	c4.048,5.44,8.24,10.176,12.432,13.912c2.808,2.496,10.384,4.776,13.936,4.776c3.544,0,11.152-2.28,13.952-4.776
	c20.824-18.552,42.039-61.143,42.039-99.318C311.998,280.124,307.142,265.924,295.998,256.004z"/>
<path style="fill:#E2E5E7;" d="M279.998,232.005v-16c0-4.4-3.592-8-8-8h-31.999c-4.4,0-8,3.6-8,8v16l-16,24h79.999L279.998,232.005z
	"/>
<g>
	<path style="fill:#D1D9E1;" d="M271.998,208.005h-16v47.999h39.999l-16-24v-16C279.998,211.605,276.406,208.005,271.998,208.005z"
		/>
	<rect x="231.999" y="223.997" style="fill:#D1D9E1;" width="47.999" height="8"/>
</g>
<path style="fill:#FFEEBD;" d="M226.855,328.003c-1.472,0-2.928-0.704-3.752-1.984c-0.208-0.328-20.984-33.439,9.488-60.871
	c1.752-1.576,4.52-1.504,6.2,0.12c1.664,1.648,1.6,4.248-0.144,5.824c-25.464,22.936-8.768,49.543-8.048,50.671
	c1.248,1.944,0.592,4.48-1.472,5.656C228.415,327.811,227.639,328.003,226.855,328.003z"/>
<path style="fill:#F15642;" d="M474.603,227.845l-74.839,28.232c-6.936,13.232-6.472,28.216-0.888,42.983
	c13.472,35.719,48.359,68.079,74.407,78.095c3.504,1.344,11.392,0.8,14.72-0.456c3.328-1.256,9.624-6.064,11.376-9.392
	c12.936-24.72,17.768-72.055,4.296-107.766C498.091,244.772,488.523,233.204,474.603,227.845z"/>
<path style="fill:#E4513F;" d="M474.603,227.845l-4.312,1.632c5.456,5.656,9.72,12.696,12.752,20.744
	c13.472,35.719,8.656,83.047-4.296,107.774c-1.736,3.32-8.048,8.136-11.36,9.384c-2.344,0.888-6.904,1.376-10.656,1.144
	c5.704,3.672,11.312,6.624,16.544,8.64c3.504,1.344,11.392,0.8,14.72-0.456c3.328-1.256,9.624-6.064,11.376-9.392
	c12.936-24.72,17.768-72.055,4.296-107.766C498.091,244.772,488.523,233.204,474.603,227.845z"/>
<path style="fill:#E2E5E7;" d="M451.164,211.053l-5.64-14.976c-1.56-4.12-6.2-6.208-10.312-4.664l-29.936,11.296
	c-4.128,1.544-6.216,6.184-4.672,10.312l5.656,14.968l-6.496,28.096l74.839-28.232L451.164,211.053z"/>
<g>
	<path style="fill:#D1D9E1;" d="M435.212,191.413l-14.968,5.656l16.936,44.903l37.423-14.128l-23.44-16.8l-5.64-14.976
		C443.964,191.957,439.324,189.861,435.212,191.413z"/>
	
		<rect x="403.273" y="211.804" transform="matrix(-0.9356 0.353 -0.353 -0.9356 903.217 266.8838)" style="fill:#D1D9E1;" width="47.998" height="8"/>
</g>
<path style="fill:#F48473;" d="M435.324,319.627c-1.376,0.512-3,0.376-4.216-0.544c-0.312-0.216-31.424-23.856-12.608-60.295
	c1.08-2.096,3.704-3,5.84-2.08c2.144,0.952,3,3.408,1.92,5.504c-15.72,30.44,9.296,49.455,10.36,50.247
	c1.856,1.376,2.144,3.984,0.624,5.8C436.716,318.891,436.044,319.347,435.324,319.627z"/>
<path style="fill:#008DD0;" d="M116.329,252.516l-75.975-25.032c-13.704,5.936-22.752,17.888-27.688,32.887
	c-11.952,36.255-5.112,83.351,8.856,107.494c1.888,3.256,8.368,7.792,11.744,8.896c3.368,1.112,11.304,1.336,14.736-0.16
	c25.6-11.104,59.079-44.911,71.023-81.167C123.977,280.444,123.793,265.444,116.329,252.516z"/>
<path style="fill:#0076AF;" d="M116.329,252.516l-4.376-1.44c0.688,7.832-0.416,15.984-3.112,24.152
	c-11.944,36.247-45.423,70.063-71.023,81.167c-3.448,1.496-11.376,1.272-14.736,0.168c-2.384-0.784-6.232-3.272-9.016-5.8
	c2.144,6.44,4.64,12.248,7.456,17.104c1.888,3.256,8.368,7.792,11.744,8.896c3.368,1.112,11.304,1.336,14.736-0.16
	c25.6-11.104,59.079-44.911,71.023-81.167C123.977,280.444,123.793,265.444,116.329,252.516z"/>
<path style="fill:#E2E5E7;" d="M108.641,224.725l5.008-15.2c1.384-4.168-0.912-8.72-5.088-10.096l-30.4-10.016
	c-4.168-1.376-8.72,0.912-10.104,5.096l-5.008,15.192l-22.704,17.792l75.975,25.032L108.641,224.725z"/>
<g>
	<path style="fill:#D1D9E1;" d="M108.561,199.429l-15.208-5.008l-15.016,45.583l37.991,12.512l-7.688-27.8l5.008-15.2
		C115.025,205.349,112.729,200.805,108.561,199.429z"/>
	
		<rect x="63.104" y="209.407" transform="matrix(-0.9498 -0.313 0.313 -0.9498 103.039 443.3547)" style="fill:#D1D9E1;" width="48.001" height="8"/>
</g>
<path style="fill:#92CDEB;" d="M28.114,299.267c-1.392-0.472-2.56-1.592-2.928-3.064c-0.104-0.376-9.48-38.311,28.048-54.839
	c2.16-0.952,4.776-0.016,5.856,2.048c1.072,2.088,0.184,4.528-1.952,5.488c-31.36,13.824-23.832,44.319-23.504,45.607
	c0.568,2.232-0.84,4.44-3.168,4.904C29.666,299.563,28.858,299.499,28.114,299.267z"/>
<g>
</g>
<g>
</g>
<g>
</g>
<g>
</g>
<g>
</g>
<g>
</g>
<g>
</g>
<g>
</g>
<g>
</g>
<g>
</g>
<g>
</g>
<g>
</g>
<g>
</g>
<g>
</g>
<g>
</g>
</svg>
