<?xml version="1.0" encoding="iso-8859-1"?>
<!-- Generator: Adobe Illustrator 19.0.0, SVG Export Plug-In . SVG Version: 6.00 Build 0)  -->
<svg version="1.1" id="Layer_1" xmlns="http://www.w3.org/2000/svg" xmlns:xlink="http://www.w3.org/1999/xlink" x="0px" y="0px"
	 viewBox="0 0 512 512" style="enable-background:new 0 0 512 512;" xml:space="preserve">
<g>
	<path style="fill:#FEC461;" d="M297.84,112h-51.688c-2.472,0-4.784-5.904-6.152-8l-22.144-20.336
		c-1.512-2.304-1.656-5.256-0.368-7.704c1.28-2.44,3.784-3.96,6.512-3.96c0,0,48,0,59.08,0c7.384,0,2.416,18.752,7.384,18.752
		S297.84,72,305.232,72C312.616,72,320,72,320,72c2.728,0,5.224,1.52,6.504,3.96c1.288,2.448,1.144,5.4-0.368,7.704L304,104
		C302.624,106.096,300.312,112,297.84,112z"/>
	<path style="fill:#FEC461;" d="M272,312c-47.2,0-96,0-96-63.752c0-42.176,28.432-100.136,64-128.248l3.624-3h56.76l3.616,3
		c35.56,28.112,64,86.072,64,128.248C368,312,319.192,312,272,312z"/>
</g>
<path style="fill:#F7B84E;" d="M306.104,121.8c24.952,30.36,36.056,74.144,36.056,107.704c0,63.752-41.424,60-88.624,60
	c-25.68,0-48,0-70.336-6.544c15.264,29,52.488,29.04,88.8,29.04c47.192,0,96,0,96-63.752C368,206.92,340.616,150.472,306.104,121.8z
	"/>
<rect x="240" y="104" style="fill:#D89C45;" width="64" height="16"/>
<path style="fill:#576D7E;" d="M496,408h-64.008v-80c0-8.832-7.168-16-16-16s-16,7.168-16,16v80H176v-80c0-8.832-7.168-16-16-16
	s-16,7.168-16,16v80H80c-26.472,0-48-21.528-48-48c0-8.832-7.168-16-16-16s-16,7.168-16,16c0,44.112,35.888,80,80,80h416
	c8.832,0,16-7.168,16-16S504.832,408,496,408z"/>
<path style="fill:#E4513F;" d="M508.2,125.656c-3.032-3.584-7.496-5.656-12.2-5.656c-63.184,0-179.952,27.24-191.136,128H185.88
	l-11.576-23.16C171.6,219.424,166.056,216,160,216H80c-5.144,0-9.976,2.472-12.984,6.64s-3.824,9.536-2.2,14.424l32,96
	C99,339.592,105.112,344,112,344h352c7.824,0,14.496-5.656,15.784-13.376l32-192C512.552,133.992,511.248,129.248,508.2,125.656z"/>
<path style="fill:#D3463C;" d="M333.504,280h-28.64H185.88h-19.784l-8.84-17.688L150.112,248H102.2l21.336,64h326.92l26.52-159.152
	c-53.544,4.584-132.544,28.848-140.296,98.68L333.504,280z"/>
<g>
	<rect x="144" y="344" style="fill:#485B6A;" width="32" height="16"/>
	<rect x="400" y="344" style="fill:#485B6A;" width="32" height="16"/>
</g>
<path style="fill:#FFE3A6;" d="M290.536,224c-0.312,0-0.64-0.088-0.928-0.24l-17.616-10.432l-17.608,10.432
	c-0.68,0.376-1.496,0.312-2.12-0.168c-0.608-0.472-0.912-1.256-0.784-2.048l3.352-20.552l-14.248-14.544
	c-0.544-0.552-0.736-1.4-0.504-2.152c0.232-0.768,0.856-1.328,1.616-1.44l19.688-3l8.808-18.696c0.336-0.704,1.032-1.16,1.8-1.16
	l0,0c0.76,0,1.456,0.456,1.792,1.168l8.824,18.696l19.688,3c0.752,0.112,1.376,0.672,1.608,1.44c0.232,0.752,0.04,1.592-0.504,2.152
	L289.152,201l3.368,20.552c0.128,0.792-0.176,1.576-0.792,2.048C291.36,223.856,290.944,224,290.536,224z"/>
<g>
</g>
<g>
</g>
<g>
</g>
<g>
</g>
<g>
</g>
<g>
</g>
<g>
</g>
<g>
</g>
<g>
</g>
<g>
</g>
<g>
</g>
<g>
</g>
<g>
</g>
<g>
</g>
<g>
</g>
</svg>
