<?xml version="1.0" encoding="iso-8859-1"?>
<!-- Generator: Adobe Illustrator 19.0.0, SVG Export Plug-In . SVG Version: 6.00 Build 0)  -->
<svg version="1.1" id="Layer_1" xmlns="http://www.w3.org/2000/svg" xmlns:xlink="http://www.w3.org/1999/xlink" x="0px" y="0px"
	 viewBox="0 0 512 512" style="enable-background:new 0 0 512 512;" xml:space="preserve">
<path style="fill:#F15642;" d="M328,104c0,0-1.96-29.064,0-32l45.312-47.128c3.272-4.904,3.576-11.216,0.792-16.424
	C371.32,3.248,365.896,0,360,0c0,0-16,0-32,0s-21.232,40-32,40c-10.776,0,0-40-16-40c-24,0-128,0-128,0
	c-5.904,0-11.328,3.248-14.104,8.456c-2.784,5.2-2.48,11.512,0.792,16.424L184,72c1.96,2.936,0,32,0,32
	C106.928,163.968,48,286.016,48,376c0,136,105.744,136,208,136c102.264,0,208,0,208-136C464,286.016,405.064,163.968,328,104z"/>
<path style="fill:#E4513F;" d="M332.56,107.832C386.624,172.608,408,264.408,408,336c0,136-89.744,128-192,128
	c-55.648,0-104,0-152.384-13.968C96.68,511.92,177.336,512,256,512c102.264,0,208,0,208-136C464,287.824,407.352,169,332.56,107.832
	z"/>
<rect x="184" y="72" style="fill:#BC3E34;" width="144" height="32"/>
<path style="fill:#FCD063;" d="M297.712,360c-0.704,0-1.424-0.184-2.088-0.544L256,336l-39.624,23.456
	c-1.528,0.84-3.352,0.704-4.76-0.368c-1.368-1.048-2.056-2.824-1.76-4.6l7.552-46.248l-32.056-32.728
	c-1.224-1.256-1.656-3.136-1.136-4.84s1.928-2.96,3.624-3.208l44.312-6.752l19.816-42.08c0.744-1.6,2.304-2.624,4.024-2.624l0,0
	c1.704,0,3.272,1.024,4.024,2.624l19.832,42.08l44.296,6.752c1.688,0.248,3.112,1.504,3.624,3.208
	c0.536,1.712,0.088,3.584-1.144,4.84l-32.056,32.728l7.56,46.248c0.296,1.784-0.392,3.552-1.768,4.6
	C299.56,359.688,298.64,360,297.712,360z"/>
<g>
	<path style="fill:#F7B84E;" d="M217.408,300.232l-31.304-31.968c-0.848,0.584-1.56,1.352-1.88,2.4
		c-0.52,1.712-0.088,3.584,1.136,4.84l30.936,31.584L217.408,300.232z"/>
	<path style="fill:#F7B84E;" d="M300.376,351.08c-0.816,0.608-1.736,0.92-2.664,0.92c-0.704,0-1.424-0.192-2.088-0.544L256,328
		l-39.624,23.456c-1.528,0.84-3.352,0.704-4.76-0.376c-0.448-0.344-0.688-0.848-0.984-1.328l-0.776,4.736
		c-0.304,1.784,0.392,3.552,1.76,4.6c1.408,1.072,3.232,1.208,4.76,0.368L256,336l39.632,23.456c0.656,0.36,1.376,0.544,2.08,0.544
		c0.928,0,1.848-0.312,2.664-0.912c1.376-1.048,2.064-2.824,1.768-4.6l-0.776-4.736C301.08,350.224,300.832,350.736,300.376,351.08z
		"/>
	<path style="fill:#F7B84E;" d="M325.88,268.264l-31.304,31.968l1.128,6.856l30.928-31.584c1.224-1.256,1.68-3.136,1.144-4.84
		C327.456,269.608,326.736,268.84,325.88,268.264z"/>
</g>
<g>
</g>
<g>
</g>
<g>
</g>
<g>
</g>
<g>
</g>
<g>
</g>
<g>
</g>
<g>
</g>
<g>
</g>
<g>
</g>
<g>
</g>
<g>
</g>
<g>
</g>
<g>
</g>
<g>
</g>
</svg>
