<?xml version="1.0" encoding="iso-8859-1"?>
<!-- Generator: Adobe Illustrator 19.0.0, SVG Export Plug-In . SVG Version: 6.00 Build 0)  -->
<svg version="1.1" id="Layer_1" xmlns="http://www.w3.org/2000/svg" xmlns:xlink="http://www.w3.org/1999/xlink" x="0px" y="0px"
	 viewBox="0 0 512 512" style="enable-background:new 0 0 512 512;" xml:space="preserve">
<g>
	<path style="fill:#F15642;" d="M496,479.999c0,8.8-7.2,16-16,16H32c-8.8,0-16-7.2-16-16v-264c0-8.8,7.2-16,16-16h448
		c8.8,0,16,7.2,16,16V479.999z"/>
	<path style="fill:#F15642;" d="M512,199.999c0,8.8-7.2,16-16,16H16c-8.8,0-16-7.2-16-16v-72c0-8.8,7.2-16,16-16h480
		c8.8,0,16,7.2,16,16V199.999z"/>
</g>
<rect x="15.992" y="215.999" style="fill:#D2473C;" width="480" height="24"/>
<g>
	<path style="fill:#D3463C;" d="M301.92,111.999h-10.216c-3.368,3.76-7.312,6.984-11.704,9.52v9.016
		C288.824,126.343,296.376,119.943,301.92,111.999z"/>
	<path style="fill:#D3463C;" d="M232,130.535v-9.016c-4.392-2.536-8.336-5.768-11.704-9.52H210.08
		C215.632,119.943,223.184,126.343,232,130.535z"/>
</g>
<g>
	<rect x="231.992" y="111.999" style="fill:#FCD063;" width="48" height="384"/>
	<rect x="15.992" y="279.999" style="fill:#FCD063;" width="480" height="48"/>
</g>
<g>
	<path style="fill:#F7B84E;" d="M386.288,18.127l-89.912,35.968c4.8,7.472,7.624,16.352,7.624,25.904
		c0,12.312-4.672,23.504-12.296,32H416v-73.76C416,20.639,402.632,11.591,386.288,18.127z"/>
	<rect x="231.992" y="215.999" style="fill:#F7B84E;" width="48" height="24"/>
	<path style="fill:#F7B84E;" d="M280,130.535v-9.016c-7.064,4.096-15.248,6.48-24,6.48c-8.752,0-16.936-2.384-24-6.48v9.016
		c7.28,3.464,15.4,5.464,24,5.464C264.6,135.999,272.72,133.999,280,130.535z"/>
	<path style="fill:#F7B84E;" d="M125.712,18.127l89.912,35.968c-4.8,7.472-7.624,16.352-7.624,25.904
		c0,12.312,4.672,23.504,12.296,32H96v-73.76C96,20.639,109.368,11.591,125.712,18.127z"/>
</g>
<g>
	<polygon style="fill:#D89C45;" points="416,111.999 288,111.999 296,103.999 416,103.999 	"/>
	<polygon style="fill:#D89C45;" points="224,111.999 96,111.999 96,103.999 216,103.999 	"/>
</g>
<circle style="fill:#FCD063;" cx="255.992" cy="79.999" r="48"/>
<path style="fill:#EFC55F;" d="M280.952,39.047c4.44,7.28,7.048,15.808,7.048,24.952c0,26.512-21.496,48-48,48
	c-9.16,0-17.672-2.608-24.952-7.048c8.44,13.808,23.6,23.048,40.952,23.048c26.504,0,48-21.488,48-48
	C304,62.639,294.752,47.479,280.952,39.047z"/>
<g>
	<rect x="279.992" y="279.999" style="fill:#F7B84E;" width="8" height="48"/>
	<rect x="223.992" y="279.999" style="fill:#F7B84E;" width="8" height="48"/>
</g>
<g>
</g>
<g>
</g>
<g>
</g>
<g>
</g>
<g>
</g>
<g>
</g>
<g>
</g>
<g>
</g>
<g>
</g>
<g>
</g>
<g>
</g>
<g>
</g>
<g>
</g>
<g>
</g>
<g>
</g>
</svg>
