<?xml version="1.0" encoding="iso-8859-1"?>
<!-- Generator: Adobe Illustrator 19.0.0, SVG Export Plug-In . SVG Version: 6.00 Build 0)  -->
<svg version="1.1" id="Layer_1" xmlns="http://www.w3.org/2000/svg" xmlns:xlink="http://www.w3.org/1999/xlink" x="0px" y="0px"
	 viewBox="0 0 512 512" style="enable-background:new 0 0 512 512;" xml:space="preserve">
<path style="fill:#FCD063;" d="M256,512c-114.696,0-208-93.312-208-208S141.304,96,256,96s208,93.312,208,208S370.696,512,256,512z"
	/>
<g>
	<path style="fill:#F7B84E;" d="M379.352,136.648C404.872,171.184,420,213.856,420,260c0,114.688-93.304,208-208,208
		c-46.152,0-88.816-15.128-123.352-40.648C126.56,478.656,187.456,512,256,512c114.696,0,208-93.312,208-208
		C464,235.456,430.656,174.56,379.352,136.648z"/>
	<path style="fill:#F7B84E;" d="M256,95.984c28.336,0,55.36,5.72,80,16.016V88c0-8.832-7.168-16-16-16H192c-8.832,0-16,7.168-16,16
		v24C200.64,101.704,227.664,95.984,256,95.984z"/>
</g>
<path style="fill:#D89C45;" d="M320,72h-64v23.984c28.336,0,55.36,5.72,80,16.016V88C336,79.168,328.832,72,320,72z"/>
<path style="fill:#FFEEBD;" d="M96,312c-4.424,0-8-3.576-8-8c0-64.16,35.392-122.064,92.368-151.128
	c3.936-2.024,8.752-0.44,10.76,3.488c2.008,3.936,0.448,8.76-3.496,10.768C136.048,193.44,104,245.888,104,304
	C104,308.424,100.424,312,96,312z"/>
<path style="fill:#925D9C;" d="M64.024,384h383.952c2.184-5.224,4.152-10.568,5.904-16H58.12
	C59.872,373.432,61.832,378.776,64.024,384z"/>
<path style="fill:#86558F;" d="M389.704,368c-3.36,5.504-6.976,10.84-10.816,16h69.088c2.184-5.216,4.144-10.552,5.896-15.984
	c0,0,0.008-0.008,0.008-0.016H389.704z"/>
<path style="fill:#925D9C;" d="M58.12,240h395.768c-1.76-5.432-3.72-10.776-5.904-16H64.024
	C61.832,229.224,59.872,234.568,58.12,240z"/>
<path style="fill:#A066AA;" d="M48,304c0,22.328,3.576,43.832,10.12,64h395.768C460.424,347.832,464,326.328,464,304
	s-3.576-43.832-10.12-64H58.12C51.576,260.168,48,281.672,48,304z"/>
<path style="fill:#A676B2;" d="M100.48,240C92.416,259.936,88,281.56,88,304c0,4.424,3.576,8,8,8s8-3.576,8-8
	c0-22.6,4.896-44.312,13.856-64H100.48z"/>
<path style="fill:#A066AA;" d="M100.48,240h17.384c2.496-5.504,5.28-10.848,8.408-16H107.88
	C105.128,229.184,102.688,234.528,100.48,240z"/>
<path style="fill:#DFCCE4;" d="M441.344,275.56L416,313.576l-25.344-38.016c-2.968-4.456-10.344-4.456-13.312,0L352,313.576
	l-25.344-38.016c-2.968-4.456-10.344-4.456-13.312,0L288,313.576l-25.344-38.016c-2.968-4.456-10.344-4.456-13.312,0L224,313.576
	l-25.344-38.016c-2.968-4.456-10.344-4.456-13.312,0L160,313.576l-25.344-38.016c-2.968-4.456-10.344-4.456-13.312,0L96,313.576
	L70.656,275.56c-2.968-4.456-10.344-4.456-13.312,0l-8.72,13.08C48.256,293.72,48,298.832,48,304c0,4.592,0.2,9.152,0.496,13.672
	L64,294.424l25.344,38.016c2.968,4.456,10.344,4.456,13.312,0L128,294.424l25.344,38.016c2.968,4.456,10.344,4.456,13.312,0
	L192,294.424l25.344,38.016c2.968,4.456,10.344,4.456,13.312,0L256,294.424l25.344,38.016c2.968,4.456,10.344,4.456,13.312,0
	L320,294.424l25.344,38.016c2.968,4.456,10.344,4.456,13.312,0L384,294.424l25.344,38.016c2.968,4.456,10.344,4.456,13.312,0
	L448,294.424l15.504,23.248C463.8,313.152,464,308.592,464,304c0-5.168-0.256-10.28-0.624-15.36l-8.72-13.08
	C451.688,271.112,444.312,271.112,441.344,275.56z"/>
<path style="fill:#86558F;" d="M416.8,224c0.928,5.264,1.632,10.608,2.152,16h34.912c-0.096-0.296-0.2-0.584-0.304-0.88
	c-1.48-4.504-3.136-8.936-4.912-13.304c-0.248-0.616-0.488-1.216-0.752-1.816H416.8z"/>
<path style="fill:#925D9C;" d="M463.024,284.808c-0.36-3.848-0.808-7.68-1.376-11.48c-0.176-1.2-0.352-2.408-0.544-3.592
	c-1.688-10.048-4.056-19.856-7.12-29.36c-0.04-0.128-0.088-0.248-0.128-0.376h-34.912c0.632,6.592,1.056,13.248,1.056,20
	c0,39.512-11.088,76.496-30.296,108h64.176v-0.016c1.592-4.904,3-9.904,4.224-14.968c0.088-0.344,0.16-0.688,0.24-1.032
	c1.168-4.92,2.184-9.912,3-14.968c0.016-0.096,0.04-0.184,0.056-0.28c0.776-4.872,1.336-9.816,1.768-14.784
	c0.088-1,0.168-2,0.232-3.008c0.36-4.936,0.6-9.912,0.6-14.944c0-5.096-0.232-10.128-0.6-15.128
	C463.296,287.512,463.152,286.168,463.024,284.808z"/>
<path style="fill:#D3B6D7;" d="M454.656,275.56c-2.968-4.456-10.344-4.456-13.312,0L416,313.576l-2.184-3.28
	c-1.68,6.752-3.688,13.36-6.008,19.832l1.536,2.312c2.968,4.456,10.344,4.456,13.312,0L448,294.424l15.504,23.248
	C463.8,313.152,464,308.592,464,304c0-5.168-0.256-10.28-0.624-15.36L454.656,275.56z"/>
<g>
	<path style="fill:#576D7E;" d="M256,0c-26.464,0-48,21.528-48,48h16c0-17.672,14.328-32,32-32s32,14.328,32,32h16
		C304,21.528,282.464,0,256,0z"/>
	<rect x="288" y="48" style="fill:#576D7E;" width="16" height="24"/>
	<rect x="208" y="48" style="fill:#576D7E;" width="16" height="24"/>
</g>
<g>
</g>
<g>
</g>
<g>
</g>
<g>
</g>
<g>
</g>
<g>
</g>
<g>
</g>
<g>
</g>
<g>
</g>
<g>
</g>
<g>
</g>
<g>
</g>
<g>
</g>
<g>
</g>
<g>
</g>
</svg>
