<?xml version="1.0" encoding="iso-8859-1"?>
<!-- Generator: Adobe Illustrator 19.0.0, SVG Export Plug-In . SVG Version: 6.00 Build 0)  -->
<svg version="1.1" id="Layer_1" xmlns="http://www.w3.org/2000/svg" xmlns:xlink="http://www.w3.org/1999/xlink" x="0px" y="0px"
	 viewBox="0 0 512 512" style="enable-background:new 0 0 512 512;" xml:space="preserve">
<circle style="fill:#E2E5E7;" cx="256" cy="144" r="80"/>
<path style="fill:#D5DDE2;" d="M186.784,104h138.424c-1.616-2.784-3.4-5.44-5.32-8H192.104C190.184,98.56,188.4,101.216,186.784,104
	z"/>
<path style="fill:#576D7E;" d="M304,16c0-8.8-7.192-16-16-16h-64c-8.8,0-16,7.2-16,16v48c0,8.8,7.2,16,16,16h64
	c8.808,0,16-7.2,16-16V16z"/>
<circle style="fill:#E2E5E7;" cx="256" cy="360" r="152"/>
<g>
	<path style="fill:#CAD1D8;" d="M341.592,234.4C358.232,258.792,368,288.248,368,320c0,83.944-68.056,152-152,152
		c-31.752,0-61.208-9.768-85.592-26.408C157.776,485.672,203.8,512,256,512c83.952,0,152-68.056,152-152
		C408,307.808,381.672,261.776,341.592,234.4z"/>
	<path style="fill:#CAD1D8;" d="M303.936,80.056C313.976,93.432,320,109.992,320,128c0,44.184-35.816,80-80,80
		c-18.008,0-34.568-6.024-47.936-16.064C206.656,211.368,229.824,224,256,224c44.192,0,80-35.816,80-80
		C336,117.824,323.376,94.656,303.936,80.056z"/>
</g>
<path style="fill:#F15642;" d="M336,216c0,8.8-7.2,16-16,16H192c-8.8,0-16-7.2-16-16l0,0c0-8.8,7.2-16,16-16h128
	C328.8,200,336,207.2,336,216L336,216z"/>
<path style="fill:#D5DDE2;" d="M200,232v84v4v12c0,2.208,1.792,4,4,4s4-1.792,4-4v-12h8v12c0,2.208,1.792,4,4,4s4-1.792,4-4v-12h8
	v12c0,2.208,1.792,4,4,4s4-1.792,4-4v-12v-4v-84H200z"/>
<path style="fill:#F15642;" d="M192,232v76v4v12c0,2.208,1.792,4,4,4s4-1.792,4-4v-12h8v12c0,2.208,1.792,4,4,4s4-1.792,4-4v-12h8
	v12c0,2.208,1.792,4,4,4s4-1.792,4-4v-12v-4v-76H192z"/>
<g>
	<path style="fill:#485B6A;" d="M288,0h-32v64h48V16C304,7.2,296.808,0,288,0z"/>
	<rect x="208" y="56" style="fill:#485B6A;" width="48" height="8"/>
</g>
<path style="fill:#E4513F;" d="M192,232h128c8.8,0,16-7.2,16-16H176C176,224.792,183.192,232,192,232z"/>
<rect x="192" y="232" style="fill:#D2473C;" width="40" height="8"/>
<circle style="fill:#F15642;" cx="256" cy="152" r="16"/>
<g>
	<circle style="fill:#576D7E;" cx="256" cy="336" r="8"/>
	<circle style="fill:#576D7E;" cx="256" cy="384" r="8"/>
	<circle style="fill:#576D7E;" cx="256" cy="288" r="8"/>
	<circle style="fill:#576D7E;" cx="256" cy="432" r="8"/>
	<path style="fill:#576D7E;" d="M336,80c0,8.8-7.2,16-16,16H192c-8.8,0-16-7.2-16-16l0,0c0-8.8,7.2-16,16-16h128
		C328.8,64,336,71.2,336,80L336,80z"/>
</g>
<path style="fill:#516575;" d="M192,96h128c8.8,0,16-7.2,16-16H176C176,88.792,183.192,96,192,96z"/>
<g>
</g>
<g>
</g>
<g>
</g>
<g>
</g>
<g>
</g>
<g>
</g>
<g>
</g>
<g>
</g>
<g>
</g>
<g>
</g>
<g>
</g>
<g>
</g>
<g>
</g>
<g>
</g>
<g>
</g>
</svg>
