<?xml version="1.0" encoding="iso-8859-1"?>
<!-- Generator: Adobe Illustrator 19.0.0, SVG Export Plug-In . SVG Version: 6.00 Build 0)  -->
<svg version="1.1" id="Layer_1" xmlns="http://www.w3.org/2000/svg" xmlns:xlink="http://www.w3.org/1999/xlink" x="0px" y="0px"
	 viewBox="0 0 512 512" style="enable-background:new 0 0 512 512;" xml:space="preserve">
<path style="fill:#E4513F;" d="M0,204.376c0-38.72,112,23.232,112,51.624H18.664C18.664,243.048,0,217.28,0,204.376z"/>
<path style="fill:#D3463C;" d="M0,307.624c0,38.72,112-23.232,112-51.624H18.664C18.664,268.952,0,294.72,0,307.624z"/>
<path style="fill:#BC3E34;" d="M96,280.12c-4.672,4.232-10.112,8.488-16,12.552v-73.344c5.888,4.072,11.328,8.32,16,12.552V280.12z"
	/>
<path style="fill:#E4513F;" d="M512,204.376c0-38.72-112,23.232-112,51.624h93.336C493.336,243.048,512,217.28,512,204.376z"/>
<path style="fill:#D3463C;" d="M512,307.624c0,38.72-112-23.232-112-51.624h93.336C493.336,268.952,512,294.72,512,307.624z"/>
<path style="fill:#F15642;" d="M416,288c0,35.2-28.8,64-64,64H160c-35.2,0-64-28.8-64-64v-64c0-35.2,28.8-64,64-64h192
	c35.2,0,64,28.8,64,64V288z"/>
<path style="fill:#E4513F;" d="M398.936,180.704c0.656,3.672,1.064,7.44,1.064,11.296v72c0,35.2-28.8,48-56,48H152
	c-26.52,0-43.216-0.024-54.936-12.704C102.448,329.152,128.664,352,160,352h192c35.2,0,64-28.8,64-64v-64
	C416,207.32,409.488,192.128,398.936,180.704z"/>
<g>
	<path style="fill:#FCD063;" d="M320,250.528c0-0.312,0.088-0.632,0.24-0.92l10.424-17.616l-10.424-17.608
		c-0.376-0.68-0.312-1.496,0.168-2.12c0.472-0.6,1.256-0.912,2.04-0.784l20.56,3.36l14.544-14.24
		c0.552-0.536,1.392-0.744,2.152-0.504c0.76,0.24,1.312,0.856,1.432,1.608l3,19.696l18.696,8.808
		c0.704,0.32,1.168,1.024,1.168,1.784l0,0c0,0.76-0.464,1.448-1.168,1.792l-18.696,8.816l-3,19.688
		c-0.12,0.752-0.672,1.384-1.432,1.608c-0.76,0.24-1.592,0.032-2.152-0.504l-14.544-14.24l-20.56,3.36
		c-0.784,0.136-1.568-0.168-2.04-0.784C320.136,251.352,320,250.944,320,250.528z"/>
	<path style="fill:#FCD063;" d="M208,226.528c0-0.312,0.088-0.632,0.24-0.92l10.424-17.616l-10.424-17.608
		c-0.376-0.68-0.312-1.496,0.168-2.12c0.472-0.6,1.256-0.912,2.04-0.784l20.56,3.36l14.544-14.24
		c0.552-0.536,1.392-0.744,2.152-0.504c0.76,0.24,1.312,0.856,1.432,1.608l3,19.696l18.688,8.808
		c0.712,0.32,1.176,1.024,1.176,1.784l0,0c0,0.76-0.464,1.448-1.168,1.792l-18.688,8.816l-3,19.688
		c-0.12,0.752-0.672,1.384-1.432,1.608c-0.76,0.24-1.592,0.032-2.152-0.504l-14.544-14.24l-20.56,3.36
		c-0.784,0.136-1.568-0.168-2.04-0.784C208.136,227.352,208,226.944,208,226.528z"/>
</g>
<path style="fill:#F48473;" d="M224,184h-64c-22.056,0-40,17.944-40,40c0,4.424,3.576,8,8,8c4.424,0,8-3.576,8-8
	c0-13.232,10.768-24,24-24h64c4.424,0,8-3.576,8-8S228.424,184,224,184z"/>
<path style="fill:#FFEEBD;" d="M210.448,187.488c-0.784-0.136-1.568,0.176-2.04,0.784c-0.48,0.624-0.536,1.44-0.168,2.12
	l5.704,9.608H224c4.424,0,8-3.576,8-8c0-0.624-0.216-1.184-0.36-1.784l-0.632,0.624L210.448,187.488z"/>
<g>
	<path style="fill:#FCD063;" d="M280,322.544c0-0.312,0.088-0.64,0.24-0.936L290.664,304l-10.424-17.608
		c-0.376-0.672-0.312-1.488,0.168-2.112c0.472-0.608,1.256-0.92,2.04-0.784l20.56,3.352l14.544-14.24
		c0.552-0.544,1.392-0.736,2.152-0.496s1.312,0.856,1.432,1.608l3,19.688l18.696,8.816c0.704,0.32,1.168,1.008,1.168,1.776l0,0
		c0,0.76-0.464,1.456-1.168,1.792l-18.696,8.824l-3,19.688c-0.12,0.752-0.672,1.376-1.432,1.608s-1.592,0.032-2.152-0.512
		l-14.544-14.24l-20.56,3.352c-0.784,0.144-1.568-0.168-2.04-0.784C280.136,323.36,280,322.952,280,322.544z"/>
	<path style="fill:#FCD063;" d="M152,322.544c0-0.312,0.088-0.64,0.24-0.936L162.664,304l-10.424-17.608
		c-0.376-0.672-0.312-1.488,0.168-2.112c0.472-0.608,1.256-0.92,2.04-0.784l20.56,3.352l14.544-14.24
		c0.552-0.544,1.392-0.736,2.152-0.496s1.312,0.856,1.432,1.608l3,19.688l18.696,8.816c0.712,0.32,1.168,1.008,1.168,1.776l0,0
		c0,0.76-0.464,1.456-1.168,1.792l-18.696,8.824l-3,19.688c-0.12,0.752-0.672,1.376-1.432,1.608s-1.592,0.032-2.152-0.512
		l-14.544-14.24l-20.56,3.352c-0.784,0.144-1.568-0.168-2.04-0.784C152.136,323.36,152,322.952,152,322.544z"/>
</g>
<g>
	<path style="fill:#F7B84E;" d="M189.56,335.392c0.552,0.544,1.392,0.752,2.152,0.512s1.312-0.856,1.432-1.608l3-19.688l5.52-2.608
		h-43.728l-5.688,9.608c-0.16,0.296-0.24,0.624-0.24,0.936c0,0.408,0.136,0.816,0.408,1.168c0.472,0.616,1.256,0.92,2.04,0.784
		l20.56-3.352L189.56,335.392z"/>
	<path style="fill:#F7B84E;" d="M282.448,324.496l20.56-3.352l14.544,14.24c0.552,0.544,1.392,0.752,2.152,0.512
		s1.312-0.856,1.432-1.608l3-19.688l5.52-2.6h-43.728l-5.688,9.608c-0.16,0.296-0.24,0.624-0.24,0.936
		c0,0.408,0.136,0.816,0.408,1.168C280.872,324.336,281.664,324.64,282.448,324.496z"/>
</g>
<path style="fill:#BC3E34;" d="M416,280.12c4.672,4.232,10.112,8.488,16,12.552v-73.344c-5.888,4.072-11.328,8.32-16,12.552V280.12z
	"/>
<g>
</g>
<g>
</g>
<g>
</g>
<g>
</g>
<g>
</g>
<g>
</g>
<g>
</g>
<g>
</g>
<g>
</g>
<g>
</g>
<g>
</g>
<g>
</g>
<g>
</g>
<g>
</g>
<g>
</g>
</svg>
