<?xml version="1.0" encoding="iso-8859-1"?>
<!-- Generator: Adobe Illustrator 19.0.0, SVG Export Plug-In . SVG Version: 6.00 Build 0)  -->
<svg version="1.1" id="Layer_1" xmlns="http://www.w3.org/2000/svg" xmlns:xlink="http://www.w3.org/1999/xlink" x="0px" y="0px"
	 viewBox="0 0 512 512" style="enable-background:new 0 0 512 512;" xml:space="preserve">
<path style="fill:#F15642;" d="M391.997,134.32v170.64c-3.688-0.64-7.44-0.96-11.2-0.96c-42.408,0-76.8,39.2-76.8,87.6
	c0,20.552,6.232,39.52,16.8,54.48l-99.36,53.36c-1.44-18.56-6.16-54.312-22-84.8c-16.96-32.32-49.6-57.44-64.96-68.08l81.52-38.4
	V134.32c0-8.808,7.2-16,16-16h144C384.797,118.32,391.997,125.512,391.997,134.32z"/>
<g>
	<path style="fill:#D3463C;" d="M391.997,304.96v45.36c0,32.32-22.328,69.52-50.72,84.808l-20.48,10.952
		c-10.56-14.952-16.8-33.92-16.8-54.48c0-48.4,34.392-87.6,76.8-87.6C384.557,304,388.309,304.32,391.997,304.96z"/>
	<path style="fill:#D3463C;" d="M221.429,499.44l-1.832,0.96c-12.96,7.52-28.168,11.6-43.52,11.6c-31.36,0-60.64-16.872-76.24-44
		c-11.76-20.4-14.88-44.08-8.8-66.8c6.08-22.72,20.64-41.688,40.96-53.44c0.4-0.248,0.8-0.408,1.2-0.56l1.28-0.64
		c15.36,10.64,48,35.76,64.96,68.08C215.277,445.128,219.997,480.872,221.429,499.44z"/>
</g>
<g>
	<path style="fill:#BC3E34;" d="M189.429,475.44l-1.84,0.96c-12.952,7.52-28.16,11.6-43.52,11.6
		c-12.336,0-24.304-2.696-35.288-7.512C125.317,500.136,149.909,512,176.069,512c15.36,0,30.56-4.08,43.52-11.6l1.832-0.96
		c-0.72-9.32-2.28-22.992-5.648-38.152L189.429,475.44z"/>
	<path style="fill:#BC3E34;" d="M380.797,304c-7.216,0-14.168,1.216-20.8,3.344v18.976c0,32.32-22.328,69.52-50.72,84.808
		l-2.984,1.592c2.704,12.352,7.672,23.704,14.496,33.36l20.488-10.952c28.392-15.288,50.72-52.488,50.72-84.808v-45.36
		C388.309,304.32,384.557,304,380.797,304z"/>
</g>
<g>
	<path style="fill:#D3463C;" d="M288.797,422.08l-73.008,39.208c3.368,15.16,4.928,28.832,5.648,38.152l99.36-53.36
		c-6.832-9.656-11.8-21.008-14.496-33.36L288.797,422.08z"/>
	<path style="fill:#D3463C;" d="M375.997,118.32h-16v162.64v26.384c6.624-2.128,13.576-3.344,20.8-3.344
		c3.768,0,7.512,0.32,11.2,0.96V134.32C391.997,125.512,384.797,118.32,375.997,118.32z"/>
</g>
<path style="fill:#485B6A;" d="M359.997,96c-2.672,0-5.168-1.336-6.656-3.56c-2.592-3.896-25.344-38.648-25.344-60.44
	c0-17.64,14.344-32,32-32c17.64,0,32,14.36,32,32c0,21.8-22.752,56.544-25.344,60.44C365.165,94.664,362.669,96,359.997,96z
	 M359.997,16c-8.832,0-16,7.168-16,16c0,10.56,8.816,28.312,16,40.752c7.168-12.44,16-30.192,16-40.752
	C375.997,23.168,368.813,16,359.997,16z"/>
<rect x="215.997" y="168" style="fill:#E0503E;" width="144" height="24"/>
<rect x="359.997" y="168" style="fill:#C54137;" width="32" height="24"/>
<path style="fill:#E2E5E7;" d="M391.997,245.792l-17.344-26.016c-2.968-4.456-10.344-4.456-13.312,0l-25.344,38.016l-25.344-38.016
	c-2.968-4.456-10.344-4.456-13.312,0l-25.344,38.016l-25.344-38.016c-2.968-4.456-10.344-4.456-13.312,0l-17.344,26.016v28.848
	l24-36l25.344,38.016c2.968,4.456,10.344,4.456,13.312,0l25.344-38.016l25.344,38.016c2.968,4.456,10.344,4.456,13.312,0
	l25.344-38.016l24,36V245.792z"/>
<path style="fill:#CAD1D8;" d="M374.653,219.776c-2.968-4.456-10.344-4.456-13.312,0l-1.344,2.016v28.84l8-12l24,36v-28.848
	L374.653,219.776z"/>
<path style="fill:#E2E5E7;" d="M423.997,136c0,17.6-14.408,32-32,32h-176c-17.6,0-32-14.4-32-32v-16c0-17.6,14.4-32,32-32h176
	c17.592,0,32,14.4,32,32V136z"/>
<path style="fill:#CAD1D8;" d="M215.997,168h176c17.592,0,32-14.4,32-32h-240C183.997,153.6,198.389,168,215.997,168z"/>
<g>
</g>
<g>
</g>
<g>
</g>
<g>
</g>
<g>
</g>
<g>
</g>
<g>
</g>
<g>
</g>
<g>
</g>
<g>
</g>
<g>
</g>
<g>
</g>
<g>
</g>
<g>
</g>
<g>
</g>
</svg>
