<?xml version="1.0" encoding="iso-8859-1"?>
<!-- Generator: Adobe Illustrator 19.0.0, SVG Export Plug-In . SVG Version: 6.00 Build 0)  -->
<svg version="1.1" id="Layer_1" xmlns="http://www.w3.org/2000/svg" xmlns:xlink="http://www.w3.org/1999/xlink" x="0px" y="0px"
	 viewBox="0 0 512 512" style="enable-background:new 0 0 512 512;" xml:space="preserve">
<path style="fill:#E2E5E7;" d="M512,456c0,17.6-14.4,32-32,32H32c-17.6,0-32-14.4-32-32v-64c0-17.6,14.4-32,32-32h448
	c17.6,0,32,14.4,32,32V456z"/>
<circle style="fill:#D3463C;" cx="256" cy="72" r="48"/>
<g>
	<path style="fill:#BC3E34;" d="M280.944,31.048C285.392,38.328,288,46.848,288,56c0,26.504-21.496,48-48,48
		c-9.152,0-17.672-2.608-24.952-7.048C223.48,110.752,238.64,120,256,120c26.504,0,48-21.496,48-48
		C304,54.64,294.752,39.488,280.944,31.048z"/>
	<path style="fill:#BC3E34;" d="M299.472,92.248C285.408,89.488,270.872,88,256,88c-14.88,0-29.408,1.488-43.472,4.248
		C220.168,108.624,236.736,120,256,120C275.256,120,291.832,108.624,299.472,92.248z"/>
</g>
<path style="fill:#F15642;" d="M256,104C132.288,104,32,204.288,32,328v32h448v-32C480,204.288,379.712,104,256,104z"/>
<path style="fill:#E4513F;" d="M256,104c-8.112,0-16.112,0.456-24,1.296C344.424,117.272,432,212.4,432,328v32h48v-32
	C480,204.288,379.712,104,256,104z"/>
<g>
	<circle style="fill:#D3463C;" cx="112" cy="264" r="8"/>
	<circle style="fill:#D3463C;" cx="176" cy="224" r="8"/>
	<circle style="fill:#D3463C;" cx="168" cy="256" r="8"/>
	<circle style="fill:#D3463C;" cx="384" cy="208" r="8"/>
	<path style="fill:#D3463C;" d="M117.528,239.608c0.816,0.264,1.656,0.392,2.472,0.392c3.376,0,6.504-2.152,7.608-5.528
		c17.504-53.832,46.216-92.36,80.728-110.576c-12.456,15.824-23.384,37.976-31.976,65.744c-1.312,4.224,1.056,8.704,5.272,10.008
		c4.216,1.312,8.696-1.064,10.008-5.272c15.888-51.344,39.808-82.064,64.024-82.336c0.44,0,0.872,0.04,1.32,0.048
		c23.992,0.824,47.624,31.408,63.376,82.288c1.064,3.424,4.216,5.624,7.632,5.624c0.792,0,1.584-0.112,2.376-0.36
		c4.216-1.304,6.576-5.784,5.272-10.008c-8.128-26.24-18.32-47.536-29.928-63.168c20.472,12.496,38.984,33.032,55.352,61.512
		c2.192,3.832,7.104,5.152,10.92,2.952c3.832-2.2,5.152-7.096,2.952-10.92c-18.68-32.496-40.832-55.832-65.504-69.544
		C292.304,106.264,274.424,104,256,104c-20.496,0-40.328,2.808-59.184,7.96c-36.352,20.928-66.248,61.664-84.424,117.568
		C111.024,233.728,113.328,238.24,117.528,239.608z"/>
</g>
<g>
	<path style="fill:#CAD1D8;" d="M32,464c-4.416,0-8-3.576-8-8v-64c0-4.424,3.584-8,8-8s8,3.576,8,8v64C40,460.424,36.416,464,32,464
		z"/>
	<path style="fill:#CAD1D8;" d="M480,464c-4.424,0-8-3.576-8-8v-64c0-4.424,3.576-8,8-8c4.416,0,8,3.576,8,8v64
		C488,460.424,484.416,464,480,464z"/>
	<path style="fill:#CAD1D8;" d="M424,464c-4.424,0-8-3.576-8-8v-64c0-4.424,3.576-8,8-8c4.416,0,8,3.576,8,8v64
		C432,460.424,428.416,464,424,464z"/>
	<path style="fill:#CAD1D8;" d="M368,464c-4.424,0-8-3.576-8-8v-64c0-4.424,3.576-8,8-8c4.416,0,8,3.576,8,8v64
		C376,460.424,372.416,464,368,464z"/>
	<path style="fill:#CAD1D8;" d="M312,464c-4.424,0-8-3.576-8-8v-64c0-4.424,3.576-8,8-8c4.416,0,8,3.576,8,8v64
		C320,460.424,316.416,464,312,464z"/>
	<path style="fill:#CAD1D8;" d="M256,464c-4.416,0-8-3.576-8-8v-64c0-4.424,3.584-8,8-8c4.416,0,8,3.576,8,8v64
		C264,460.424,260.416,464,256,464z"/>
	<path style="fill:#CAD1D8;" d="M200,464c-4.416,0-8-3.576-8-8v-64c0-4.424,3.584-8,8-8s8,3.576,8,8v64
		C208,460.424,204.416,464,200,464z"/>
	<path style="fill:#CAD1D8;" d="M144,464c-4.416,0-8-3.576-8-8v-64c0-4.424,3.584-8,8-8s8,3.576,8,8v64
		C152,460.424,148.416,464,144,464z"/>
	<path style="fill:#CAD1D8;" d="M88,464c-4.416,0-8-3.576-8-8v-64c0-4.424,3.584-8,8-8s8,3.576,8,8v64C96,460.424,92.416,464,88,464
		z"/>
</g>
<path style="fill:#D1D9E1;" d="M4.472,472c5.56,9.504,15.776,16,27.528,16h448c11.752,0,21.96-6.496,27.52-16H4.472z"/>
<path style="fill:#EFF0F1;" d="M507.52,376c-5.56-9.504-15.776-16-27.52-16H32c-11.752,0-21.968,6.496-27.528,16H507.52z"/>
<g>
</g>
<g>
</g>
<g>
</g>
<g>
</g>
<g>
</g>
<g>
</g>
<g>
</g>
<g>
</g>
<g>
</g>
<g>
</g>
<g>
</g>
<g>
</g>
<g>
</g>
<g>
</g>
<g>
</g>
</svg>
