<?xml version="1.0" encoding="iso-8859-1"?>
<!-- Generator: Adobe Illustrator 19.0.0, SVG Export Plug-In . SVG Version: 6.00 Build 0)  -->
<svg version="1.1" id="Layer_1" xmlns="http://www.w3.org/2000/svg" xmlns:xlink="http://www.w3.org/1999/xlink" x="0px" y="0px"
	 viewBox="0 0 512 512" style="enable-background:new 0 0 512 512;" xml:space="preserve">
<g>
	<path style="fill:#E4513F;" d="M207.92,0C137.384,0,80,57.416,80,128v256c0,8.832,7.168,16,16,16h224c8.832,0,16-7.168,16-16V240
		v-64v-48C336,57.416,278.464,0,207.92,0z"/>
	<path style="fill:#E4513F;" d="M374.296,160c-13.792,0-27.28,5.128-38.296,13.576v135.768V328l77.216-67.016
		c21.8-21.592,27.352-59.288,1.936-84.488C404.408,165.856,389.896,160,374.296,160z"/>
	<path style="fill:#E4513F;" d="M112,384c0-8.8,7.2-16,16-16h160c8.808,0,16,7.2,16,16v112c0,8.8-7.192,16-16,16H128
		c-8.8,0-16-7.2-16-16V384z"/>
</g>
<path style="fill:#FFFFFF;" d="M288,208h-12.688l10.344-10.344c3.128-3.128,3.128-8.184,0-11.312c-3.128-3.128-8.184-3.128-11.312,0
	L252.688,208h-13.824c-0.768-2.952-1.936-5.712-3.456-8.264l26.088-26.08c3.12-3.128,3.12-8.184,0-11.312
	c-3.128-3.128-8.184-3.128-11.312,0l-26.136,26.128c-2.496-1.456-5.184-2.592-8.048-3.336v-13.824l21.664-21.656
	c3.128-3.128,3.128-8.184,0-11.312s-8.184-3.128-11.312,0L216,148.68V136c0-4.424-3.584-8-8-8s-8,3.576-8,8v12.68l-10.336-10.336
	c-3.128-3.128-8.184-3.128-11.312,0c-3.128,3.128-3.128,8.184,0,11.312L200,171.304v13.832c-2.944,0.768-5.704,1.928-8.256,3.464
	l-26.248-26.248c-3.128-3.128-8.184-3.128-11.312,0c-3.128,3.128-3.128,8.184,0,11.312l26.296,26.296
	c-1.464,2.496-2.592,5.176-3.336,8.048H163.32l-21.656-21.656c-3.128-3.128-8.184-3.128-11.312,0c-3.128,3.128-3.128,8.184,0,11.312
	L140.688,208H128c-4.416,0-8,3.576-8,8c0,4.416,3.584,8,8,8h12.688l-10.344,10.344c-3.128,3.128-3.128,8.184,0,11.312
	c1.568,1.56,3.616,2.344,5.656,2.344c2.04,0,4.096-0.784,5.656-2.344L163.32,224h13.824c0.744,2.856,1.88,5.544,3.336,8.048
	l-26.296,26.296c-3.128,3.128-3.128,8.192,0,11.32c1.56,1.552,3.608,2.336,5.656,2.336c2.048,0,4.096-0.784,5.656-2.344
	l26.248-26.256c2.552,1.512,5.312,2.688,8.256,3.456v13.832l-21.656,21.664c-3.128,3.128-3.128,8.184,0,11.312
	C179.912,295.216,181.96,296,184,296c2.04,0,4.096-0.784,5.656-2.344L200,283.312V296c0,4.424,3.584,8,8,8s8-3.576,8-8v-12.696
	l10.344,10.352c1.568,1.56,3.616,2.344,5.656,2.344s4.096-0.784,5.656-2.344c3.128-3.128,3.128-8.184,0-11.312L216,260.672v-13.824
	c2.864-0.744,5.552-1.872,8.048-3.344l26.136,26.144c1.56,1.568,3.608,2.352,5.656,2.352c2.048,0,4.096-0.784,5.656-2.344
	c3.12-3.128,3.12-8.192,0-11.32l-26.088-26.096c1.52-2.544,2.688-5.312,3.456-8.248h13.824l21.656,21.656
	c1.56,1.568,3.608,2.352,5.656,2.352s4.096-0.784,5.656-2.344c3.128-3.128,3.128-8.184,0-11.312L275.312,224H288
	c4.424,0,8-3.584,8-8C296,211.576,292.424,208,288,208z M192,216c0-8.832,7.176-16,16-16c8.824,0,16,7.168,16,16
	c0,8.824-7.176,16-16,16S192,224.816,192,216z"/>
<path style="fill:#D3463C;" d="M336,173.576V256l20.568-93.16C349.192,165.168,342.2,168.824,336,173.576z"/>
<path style="fill:#F15642;" d="M207.92,0C137.384,0,80,57.416,80,128v256c0,8.832,7.168,16,16,16h16V144
	c0-70.688,57.312-128,128-128c14.136,0,27.688,2.384,40.408,6.608C259.768,8.376,234.808,0,207.92,0z"/>
<g>
	<path style="fill:#D3463C;" d="M96,400c8.832,0,16,7.168,16,16v-16H96z"/>
	<path style="fill:#D3463C;" d="M304,416c0-8.832,7.168-16,16-16h-16V416z"/>
	<rect x="112" y="400" style="fill:#D3463C;" width="192" height="16"/>
	<rect x="136" y="416" style="fill:#D3463C;" width="16" height="96"/>
	<rect x="168" y="416" style="fill:#D3463C;" width="16" height="96"/>
	<rect x="200" y="416" style="fill:#D3463C;" width="16" height="96"/>
	<rect x="232" y="416" style="fill:#D3463C;" width="16" height="96"/>
	<rect x="264" y="416" style="fill:#D3463C;" width="16" height="96"/>
</g>
<g>
</g>
<g>
</g>
<g>
</g>
<g>
</g>
<g>
</g>
<g>
</g>
<g>
</g>
<g>
</g>
<g>
</g>
<g>
</g>
<g>
</g>
<g>
</g>
<g>
</g>
<g>
</g>
<g>
</g>
</svg>
