<?xml version="1.0" encoding="iso-8859-1"?>
<!-- Generator: Adobe Illustrator 19.0.0, SVG Export Plug-In . SVG Version: 6.00 Build 0)  -->
<svg version="1.1" id="Layer_1" xmlns="http://www.w3.org/2000/svg" xmlns:xlink="http://www.w3.org/1999/xlink" x="0px" y="0px"
	 viewBox="0 0 512 512" style="enable-background:new 0 0 512 512;" xml:space="preserve">
<path style="fill:#E2E5E7;" d="M320,0H192c-8.8,0-16,7.2-16,16v232c0,44.184,35.816,80,80,80s80-35.816,80-80V16
	C336,7.2,328.8,0,320,0z"/>
<g>
	<path style="fill:#D1D9E1;" d="M320,0h-64v328c44.184,0,80-35.816,80-80V16C336,7.2,328.8,0,320,0z"/>
	<path style="fill:#D1D9E1;" d="M272,472V320h-32v152c0,0-64,16-64,32c0,4.4,3.6,8,8,8h144c4.4,0,8-3.6,8-8C336,488,272,472,272,472
		z"/>
</g>
<path style="fill:#FCD063;" d="M192,96v152c0,35.344,28.656,64,64,64s64-28.656,64-64V96H192z"/>
<path style="fill:#F7B84E;" d="M256,312c35.344,0,64-28.656,64-64V96h-64V312z"/>
<g>
	<circle style="fill:#FFE3A6;" cx="208" cy="216" r="8"/>
	<circle style="fill:#FFE3A6;" cx="232" cy="232" r="8"/>
	<circle style="fill:#FFE3A6;" cx="224" cy="264" r="8"/>
	<path style="fill:#FFE3A6;" d="M256,296c-4.416,0-8-3.576-8-8s3.584-8,8-8V296z"/>
</g>
<path style="fill:#FCD063;" d="M256,280c4.416,0,8,3.576,8,8s-3.584,8-8,8V280z"/>
<path style="fill:#FFE3A6;" d="M256,144c-4.416,0-8-3.576-8-8s3.584-8,8-8V144z"/>
<path style="fill:#FCD063;" d="M256,128c4.416,0,8,3.576,8,8s-3.584,8-8,8V128z"/>
<circle style="fill:#FFE3A6;" cx="240" cy="200" r="8"/>
<g>
	<circle style="fill:#FCD063;" cx="280" cy="264" r="8"/>
	<circle style="fill:#FCD063;" cx="296" cy="232" r="8"/>
	<circle style="fill:#FCD063;" cx="272" cy="208" r="8"/>
	<circle style="fill:#FCD063;" cx="304" cy="152" r="8"/>
	<circle style="fill:#FCD063;" cx="272" cy="168" r="8"/>
	<circle style="fill:#FCD063;" cx="304" cy="192" r="8"/>
	<circle style="fill:#FCD063;" cx="288" cy="120" r="8"/>
</g>
<circle style="fill:#FFE3A6;" cx="216" cy="168" r="8"/>
<rect x="192" y="64" style="fill:#FFFFFF;" width="128" height="32"/>
<path style="fill:#E2E5E7;" d="M256,320h-16v152c0,0-64,16-64,32c0,4.4,3.6,8,8,8h72V320z"/>
<path style="fill:#D1D9E1;" d="M184,512h72v-8h-80C176,508.4,179.6,512,184,512z"/>
<path style="fill:#C6CFD6;" d="M328,512h-72v-8h80C336,508.4,332.4,512,328,512z"/>
<path style="fill:#FFE3A6;" d="M216,96v32c0,4.424,3.584,8,8,8s8-3.576,8-8V96H216z"/>
<rect x="216" style="fill:#EFF0F1;" width="16" height="64"/>
<g>
</g>
<g>
</g>
<g>
</g>
<g>
</g>
<g>
</g>
<g>
</g>
<g>
</g>
<g>
</g>
<g>
</g>
<g>
</g>
<g>
</g>
<g>
</g>
<g>
</g>
<g>
</g>
<g>
</g>
</svg>
