<?xml version="1.0" encoding="iso-8859-1"?>
<!-- Generator: Adobe Illustrator 19.0.0, SVG Export Plug-In . SVG Version: 6.00 Build 0)  -->
<svg version="1.1" id="Layer_1" xmlns="http://www.w3.org/2000/svg" xmlns:xlink="http://www.w3.org/1999/xlink" x="0px" y="0px"
	 viewBox="0 0 512 512" style="enable-background:new 0 0 512 512;" xml:space="preserve">
<path style="fill:#73AE44;" d="M232,184c-14.848-18.544-24-43.96-24-72V48h-64v64c0,28.04-9.16,53.456-24,72
	c-14.84,18.552-24,43.968-24,72v240c0,8.8,7.192,16,16,16h128c8.8,0,16-7.2,16-16V256C256,227.968,246.84,202.552,232,184z"/>
<path style="fill:#6FA14E;" d="M112,512h128c8.8,0,16-7.2,16-16V256c0-28.032-9.16-53.448-24-72
	c-8.928-11.152-15.736-24.816-19.8-40H176v352H96C96,504.8,103.192,512,112,512z"/>
<path style="fill:#90C660;" d="M176,128h-16c-2.784,24.736-12.88,47.736-27.512,66C119.272,210.512,112,232.528,112,256v240h8
	c9.296-14.52,28.168-24,56-24V128z"/>
<path style="fill:#73AE44;" d="M176,128h16c2.784,24.736,12.88,47.736,27.504,66C232.72,210.512,240,232.528,240,256v240h-8
	c-9.304-14.52-28.168-24-56-24V128z"/>
<path style="fill:#D1D9E1;" d="M376,480V368h-32v112c0,0-40,16-40,24c0,4.4,3.6,8,8,8h96c4.4,0,8-3.6,8-8C416,496,376,480,376,480z"
	/>
<path style="fill:#E2E5E7;" d="M360,368h-16v112c0,0-40,16-40,24c0,4.4,3.6,8,8,8h48V368z"/>
<path style="fill:#84BD5A;" d="M152,0c-4.4,0-8,3.6-8,8v16h32V8V0H152z"/>
<path style="fill:#73AE44;" d="M200,0h-24v8v16h32V8C208,3.6,204.4,0,200,0z"/>
<path style="fill:#90C660;" d="M144,24c-4.4,0-8,3.6-8,8v8c0,4.4,3.6,8,8,8h32v-8v-8v-8H144z"/>
<path style="fill:#84BD5A;" d="M208,24h-32v8v8v8h32c4.4,0,8-3.6,8-8v-8C216,27.6,212.4,24,208,24z"/>
<path style="fill:#FCD063;" d="M120,184c-8.92,11.16-15.736,24.816-19.8,40h151.584c-4.064-15.184-10.864-28.84-19.792-40
	c-14.848-18.544-24-43.96-24-72V48H144v64C144,140.04,134.84,165.456,120,184z"/>
<g>
	<path style="fill:#F7B84E;" d="M176,48v176h75.792c-4.064-15.184-10.864-28.84-19.792-40c-14.848-18.544-24-43.96-24-72V48H176z"/>
	<rect x="144" y="48" style="fill:#F7B84E;" width="32" height="8"/>
</g>
<rect x="176" y="48" style="fill:#D89C45;" width="32" height="8"/>
<rect x="96" y="320" style="fill:#FCD063;" width="80" height="96"/>
<rect x="176" y="320" style="fill:#F7B84E;" width="80" height="96"/>
<rect x="112" y="336" style="fill:#FFE3A6;" width="128" height="64"/>
<g>
	<circle style="fill:#90C660;" cx="200" cy="456" r="8"/>
	<circle style="fill:#90C660;" cx="224" cy="432" r="8"/>
	<circle style="fill:#90C660;" cx="200" cy="304" r="8"/>
</g>
<path style="fill:#35495C;" d="M244.2,203.624c-3.448-7.128-7.504-13.752-12.2-19.624c-1.984-2.48-3.84-5.096-5.616-7.8L176,212.968
	v40.168L224,288v-40l-20.408-14.888L244.2,203.624z"/>
<path style="fill:#485B6A;" d="M107.8,203.624c3.44-7.128,7.496-13.752,12.2-19.624c1.976-2.48,3.84-5.096,5.608-7.8L176,212.968
	v40.168L128,288v-40l20.408-14.888L107.8,203.624z"/>
<circle style="fill:#F15642;" cx="176" cy="232" r="32"/>
<g>
	<path style="fill:#D3463C;" d="M176,248c-8.832,0-16-7.168-16-16s7.168-16,16-16V248z"/>
	<path style="fill:#D3463C;" d="M176,200c17.672,0,32,14.328,32,32s-14.328,32-32,32V200z"/>
</g>
<path style="fill:#F15642;" d="M176,216c8.832,0,16,7.168,16,16s-7.168,16-16,16V216z"/>
<path style="fill:#E2E5E7;" d="M392,176h-64c-8.808,0-16,7.2-16,16v136c0,26.504,21.496,48,48,48s48-21.496,48-48V192
	C408,183.2,400.8,176,392,176z"/>
<path style="fill:#D1D9E1;" d="M392,176h-32v200c26.504,0,48-21.496,48-48V192C408,183.2,400.8,176,392,176z"/>
<rect x="328" y="216" style="fill:#FFFFFF;" width="64" height="16"/>
<path style="fill:#FCD063;" d="M328,232v96c0,17.672,14.328,32,32,32s32-14.328,32-32v-96H328z"/>
<path style="fill:#F7B84E;" d="M360,360c17.672,0,32-14.328,32-32v-96h-32V360z"/>
<circle style="fill:#FFE3A6;" cx="344" cy="280" r="8"/>
<g>
	<circle style="fill:#FCD063;" cx="376" cy="336" r="8"/>
	<circle style="fill:#FCD063;" cx="376" cy="264" r="8"/>
</g>
<path style="fill:#FFE3A6;" d="M360,320c-4.424,0-8-3.576-8-8s3.576-8,8-8V320z"/>
<path style="fill:#FCD063;" d="M360,304c4.416,0,8,3.576,8,8s-3.584,8-8,8V304z"/>
<g>
</g>
<g>
</g>
<g>
</g>
<g>
</g>
<g>
</g>
<g>
</g>
<g>
</g>
<g>
</g>
<g>
</g>
<g>
</g>
<g>
</g>
<g>
</g>
<g>
</g>
<g>
</g>
<g>
</g>
</svg>
