<?xml version="1.0" encoding="iso-8859-1"?>
<!-- Generator: Adobe Illustrator 19.0.0, SVG Export Plug-In . SVG Version: 6.00 Build 0)  -->
<svg version="1.1" id="Layer_1" xmlns="http://www.w3.org/2000/svg" xmlns:xlink="http://www.w3.org/1999/xlink" x="0px" y="0px"
	 viewBox="0 0 512.013 512.013" style="enable-background:new 0 0 512.013 512.013;" xml:space="preserve">
<path style="fill:#FEC461;" d="M256.007,279.993L1.287,195.121c2.08-5.28,6.8-9.128,12.4-9.92l157.52-23.2L256.007,279.993z"/>
<path style="fill:#F7B84E;" d="M256.007,279.993v146.96l-140.88,75.2c-5.44,2.88-11.912,2.408-16.88-1.28L256.007,279.993z"/>
<path style="fill:#FEC461;" d="M256.007,279.993L98.239,500.865c-4.872-3.592-7.36-9.752-6.312-15.912l26.872-159.192
	L256.007,279.993z"/>
<path style="fill:#F7B84E;" d="M256.007,279.993l-137.2,45.768L4.879,212.953c-4.392-4.32-6-10.808-4.08-16.64
	c0.168-0.4,0.24-0.808,0.488-1.192L256.007,279.993z"/>
<path style="fill:#FEC461;" d="M256.007,7.993v272l-84.8-118l70.48-144.96C244.327,11.505,249.927,7.993,256.007,7.993z"/>
<path style="fill:#F7B84E;" d="M340.807,161.993l-84.8,118v-272c6.08,0,11.68,3.512,14.32,9.04L340.807,161.993z"/>
<path style="fill:#FEC461;" d="M510.727,195.121l-254.72,84.872l84.8-118l157.52,23.2
	C503.927,185.993,508.647,189.833,510.727,195.121z"/>
<path style="fill:#F7B84E;" d="M507.207,212.953l-114,112.808l-137.2-45.768l254.72-84.872c0.24,0.392,0.32,0.8,0.488,1.192
	C513.127,202.153,511.527,208.633,507.207,212.953z"/>
<path style="fill:#FEC461;" d="M413.767,500.865l-157.76-220.872l137.2,45.768l26.88,159.192
	C421.127,491.121,418.647,497.273,413.767,500.865z"/>
<path style="fill:#F7B84E;" d="M413.767,500.865c-4.96,3.688-11.44,4.168-16.872,1.28l-140.888-75.192v-146.96L413.767,500.865z"/>
<g>
</g>
<g>
</g>
<g>
</g>
<g>
</g>
<g>
</g>
<g>
</g>
<g>
</g>
<g>
</g>
<g>
</g>
<g>
</g>
<g>
</g>
<g>
</g>
<g>
</g>
<g>
</g>
<g>
</g>
</svg>
