<?xml version="1.0" encoding="iso-8859-1"?>
<!-- Generator: Adobe Illustrator 19.0.0, SVG Export Plug-In . SVG Version: 6.00 Build 0)  -->
<svg version="1.1" id="Layer_1" xmlns="http://www.w3.org/2000/svg" xmlns:xlink="http://www.w3.org/1999/xlink" x="0px" y="0px"
	 viewBox="0 0 512 512" style="enable-background:new 0 0 512 512;" xml:space="preserve">
<g>
	<path style="fill:#A2593E;" d="M392.156,257.288V241.32c-16.272,1.6-35.016,3.712-45.456,4.896
		c0.616,4.512,1.488,9.936,2.464,15.72C362.94,260.376,396.468,256.856,392.156,257.288z"/>
	<path style="fill:#A2593E;" d="M416.708,239.264c-2.08,0.104-4.64,0.28-7.504,0.504v15.992c-0.192,0.016-0.44,0.048-0.64,0.064
		c3.128-0.248,5.92-0.456,8.152-0.56c26.96-1.36,47.288-21.936,47.288-47.872c-0.008-2.72-0.008-7.392-0.008-15.392
		C460.284,214.032,440.812,238.048,416.708,239.264z"/>
	<path style="fill:#A2593E;" d="M95.308,239.264C71.188,238.048,51.7,214.024,47.996,192c0,8,0,12.672,0,15.392
		c0,25.936,20.336,46.512,47.312,47.872c2.072,0.104,4.632,0.28,7.488,0.496v-15.992c4.912,0.392,10.784,0.928,17.048,1.544v15.992
		c15.072,1.488,32.248,3.408,42.992,4.624c0.976-5.784,1.84-11.2,2.464-15.72C148.5,244.296,110.196,240.016,95.308,239.264z"/>
</g>
<path style="fill:#E2E5E7;" d="M119.836,257.312c-6.256-0.608-12.136-1.16-17.048-1.536v-16c4.912,0.392,10.784,0.928,17.048,1.544
	V257.312z"/>
<g>
	<path style="fill:#A2593E;" d="M334.372,143.512c6.216-12.12,9.624-25.656,9.624-39.792c0-2.624-0.168-5.216-0.4-7.8
		c-1.632,17.664-8.496,34.128-19.736,47.592H334.372z"/>
	<path style="fill:#A2593E;" d="M188.124,143.512c-11.232-13.472-18.104-29.928-19.736-47.592c-0.232,2.576-0.392,5.176-0.392,7.8
		c0,14.144,3.408,27.672,9.624,39.8h10.504V143.512z"/>
	<path style="fill:#A2593E;" d="M390.652,478.4c-9.264,10.848-24.08,17.6-38.656,17.6c-30.168,0-47.872-14.48-55.76-45.56
		c-2.592-10.224-6.168-20.168-9.968-30.712c-5.696-15.808-11.576-32.168-14.192-50.176c-0.024-0.168-2.632-17.096-16.08-17.096
		c-11.336,0-15.448,12.264-16.072,17c-3.024,22.784-10.52,43.312-17.784,63.16c-2.248,6.16-4.488,12.28-6.568,18.432
		C206.164,478.776,184.868,496,159.996,496c-14.576,0-29.392-6.752-38.656-17.6c-4.496-5.256-8.352-17.824-9.72-24.032
		c-0.144,0.744,0.48,8.128,0.48,8.848c0,11.784,1.496,22.112,9.24,31.176C130.604,505.248,145.412,512,159.996,512
		c24.872,0,46.168-17.224,55.576-44.96c2.088-6.152,4.32-12.272,6.568-18.432c7.256-19.848,14.76-40.376,17.784-63.16
		c0.624-4.736,4.736-17,16.072-17c13.448,0,16.056,16.92,16.08,17.096c2.616,18.016,8.496,34.376,14.192,50.176
		c3.8,10.536,7.376,20.488,9.968,30.712C304.124,497.52,321.828,512,351.996,512c14.576,0,29.392-6.752,38.656-17.6
		c7.752-9.072,9.24-19.088,9.24-31.176c0-1.016,0.296-5.216,0.464-9.216C399.092,460.552,395.372,472.872,390.652,478.4z"/>
</g>
<path style="fill:#C56C4D;" d="M351.996,496c-30.168,0-47.872-14.48-55.76-45.56c-2.592-10.224-6.168-20.168-9.968-30.712
	c-5.696-15.808-11.576-32.168-14.192-50.176c-0.024-0.168-2.632-17.096-16.08-17.096c-11.336,0-15.448,12.264-16.072,17
	c-3.024,22.784-10.52,43.312-17.784,63.16c-2.248,6.16-4.488,12.28-6.568,18.432C206.164,478.776,184.868,496,159.996,496
	c-14.576,0-29.392-6.752-38.656-17.6c-7.752-9.072-11.032-20.152-9.24-31.176c2.632-16.2,10.616-38.248,19.072-61.576
	c8.392-23.168,17.072-47.136,20.984-66.656c3.376-16.832,10.424-53,13.144-72.768c-16.792-1.92-55.096-6.2-69.984-6.952
	c-26.984-1.368-47.32-21.944-47.32-47.88c0-26.4,21.408-47.872,47.712-47.872h92.424c-12.968-15.536-20.136-35.048-20.136-55.8
	c0-48.368,39.472-87.72,88-87.72s88,39.352,88,87.72c0,20.752-7.168,40.264-20.136,55.8h92.44c26.296,0,47.696,21.48,47.696,47.872
	c0,25.936-20.328,46.512-47.288,47.872c-14.904,0.752-53.208,5.032-70.008,6.952c2.72,19.776,9.768,55.936,13.144,72.768
	c3.912,19.52,12.592,43.48,20.984,66.64c8.456,23.344,16.44,45.384,19.072,61.592c1.792,11.032-1.496,22.112-9.24,31.176
	C381.388,489.248,366.572,496,351.996,496z"/>
<path style="fill:#B36345;" d="M272.076,369.544c2.616,18.016,8.496,34.376,14.192,50.176c3.8,10.536,7.376,20.488,9.968,30.712
	C304.124,481.52,321.828,496,351.996,496c14.576,0,29.392-6.752,38.656-17.6c7.752-9.072,11.032-20.152,9.24-31.176
	c-2.632-16.208-10.616-38.248-19.072-61.592c-8.392-23.168-17.072-47.12-20.984-66.64c-3.376-16.832-10.424-52.992-13.144-72.768
	c16.8-1.92,55.104-6.2,70.008-6.952c26.96-1.36,47.288-21.936,47.288-47.872c0-26.4-21.4-47.872-47.696-47.872H323.86
	c12.968-15.544,20.136-35.056,20.136-55.808c0-48.368-39.48-87.72-88-87.72v352.456
	C269.444,352.456,272.052,369.376,272.076,369.544z"/>
<g>
	<path style="fill:#FFFFFF;" d="M294.78,98.264C293.524,96.84,291.5,96,289.324,96H222.66c-2.168,0-4.2,0.84-5.456,2.264
		c-1.248,1.416-1.56,3.232-0.832,4.864C223.156,118.24,238.7,128,255.996,128s32.84-9.76,39.616-24.864
		C296.34,101.504,296.028,99.68,294.78,98.264z"/>
	<circle style="fill:#FFFFFF;" cx="223.996" cy="64" r="16"/>
	<circle style="fill:#FFFFFF;" cx="287.996" cy="64" r="16"/>
</g>
<g>
	<circle style="fill:#FCD063;" cx="255.996" cy="240" r="16"/>
	<circle style="fill:#FCD063;" cx="255.996" cy="192" r="16"/>
	<circle style="fill:#FCD063;" cx="255.996" cy="288" r="16"/>
</g>
<g>
	<path style="fill:#F7B84E;" d="M262.556,273.44c0.904,2,1.44,4.216,1.44,6.56c0,8.84-7.16,16-15.992,16
		c-2.352,0-4.56-0.528-6.568-1.44c2.504,5.56,8.072,9.44,14.56,9.44c8.84,0,16-7.16,16-16
		C271.996,281.504,268.116,275.936,262.556,273.44z"/>
	<path style="fill:#F7B84E;" d="M262.556,225.44c0.904,2,1.44,4.216,1.44,6.56c0,8.84-7.16,16-15.992,16
		c-2.352,0-4.56-0.528-6.568-1.44c2.504,5.56,8.072,9.44,14.56,9.44c8.84,0,16-7.16,16-16
		C271.996,233.504,268.116,227.936,262.556,225.44z"/>
	<path style="fill:#F7B84E;" d="M262.556,177.44c0.904,2,1.44,4.216,1.44,6.56c0,8.84-7.16,16-15.992,16
		c-2.352,0-4.56-0.528-6.568-1.44c2.504,5.56,8.072,9.44,14.56,9.44c8.84,0,16-7.16,16-16
		C271.996,185.504,268.116,179.936,262.556,177.44z"/>
</g>
<g>
	<path style="fill:#FFFFFF;" d="M415.116,194.816l-14.16,28.408l8.24,16.552c-4.88,0.4-10.808,0.88-17.048,1.52l-7.272-14.488
		c-1.2-2.232-1.2-4.952,0-7.2l14.16-28.392l-14.16-28.408c-1.2-2.232-1.2-4.952,0-7.2l6.232-12.392h17.84l-8,16l14.16,28.392
		C416.316,189.856,416.316,192.576,415.116,194.816z"/>
	<path style="fill:#FFFFFF;" d="M393.196,421.664l-18.96-4.32l-25.68,18c-1.84,1.28-4.088,1.768-6.32,1.28l-32-7.28l-16.808,11.784
		c-1.592-5.2-3.44-11.096-5.36-16.376l15.928-10.528c1.84-1.28,4.16-1.76,6.32-1.28l32,7.28l25.68-18c1.84-1.28,4.16-1.76,6.32-1.28
		l12.8,2.88C389.356,409.984,391.356,415.984,393.196,421.664z"/>
	<path style="fill:#FFFFFF;" d="M224.468,426.224c-0.872,2.4-1.44,4.552-2.32,6.96c-1.04,2.8-2,5.592-3.04,8.312l-17.36-12.16
		l-32,7.28c-2.16,0.488-4.48,0-6.32-1.28l-25.68-18l-18.96,4.32c1.84-5.68,3.84-11.68,6.088-17.832l12.8-2.88
		c2.168-0.48,4.48,0,6.32,1.28l25.68,18l32-7.28c2.168-0.48,4.48,0,6.32,1.28L224.468,426.224z"/>
	<path style="fill:#FFFFFF;" d="M127.108,219.608c1.2,2.248,1.2,4.968,0,7.2l-7.272,14.488c-6.24-0.64-12.168-1.128-17.048-1.52
		l8.24-16.552l-14.16-28.408c-1.2-2.232-1.2-4.952,0-7.2l14.16-28.392l-8-16h17.92l6.16,12.392c1.2,2.248,1.2,4.968,0,7.2
		l-14.16,28.408L127.108,219.608z"/>
</g>
<g>
	<path style="fill:#E2E5E7;" d="M288.076,441.344c1.944,5.44,3.72,10.832,5.36,16.152v-16.368c-1.64-5.328-3.416-10.936-5.36-16.376
		V441.344z"/>
	<path style="fill:#E2E5E7;" d="M224.468,442.224c-1.944,5.44-3.72,9.96-5.36,15.272v-16c1.64-5.312,3.416-9.832,5.36-15.272
		V442.224z"/>
	<path style="fill:#E2E5E7;" d="M392.156,257.288c6.256-0.616,12.136-1.136,17.048-1.52v-16.016
		c-4.912,0.392-10.784,0.92-17.048,1.544V257.288z"/>
</g>
<g>
</g>
<g>
</g>
<g>
</g>
<g>
</g>
<g>
</g>
<g>
</g>
<g>
</g>
<g>
</g>
<g>
</g>
<g>
</g>
<g>
</g>
<g>
</g>
<g>
</g>
<g>
</g>
<g>
</g>
</svg>
