<?xml version="1.0" encoding="iso-8859-1"?>
<!-- Generator: Adobe Illustrator 19.0.0, SVG Export Plug-In . SVG Version: 6.00 Build 0)  -->
<svg version="1.1" id="Layer_1" xmlns="http://www.w3.org/2000/svg" xmlns:xlink="http://www.w3.org/1999/xlink" x="0px" y="0px"
	 viewBox="0 0 512 512" style="enable-background:new 0 0 512 512;" xml:space="preserve">
<path style="fill:#FCD063;" d="M432,384c-16,0-16-14.352-16-32c0,0-8-256-104-256H200C104,96,96,352,96,352c0,17.648,0,32-16,32
	c-24,0-32,15.456-32,32c0,17.648,8,32,32,32h352c24,0,32-14.352,32-32C464,399.456,456,384,432,384z"/>
<path style="fill:#F7B84E;" d="M432,384c-16,0-16-14.352-16-32c0,0-8-256-104-256h-64c96,0,88,256,88,256c0,32,16,96,56,96h40
	c24,0,32-14.352,32-32C464,399.456,456,384,432,384z"/>
<path style="fill:#F15642;" d="M279.56,103.048l80.624,31.296c13.096,5.088,23.816-1.952,23.816-15.64V72l-128,8
	C257.288,88.272,267.32,98.304,279.56,103.048z"/>
<path style="fill:#FFEEBD;" d="M162.568,360c-4.304,0-7.848-3.416-7.992-7.744c-0.112-3.4-2.504-84.08,13.624-154.056
	c1-4.312,5.312-6.976,9.592-6c4.304,0.992,6.992,5.288,6,9.592c-15.656,67.904-13.256,149.136-13.224,149.944
	c0.144,4.416-3.328,8.112-7.736,8.248C162.744,360,162.656,360,162.568,360z"/>
<path style="fill:#F7B84E;" d="M320,448c0,35.352-28.656,64-64,64c-35.352,0-64-28.648-64-64"/>
<path style="fill:#D89C45;" d="M317.904,464c1.32-5.128,2.096-10.464,2.096-16H192c0,5.536,0.776,10.872,2.096,16H317.904z"/>
<rect x="240" y="40" style="fill:#FCD063;" width="32" height="56"/>
<rect x="256" y="40" style="fill:#F7B84E;" width="16" height="56"/>
<circle style="fill:#FCD063;" cx="256" cy="24" r="24"/>
<path style="fill:#F7B84E;" d="M268.44,3.56C270.656,7.2,272,11.432,272,16c0,13.248-10.744,24-24,24
	c-4.568,0-8.8-1.344-12.432-3.56C239.784,43.344,247.32,48,256,48c13.248,0,24-10.752,24-24C280,15.312,275.344,7.784,268.44,3.56z"
	/>
<path style="fill:#F15642;" d="M232.44,103.048l-80.624,31.296c-13.104,5.088-23.816-1.952-23.816-15.64V72l128,8
	C254.712,88.272,244.68,98.304,232.44,103.048z"/>
<g>
	<path style="fill:#E4513F;" d="M279.56,56.952l80.624-31.296C373.28,20.568,384,27.608,384,41.296V80H256
		C257.288,71.728,267.32,61.696,279.56,56.952z"/>
	<path style="fill:#E4513F;" d="M232.44,56.952l-80.624-31.296C138.712,20.568,128,27.608,128,41.296V80h128
		C254.712,71.728,244.68,61.696,232.44,56.952z"/>
</g>
<g>
	<path style="fill:#D3463C;" d="M232.44,56.952l-6.848-2.664C219.696,61.256,216,70.16,216,80s3.696,18.744,9.592,25.712
		l6.848-2.664C244.68,98.304,254.712,88.272,256,80C254.712,71.728,244.68,61.696,232.44,56.952z"/>
	<path style="fill:#D3463C;" d="M256,80c1.288,8.272,11.32,18.304,23.56,23.048l6.84,2.664C292.304,98.744,296,89.84,296,80
		s-3.696-18.744-9.592-25.712l-6.84,2.664C267.32,61.696,257.288,71.728,256,80z"/>
</g>
<circle style="fill:#F15642;" cx="256" cy="80" r="32"/>
<g>
</g>
<g>
</g>
<g>
</g>
<g>
</g>
<g>
</g>
<g>
</g>
<g>
</g>
<g>
</g>
<g>
</g>
<g>
</g>
<g>
</g>
<g>
</g>
<g>
</g>
<g>
</g>
<g>
</g>
</svg>
